<svg xmlns="http://www.w3.org/2000/svg" xmlns:xlink="http://www.w3.org/1999/xlink" width="98" height="98" viewBox="0 0 98 98">
  <defs>
    <filter id="Path_874925" x="0" y="0" width="98" height="98" filterUnits="userSpaceOnUse">
      <feOffset dy="3" input="SourceAlpha"/>
      <feGaussianBlur stdDeviation="3" result="blur"/>
      <feFlood flood-opacity="0.161"/>
      <feComposite operator="in" in2="blur"/>
      <feComposite in="SourceGraphic"/>
    </filter>
  </defs>
  <g id="Group_1201015" data-name="Group 1201015" transform="translate(162 9219.999)">
    <g id="Group_1201014" data-name="Group 1201014" transform="translate(0 342)">
      <g id="Group_1200988" data-name="Group 1200988" transform="translate(-913 -19042.008)">
        <g id="Group_1200825" data-name="Group 1200825" transform="translate(475 3388.602)">
          <g id="Group_1187153" data-name="Group 1187153">
            <g id="Group_1182177" data-name="Group 1182177">
              <g id="Group_1181903" data-name="Group 1181903">
                <g id="Group_1181438" data-name="Group 1181438">
                  <g id="Group_1111314" data-name="Group 1111314" transform="translate(-734.73 3020.407)">
                    <g transform="matrix(1, 0, 0, 1, 1010.73, 3071)" filter="url(#Path_874925)">
                      <g id="Path_874925-2" data-name="Path 874925" transform="translate(9 6)" fill="#ffc94a">
                        <path d="M 39.99997329711914 78.50040435791016 C 34.80184936523438 78.50040435791016 29.76000595092773 77.48268127441406 25.01450729370117 75.47550201416016 C 20.43013954162598 73.53648376464844 16.3126392364502 70.76027679443359 12.7763843536377 67.22402191162109 C 9.240128517150879 63.68776702880859 6.463928699493408 59.57027053833008 4.524906635284424 54.98590087890625 C 2.517728805541992 50.24040222167969 1.500006675720215 45.19855880737305 1.500006675720215 40.00043487548828 C 1.500006675720215 34.80185699462891 2.517728805541992 29.76001358032227 4.524906635284424 25.01451301574707 C 6.463928699493408 20.43013572692871 9.240128517150879 16.31263542175293 12.7763843536377 12.77637958526611 C 16.3126392364502 9.240124702453613 20.43013954162598 6.463935375213623 25.01450729370117 4.52490234375 C 29.76000595092773 2.517724514007568 34.80184936523438 1.500002145767212 39.99997329711914 1.500002145767212 C 45.19809722900391 1.500002145767212 50.23994064331055 2.517724514007568 54.98543930053711 4.52490234375 C 59.56981658935547 6.463935375213623 63.68731689453125 9.240124702453613 67.22357177734375 12.77637958526611 C 70.75982666015625 16.31263542175293 73.53601837158203 20.43013572692871 75.47505187988281 25.01451301574707 C 77.48223114013672 29.76001358032227 78.49995422363281 34.80185699462891 78.49995422363281 39.99998092651367 C 78.49995422363281 45.19855880737305 77.48223114013672 50.24040222167969 75.47505187988281 54.98590087890625 C 73.53601837158203 59.57027053833008 70.75982666015625 63.68776702880859 67.22357177734375 67.22402191162109 C 63.68731689453125 70.76027679443359 59.56981658935547 73.53648376464844 54.98543930053711 75.47550201416016 C 50.23994064331055 77.48268127441406 45.19809722900391 78.50040435791016 39.99997329711914 78.50040435791016 Z" stroke="none"/>
                        <path d="M 39.99997329711914 3 C 35.00369262695312 3 30.15843963623047 3.977851867675781 25.59883880615234 5.906417846679688 C 21.19326782226562 7.769813537597656 17.23602676391602 10.43805694580078 13.83704376220703 13.83704376220703 C 10.43805694580078 17.23601531982422 7.769813537597656 21.19325637817383 5.906410217285156 25.59882736206055 C 3.977851867675781 30.15844345092773 3 35.00368118286133 3 40.00042724609375 C 3 44.99672317504883 3.977851867675781 49.84196472167969 5.906410217285156 54.40157318115234 C 7.769813537597656 58.80714797973633 10.43805694580078 62.76438903808594 13.83704376220703 66.16336059570312 C 17.23602676391602 69.56234741210938 21.19326782226562 72.2305908203125 25.59883880615234 74.09398651123047 C 30.15843963623047 76.02255249023438 35.00369262695312 77.00040435791016 39.99997329711914 77.00040435791016 C 44.99625396728516 77.00040435791016 49.84150695800781 76.02255249023438 54.40110778808594 74.09398651123047 C 58.80667877197266 72.2305908203125 62.76391983032227 69.56234741210938 66.16290283203125 66.16336059570312 C 69.5618896484375 62.76438903808594 72.23013305664062 58.80714797973633 74.09353637695312 54.40157318115234 C 76.0220947265625 49.84196472167969 76.99994659423828 44.99672317504883 76.99994659423828 39.99997711181641 C 76.99994659423828 35.00368118286133 76.0220947265625 30.15844345092773 74.09353637695312 25.59882736206055 C 72.23013305664062 21.19325637817383 69.5618896484375 17.23601531982422 66.16290283203125 13.83704376220703 C 62.76391983032227 10.43805694580078 58.80667877197266 7.769813537597656 54.40110778808594 5.906417846679688 C 49.84150695800781 3.977851867675781 44.99625396728516 3 39.99997329711914 3 M 39.99997329711914 0 C 62.09134674072266 0 79.99994659423828 17.90858840942383 79.99994659423828 39.99997711181641 L 79.99994659423828 40.00042724609375 C 79.99994659423828 62.09181594848633 62.09134674072266 80.00040435791016 39.99997329711914 80.00040435791016 C 17.90859985351562 80.00040435791016 0 62.09181594848633 0 40.00042724609375 L 0 39.99997711181641 C 0 17.90858840942383 17.90859985351562 0 39.99997329711914 0 Z" stroke="none" fill="#fff"/>
                      </g>
                    </g>
                  </g>
                </g>
              </g>
            </g>
          </g>
        </g>
      </g>
    </g>
    <g id="_03-warm_hot" data-name="03-warm hot" transform="translate(-136.249 -9198)">
      <path id="Path_1242766" data-name="Path 1242766" d="M19,27.515V8A7,7,0,1,0,5,8V27.515a11,11,0,1,0,14,0Z" fill="#e9edf5"/>
      <path id="Path_1242767" data-name="Path 1242767" d="M16,29.079V8A4,4,0,1,0,8,8V29.079a8,8,0,1,0,8,0Z" fill="#cdd2e1"/>
      <path id="Path_1242768" data-name="Path 1242768" d="M12,41a8,8,0,0,1-7.849-6.464,8,8,0,1,0,15.7,0A8,8,0,0,1,12,41Z" fill="#9da3b5"/>
      <path id="Path_1242769" data-name="Path 1242769" d="M23,36a10.975,10.975,0,0,0-4-8.485V8a7,7,0,0,0-7-7V4a4,4,0,0,1,4,4V29.079a7.99,7.99,0,0,1,3.943,6.081A6.849,6.849,0,0,1,20,36a8,8,0,0,1-8,8v3A11,11,0,0,0,23,36Z" fill="#f7faff"/>
      <path id="Path_1242770" data-name="Path 1242770" d="M19.849,34.536c.038.206.068.414.094.624A7.99,7.99,0,0,0,16,29.079V8a4,4,0,0,0-4-4V41a8,8,0,0,0,7.849-6.464Z" fill="#dce1eb"/>
      <path id="Path_1242771" data-name="Path 1242771" d="M12,41v3a7.888,7.888,0,0,0,7.943-8.84c-.026-.21-.056-.418-.094-.624A8,8,0,0,1,12,41Z" fill="#afb4c8"/>
      <path id="Path_1242772" data-name="Path 1242772" d="M12,41v3a7.888,7.888,0,0,0,7.943-8.84c-.026-.21-.056-.418-.094-.624A8,8,0,0,1,12,41Z" fill="#f03049"/>
      <path id="Path_1242773" data-name="Path 1242773" d="M16,29.079V13H12V41a8,8,0,0,0,7.843-6.439A7.983,7.983,0,0,0,16,29.079Z" fill="#ff636e"/>
      <path id="Path_1242774" data-name="Path 1242774" d="M12,41v3a7.888,7.888,0,0,1-7.943-8.84c.026-.21.056-.418.094-.624A8,8,0,0,0,12,41Z" fill="#a30034"/>
      <path id="Path_1242775" data-name="Path 1242775" d="M8,29.079V13h4V41a8,8,0,0,1-7.843-6.439A7.983,7.983,0,0,1,8,29.079Z" fill="#d1093a"/>
      <ellipse id="Ellipse_12360" data-name="Ellipse 12360" cx="1.642" cy="2.286" rx="1.642" ry="2.286" transform="translate(12.897 35.25) rotate(-45)" fill="#f6fafd"/>
      <ellipse id="Ellipse_12361" data-name="Ellipse 12361" cx="0.825" cy="1.148" rx="0.825" ry="1.148" transform="translate(15.278 32.49) rotate(-45)" fill="#f6fafd"/>
      <circle id="Ellipse_12362" data-name="Ellipse 12362" cx="6" cy="6" r="6" transform="translate(29 10)" fill="#ffd747"/>
      <path id="Path_1242776" data-name="Path 1242776" d="M31,12c0-.164.012-.325.025-.485a6,6,0,1,0,9.95,4.97A5.992,5.992,0,0,1,31,12Z" fill="#ffb13b"/>
      <path id="Path_1242777" data-name="Path 1242777" d="M30,16a5,5,0,0,1,9.715-1.669l1.886-.667A7,7,0,0,0,28,16Z"/>
      <path id="Path_1242778" data-name="Path 1242778" d="M40,16a5,5,0,0,1-9.716,1.665l-1.886.666A7,7,0,0,0,42,16Z"/>
      <path id="Path_1242779" data-name="Path 1242779" d="M34,4h2V8H34Z"/>
      <path id="Path_1242780" data-name="Path 1242780" d="M34,24h2v4H34Z"/>
      <path id="Path_1242781" data-name="Path 1242781" d="M43,15h4v2H43Z"/>
      <path id="Path_1242782" data-name="Path 1242782" d="M23,15h4v2H23Z"/>
      <path id="Path_1242783" data-name="Path 1242783" d="M40.071,7.929h4v2h-4Z" transform="translate(6.009 32.364) rotate(-45)"/>
      <path id="Path_1242784" data-name="Path 1242784" d="M25.929,22.071h4v2h-4Z" transform="translate(-8.133 26.506) rotate(-45)"/>
      <path id="Path_1242785" data-name="Path 1242785" d="M41.071,21.071h2v4h-2Z" transform="translate(-3.991 36.506) rotate(-45)"/>
      <path id="Path_1242786" data-name="Path 1242786" d="M26.929,6.929h2v4h-2Z" transform="translate(1.866 22.364) rotate(-45)"/>
      <path id="Path_1242787" data-name="Path 1242787" d="M4,22H6v2H4Z"/>
      <path id="Path_1242788" data-name="Path 1242788" d="M20,27.056V8A8,8,0,1,0,4,8V20H6V8A6,6,0,1,1,18,8H13v2h5v2H9V8a3,3,0,0,1,5.906-.751l1.936-.5A5,5,0,0,0,7,8V28.525a9,9,0,1,0,10,0V27H15v2.079a1,1,0,0,0,.5.865,7,7,0,1,1-7,0,1,1,0,0,0,.5-.865V14h9v2H13v2h5v2H13v2h5v2H13v2h5v1.515a1,1,0,0,0,.363.771,10,10,0,1,1-12.726,0A1,1,0,0,0,6,27.515V26H4v1.056a12,12,0,1,0,16,0Z"/>
    </g>
  </g>
</svg>
