<svg xmlns="http://www.w3.org/2000/svg" xmlns:xlink="http://www.w3.org/1999/xlink" width="98" height="98" viewBox="0 0 98 98">
  <defs>
    <filter id="Path_874925" x="0" y="-0.001" width="98" height="98" filterUnits="userSpaceOnUse">
      <feOffset dy="3" input="SourceAlpha"/>
      <feGaussianBlur stdDeviation="3" result="blur"/>
      <feFlood flood-opacity="0.161"/>
      <feComposite operator="in" in2="blur"/>
      <feComposite in="SourceGraphic"/>
    </filter>
  </defs>
  <g id="Group_1201013" data-name="Group 1201013" transform="translate(-490 9561.999)">
    <g id="Group_1201008" data-name="Group 1201008" transform="translate(326 -0.001)">
      <g id="Group_1201005" data-name="Group 1201005" transform="translate(-587 -19042.008)">
        <g id="Group_1200825" data-name="Group 1200825" transform="translate(475 3388.602)">
          <g id="Group_1187153" data-name="Group 1187153">
            <g id="Group_1182177" data-name="Group 1182177">
              <g id="Group_1181903" data-name="Group 1181903">
                <g id="Group_1181438" data-name="Group 1181438">
                  <g id="Group_1111314" data-name="Group 1111314" transform="translate(-734.73 3020.407)">
                    <g transform="matrix(1, 0, 0, 1, 1010.73, 3071)" filter="url(#Path_874925)">
                      <g id="Path_874925-2" data-name="Path 874925" transform="translate(9 6)" fill="#ffc94a">
                        <path d="M 39.99997329711914 78.50040435791016 C 34.80184936523438 78.50040435791016 29.76000595092773 77.48268127441406 25.01450729370117 75.47550201416016 C 20.43013954162598 73.53648376464844 16.3126392364502 70.76027679443359 12.7763843536377 67.22402191162109 C 9.240128517150879 63.68776702880859 6.463928699493408 59.57027053833008 4.524906635284424 54.98590087890625 C 2.517728805541992 50.24040222167969 1.500006675720215 45.19855880737305 1.500006675720215 40.00043487548828 C 1.500006675720215 34.80185699462891 2.517728805541992 29.76001358032227 4.524906635284424 25.01451301574707 C 6.463928699493408 20.43013572692871 9.240128517150879 16.31263542175293 12.7763843536377 12.77637958526611 C 16.3126392364502 9.240124702453613 20.43013954162598 6.463935375213623 25.01450729370117 4.52490234375 C 29.76000595092773 2.517724514007568 34.80184936523438 1.500002145767212 39.99997329711914 1.500002145767212 C 45.19809722900391 1.500002145767212 50.23994064331055 2.517724514007568 54.98543930053711 4.52490234375 C 59.56981658935547 6.463935375213623 63.68731689453125 9.240124702453613 67.22357177734375 12.77637958526611 C 70.75982666015625 16.31263542175293 73.53601837158203 20.43013572692871 75.47505187988281 25.01451301574707 C 77.48223114013672 29.76001358032227 78.49995422363281 34.80185699462891 78.49995422363281 39.99998092651367 C 78.49995422363281 45.19855880737305 77.48223114013672 50.24040222167969 75.47505187988281 54.98590087890625 C 73.53601837158203 59.57027053833008 70.75982666015625 63.68776702880859 67.22357177734375 67.22402191162109 C 63.68731689453125 70.76027679443359 59.56981658935547 73.53648376464844 54.98543930053711 75.47550201416016 C 50.23994064331055 77.48268127441406 45.19809722900391 78.50040435791016 39.99997329711914 78.50040435791016 Z" stroke="none"/>
                        <path d="M 39.99997329711914 3 C 35.00369262695312 3 30.15843963623047 3.977851867675781 25.59883880615234 5.906417846679688 C 21.19326782226562 7.769813537597656 17.23602676391602 10.43805694580078 13.83704376220703 13.83704376220703 C 10.43805694580078 17.23601531982422 7.769813537597656 21.19325637817383 5.906410217285156 25.59882736206055 C 3.977851867675781 30.15844345092773 3 35.00368118286133 3 40.00042724609375 C 3 44.99672317504883 3.977851867675781 49.84196472167969 5.906410217285156 54.40157318115234 C 7.769813537597656 58.80714797973633 10.43805694580078 62.76438903808594 13.83704376220703 66.16336059570312 C 17.23602676391602 69.56234741210938 21.19326782226562 72.2305908203125 25.59883880615234 74.09398651123047 C 30.15843963623047 76.02255249023438 35.00369262695312 77.00040435791016 39.99997329711914 77.00040435791016 C 44.99625396728516 77.00040435791016 49.84150695800781 76.02255249023438 54.40110778808594 74.09398651123047 C 58.80667877197266 72.2305908203125 62.76391983032227 69.56234741210938 66.16290283203125 66.16336059570312 C 69.5618896484375 62.76438903808594 72.23013305664062 58.80714797973633 74.09353637695312 54.40157318115234 C 76.0220947265625 49.84196472167969 76.99994659423828 44.99672317504883 76.99994659423828 39.99997711181641 C 76.99994659423828 35.00368118286133 76.0220947265625 30.15844345092773 74.09353637695312 25.59882736206055 C 72.23013305664062 21.19325637817383 69.5618896484375 17.23601531982422 66.16290283203125 13.83704376220703 C 62.76391983032227 10.43805694580078 58.80667877197266 7.769813537597656 54.40110778808594 5.906417846679688 C 49.84150695800781 3.977851867675781 44.99625396728516 3 39.99997329711914 3 M 39.99997329711914 0 C 62.09134674072266 0 79.99994659423828 17.90858840942383 79.99994659423828 39.99997711181641 L 79.99994659423828 40.00042724609375 C 79.99994659423828 62.09181594848633 62.09134674072266 80.00040435791016 39.99997329711914 80.00040435791016 C 17.90859985351562 80.00040435791016 0 62.09181594848633 0 40.00042724609375 L 0 39.99997711181641 C 0 17.90858840942383 17.90859985351562 0 39.99997329711914 0 Z" stroke="none" fill="#fff"/>
                      </g>
                    </g>
                  </g>
                </g>
              </g>
            </g>
          </g>
        </g>
      </g>
    </g>
    <g id="cortinas-de-bano" transform="translate(518 -9537)">
      <g id="Group_1201011" data-name="Group 1201011" transform="translate(2.589 7.943)">
        <g id="Group_1201010" data-name="Group 1201010">
          <g id="Group_1201009" data-name="Group 1201009">
            <path id="Path_1242760" data-name="Path 1242760" d="M64.806,97.647a4.283,4.283,0,0,1-3.748-2.319,4.189,4.189,0,0,1-7.5,0,4.189,4.189,0,0,1-7.5,0,4.189,4.189,0,0,1-7.5,0,4.189,4.189,0,0,1-7.5,0v30.119a3.357,3.357,0,0,0,3.347,3.347H65.208a3.356,3.356,0,0,0,3.347-3.347V95.328a4.283,4.283,0,0,1-3.748,2.319Z" transform="translate(-31.073 -95.328)" fill="#a8ebfa"/>
          </g>
        </g>
      </g>
      <g id="Group_1201012" data-name="Group 1201012" transform="translate(0)">
        <path id="Path_1242761" data-name="Path 1242761" d="M41.409,1.339H41.32V1.25a1.25,1.25,0,1,0-2.5,0v.089h-5V1.25a1.25,1.25,0,0,0-2.5,0v.089h-5V1.25a1.25,1.25,0,0,0-2.5,0v.089h-5V1.25a1.25,1.25,0,1,0-2.5,0v.089h-5V1.25a1.25,1.25,0,0,0-2.5,0v.089h-5V1.25a1.25,1.25,0,1,0-2.5,0v.089H1.25a1.25,1.25,0,0,0,0,2.5h.089V38.062a4.6,4.6,0,0,0,4.6,4.6H36.724a4.6,4.6,0,0,0,4.6-4.6V3.838h.089a1.25,1.25,0,0,0,0-2.5Zm-10.085,2.5V7.6a2.914,2.914,0,0,1-5,0V3.838Zm-7.5,0V7.6a2.914,2.914,0,0,1-5,0V3.838Zm-7.5,0V7.6a2.914,2.914,0,0,1-5,0V3.838Zm-7.5,0V7.6a3.019,3.019,0,0,1-2.5,1.414A3.019,3.019,0,0,1,3.838,7.6V3.838ZM38.821,38.062a2.1,2.1,0,0,1-2.1,2.1H5.935a2.1,2.1,0,0,1-2.1-2.1V10.886a5.333,5.333,0,0,0,2.5.626,5.429,5.429,0,0,0,3.748-1.529,5.358,5.358,0,0,0,7.5,0,5.358,5.358,0,0,0,7.5,0,5.358,5.358,0,0,0,7.5,0,5.429,5.429,0,0,0,3.748,1.529,5.332,5.332,0,0,0,2.5-.626V38.062Zm0-30.464a2.914,2.914,0,0,1-5,0V3.838h5V7.6Z" transform="translate(0)"/>
        <path id="Path_1242762" data-name="Path 1242762" d="M377.209,172.432a1.25,1.25,0,0,0-1.25,1.25V194.12a1.25,1.25,0,0,0,2.5,0V173.682A1.25,1.25,0,0,0,377.209,172.432Z" transform="translate(-344.635 -158.065)"/>
        <path id="Path_1242763" data-name="Path 1242763" d="M197.262,172.432a1.25,1.25,0,0,0-1.25,1.25V194.12a1.25,1.25,0,1,0,2.5,0V173.682A1.25,1.25,0,0,0,197.262,172.432Z" transform="translate(-179.681 -158.065)"/>
        <path id="Path_1242764" data-name="Path 1242764" d="M287.236,172.432a1.25,1.25,0,0,0-1.25,1.25V194.12a1.25,1.25,0,1,0,2.5,0V173.682A1.25,1.25,0,0,0,287.236,172.432Z" transform="translate(-262.158 -158.065)"/>
        <path id="Path_1242765" data-name="Path 1242765" d="M107.291,172.432a1.25,1.25,0,0,0-1.25,1.25V194.12a1.25,1.25,0,1,0,2.5,0V173.682A1.25,1.25,0,0,0,107.291,172.432Z" transform="translate(-97.206 -158.065)"/>
      </g>
    </g>
  </g>
</svg>
