<svg xmlns="http://www.w3.org/2000/svg" xmlns:xlink="http://www.w3.org/1999/xlink" width="98" height="98" viewBox="0 0 98 98">
  <defs>
    <filter id="Path_874925" x="0" y="0" width="98" height="98" filterUnits="userSpaceOnUse">
      <feOffset dy="3" input="SourceAlpha"/>
      <feGaussianBlur stdDeviation="3" result="blur"/>
      <feFlood flood-opacity="0.161"/>
      <feComposite operator="in" in2="blur"/>
      <feComposite in="SourceGraphic"/>
    </filter>
    <clipPath id="clip-path">
      <path id="path3900" d="M0-682.665H41.042v41.042H0Z" transform="translate(0 682.665)"/>
    </clipPath>
  </defs>
  <g id="Group_1201023" data-name="Group 1201023" transform="translate(162 8880.999)">
    <g id="Group_1201022" data-name="Group 1201022" transform="translate(0 339)">
      <g id="Group_1201014" data-name="Group 1201014" transform="translate(0 342)">
        <g id="Group_1200988" data-name="Group 1200988" transform="translate(-913 -19042.008)">
          <g id="Group_1200825" data-name="Group 1200825" transform="translate(475 3388.602)">
            <g id="Group_1187153" data-name="Group 1187153">
              <g id="Group_1182177" data-name="Group 1182177">
                <g id="Group_1181903" data-name="Group 1181903">
                  <g id="Group_1181438" data-name="Group 1181438">
                    <g id="Group_1111314" data-name="Group 1111314" transform="translate(-734.73 3020.407)">
                      <g transform="matrix(1, 0, 0, 1, 1010.73, 3071)" filter="url(#Path_874925)">
                        <g id="Path_874925-2" data-name="Path 874925" transform="translate(9 6)" fill="#ffc94a">
                          <path d="M 39.99997329711914 78.50040435791016 C 34.80184936523438 78.50040435791016 29.76000595092773 77.48268127441406 25.01450729370117 75.47550201416016 C 20.43013954162598 73.53648376464844 16.3126392364502 70.76027679443359 12.7763843536377 67.22402191162109 C 9.240128517150879 63.68776702880859 6.463928699493408 59.57027053833008 4.524906635284424 54.98590087890625 C 2.517728805541992 50.24040222167969 1.500006675720215 45.19855880737305 1.500006675720215 40.00043487548828 C 1.500006675720215 34.80185699462891 2.517728805541992 29.76001358032227 4.524906635284424 25.01451301574707 C 6.463928699493408 20.43013572692871 9.240128517150879 16.31263542175293 12.7763843536377 12.77637958526611 C 16.3126392364502 9.240124702453613 20.43013954162598 6.463935375213623 25.01450729370117 4.52490234375 C 29.76000595092773 2.517724514007568 34.80184936523438 1.500002145767212 39.99997329711914 1.500002145767212 C 45.19809722900391 1.500002145767212 50.23994064331055 2.517724514007568 54.98543930053711 4.52490234375 C 59.56981658935547 6.463935375213623 63.68731689453125 9.240124702453613 67.22357177734375 12.77637958526611 C 70.75982666015625 16.31263542175293 73.53601837158203 20.43013572692871 75.47505187988281 25.01451301574707 C 77.48223114013672 29.76001358032227 78.49995422363281 34.80185699462891 78.49995422363281 39.99998092651367 C 78.49995422363281 45.19855880737305 77.48223114013672 50.24040222167969 75.47505187988281 54.98590087890625 C 73.53601837158203 59.57027053833008 70.75982666015625 63.68776702880859 67.22357177734375 67.22402191162109 C 63.68731689453125 70.76027679443359 59.56981658935547 73.53648376464844 54.98543930053711 75.47550201416016 C 50.23994064331055 77.48268127441406 45.19809722900391 78.50040435791016 39.99997329711914 78.50040435791016 Z" stroke="none"/>
                          <path d="M 39.99997329711914 3 C 35.00369262695312 3 30.15843963623047 3.977851867675781 25.59883880615234 5.906417846679688 C 21.19326782226562 7.769813537597656 17.23602676391602 10.43805694580078 13.83704376220703 13.83704376220703 C 10.43805694580078 17.23601531982422 7.769813537597656 21.19325637817383 5.906410217285156 25.59882736206055 C 3.977851867675781 30.15844345092773 3 35.00368118286133 3 40.00042724609375 C 3 44.99672317504883 3.977851867675781 49.84196472167969 5.906410217285156 54.40157318115234 C 7.769813537597656 58.80714797973633 10.43805694580078 62.76438903808594 13.83704376220703 66.16336059570312 C 17.23602676391602 69.56234741210938 21.19326782226562 72.2305908203125 25.59883880615234 74.09398651123047 C 30.15843963623047 76.02255249023438 35.00369262695312 77.00040435791016 39.99997329711914 77.00040435791016 C 44.99625396728516 77.00040435791016 49.84150695800781 76.02255249023438 54.40110778808594 74.09398651123047 C 58.80667877197266 72.2305908203125 62.76391983032227 69.56234741210938 66.16290283203125 66.16336059570312 C 69.5618896484375 62.76438903808594 72.23013305664062 58.80714797973633 74.09353637695312 54.40157318115234 C 76.0220947265625 49.84196472167969 76.99994659423828 44.99672317504883 76.99994659423828 39.99997711181641 C 76.99994659423828 35.00368118286133 76.0220947265625 30.15844345092773 74.09353637695312 25.59882736206055 C 72.23013305664062 21.19325637817383 69.5618896484375 17.23601531982422 66.16290283203125 13.83704376220703 C 62.76391983032227 10.43805694580078 58.80667877197266 7.769813537597656 54.40110778808594 5.906417846679688 C 49.84150695800781 3.977851867675781 44.99625396728516 3 39.99997329711914 3 M 39.99997329711914 0 C 62.09134674072266 0 79.99994659423828 17.90858840942383 79.99994659423828 39.99997711181641 L 79.99994659423828 40.00042724609375 C 79.99994659423828 62.09181594848633 62.09134674072266 80.00040435791016 39.99997329711914 80.00040435791016 C 17.90859985351562 80.00040435791016 0 62.09181594848633 0 40.00042724609375 L 0 39.99997711181641 C 0 17.90858840942383 17.90859985351562 0 39.99997329711914 0 Z" stroke="none" fill="#fff"/>
                        </g>
                      </g>
                    </g>
                  </g>
                </g>
              </g>
            </g>
          </g>
        </g>
      </g>
    </g>
    <g id="g3894" transform="translate(-133.418 -8172.854)">
      <g id="g3896" transform="translate(0 -682.665)">
        <g id="g3898" clip-path="url(#clip-path)">
          <g id="g3904" transform="translate(4.649 7.466)">
            <path id="path3906" d="M-135.555,0V.079A2.618,2.618,0,0,0-133.48,2.64h0A2.618,2.618,0,0,1-131.4,5.2V21.25a3.018,3.018,0,0,1-3.018,3.018h-6.79a3.018,3.018,0,0,1-3.018-3.018V5.2a2.618,2.618,0,0,1,2.075-2.561h0A2.618,2.618,0,0,0-140.077.08V0Z" transform="translate(144.226)" fill="#c0d4df"/>
          </g>
          <g id="g3908" transform="translate(3.848 6.664)">
            <path id="path3910" d="M.294-179.483a.8.8,0,0,1-.8-.8v-5.528a1.825,1.825,0,0,0-1.44-1.777,3.442,3.442,0,0,1-2.637-2.624H-7.659a3.44,3.44,0,0,1-2.632,2.623,1.825,1.825,0,0,0-1.439,1.777v5.529a.8.8,0,0,1-.8.8.8.8,0,0,1-.8-.8v-5.529a3.436,3.436,0,0,1,2.71-3.345,1.825,1.825,0,0,0,1.44-1.777v-.08a.8.8,0,0,1,.8-.8h4.521a.8.8,0,0,1,.8.8v.079a1.825,1.825,0,0,0,1.44,1.777A3.437,3.437,0,0,1,1.1-185.813v5.528A.8.8,0,0,1,.294-179.483Z" transform="translate(13.333 191.817)"/>
          </g>
          <path id="path3912" d="M141.372-616h-5.826v3.458h5.826Z" transform="translate(-127.397 620.006)" fill="#ffce62"/>
          <g id="g3914" transform="translate(8.61 0.802)">
            <path id="path3916" d="M-65.385,0h-3.461a.721.721,0,0,0-.721.721V3.206h4.9V.721A.721.721,0,0,0-65.385,0" transform="translate(69.568)" fill="#ffce62"/>
          </g>
          <path id="path3918" d="M123.015-629.332h5.826a.8.8,0,0,1,.8.8v3.458a.8.8,0,0,1-.8.8h-5.826a.8.8,0,0,1-.8-.8v-3.458A.8.8,0,0,1,123.015-629.332Zm5.024,1.6h-4.223v1.855h4.223Z" transform="translate(-114.866 632.538)"/>
          <g id="g3920" transform="translate(7.809 0)">
            <path id="path3922" d="M-81.378-13.333h3.461a1.525,1.525,0,0,1,1.523,1.523v2.485a.8.8,0,0,1-.8.8h-4.9a.8.8,0,0,1-.8-.8V-11.81A1.525,1.525,0,0,1-81.378-13.333ZM-78-11.73h-3.3v1.6H-78Z" transform="translate(82.901 13.333)"/>
          </g>
          <g id="g3924" transform="translate(21.458 9.348)">
            <path id="path3926" d="M-32.463,0h0A29.325,29.325,0,0,0-34.54,10.839v9.334a3.1,3.1,0,0,0,3.1,3.1h8.244a3.1,3.1,0,0,0,3.1-3.1V9.437a4.993,4.993,0,0,0-3.36-4.718h0A4.993,4.993,0,0,1-26.806,0Z" transform="translate(34.54)" fill="#baf5fc"/>
          </g>
          <g id="g3928" transform="translate(20.724 8.546)">
            <path id="path3930" d="M-251.244-150.059l-.055,0a.8.8,0,0,1-.745-.854,30.062,30.062,0,0,1,2.064-9.09.8.8,0,0,1,.745-.505h5.657a.8.8,0,0,1,.8.8,4.194,4.194,0,0,0,2.821,3.961,5.826,5.826,0,0,1,3.859,4.793.8.8,0,0,1-.7.89.8.8,0,0,1-.89-.7,4.214,4.214,0,0,0-2.792-3.466,5.8,5.8,0,0,1-3.844-4.674h-4.362a28.463,28.463,0,0,0-1.758,8.1A.8.8,0,0,1-251.244-150.059Z" transform="translate(252.047 160.51)"/>
          </g>
          <path id="path3932" d="M391.456-579.89h5.657v-3.372h-5.657Z" transform="translate(-367.922 589.237)" fill="#fff"/>
          <g id="g3934" transform="translate(19.388 0.802)">
            <path id="path3936" d="M-247.532,0h-10.654a5.18,5.18,0,0,0-5.18,5.18v.978a5.863,5.863,0,0,1,3.251-.984h6.553l1.772-1.552h4.258a.69.69,0,0,0,.69-.69V.69a.69.69,0,0,0-.69-.69" transform="translate(263.366)" fill="#ffce62"/>
          </g>
          <g id="g3938" transform="translate(32.731 0.802)">
            <path id="path3940" d="M-38.931,0h-2.49V3.622h2.49a.69.69,0,0,0,.69-.69V.69a.69.69,0,0,0-.69-.69" transform="translate(41.421)" fill="#e0eaef"/>
          </g>
          <g id="g3942" transform="translate(18.586 0)">
            <path id="path3944" d="M-270.718-13.333h10.654a1.493,1.493,0,0,1,1.492,1.492V-9.6a1.493,1.493,0,0,1-1.492,1.492h-3.957l-1.545,1.354a.8.8,0,0,1-.528.2h-6.553a5.045,5.045,0,0,0-2.806.849.8.8,0,0,1-.823.04.8.8,0,0,1-.423-.707v-.978A5.988,5.988,0,0,1-270.718-13.333Zm10.542,1.6h-10.542A4.384,4.384,0,0,0-275.083-7.7a6.647,6.647,0,0,1,2.435-.46h6.251l1.545-1.354a.8.8,0,0,1,.528-.2h4.147Z" transform="translate(276.699 13.333)"/>
          </g>
          <g id="g3946" transform="translate(31.93 0)">
            <path id="path3948" d="M-12.532-8.108a.8.8,0,0,1-.8-.8v-3.622a.8.8,0,0,1,.8-.8.8.8,0,0,1,.8.8V-8.91A.8.8,0,0,1-12.532-8.108Z" transform="translate(13.333 13.333)"/>
          </g>
          <path id="path3950" d="M384.582-591.62h-5.657a.8.8,0,0,1-.8-.8v-3.372a.8.8,0,0,1,.8-.8h5.657a.8.8,0,0,1,.8.8v3.372A.8.8,0,0,1,384.582-591.62Zm-4.855-1.6h4.054v-1.769h-4.054Z" transform="translate(-355.39 601.769)"/>
          <g id="g3952" transform="translate(28.667 5.175)">
            <path id="path3954" d="M-63.393-62.59a4.06,4.06,0,0,1-4.055-4.055.8.8,0,0,1,.8-.8.8.8,0,0,1,.8.8,2.454,2.454,0,0,0,2.452,2.452.8.8,0,0,1,.8.8A.8.8,0,0,1-63.393-62.59Z" transform="translate(67.448 67.447)"/>
          </g>
          <g id="g3956" transform="translate(2.592 22.685)">
            <path id="path3958" d="M-457.535-274.444H-480.21a4.515,4.515,0,0,1-4.462-3.823L-486.8-292h35.858l-2.13,13.732a4.515,4.515,0,0,1-4.462,3.823" transform="translate(486.801 291.999)" fill="#cdeb72"/>
          </g>
          <g id="g3960" transform="translate(0.802 18.196)">
            <path id="path3962" d="M-581.471-70.178h-34.95a2.244,2.244,0,0,1-2.245-2.244h0a2.244,2.244,0,0,1,2.245-2.244h34.95a2.244,2.244,0,0,1,2.244,2.244h0a2.244,2.244,0,0,1-2.244,2.244" transform="translate(618.665 74.666)" fill="#cdeb72"/>
          </g>
          <g id="g3964" transform="translate(1.79 21.883)">
            <path id="path3966" d="M-236.434-286.176h-7.73a5.289,5.289,0,0,1-5.254-4.5l-2.13-13.732a.8.8,0,0,1,.669-.915.8.8,0,0,1,.915.669l2.13,13.732a3.694,3.694,0,0,0,3.67,3.144h7.73a.8.8,0,0,1,.8.8A.8.8,0,0,1-236.434-286.176Z" transform="translate(251.557 305.334)"/>
          </g>
          <g id="g3968" transform="translate(23.326 21.883)">
            <path id="path3970" d="M-243.024,5.823h-7.73a.8.8,0,0,1-.8-.8.8.8,0,0,1,.8-.8h7.73a3.694,3.694,0,0,0,3.67-3.144l2.13-13.732a.8.8,0,0,1,.915-.669.8.8,0,0,1,.669.915l-2.13,13.732A5.289,5.289,0,0,1-243.024,5.823Z" transform="translate(251.555 13.335)"/>
          </g>
          <g id="g3972" transform="translate(11.051 18.206)">
            <path id="path3974" d="M0,0V10.627a1.605,1.605,0,0,0,1.605,1.605h0a1.605,1.605,0,0,0,1.605-1.605V7.87L3.194,7.9v7A1.605,1.605,0,0,0,4.8,16.5h0A1.605,1.605,0,0,0,6.4,14.9v-7s0,8.634,0,8.634A1.605,1.605,0,0,0,8.01,18.135h0A1.605,1.605,0,0,0,9.615,16.53V14.9A1.605,1.605,0,0,0,11.22,16.5h0A1.605,1.605,0,0,0,12.826,14.9V4.689h0V7.728A1.924,1.924,0,0,0,14.75,9.652h0a1.924,1.924,0,0,0,1.924-1.924V3.444L15.651,0Z" fill="#a09beb"/>
          </g>
          <g id="g3976" transform="translate(23.075 17.405)">
            <path id="path3978" d="M-10.608-80.084a2.729,2.729,0,0,1-2.725-2.725v-3.039a.8.8,0,0,1,.8-.8.8.8,0,0,1,.8.8v3.039a1.124,1.124,0,0,0,1.122,1.122,1.124,1.124,0,0,0,1.122-1.122v-4.168l-.989-3.332a.8.8,0,0,1,.54-1,.8.8,0,0,1,1,.54l1.022,3.444a.8.8,0,0,1,.033.228v4.284A2.729,2.729,0,0,1-10.608-80.084Z" transform="translate(13.333 91.339)"/>
          </g>
          <g id="g3980" transform="translate(16.654 25.301)">
            <path id="path3982" d="M-64.329-1.491A2.41,2.41,0,0,1-66.736-3.9v-8.634a.8.8,0,0,1,.8-.8.8.8,0,0,1,.8.8V-3.9a.8.8,0,0,0,.8.8.8.8,0,0,0,.8-.8v-8.634a.8.8,0,0,1,.8-.8.8.8,0,0,1,.8.8V-3.9A2.41,2.41,0,0,1-64.329-1.491Z" transform="translate(66.736 13.333)"/>
          </g>
          <g id="g3984" transform="translate(13.444 25.301)">
            <path id="path3986" d="M-64.329-3.122a2.41,2.41,0,0,1-2.407-2.407v-7a.8.8,0,0,1,.8-.8.8.8,0,0,1,.8.8v7a.8.8,0,0,0,.8.8.8.8,0,0,0,.8-.8v-7a.8.8,0,0,1,.8-.8.8.8,0,0,1,.8.8v7A2.41,2.41,0,0,1-64.329-3.122Z" transform="translate(66.736 13.333)"/>
          </g>
          <g id="g3988" transform="translate(19.865 22.094)">
            <path id="path3990" d="M-64.329.085a2.41,2.41,0,0,1-2.407-2.407v-7a.8.8,0,0,1,.8-.8.8.8,0,0,1,.8.8v7a.8.8,0,0,0,.8.8.8.8,0,0,0,.8-.8v-10.21a.8.8,0,0,1,.8-.8.8.8,0,0,1,.8.8v10.21A2.41,2.41,0,0,1-64.329.085Z" transform="translate(66.736 13.333)"/>
          </g>
          <g id="g3992" transform="translate(10.25 17.405)">
            <path id="path3994" d="M-64.329-130.4a2.41,2.41,0,0,1-2.407-2.407V-143.43a.8.8,0,0,1,.8-.8.8.8,0,0,1,.8.8V-132.8a.8.8,0,0,0,.8.8.8.8,0,0,0,.8-.8v-2.757a.8.8,0,0,1,.8-.8.8.8,0,0,1,.8.8v2.757A2.41,2.41,0,0,1-64.329-130.4Z" transform="translate(66.736 144.232)"/>
          </g>
          <g id="g3996" transform="translate(0 17.395)">
            <path id="path3998" d="M-145.827-81.908H-156.1a.8.8,0,0,1-.8-.8.8.8,0,0,1,.8-.8h10.271a1.445,1.445,0,0,0,1.443-1.443,1.445,1.445,0,0,0-1.443-1.443h-34.95a1.445,1.445,0,0,0-1.443,1.443,1.445,1.445,0,0,0,1.443,1.443h8.005a.8.8,0,0,1,.8.8.8.8,0,0,1-.8.8h-8.005a3.05,3.05,0,0,1-3.046-3.046A3.05,3.05,0,0,1-180.776-88h34.95a3.05,3.05,0,0,1,3.046,3.046A3.05,3.05,0,0,1-145.827-81.908Z" transform="translate(183.822 88)"/>
          </g>
          <g id="g4000" transform="translate(20.521 40.24)">
            <path id="path4002" transform="translate(0 0)"/>
          </g>
        </g>
      </g>
    </g>
  </g>
</svg>
