<svg xmlns="http://www.w3.org/2000/svg" xmlns:xlink="http://www.w3.org/1999/xlink" width="98" height="98" viewBox="0 0 98 98">
  <defs>
    <filter id="Path_874925" x="0" y="0" width="98" height="98" filterUnits="userSpaceOnUse">
      <feOffset dy="3" input="SourceAlpha"/>
      <feGaussianBlur stdDeviation="3" result="blur"/>
      <feFlood flood-opacity="0.161"/>
      <feComposite operator="in" in2="blur"/>
      <feComposite in="SourceGraphic"/>
    </filter>
    <clipPath id="clip-path">
      <path id="path7872" d="M0-682.665H43.044v43.044H0Z" transform="translate(0 682.665)"/>
    </clipPath>
  </defs>
  <g id="Group_1200920" data-name="Group 1200920" transform="translate(-331.051 -9480)">
    <g id="Group_1200824" data-name="Group 1200824" transform="translate(55.051 3388.593)">
      <g id="Group_1187153" data-name="Group 1187153">
        <g id="Group_1182177" data-name="Group 1182177">
          <g id="Group_1181903" data-name="Group 1181903">
            <g id="Group_1181438" data-name="Group 1181438">
              <g id="Group_1111314" data-name="Group 1111314" transform="translate(-734.73 3020.407)">
                <g transform="matrix(1, 0, 0, 1, 1010.73, 3071)" filter="url(#Path_874925)">
                  <g id="Path_874925-2" data-name="Path 874925" transform="translate(9 6)" fill="#ffc94a">
                    <path d="M 39.99997329711914 78.50040435791016 C 34.80184936523438 78.50040435791016 29.76000595092773 77.48268127441406 25.01450729370117 75.47550201416016 C 20.43013954162598 73.53648376464844 16.3126392364502 70.76027679443359 12.7763843536377 67.22402191162109 C 9.240128517150879 63.68776702880859 6.463928699493408 59.57027053833008 4.524906635284424 54.98590087890625 C 2.517728805541992 50.24040222167969 1.500006675720215 45.19855880737305 1.500006675720215 40.00043487548828 C 1.500006675720215 34.80185699462891 2.517728805541992 29.76001358032227 4.524906635284424 25.01451301574707 C 6.463928699493408 20.43013572692871 9.240128517150879 16.31263542175293 12.7763843536377 12.77637958526611 C 16.3126392364502 9.240124702453613 20.43013954162598 6.463935375213623 25.01450729370117 4.52490234375 C 29.76000595092773 2.517724514007568 34.80184936523438 1.500002145767212 39.99997329711914 1.500002145767212 C 45.19809722900391 1.500002145767212 50.23994064331055 2.517724514007568 54.98543930053711 4.52490234375 C 59.56981658935547 6.463935375213623 63.68731689453125 9.240124702453613 67.22357177734375 12.77637958526611 C 70.75982666015625 16.31263542175293 73.53601837158203 20.43013572692871 75.47505187988281 25.01451301574707 C 77.48223114013672 29.76001358032227 78.49995422363281 34.80185699462891 78.49995422363281 39.99998092651367 C 78.49995422363281 45.19855880737305 77.48223114013672 50.24040222167969 75.47505187988281 54.98590087890625 C 73.53601837158203 59.57027053833008 70.75982666015625 63.68776702880859 67.22357177734375 67.22402191162109 C 63.68731689453125 70.76027679443359 59.56981658935547 73.53648376464844 54.98543930053711 75.47550201416016 C 50.23994064331055 77.48268127441406 45.19809722900391 78.50040435791016 39.99997329711914 78.50040435791016 Z" stroke="none"/>
                    <path d="M 39.99997329711914 3 C 35.00369262695312 3 30.15843963623047 3.977851867675781 25.59883880615234 5.906417846679688 C 21.19326782226562 7.769813537597656 17.23602676391602 10.43805694580078 13.83704376220703 13.83704376220703 C 10.43805694580078 17.23601531982422 7.769813537597656 21.19325637817383 5.906410217285156 25.59882736206055 C 3.977851867675781 30.15844345092773 3 35.00368118286133 3 40.00042724609375 C 3 44.99672317504883 3.977851867675781 49.84196472167969 5.906410217285156 54.40157318115234 C 7.769813537597656 58.80714797973633 10.43805694580078 62.76438903808594 13.83704376220703 66.16336059570312 C 17.23602676391602 69.56234741210938 21.19326782226562 72.2305908203125 25.59883880615234 74.09398651123047 C 30.15843963623047 76.02255249023438 35.00369262695312 77.00040435791016 39.99997329711914 77.00040435791016 C 44.99625396728516 77.00040435791016 49.84150695800781 76.02255249023438 54.40110778808594 74.09398651123047 C 58.80667877197266 72.2305908203125 62.76391983032227 69.56234741210938 66.16290283203125 66.16336059570312 C 69.5618896484375 62.76438903808594 72.23013305664062 58.80714797973633 74.09353637695312 54.40157318115234 C 76.0220947265625 49.84196472167969 76.99994659423828 44.99672317504883 76.99994659423828 39.99997711181641 C 76.99994659423828 35.00368118286133 76.0220947265625 30.15844345092773 74.09353637695312 25.59882736206055 C 72.23013305664062 21.19325637817383 69.5618896484375 17.23601531982422 66.16290283203125 13.83704376220703 C 62.76391983032227 10.43805694580078 58.80667877197266 7.769813537597656 54.40110778808594 5.906417846679688 C 49.84150695800781 3.977851867675781 44.99625396728516 3 39.99997329711914 3 M 39.99997329711914 0 C 62.09134674072266 0 79.99994659423828 17.90858840942383 79.99994659423828 39.99997711181641 L 79.99994659423828 40.00042724609375 C 79.99994659423828 62.09181594848633 62.09134674072266 80.00040435791016 39.99997329711914 80.00040435791016 C 17.90859985351562 80.00040435791016 0 62.09181594848633 0 40.00042724609375 L 0 39.99997711181641 C 0 17.90858840942383 17.90859985351562 0 39.99997329711914 0 Z" stroke="none" fill="#fff"/>
                  </g>
                </g>
              </g>
            </g>
          </g>
        </g>
      </g>
    </g>
    <g id="g7866" transform="translate(358.051 10186.665)">
      <g id="g7868" transform="translate(0 -682.665)">
        <g id="g7870" clip-path="url(#clip-path)">
          <g id="g7876" transform="translate(16.109 5.574)">
            <path id="path7878" d="M-160.865,0c-1.745,0-3.16,2.213-3.16,4.942s1.415,4.942,3.16,4.942H-171.69c1.745,0,3.16-2.213,3.16-4.942S-169.945,0-171.69,0Z" transform="translate(171.69 0)" fill="#fff5cc"/>
          </g>
          <g id="g7880" transform="translate(16.109 5.574)">
            <path id="path7882" d="M-79.569-73.436c0-2.729-1.415-4.942-3.16-4.942h-2.195c1.745,0,3.16,2.213,3.16,4.942s-1.415,4.942-3.16,4.942h2.195c1.745,0,3.16-2.213,3.16-4.942" transform="translate(84.924 78.378)" fill="#ffeb99"/>
          </g>
          <g id="g7884" transform="translate(14.013 2.2)">
            <path id="path7886" d="M0-49.846a1.264,1.264,0,0,0,1.716,1.185A2.109,2.109,0,0,1,2.5-48.8c1.252,0,1.252.751,2.5.751s1.252-.751,2.5-.751,1.251.751,2.5.751,1.251-.751,2.5-.751a2.107,2.107,0,0,1,.787.134,1.265,1.265,0,0,0,1.716-1.185,1.268,1.268,0,0,0-.307-.827c-1.822-2.117-4.333-3.077-6.429-2.208l-.008,0a1.984,1.984,0,0,1-1.53,0l-.008,0c-2.1-.868-4.607.092-6.429,2.208A1.268,1.268,0,0,0,0-49.846" transform="translate(0 53.201)" fill="#ff8fa2"/>
          </g>
          <g id="g7888" transform="translate(14.013 2.2)">
            <path id="path7890" d="M-96.019-3.219h0c-2.038-.681-4.412.285-6.155,2.31a1.269,1.269,0,0,0-.307.827A1.264,1.264,0,0,0-100.765,1.1a2.109,2.109,0,0,1,.787-.134c1.057,0,1.221.536,2,.7-1.261-2.834,1.957-3.41,1.957-4.89" transform="translate(102.481 3.436)" fill="#ff768d"/>
          </g>
          <g id="g7892" transform="translate(0.631 11.311)">
            <path id="path7894" d="M-520.941-383.523a6.726,6.726,0,0,0,6.726-6.726A6.722,6.722,0,0,0-517.454-396a7.566,7.566,0,0,0-7.565-7.447,7.577,7.577,0,0,0-1.988.265,8.41,8.41,0,0,0-8.1-6.149,8.41,8.41,0,0,0-8.1,6.149,7.577,7.577,0,0,0-1.988-.265A7.566,7.566,0,0,0-552.76-396,6.722,6.722,0,0,0-556-390.248a6.726,6.726,0,0,0,6.726,6.726Z" transform="translate(555.999 409.332)" fill="#c68d6d"/>
          </g>
          <g id="g7896" transform="translate(6.697 10.557)">
            <path id="path7898" d="M-42.821,0h0L-45.7,1.194a7.506,7.506,0,0,1,.33,4.771,9.678,9.678,0,0,0,.422,6.152l2.253,5.44a2.522,2.522,0,0,0,3.3,1.365l4.66-1.93a2.522,2.522,0,0,0,1.365-3.3l-2.253-5.44a9.678,9.678,0,0,0-4.052-4.648A7.506,7.506,0,0,1-42.821,0" transform="translate(45.703)" fill="#b1ef97"/>
          </g>
          <g id="g7900" transform="translate(6.697 10.557)">
            <path id="path7902" d="M-90.834-241.761l-2.253-5.44a9.673,9.673,0,0,1-.709-2.974,6.418,6.418,0,0,1,1.83-4.984,7.52,7.52,0,0,1-2.1-2.871l-2.882,1.194a7.508,7.508,0,0,1,.331,4.771,9.678,9.678,0,0,0,.422,6.152l2.253,5.44a2.522,2.522,0,0,0,3.3,1.365l3.107-1.287a2.522,2.522,0,0,1-3.3-1.365" transform="translate(96.946 258.03)" fill="#92dd7a"/>
          </g>
          <g id="g7904" transform="translate(5.1 8.116)">
            <path id="path7906" d="M-73-47.12l-3.107,1.287a.841.841,0,0,1-1.1-.455l-.643-1.553a.841.841,0,0,1,.455-1.1l3.107-1.287a.841.841,0,0,1,1.1.455l.643,1.553A.841.841,0,0,1-73-47.12" transform="translate(77.918 50.291)" fill="#495059"/>
          </g>
          <g id="g7908" transform="translate(5.1 8.824)">
            <path id="path7910" d="M-33.6-39.405l-.643-1.553a.841.841,0,0,1,.455-1.1l-1.553.643a.841.841,0,0,0-.455,1.1l.643,1.553a.841.841,0,0,0,1.1.455l1.553-.643a.841.841,0,0,1-1.1-.455" transform="translate(35.859 42.057)" fill="#41464f"/>
          </g>
          <g id="g7912" transform="translate(26.533 12.979)">
            <path id="path7914" d="M-77.987-113.321l-2.9-1.86-1.86-2.9a1.682,1.682,0,0,1,0-2.378,1.682,1.682,0,0,1,2.378,0l2.87,1.885,1.885,2.87a1.681,1.681,0,0,1,0,2.378,1.681,1.681,0,0,1-2.378,0" transform="translate(83.235 120.947)" fill="#a0f0f2"/>
          </g>
          <g id="g7916" transform="translate(26.533 12.979)">
            <path id="path7918" d="M-42.653-7.318a1.681,1.681,0,0,0-2.378,0,1.681,1.681,0,0,0,0,2.378l1.86,2.9.518-.518a1.681,1.681,0,0,1,0-2.378,1.681,1.681,0,0,1,2.378,0l.493-.492Z" transform="translate(45.523 7.811)" fill="#7de2e2"/>
          </g>
          <g id="g7920" transform="translate(24.155 15.357)">
            <path id="path7922" d="M-77.987-113.321l-4.756-4.756a1.681,1.681,0,0,1,0-2.378,1.681,1.681,0,0,1,2.378,0l4.756,4.756a1.681,1.681,0,0,1,0,2.378,1.681,1.681,0,0,1-2.378,0" transform="translate(83.235 120.947)" fill="#bdfaff"/>
          </g>
          <g id="g7924" transform="translate(24.155 15.357)">
            <path id="path7926" d="M-42.653-42.653a1.681,1.681,0,0,1,2.378,0l-2.378-2.378a1.681,1.681,0,0,0-2.378,0,1.681,1.681,0,0,0,0,2.378l2.378,2.378a1.681,1.681,0,0,1,0-2.378" transform="translate(45.523 45.523)" fill="#7de2e2"/>
          </g>
          <g id="g7928" transform="translate(28.736 9.212)">
            <path id="path7930" d="M-125.132-60.679h0a2.129,2.129,0,0,1,.6-1.222l.656-.656-2.205-2.205-.656.656a2.129,2.129,0,0,1-1.222.6,2.136,2.136,0,0,1-1.366-.277,2.523,2.523,0,0,0-3.06.393l-.8.8a1.261,1.261,0,0,0,0,1.783l5.35,5.35a1.261,1.261,0,0,0,1.783,0l.8-.8a2.523,2.523,0,0,0,.393-3.06,2.136,2.136,0,0,1-.277-1.366" transform="translate(133.552 64.763)" fill="#bdfaff"/>
          </g>
          <g id="g7932" transform="translate(28.736 9.212)">
            <path id="path7934" d="M-40.824-67.7l.8-.8a2.522,2.522,0,0,1,3.567,0l1.463,1.463a2.13,2.13,0,0,1-.159-1.133,2.129,2.129,0,0,1,.6-1.222l.656-.656L-36.1-72.257l-.656.656a2.128,2.128,0,0,1-1.222.6,2.136,2.136,0,0,1-1.366-.277,2.523,2.523,0,0,0-3.06.393l-.8.8a1.261,1.261,0,0,0,0,1.783l2.378,2.378a1.261,1.261,0,0,1,0-1.783" transform="translate(43.571 72.257)" fill="#a0f0f2"/>
          </g>
          <g id="g7936" transform="translate(35.31 7.072)">
            <path id="path7938" d="M-38.993-74.329l-2.378-2.378a.841.841,0,0,1,0-1.189l1.189-1.189a.841.841,0,0,1,1.189,0l2.378,2.378a.841.841,0,0,1,0,1.189L-37.8-74.329a.841.841,0,0,1-1.189,0" transform="translate(41.617 79.331)" fill="#5e9cd3"/>
          </g>
          <g id="g7940" transform="translate(35.31 7.072)">
            <path id="path7942" d="M-21.3-38.967l1.189-1.189a.841.841,0,0,1,1.189,0l-1.187-1.187a.841.841,0,0,0-1.189,0l-1.189,1.189a.841.841,0,0,0,0,1.189l1.187,1.187a.841.841,0,0,1,0-1.189" transform="translate(22.734 41.59)" fill="#4a88c6"/>
          </g>
          <g id="g7944" transform="translate(27.188 13.854)">
            <path id="path7946" d="M0-97.9l6.588-6.588" transform="translate(0 104.484)" fill="#a0f0f2"/>
          </g>
          <g id="g7948" transform="translate(0.631 22.646)">
            <path id="path7950" d="M-536.355-124.689a5.682,5.682,0,0,0-1.762.28c0-.058,0-.116,0-.174a4.429,4.429,0,0,0-4.429-4.429,4.406,4.406,0,0,0-1.839.4,8,8,0,0,0-7.177-4.468,8,8,0,0,0-7.177,4.468,4.406,4.406,0,0,0-1.839-.4A4.429,4.429,0,0,0-565-124.583c0,.058,0,.116,0,.174a5.681,5.681,0,0,0-1.762-.28A5.688,5.688,0,0,0-572.449-119a5.688,5.688,0,0,0,5.688,5.688h30.406A5.688,5.688,0,0,0-530.666-119a5.688,5.688,0,0,0-5.688-5.688" transform="translate(572.449 133.08)" fill="#e0ae94"/>
          </g>
          <g id="g7952" transform="translate(0.631 26.713)">
            <path id="path7954" d="M-176.465,0a4.429,4.429,0,0,0-4.429,4.429c0,.058,0,.116,0,.174a5.679,5.679,0,0,0-1.762-.28,5.688,5.688,0,0,0-5.688,5.688,5.688,5.688,0,0,0,5.688,5.688h15.2c-7.1,0-9.983-10.629-7.177-15.3a4.406,4.406,0,0,0-1.839-.4" transform="translate(188.341)" fill="#d6a085"/>
          </g>
          <g id="g7964" transform="translate(14.51 32.066)">
            <path id="path7966" d="M-8.473-8.356A1.821,1.821,0,0,1-9.845-8.98a.631.631,0,0,1,.06-.89.631.631,0,0,1,.89.06.56.56,0,0,0,.422.192.56.56,0,0,0,.421-.193.631.631,0,0,1,.89-.062.631.631,0,0,1,.062.89,1.82,1.82,0,0,1-1.372.626Z" transform="translate(10 10.027)"/>
          </g>
          <g id="g7968" transform="translate(25.474 32.056)">
            <path id="path7970" d="M-36.929-8.33A1.82,1.82,0,0,1-38.3-8.953a.631.631,0,0,1,.06-.89.631.631,0,0,1,.89.06.559.559,0,0,0,.422.192.56.56,0,0,0,.422-.193.631.631,0,0,1,.89-.062.631.631,0,0,1,.062.89,1.82,1.82,0,0,1-1.372.626Z" transform="translate(38.456 10)"/>
          </g>
          <g id="g7972" transform="translate(19.507 32.814)">
            <path id="path7974" d="M-50.5-18.11a.629.629,0,0,1-.476-.216,1.205,1.205,0,0,0-.909-.414,1.205,1.205,0,0,0-.909.414.631.631,0,0,1-.89.061.631.631,0,0,1-.061-.89A2.466,2.466,0,0,1-51.889-20a2.466,2.466,0,0,1,1.86.847.631.631,0,0,1-.061.89A.628.628,0,0,1-50.5-18.11Z" transform="translate(53.904 20.001)"/>
          </g>
          <g id="g7976" transform="translate(20.891 0)">
            <path id="path7978" d="M-51.127-6.778a.631.631,0,0,1-.631-.631V-7.8a2.2,2.2,0,0,1,2.2-2.2h1.066a.631.631,0,0,1,.631.631.631.631,0,0,1-.631.631H-49.56A.937.937,0,0,0-50.5-7.8v.394A.631.631,0,0,1-51.127-6.778Z" transform="translate(51.757 10)"/>
          </g>
          <g id="g7980" transform="translate(23.144 6.794)">
            <path id="path7982" d="M-20.318-4.654a.631.631,0,0,1-.624-.549,8.349,8.349,0,0,1-.07-1.078,7.429,7.429,0,0,1,.764-3.379.631.631,0,0,1,.849-.273.631.631,0,0,1,.273.849,6.255,6.255,0,0,0-.625,2.8,7.083,7.083,0,0,0,.059.914.631.631,0,0,1-.544.707A.637.637,0,0,1-20.318-4.654Z" transform="translate(21.012 10.002)"/>
          </g>
          <g id="g7984" transform="translate(17.944 6.794)">
            <path id="path7986" d="M-18.718-69.6a.636.636,0,0,1-.083-.006.631.631,0,0,1-.542-.708,7.057,7.057,0,0,0,.06-.922,6.254,6.254,0,0,0-.625-2.8.631.631,0,0,1,.273-.849.631.631,0,0,1,.849.273,7.429,7.429,0,0,1,.764,3.379,8.322,8.322,0,0,1-.071,1.087A.631.631,0,0,1-18.718-69.6Z" transform="translate(19.978 74.958)"/>
          </g>
          <g id="g7988" transform="translate(13.382 1.57)">
            <path id="path7990" d="M.643-56.784a2.73,2.73,0,0,1-1.576-.465,1.5,1.5,0,0,0-.927-.286,1.5,1.5,0,0,0-.927.286,2.731,2.731,0,0,1-1.576.465,2.731,2.731,0,0,1-1.576-.465,1.5,1.5,0,0,0-.927-.286,1.47,1.47,0,0,0-.559.091,1.878,1.878,0,0,1-.682.129A1.9,1.9,0,0,1-10-59.216a1.9,1.9,0,0,1,.459-1.238A7.2,7.2,0,0,1-4.259-63.2a4.85,4.85,0,0,1,1.866.367,1.366,1.366,0,0,0,.532.109,1.351,1.351,0,0,0,.522-.1A4.864,4.864,0,0,1,.537-63.2a7.2,7.2,0,0,1,5.282,2.747,1.9,1.9,0,0,1,.459,1.238,1.9,1.9,0,0,1-1.893,1.9,1.874,1.874,0,0,1-.682-.129,1.468,1.468,0,0,0-.559-.091,1.5,1.5,0,0,0-.927.286A2.73,2.73,0,0,1,.643-56.784ZM-1.86-58.8a2.73,2.73,0,0,1,1.576.465,1.5,1.5,0,0,0,.927.286,1.5,1.5,0,0,0,.927-.286A2.73,2.73,0,0,1,3.145-58.8a2.756,2.756,0,0,1,1.016.177.618.618,0,0,0,.225.043.637.637,0,0,0,.632-.64.637.637,0,0,0-.154-.416A5.959,5.959,0,0,0,.537-61.94a3.6,3.6,0,0,0-1.384.271,2.617,2.617,0,0,1-1.014.2,2.606,2.606,0,0,1-1.007-.2,3.606,3.606,0,0,0-1.391-.274,5.958,5.958,0,0,0-4.326,2.308.638.638,0,0,0-.154.416.637.637,0,0,0,.632.64.618.618,0,0,0,.225-.043A2.759,2.759,0,0,1-6.866-58.8a2.731,2.731,0,0,1,1.576.465,1.5,1.5,0,0,0,.927.286,1.5,1.5,0,0,0,.927-.286A2.73,2.73,0,0,1-1.86-58.8Z" transform="translate(10 63.201)"/>
          </g>
          <g id="g7992" transform="translate(13.767 10.68)">
            <path id="path7994" d="M-209.787-37.456a.627.627,0,0,1-.335-.1.631.631,0,0,1-.2-.869,9,9,0,0,1,7.659-4.238,9.032,9.032,0,0,1,5.926,2.214.631.631,0,0,1,.062.89.631.631,0,0,1-.89.062,7.771,7.771,0,0,0-5.1-1.9,7.741,7.741,0,0,0-6.591,3.648A.63.63,0,0,1-209.787-37.456Z" transform="translate(210.417 42.66)"/>
          </g>
          <g id="g7996" transform="translate(35.526 18.083)">
            <path id="path7998" d="M-90.74-229.116a.628.628,0,0,1-.3-.074.631.631,0,0,1-.261-.853,6.106,6.106,0,0,0,.708-2.853,6.057,6.057,0,0,0-2.935-5.213.63.63,0,0,1-.3-.529,6.9,6.9,0,0,0-2.768-5.436.63.63,0,0,1-.124-.883.631.631,0,0,1,.883-.124A8.145,8.145,0,0,1-92.578-239a7.3,7.3,0,0,1,3.251,6.105,7.371,7.371,0,0,1-.855,3.445A.631.631,0,0,1-90.74-229.116Z" transform="translate(96.846 245.208)"/>
          </g>
          <g id="g8000" transform="translate(0 18.292)">
            <path id="path8002" d="M-103.623,5.856a.63.63,0,0,1-.559-.338,7.375,7.375,0,0,1-.84-3.416A7.3,7.3,0,0,1-101.77-4,8.187,8.187,0,0,1-98.8-9.856a.631.631,0,0,1,.888.085A.631.631,0,0,1-98-8.883a6.928,6.928,0,0,0-2.524,5.243.631.631,0,0,1-.3.529A6.057,6.057,0,0,0-103.76,2.1a6.109,6.109,0,0,0,.7,2.83.631.631,0,0,1-.265.851A.628.628,0,0,1-103.623,5.856Z" transform="translate(105.021 10)"/>
          </g>
          <g id="g8004" transform="translate(9.35 10.752)">
            <path id="path8006" d="M-136.754-183.131a.631.631,0,0,1-.583-.389l-1.784-4.306a9.1,9.1,0,0,0-3.788-4.345,8.136,8.136,0,0,1-2.967-3.015.631.631,0,0,1,.239-.859.631.631,0,0,1,.859.239,6.874,6.874,0,0,0,2.507,2.548,10.369,10.369,0,0,1,4.316,4.951l1.784,4.306a.631.631,0,0,1-.341.824A.629.629,0,0,1-136.754-183.131Z" transform="translate(145.957 196.128)"/>
          </g>
          <g id="g8008" transform="translate(8.104 25.146)">
            <path id="path8010" d="M-8.564-6.791a.631.631,0,0,1-.583-.389l-.808-1.95a.631.631,0,0,1,.341-.824.631.631,0,0,1,.824.341l.808,1.95a.631.631,0,0,1-.341.824A.629.629,0,0,1-8.564-6.791Z" transform="translate(10.003 10.003)"/>
          </g>
          <g id="g8012" transform="translate(6.085 12.007)">
            <path id="path8014" d="M-12.847,2.066a.631.631,0,0,1-.583-.389L-13.749.9A10.369,10.369,0,0,1-14.2-5.648,6.875,6.875,0,0,0-14.222-9.2a.631.631,0,0,1,.441-.775.631.631,0,0,1,.775.441,8.138,8.138,0,0,1,.028,4.21A9.1,9.1,0,0,0-12.584.422l.32.772a.631.631,0,0,1-.341.824A.629.629,0,0,1-12.847,2.066Z" transform="translate(14.531 10.003)"/>
          </g>
          <g id="g8016" transform="translate(4.47 7.485)">
            <path id="path8018" d="M-85.8-54.508a1.467,1.467,0,0,1-1.36-.908L-87.8-56.97a1.473,1.473,0,0,1,.8-1.922l3.107-1.287a1.464,1.464,0,0,1,.563-.112,1.467,1.467,0,0,1,1.36.908l.643,1.553a1.462,1.462,0,0,1,0,1.126,1.461,1.461,0,0,1-.8.8l-3.107,1.287A1.464,1.464,0,0,1-85.8-54.508Zm2.463-4.522a.209.209,0,0,0-.08.016l-3.107,1.287a.21.21,0,0,0-.114.275l.643,1.553a.21.21,0,0,0,.195.13.209.209,0,0,0,.08-.016l3.107-1.287a.209.209,0,0,0,.114-.114.209.209,0,0,0,0-.161l-.643-1.553A.21.21,0,0,0-83.336-59.03Z" transform="translate(87.914 60.291)"/>
          </g>
          <g id="g8020" transform="translate(28.106 9.218)">
            <path id="path8022" d="M-114.516-3.074a.629.629,0,0,1-.446-.185l-2.647-2.647a1.879,1.879,0,0,1-.554-1.338,1.879,1.879,0,0,1,.554-1.338l.8-.8a3.152,3.152,0,0,1,3.825-.49,1.513,1.513,0,0,0,.963.2,1.507,1.507,0,0,0,.86-.426.631.631,0,0,1,.892,0,.631.631,0,0,1,0,.892,2.774,2.774,0,0,1-1.584.784,2.78,2.78,0,0,1-1.769-.358,1.891,1.891,0,0,0-2.295.295l-.8.8a.626.626,0,0,0-.185.446.626.626,0,0,0,.185.446l2.647,2.647a.631.631,0,0,1,0,.892A.629.629,0,0,1-114.516-3.074Z" transform="translate(118.163 10.307)"/>
          </g>
          <g id="g8024" transform="translate(32.914 11.443)">
            <path id="path8026" d="M-7.566-89.773A1.885,1.885,0,0,1-8.9-90.326l-.911-.911a.631.631,0,0,1,0-.892.631.631,0,0,1,.892,0l.911.911a.631.631,0,0,0,.892,0l.8-.8a1.891,1.891,0,0,0,.295-2.295,2.779,2.779,0,0,1-.359-1.769A2.774,2.774,0,0,1-5.6-97.668a.631.631,0,0,1,.892,0,.631.631,0,0,1,0,.892,1.507,1.507,0,0,0-.426.86,1.513,1.513,0,0,0,.2.963,3.153,3.153,0,0,1-.491,3.825l-.8.8A1.886,1.886,0,0,1-7.566-89.773Z" transform="translate(10 97.853)"/>
          </g>
          <g id="g8028" transform="translate(34.68 6.442)">
            <path id="path8030" d="M-47.757-82.822a1.462,1.462,0,0,1-1.04-.431l-2.378-2.378a1.473,1.473,0,0,1,0-2.081l1.189-1.189a1.462,1.462,0,0,1,1.04-.431,1.461,1.461,0,0,1,1.04.431l2.378,2.378a1.473,1.473,0,0,1,0,2.081l-1.189,1.189A1.462,1.462,0,0,1-47.757-82.822Zm-1.189-5.248a.209.209,0,0,0-.149.062l-1.189,1.189a.211.211,0,0,0,0,.3l2.378,2.378a.209.209,0,0,0,.149.062.209.209,0,0,0,.149-.062l1.189-1.189a.21.21,0,0,0,0-.3L-48.8-88.008A.209.209,0,0,0-48.946-88.07Z" transform="translate(51.606 89.331)"/>
          </g>
          <g id="g8032" transform="translate(25.902 12.349)">
            <path id="path8034" d="M-16.688-51.376a.629.629,0,0,1-.446-.185,2.3,2.3,0,0,1-.677-1.635,2.3,2.3,0,0,1,.677-1.635,2.315,2.315,0,0,1,3.27,0,.631.631,0,0,1,0,.892.631.631,0,0,1-.892,0,1.052,1.052,0,0,0-1.486,0,1.044,1.044,0,0,0-.308.743,1.044,1.044,0,0,0,.308.743.631.631,0,0,1,0,.892A.629.629,0,0,1-16.688-51.376Z" transform="translate(17.811 55.506)"/>
          </g>
          <g id="g8036" transform="translate(31.15 17.596)">
            <path id="path8038" d="M-45.892-5.869a2.3,2.3,0,0,1-1.635-.677.631.631,0,0,1,0-.892.631.631,0,0,1,.892,0,1.044,1.044,0,0,0,.743.308,1.044,1.044,0,0,0,.743-.308,1.044,1.044,0,0,0,.308-.743,1.044,1.044,0,0,0-.308-.743.631.631,0,0,1,0-.892.631.631,0,0,1,.892,0A2.3,2.3,0,0,1-43.58-8.18a2.3,2.3,0,0,1-.677,1.635A2.3,2.3,0,0,1-45.892-5.869Z" transform="translate(47.712 10)"/>
          </g>
          <g id="g8040" transform="translate(23.524 14.726)">
            <path id="path8042" d="M-86.167-121.567a2.3,2.3,0,0,1-1.635-.677L-92.558-127a2.3,2.3,0,0,1-.677-1.635,2.3,2.3,0,0,1,.677-1.635,2.3,2.3,0,0,1,1.635-.677,2.3,2.3,0,0,1,1.635.677l4.756,4.756a2.3,2.3,0,0,1,.677,1.635,2.3,2.3,0,0,1-.677,1.635A2.3,2.3,0,0,1-86.167-121.567Zm-4.756-8.119a1.044,1.044,0,0,0-.743.308,1.044,1.044,0,0,0-.308.743,1.044,1.044,0,0,0,.308.743l4.756,4.756a1.044,1.044,0,0,0,.743.308,1.044,1.044,0,0,0,.743-.308,1.044,1.044,0,0,0,.308-.743,1.044,1.044,0,0,0-.308-.743l-4.756-4.756A1.044,1.044,0,0,0-90.923-129.686Z" transform="translate(93.235 130.947)"/>
          </g>
          <g id="g8044" transform="translate(0 22.015)">
            <path id="path8046" d="M-560.927-143.08a8.573,8.573,0,0,1,7.47,4.309,5.015,5.015,0,0,1,1.546-.242,5.067,5.067,0,0,1,5.021,4.432,6.318,6.318,0,0,1,1.166-.108,6.326,6.326,0,0,1,6.319,6.319,6.326,6.326,0,0,1-6.319,6.319H-576.13a6.326,6.326,0,0,1-6.319-6.319,6.326,6.326,0,0,1,6.319-6.319,6.318,6.318,0,0,1,1.166.108,5.067,5.067,0,0,1,5.021-4.432,5.015,5.015,0,0,1,1.546.242A8.573,8.573,0,0,1-560.927-143.08Zm7.178,5.729a.631.631,0,0,1-.566-.352,7.326,7.326,0,0,0-6.612-4.116,7.326,7.326,0,0,0-6.612,4.116.631.631,0,0,1-.828.295,3.761,3.761,0,0,0-1.576-.343,3.8,3.8,0,0,0-3.8,3.8l0,.145a.636.636,0,0,1-.25.53.631.631,0,0,1-.575.1,5.054,5.054,0,0,0-1.567-.249,5.063,5.063,0,0,0-5.058,5.058,5.064,5.064,0,0,0,5.058,5.058h30.406a5.064,5.064,0,0,0,5.058-5.058,5.063,5.063,0,0,0-5.058-5.058,5.054,5.054,0,0,0-1.567.249.631.631,0,0,1-.576-.1.631.631,0,0,1-.25-.528l0-.15a3.8,3.8,0,0,0-3.8-3.8,3.762,3.762,0,0,0-1.576.343A.628.628,0,0,1-553.75-137.351Z" transform="translate(582.449 143.08)"/>
          </g>
        </g>
      </g>
    </g>
  </g>
</svg>
