<svg xmlns="http://www.w3.org/2000/svg" xmlns:xlink="http://www.w3.org/1999/xlink" width="98" height="98" viewBox="0 0 98 98">
  <defs>
    <filter id="Path_874925" x="0" y="0" width="98" height="98" filterUnits="userSpaceOnUse">
      <feOffset dy="3" input="SourceAlpha"/>
      <feGaussianBlur stdDeviation="3" result="blur"/>
      <feFlood flood-opacity="0.161"/>
      <feComposite operator="in" in2="blur"/>
      <feComposite in="SourceGraphic"/>
    </filter>
  </defs>
  <g id="Group_1200924" data-name="Group 1200924" transform="translate(-751.051 -9876)">
    <g id="Group_1200828" data-name="Group 1200828" transform="translate(475.051 3784.593)">
      <g id="Group_1187153" data-name="Group 1187153">
        <g id="Group_1182177" data-name="Group 1182177">
          <g id="Group_1181903" data-name="Group 1181903">
            <g id="Group_1181438" data-name="Group 1181438">
              <g id="Group_1111314" data-name="Group 1111314" transform="translate(-734.73 3020.407)">
                <g transform="matrix(1, 0, 0, 1, 1010.73, 3071)" filter="url(#Path_874925)">
                  <g id="Path_874925-2" data-name="Path 874925" transform="translate(9 6)" fill="#ffc94a">
                    <path d="M 39.99997329711914 78.50040435791016 C 34.80184936523438 78.50040435791016 29.76000595092773 77.48268127441406 25.01450729370117 75.47550201416016 C 20.43013954162598 73.53648376464844 16.3126392364502 70.76027679443359 12.7763843536377 67.22402191162109 C 9.240128517150879 63.68776702880859 6.463928699493408 59.57027053833008 4.524906635284424 54.98590087890625 C 2.517728805541992 50.24040222167969 1.500006675720215 45.19855880737305 1.500006675720215 40.00043487548828 C 1.500006675720215 34.80185699462891 2.517728805541992 29.76001358032227 4.524906635284424 25.01451301574707 C 6.463928699493408 20.43013572692871 9.240128517150879 16.31263542175293 12.7763843536377 12.77637958526611 C 16.3126392364502 9.240124702453613 20.43013954162598 6.463935375213623 25.01450729370117 4.52490234375 C 29.76000595092773 2.517724514007568 34.80184936523438 1.500002145767212 39.99997329711914 1.500002145767212 C 45.19809722900391 1.500002145767212 50.23994064331055 2.517724514007568 54.98543930053711 4.52490234375 C 59.56981658935547 6.463935375213623 63.68731689453125 9.240124702453613 67.22357177734375 12.77637958526611 C 70.75982666015625 16.31263542175293 73.53601837158203 20.43013572692871 75.47505187988281 25.01451301574707 C 77.48223114013672 29.76001358032227 78.49995422363281 34.80185699462891 78.49995422363281 39.99998092651367 C 78.49995422363281 45.19855880737305 77.48223114013672 50.24040222167969 75.47505187988281 54.98590087890625 C 73.53601837158203 59.57027053833008 70.75982666015625 63.68776702880859 67.22357177734375 67.22402191162109 C 63.68731689453125 70.76027679443359 59.56981658935547 73.53648376464844 54.98543930053711 75.47550201416016 C 50.23994064331055 77.48268127441406 45.19809722900391 78.50040435791016 39.99997329711914 78.50040435791016 Z" stroke="none"/>
                    <path d="M 39.99997329711914 3 C 35.00369262695312 3 30.15843963623047 3.977851867675781 25.59883880615234 5.906417846679688 C 21.19326782226562 7.769813537597656 17.23602676391602 10.43805694580078 13.83704376220703 13.83704376220703 C 10.43805694580078 17.23601531982422 7.769813537597656 21.19325637817383 5.906410217285156 25.59882736206055 C 3.977851867675781 30.15844345092773 3 35.00368118286133 3 40.00042724609375 C 3 44.99672317504883 3.977851867675781 49.84196472167969 5.906410217285156 54.40157318115234 C 7.769813537597656 58.80714797973633 10.43805694580078 62.76438903808594 13.83704376220703 66.16336059570312 C 17.23602676391602 69.56234741210938 21.19326782226562 72.2305908203125 25.59883880615234 74.09398651123047 C 30.15843963623047 76.02255249023438 35.00369262695312 77.00040435791016 39.99997329711914 77.00040435791016 C 44.99625396728516 77.00040435791016 49.84150695800781 76.02255249023438 54.40110778808594 74.09398651123047 C 58.80667877197266 72.2305908203125 62.76391983032227 69.56234741210938 66.16290283203125 66.16336059570312 C 69.5618896484375 62.76438903808594 72.23013305664062 58.80714797973633 74.09353637695312 54.40157318115234 C 76.0220947265625 49.84196472167969 76.99994659423828 44.99672317504883 76.99994659423828 39.99997711181641 C 76.99994659423828 35.00368118286133 76.0220947265625 30.15844345092773 74.09353637695312 25.59882736206055 C 72.23013305664062 21.19325637817383 69.5618896484375 17.23601531982422 66.16290283203125 13.83704376220703 C 62.76391983032227 10.43805694580078 58.80667877197266 7.769813537597656 54.40110778808594 5.906417846679688 C 49.84150695800781 3.977851867675781 44.99625396728516 3 39.99997329711914 3 M 39.99997329711914 0 C 62.09134674072266 0 79.99994659423828 17.90858840942383 79.99994659423828 39.99997711181641 L 79.99994659423828 40.00042724609375 C 79.99994659423828 62.09181594848633 62.09134674072266 80.00040435791016 39.99997329711914 80.00040435791016 C 17.90859985351562 80.00040435791016 0 62.09181594848633 0 40.00042724609375 L 0 39.99997711181641 C 0 17.90858840942383 17.90859985351562 0 39.99997329711914 0 Z" stroke="none" fill="#fff"/>
                  </g>
                </g>
              </g>
            </g>
          </g>
        </g>
      </g>
    </g>
    <g id="tacho-de-reciclaje" transform="translate(776.051 9871.418)">
      <path id="Path_1242430" data-name="Path 1242430" d="M132.348,75.359a3.619,3.619,0,0,1-3.518,3.189H107.25a3.619,3.619,0,0,1-3.518-3.189l-3.4-34.575a2.854,2.854,0,0,1,2.89-3.189h29.645a2.854,2.854,0,0,1,2.89,3.189Z" transform="translate(-90.907 -7.262)" fill="#333e48"/>
      <g id="Group_1200922" data-name="Group 1200922" transform="translate(3.14 30.333)">
        <path id="Path_1242431" data-name="Path 1242431" d="M111.48,37.594a3.581,3.581,0,0,1,0,7.162H78.407a3.581,3.581,0,0,1,0-7.162Z" transform="translate(-70.951 -37.594)" fill="#3e4a57"/>
        <path id="Path_1242432" data-name="Path 1242432" d="M65.534,75.359a3.619,3.619,0,0,1-3.518,3.189H40.435a3.619,3.619,0,0,1-3.518-3.189l-3.4-34.575A2.854,2.854,0,0,1,36.4,37.6H66.048a2.854,2.854,0,0,1,2.89,3.189Z" transform="translate(-33.497 -37.595)" fill="#3e4a57"/>
      </g>
      <path id="Path_1242433" data-name="Path 1242433" d="M44.666,37.594a3.581,3.581,0,0,1,0,7.162H11.592a3.581,3.581,0,0,1,0-7.162Z" transform="translate(-7.26 -7.261)" fill="#4c5b6b"/>
      <g id="Group_1200923" data-name="Group 1200923" transform="translate(11.158 43.26)">
        <path id="Path_1242434" data-name="Path 1242434" d="M179.715,180.916l-3.14-5.439H172.01l-2.721,4.712,2.047-.26.834,1.989,2.145-3.714,2.525,4.373-1.483.856,4.225.538,1.647-3.929Z" transform="translate(-164.575 -175.477)" fill="#8dcd6f"/>
        <path id="Path_1242435" data-name="Path 1242435" d="M122.151,241.177l-3.14,5.439h0l2.283,3.953h5.441l-1.249-1.643,1.305-1.716H122.5l2.525-4.373,1.483.856-1.647-3.928-4.226.538Z" transform="translate(-119.011 -233.738)" fill="#8dcd6f"/>
        <path id="Path_1242436" data-name="Path 1242436" d="M209.916,271.02h6.28l2.282-3.953h0l-2.721-4.712-.8,1.9-2.139-.272,2.145,3.715h-5.049v-1.712l-2.579,3.391,2.579,3.391Z" transform="translate(-199.056 -254.209)" fill="#8dcd6f"/>
      </g>
      <path id="Path_1242437" data-name="Path 1242437" d="M43.67,29.582H4.332a4.332,4.332,0,0,0-1.492,8.4L5.813,68.171a4.379,4.379,0,0,0,4.266,3.866H37.923a4.379,4.379,0,0,0,4.266-3.866l2.973-30.189a4.332,4.332,0,0,0-1.492-8.4ZM1.5,33.914a2.833,2.833,0,0,1,2.83-2.83H37.406a2.83,2.83,0,1,1,0,5.66H4.332A2.833,2.833,0,0,1,1.5,33.914ZM31.659,70.535H10.079a2.881,2.881,0,0,1-2.771-2.511L4.376,38.246H37.362L34.43,68.023A2.882,2.882,0,0,1,31.659,70.535Zm9.035-2.511a2.882,2.882,0,0,1-2.771,2.511H34.878a4.226,4.226,0,0,0,1.047-2.364l2.947-29.924h4.755ZM43.67,36.744H40.682a4.319,4.319,0,0,0,0-5.66H43.67a2.83,2.83,0,0,1,0,5.66Z"/>
    </g>
  </g>
</svg>
