<svg xmlns="http://www.w3.org/2000/svg" xmlns:xlink="http://www.w3.org/1999/xlink" width="98" height="98" viewBox="0 0 98 98">
  <defs>
    <filter id="Path_874925" x="0" y="0.002" width="98" height="98" filterUnits="userSpaceOnUse">
      <feOffset dy="3" input="SourceAlpha"/>
      <feGaussianBlur stdDeviation="3" result="blur"/>
      <feFlood flood-opacity="0.161"/>
      <feComposite operator="in" in2="blur"/>
      <feComposite in="SourceGraphic"/>
    </filter>
    <clipPath id="clip-path">
      <path id="path10767" d="M0-682.665H51.686v51.686H0Z" transform="translate(0 682.665)"/>
    </clipPath>
  </defs>
  <g id="Group_1200933" data-name="Group 1200933" transform="translate(-331.051 -18688.987)">
    <g id="Group_1200875" data-name="Group 1200875" transform="translate(55.051 12597.581)">
      <g id="Group_1187153" data-name="Group 1187153">
        <g id="Group_1182177" data-name="Group 1182177">
          <g id="Group_1181903" data-name="Group 1181903">
            <g id="Group_1181438" data-name="Group 1181438">
              <g id="Group_1111314" data-name="Group 1111314" transform="translate(-734.73 3020.407)">
                <g transform="matrix(1, 0, 0, 1, 1010.73, 3071)" filter="url(#Path_874925)">
                  <g id="Path_874925-2" data-name="Path 874925" transform="translate(9 6)" fill="#ffc94a">
                    <path d="M 39.99997329711914 78.50040435791016 C 34.80184936523438 78.50040435791016 29.76000595092773 77.48268127441406 25.01450729370117 75.47550201416016 C 20.43013954162598 73.53648376464844 16.3126392364502 70.76027679443359 12.7763843536377 67.22402191162109 C 9.240128517150879 63.68776702880859 6.463928699493408 59.57027053833008 4.524906635284424 54.98590087890625 C 2.517728805541992 50.24040222167969 1.500006675720215 45.19855880737305 1.500006675720215 40.00043487548828 C 1.500006675720215 34.80185699462891 2.517728805541992 29.76001358032227 4.524906635284424 25.01451301574707 C 6.463928699493408 20.43013572692871 9.240128517150879 16.31263542175293 12.7763843536377 12.77637958526611 C 16.3126392364502 9.240124702453613 20.43013954162598 6.463935375213623 25.01450729370117 4.52490234375 C 29.76000595092773 2.517724514007568 34.80184936523438 1.500002145767212 39.99997329711914 1.500002145767212 C 45.19809722900391 1.500002145767212 50.23994064331055 2.517724514007568 54.98543930053711 4.52490234375 C 59.56981658935547 6.463935375213623 63.68731689453125 9.240124702453613 67.22357177734375 12.77637958526611 C 70.75982666015625 16.31263542175293 73.53601837158203 20.43013572692871 75.47505187988281 25.01451301574707 C 77.48223114013672 29.76001358032227 78.49995422363281 34.80185699462891 78.49995422363281 39.99998092651367 C 78.49995422363281 45.19855880737305 77.48223114013672 50.24040222167969 75.47505187988281 54.98590087890625 C 73.53601837158203 59.57027053833008 70.75982666015625 63.68776702880859 67.22357177734375 67.22402191162109 C 63.68731689453125 70.76027679443359 59.56981658935547 73.53648376464844 54.98543930053711 75.47550201416016 C 50.23994064331055 77.48268127441406 45.19809722900391 78.50040435791016 39.99997329711914 78.50040435791016 Z" stroke="none"/>
                    <path d="M 39.99997329711914 3 C 35.00369262695312 3 30.15843963623047 3.977851867675781 25.59883880615234 5.906417846679688 C 21.19326782226562 7.769813537597656 17.23602676391602 10.43805694580078 13.83704376220703 13.83704376220703 C 10.43805694580078 17.23601531982422 7.769813537597656 21.19325637817383 5.906410217285156 25.59882736206055 C 3.977851867675781 30.15844345092773 3 35.00368118286133 3 40.00042724609375 C 3 44.99672317504883 3.977851867675781 49.84196472167969 5.906410217285156 54.40157318115234 C 7.769813537597656 58.80714797973633 10.43805694580078 62.76438903808594 13.83704376220703 66.16336059570312 C 17.23602676391602 69.56234741210938 21.19326782226562 72.2305908203125 25.59883880615234 74.09398651123047 C 30.15843963623047 76.02255249023438 35.00369262695312 77.00040435791016 39.99997329711914 77.00040435791016 C 44.99625396728516 77.00040435791016 49.84150695800781 76.02255249023438 54.40110778808594 74.09398651123047 C 58.80667877197266 72.2305908203125 62.76391983032227 69.56234741210938 66.16290283203125 66.16336059570312 C 69.5618896484375 62.76438903808594 72.23013305664062 58.80714797973633 74.09353637695312 54.40157318115234 C 76.0220947265625 49.84196472167969 76.99994659423828 44.99672317504883 76.99994659423828 39.99997711181641 C 76.99994659423828 35.00368118286133 76.0220947265625 30.15844345092773 74.09353637695312 25.59882736206055 C 72.23013305664062 21.19325637817383 69.5618896484375 17.23601531982422 66.16290283203125 13.83704376220703 C 62.76391983032227 10.43805694580078 58.80667877197266 7.769813537597656 54.40110778808594 5.906417846679688 C 49.84150695800781 3.977851867675781 44.99625396728516 3 39.99997329711914 3 M 39.99997329711914 0 C 62.09134674072266 0 79.99994659423828 17.90858840942383 79.99994659423828 39.99997711181641 L 79.99994659423828 40.00042724609375 C 79.99994659423828 62.09181594848633 62.09134674072266 80.00040435791016 39.99997329711914 80.00040435791016 C 17.90859985351562 80.00040435791016 0 62.09181594848633 0 40.00042724609375 L 0 39.99997711181641 C 0 17.90858840942383 17.90859985351562 0 39.99997329711914 0 Z" stroke="none" fill="#fff"/>
                  </g>
                </g>
              </g>
            </g>
          </g>
        </g>
      </g>
    </g>
    <g id="g10761" transform="translate(354.208 19391.811)">
      <g id="g10763" transform="translate(0 -682.665)">
        <g id="g10765" clip-path="url(#clip-path)">
          <g id="g10771" transform="translate(6.088 27.164)">
            <path id="path10773" d="M-365.7-60v9.148h-29.956V-60A3.168,3.168,0,0,1-393.1-63.11l4.768-.945,4.348-.862h6.62l4.348.862,4.768.945A3.168,3.168,0,0,1-365.7-60" transform="translate(395.656 64.917)" fill="#c8effe"/>
          </g>
          <g id="g10775" transform="translate(21.152 27.164)">
            <path id="path10777" d="M-150.655-22.065l-4.768-.945-4.349-.862H-163l4.348.862,4.768.945a3.169,3.169,0,0,1,2.551,3.108v9.148h3.224v-9.148a3.169,3.169,0,0,0-2.551-3.108" transform="translate(162.996 23.872)" fill="#a0ecf9"/>
          </g>
          <g id="g10779" transform="translate(9.534 0.757)">
            <path id="path10781" d="M-263.9-268.58h-20.169a1.447,1.447,0,0,1-1.444-1.54l.971-15.1a5.732,5.732,0,0,1,5.72-5.364h9.677a5.731,5.731,0,0,1,5.72,5.364l.971,15.1a1.448,1.448,0,0,1-1.445,1.54" transform="translate(285.516 290.581)" fill="#8d9ca8"/>
          </g>
          <g id="g10783" transform="translate(22.68 0.757)">
            <path id="path10785" d="M-121.045-249.774l-.971-15.1a5.732,5.732,0,0,0-5.72-5.364h-3.224a5.731,5.731,0,0,1,5.72,5.364l.971,15.1a1.448,1.448,0,0,1-1.445,1.54h3.224a1.448,1.448,0,0,0,1.444-1.54" transform="translate(130.96 270.234)" fill="#7a8d98"/>
          </g>
          <g id="g10787" transform="translate(6.088 41.227)">
            <path id="path10789" d="M-365.7,0V8.369A1.333,1.333,0,0,1-367.033,9.7h-27.291a1.333,1.333,0,0,1-1.333-1.333V0Z" transform="translate(395.656)" fill="#ffcebf"/>
          </g>
          <g id="g10791" transform="translate(31.487 41.227)">
            <path id="path10793" d="M-16.269,0V8.369A1.333,1.333,0,0,1-17.6,9.7h3.224a1.333,1.333,0,0,0,1.333-1.333V0Z" transform="translate(17.601)" fill="#ffaf9e"/>
          </g>
          <g id="g10795" transform="translate(13.398 6.008)">
            <path id="path10797" d="M-187.211-76.95v4.043a6.4,6.4,0,0,1-6.4,6.4h-2.529a6.4,6.4,0,0,1-6.4-6.4V-76.95l7.668-6.3Z" transform="translate(202.546 83.253)" fill="#ffcebf"/>
          </g>
          <g id="g10799" transform="translate(19.454 6.008)">
            <path id="path10801" d="M-19.687,0-21.3,1.325-15.245,6.3v4.043A6.4,6.4,0,0,1-21.3,16.74c.115.006.231.01.348.01h2.529a6.4,6.4,0,0,0,6.4-6.4V6.3Z" transform="translate(21.3)" fill="#ffaf9e"/>
          </g>
          <g id="g10803" transform="translate(9.981 12.312)">
            <path id="path10805" d="M-41.711-48.9h-2.333a1.083,1.083,0,0,1-1.083-1.083v-1.839a1.083,1.083,0,0,1,1.083-1.083h2.333Z" transform="translate(45.128 52.909)" fill="#ffaf9e"/>
          </g>
          <g id="g10807" transform="translate(28.734 12.312)">
            <path id="path10809" d="M0-48.9H2.333a1.083,1.083,0,0,0,1.083-1.083v-1.839a1.083,1.083,0,0,0-1.083-1.083H0Z" transform="translate(0 52.909)" fill="#ffaf9e"/>
          </g>
          <path id="path10811" d="M241.139-405.348h-6.62v6.168h6.62Z" transform="translate(-216.762 426.344)" fill="#ffcebf"/>
          <path id="path10813" d="M279.374-399.179H282.6v-6.168h-3.224Z" transform="translate(-258.222 426.343)" fill="#ffaf9e"/>
          <g id="g10815" transform="translate(12.095 36.562)">
            <path id="path10817" d="M-219.028-175.383h-17.941l1.312-14.366h15.317Z" transform="translate(236.969 189.749)" fill="#bbec6c"/>
          </g>
          <g id="g10819" transform="translate(26.307 36.562)">
            <path id="path10821" d="M-29.5,0H-31.92l1.312,14.366h2.417Z" transform="translate(31.92)" fill="#a2e62e"/>
          </g>
          <g id="g10823" transform="translate(13.407 27.164)">
            <path id="path10825" d="M-53.085,0V9.4h-4.348V.862Z" transform="translate(57.433)" fill="#bbec6c"/>
          </g>
          <g id="g10827" transform="translate(15.339 27.164)">
            <path id="path10829" d="M0-5.849V3.07H2.417v-9.4Z" transform="translate(0 6.328)" fill="#a2e62e"/>
          </g>
          <g id="g10831" transform="translate(24.376 27.164)">
            <path id="path10833" d="M-53.086-10.522v8.536h-4.348v-9.4Z" transform="translate(57.435 11.384)" fill="#bbec6c"/>
          </g>
          <g id="g10835" transform="translate(24.376 27.164)">
            <path id="path10837" d="M0,0V.479L1.932.862V9.4H4.348V.862Z" fill="#a2e62e"/>
          </g>
          <g id="g10839" transform="translate(40.739 24.961)">
            <path id="path10841" d="M-29.962-317.013H-31.9a.514.514,0,0,1-.514-.514V-342.98h2.968v25.454a.514.514,0,0,1-.514.514" transform="translate(32.416 342.98)" fill="#8379c1"/>
          </g>
          <g id="g10843" transform="translate(36.713 20.416)">
            <path id="path10845" d="M-115.422-55.484h-7.687a1.768,1.768,0,0,1-1.768-1.768v-2.777h11.223v2.777a1.768,1.768,0,0,1-1.768,1.768" transform="translate(124.877 60.029)" fill="#aca5d6"/>
          </g>
          <g id="g10847" transform="translate(43.146 20.416)">
            <path id="path10849" d="M-21.581,0V2.777a1.768,1.768,0,0,1-1.768,1.768h3.022a1.768,1.768,0,0,0,1.768-1.768V0Z" transform="translate(23.349)" fill="#978ecb"/>
          </g>
          <g id="g10851" transform="translate(35.314 12.642)">
            <path id="path10853" d="M-162,0h-12.519a.751.751,0,0,0-.736.9l1.384,6.875h11.223L-161.267.9A.751.751,0,0,0-162,0" transform="translate(175.273)" fill="#ffdfcf"/>
          </g>
          <g id="g10855" transform="translate(44.913 12.642)">
            <path id="path10857" d="M-44.813,0h-3.022A.751.751,0,0,1-47.1.9l-1.384,6.875h3.022L-44.077.9a.751.751,0,0,0-.736-.9" transform="translate(48.484)" fill="#ffcebf"/>
          </g>
          <g id="g10859" transform="translate(13.398 14.383)">
            <path id="path10861" d="M-187.211-23.614v.037a6.4,6.4,0,0,1-6.4,6.4h-2.529a6.4,6.4,0,0,1-6.4-6.4v-.037l7.668-1.934Z" transform="translate(202.546 25.548)" fill="#e8edf1"/>
          </g>
          <g id="g10863" transform="translate(19.454 14.383)">
            <path id="path10865" d="M-19.684,0-21.3.407l6.055,1.528v.037A6.4,6.4,0,0,1-21.3,8.365c.115.006.231.01.348.01h2.529a6.4,6.4,0,0,0,6.4-6.4V1.934Z" transform="translate(21.296)" fill="#d1e1e5"/>
          </g>
          <g id="g10867" transform="translate(5.331 26.407)">
            <path id="path10869" d="M20.713-180.164a.757.757,0,0,1-.757-.757v-9.148a2.417,2.417,0,0,0-1.942-2.365l-9.043-1.793H2.5l-9.043,1.793a2.417,2.417,0,0,0-1.942,2.365v9.148a.757.757,0,0,1-.757.757.757.757,0,0,1-.757-.757v-9.148a3.935,3.935,0,0,1,3.161-3.85l9.117-1.807a.759.759,0,0,1,.147-.014h6.62a.759.759,0,0,1,.147.014l9.116,1.807a3.935,3.935,0,0,1,3.161,3.85v9.148A.757.757,0,0,1,20.713-180.164Z" transform="translate(10 195.741)"/>
          </g>
          <g id="g10871" transform="translate(5.331 40.469)">
            <path id="path10873" d="M19.38-46.07H-7.91A2.092,2.092,0,0,1-10-48.16v-4.789a.757.757,0,0,1,.757-.757.757.757,0,0,1,.757.757v4.789a.576.576,0,0,0,.575.576H19.38a.576.576,0,0,0,.575-.576v-7.613H13.819a.757.757,0,0,1-.757-.757.757.757,0,0,1,.757-.757h6.894a.757.757,0,0,1,.757.757v8.37A2.092,2.092,0,0,1,19.38-46.07Z" transform="translate(10 57.287)"/>
          </g>
          <g id="g10875" transform="translate(5.331 40.469)">
            <path id="path10877" d="M-93.39-8.486h-6.893a.757.757,0,0,1-.757-.757.757.757,0,0,1,.757-.757h6.893a.757.757,0,0,1,.757.757A.757.757,0,0,1-93.39-8.486Z" transform="translate(101.04 10)"/>
          </g>
          <g id="g10879" transform="translate(12.641 5.251)">
            <path id="path10881" d="M-204.121-93.253a.756.756,0,0,1,.481.172l7.667,6.3a.757.757,0,0,1,.276.585v4.043a7.168,7.168,0,0,1-7.16,7.16h-2.529a7.168,7.168,0,0,1-7.16-7.16v-4.043a.757.757,0,0,1,.276-.585l7.668-6.3A.756.756,0,0,1-204.121-93.253Zm6.91,7.418-6.91-5.681-6.911,5.681v3.685a5.652,5.652,0,0,0,5.646,5.646h2.529a5.652,5.652,0,0,0,5.646-5.646Z" transform="translate(212.546 93.253)"/>
          </g>
          <g id="g10883" transform="translate(9.224 11.555)">
            <path id="path10885" d="M-50.954-57.389h-2.333a1.842,1.842,0,0,1-1.84-1.84v-1.839a1.842,1.842,0,0,1,1.84-1.84h2.333a.757.757,0,0,1,.757.757v4.006A.757.757,0,0,1-50.954-57.389Zm-2.333-4.006a.327.327,0,0,0-.326.326v1.839a.326.326,0,0,0,.326.326h1.576v-2.492Z" transform="translate(55.128 62.909)"/>
          </g>
          <g id="g10887" transform="translate(27.977 11.555)">
            <path id="path10889" d="M-6.91-57.389H-9.243A.757.757,0,0,1-10-58.146v-4.006a.757.757,0,0,1,.757-.757H-6.91a1.843,1.843,0,0,1,1.84,1.84v1.839A1.842,1.842,0,0,1-6.91-57.389ZM-8.486-58.9H-6.91a.327.327,0,0,0,.326-.326v-1.839a.327.327,0,0,0-.326-.326H-8.486Z" transform="translate(10 62.909)"/>
          </g>
          <g id="g10891" transform="translate(16.999 22.001)">
            <path id="path10893" d="M-90.062-4.079h-6.62a.757.757,0,0,1-.757-.757V-9.243A.757.757,0,0,1-96.683-10a.757.757,0,0,1,.757.757v3.649h5.106V-9.243A.757.757,0,0,1-90.062-10a.757.757,0,0,1,.757.757v4.406A.757.757,0,0,1-90.062-4.079Z" transform="translate(97.44 10)"/>
          </g>
          <g id="g10895" transform="translate(8.777 13.539)">
            <path id="path10897" d="M-286.344-.025h-20.169a2.213,2.213,0,0,1-1.608-.7,2.213,2.213,0,0,1-.592-1.649l.444-6.905a.757.757,0,0,1,.8-.707.757.757,0,0,1,.707.8l-.444,6.9a.684.684,0,0,0,.186.517.684.684,0,0,0,.5.218h20.169a.683.683,0,0,0,.5-.218.684.684,0,0,0,.186-.517l-.445-6.921a.757.757,0,0,1,.707-.8.757.757,0,0,1,.8.707l.445,6.921a2.213,2.213,0,0,1-.592,1.65A2.212,2.212,0,0,1-286.344-.025Z" transform="translate(308.718 10)"/>
          </g>
          <g id="g10899" transform="translate(9.31 0)">
            <path id="path10901" d="M12.755-157.59A.757.757,0,0,1,12-158.3l-.441-6.852a4.986,4.986,0,0,0-4.964-4.655H-3.082a4.985,4.985,0,0,0-4.964,4.655l-.441,6.85a.757.757,0,0,1-.8.707.757.757,0,0,1-.707-.8l.441-6.85a6.5,6.5,0,0,1,6.475-6.072H6.595a6.5,6.5,0,0,1,6.475,6.072l.441,6.853a.757.757,0,0,1-.707.8Z" transform="translate(10 171.32)"/>
          </g>
          <g id="g10903" transform="translate(11.338 35.805)">
            <path id="path10905" d="M-228.27-183.868h-17.941a.757.757,0,0,1-.559-.247.757.757,0,0,1-.195-.579l1.312-14.366a.757.757,0,0,1,.754-.688h15.317a.757.757,0,0,1,.754.688l1.312,14.366a.757.757,0,0,1-.195.579A.757.757,0,0,1-228.27-183.868Zm-17.112-1.514H-229.1l-1.174-12.852h-13.934Z" transform="translate(246.969 199.749)"/>
          </g>
          <g id="g10907" transform="translate(12.65 26.407)">
            <path id="path10909" d="M-62.328-10a.757.757,0,0,1,.481.172.757.757,0,0,1,.277.585v9.4a.757.757,0,0,1-.757.757h-4.348a.757.757,0,0,1-.757-.757V-8.381a.757.757,0,0,1,.61-.743l4.348-.862A.757.757,0,0,1-62.328-10Zm-.757,9.4V-8.321l-2.834.562V-.6Z" transform="translate(67.433 10)"/>
          </g>
          <g id="g10911" transform="translate(23.619 26.407)">
            <path id="path10913" d="M-66.677-21.384a.757.757,0,0,1,.147.014l4.348.862a.757.757,0,0,1,.61.743v8.536a.757.757,0,0,1-.757.757h-4.348a.757.757,0,0,1-.757-.757v-9.4a.757.757,0,0,1,.277-.585A.757.757,0,0,1-66.677-21.384Zm3.591,2.241-2.834-.562v7.719h2.834Z" transform="translate(67.434 21.384)"/>
          </g>
          <g id="g10915" transform="translate(20.309 11.885)">
            <path id="path10917" d="M-9.243-6.745A.757.757,0,0,1-10-7.5V-9.243A.757.757,0,0,1-9.243-10a.757.757,0,0,1,.757.757V-7.5A.757.757,0,0,1-9.243-6.745Z" transform="translate(10 10)"/>
          </g>
          <g id="g10919" transform="translate(39.982 24.204)">
            <path id="path10921" d="M-45.99-29.243H-47.93A1.272,1.272,0,0,1-49.2-30.514V-55.968a.757.757,0,0,1,.757-.757h2.968a.757.757,0,0,1,.757.757.757.757,0,0,1-.757.757h-2.211v24.453h1.454V-52.43a.757.757,0,0,1,.757-.757.757.757,0,0,1,.757.757v21.916A1.272,1.272,0,0,1-45.99-29.243Z" transform="translate(49.201 56.725)"/>
          </g>
          <g id="g10923" transform="translate(35.956 19.659)">
            <path id="path10925" d="M-124.665-63.97h-7.687a2.528,2.528,0,0,1-2.525-2.525v-2.777a.757.757,0,0,1,.757-.757H-122.9a.757.757,0,0,1,.757.757v2.777A2.528,2.528,0,0,1-124.665-63.97Zm-8.7-4.545v2.02a1.012,1.012,0,0,0,1.011,1.011h7.687a1.012,1.012,0,0,0,1.011-1.011v-2.02Z" transform="translate(134.877 70.029)"/>
          </g>
          <g id="g10927" transform="translate(34.557 11.885)">
            <path id="path10929" d="M-183.765-10h12.519a1.5,1.5,0,0,1,1.167.553,1.5,1.5,0,0,1,.312,1.253l-1.384,6.875a.757.757,0,0,1-.742.608h-11.223a.757.757,0,0,1-.742-.608l-1.384-6.875a1.5,1.5,0,0,1,.312-1.253A1.5,1.5,0,0,1-183.765-10Zm11.251,7.774,1.262-6.267-12.514.008,1.268,6.26Z" transform="translate(185.273 10)"/>
          </g>
          <g id="g10931" transform="translate(20.309 0)">
            <path id="path10933" d="M-9.243-72.6A.757.757,0,0,1-10-73.356v-5.252a.757.757,0,0,1,.757-.757.757.757,0,0,1,.757.757v5.252A.757.757,0,0,1-9.243-72.6Z" transform="translate(10 79.365)"/>
          </g>
          <g id="g10935" transform="translate(12.641 13.626)">
            <path id="path10937" d="M-204.121-35.548a.757.757,0,0,1,.185.023l7.667,1.934a.757.757,0,0,1,.572.734,7.176,7.176,0,0,1-7.16,7.2h-2.529a7.168,7.168,0,0,1-7.16-7.16.8.8,0,0,1,.572-.771l7.668-1.934A.757.757,0,0,1-204.121-35.548Zm6.884,3.275-6.884-1.737L-211-32.274a5.656,5.656,0,0,0,5.617,5.1h2.529A5.654,5.654,0,0,0-197.237-32.273Z" transform="translate(212.546 35.548)"/>
          </g>
          <g id="g10939" transform="translate(38.545 11.885)">
            <path id="path10941" d="M-9.243-45.043A.757.757,0,0,1-10-45.8v-2.995a.757.757,0,0,1,.757-.757.757.757,0,0,1,.757.757V-45.8A.757.757,0,0,1-9.243-45.043Z" transform="translate(10 49.552)"/>
          </g>
          <g id="g10943" transform="translate(41.669 11.885)">
            <path id="path10945" d="M-9.243-45.043A.757.757,0,0,1-10-45.8v-2.995a.757.757,0,0,1,.757-.757.757.757,0,0,1,.757.757V-45.8A.757.757,0,0,1-9.243-45.043Z" transform="translate(10 49.552)"/>
          </g>
          <g id="g10947" transform="translate(45.013 1.993)">
            <path id="path10949" d="M-9.243-5.33A.757.757,0,0,1-10-6.087V-9.243A.757.757,0,0,1-9.243-10a.757.757,0,0,1,.757.757v3.156A.757.757,0,0,1-9.243-5.33Z" transform="translate(10 10)"/>
          </g>
          <g id="g10951" transform="translate(43.435 3.571)">
            <path id="path10953" d="M-47.772-8.486h-3.156a.757.757,0,0,1-.757-.757A.757.757,0,0,1-50.928-10h3.156a.757.757,0,0,1,.757.757A.757.757,0,0,1-47.772-8.486Z" transform="translate(51.685 10)"/>
          </g>
          <g id="g10955" transform="translate(3.171 20.497)">
            <path id="path10957" d="M-9.243-5.33A.757.757,0,0,1-10-6.087V-9.243A.757.757,0,0,1-9.243-10a.757.757,0,0,1,.757.757v3.156A.757.757,0,0,1-9.243-5.33Z" transform="translate(10 10)"/>
          </g>
          <g id="g10959" transform="translate(1.593 22.075)">
            <path id="path10961" d="M-47.772-8.486h-3.156a.757.757,0,0,1-.757-.757A.757.757,0,0,1-50.928-10h3.156a.757.757,0,0,1,.757.757A.757.757,0,0,1-47.772-8.486Z" transform="translate(51.685 10)"/>
          </g>
        </g>
      </g>
    </g>
  </g>
</svg>
