<svg xmlns="http://www.w3.org/2000/svg" xmlns:xlink="http://www.w3.org/1999/xlink" width="98" height="98" viewBox="0 0 98 98">
  <defs>
    <filter id="Path_874925" x="0" y="0" width="98" height="98" filterUnits="userSpaceOnUse">
      <feOffset dy="3" input="SourceAlpha"/>
      <feGaussianBlur stdDeviation="3" result="blur"/>
      <feFlood flood-opacity="0.161"/>
      <feComposite operator="in" in2="blur"/>
      <feComposite in="SourceGraphic"/>
    </filter>
  </defs>
  <g id="Group_1200519" data-name="Group 1200519" transform="translate(-276 -6091.407)">
    <g id="Group_1187153" data-name="Group 1187153">
      <g id="Group_1182177" data-name="Group 1182177">
        <g id="Group_1181903" data-name="Group 1181903">
          <g id="Group_1181438" data-name="Group 1181438">
            <g id="Group_1111314" data-name="Group 1111314" transform="translate(-734.73 3020.407)">
              <g transform="matrix(1, 0, 0, 1, 1010.73, 3071)" filter="url(#Path_874925)">
                <g id="Path_874925-2" data-name="Path 874925" transform="translate(9 6)" fill="#ffc94a">
                  <path d="M 39.99997329711914 78.50040435791016 C 34.80184936523438 78.50040435791016 29.76000595092773 77.48268127441406 25.01450729370117 75.47550201416016 C 20.43013954162598 73.53648376464844 16.3126392364502 70.76027679443359 12.7763843536377 67.22402191162109 C 9.240128517150879 63.68776702880859 6.463928699493408 59.57027053833008 4.524906635284424 54.98590087890625 C 2.517728805541992 50.24040222167969 1.500006675720215 45.19855880737305 1.500006675720215 40.00043487548828 C 1.500006675720215 34.80185699462891 2.517728805541992 29.76001358032227 4.524906635284424 25.01451301574707 C 6.463928699493408 20.43013572692871 9.240128517150879 16.31263542175293 12.7763843536377 12.77637958526611 C 16.3126392364502 9.240124702453613 20.43013954162598 6.463935375213623 25.01450729370117 4.52490234375 C 29.76000595092773 2.517724514007568 34.80184936523438 1.500002145767212 39.99997329711914 1.500002145767212 C 45.19809722900391 1.500002145767212 50.23994064331055 2.517724514007568 54.98543930053711 4.52490234375 C 59.56981658935547 6.463935375213623 63.68731689453125 9.240124702453613 67.22357177734375 12.77637958526611 C 70.75982666015625 16.31263542175293 73.53601837158203 20.43013572692871 75.47505187988281 25.01451301574707 C 77.48223114013672 29.76001358032227 78.49995422363281 34.80185699462891 78.49995422363281 39.99998092651367 C 78.49995422363281 45.19855880737305 77.48223114013672 50.24040222167969 75.47505187988281 54.98590087890625 C 73.53601837158203 59.57027053833008 70.75982666015625 63.68776702880859 67.22357177734375 67.22402191162109 C 63.68731689453125 70.76027679443359 59.56981658935547 73.53648376464844 54.98543930053711 75.47550201416016 C 50.23994064331055 77.48268127441406 45.19809722900391 78.50040435791016 39.99997329711914 78.50040435791016 Z" stroke="none"/>
                  <path d="M 39.99997329711914 3 C 35.00369262695312 3 30.15843963623047 3.977851867675781 25.59883880615234 5.906417846679688 C 21.19326782226562 7.769813537597656 17.23602676391602 10.43805694580078 13.83704376220703 13.83704376220703 C 10.43805694580078 17.23601531982422 7.769813537597656 21.19325637817383 5.906410217285156 25.59882736206055 C 3.977851867675781 30.15844345092773 3 35.00368118286133 3 40.00042724609375 C 3 44.99672317504883 3.977851867675781 49.84196472167969 5.906410217285156 54.40157318115234 C 7.769813537597656 58.80714797973633 10.43805694580078 62.76438903808594 13.83704376220703 66.16336059570312 C 17.23602676391602 69.56234741210938 21.19326782226562 72.2305908203125 25.59883880615234 74.09398651123047 C 30.15843963623047 76.02255249023438 35.00369262695312 77.00040435791016 39.99997329711914 77.00040435791016 C 44.99625396728516 77.00040435791016 49.84150695800781 76.02255249023438 54.40110778808594 74.09398651123047 C 58.80667877197266 72.2305908203125 62.76391983032227 69.56234741210938 66.16290283203125 66.16336059570312 C 69.5618896484375 62.76438903808594 72.23013305664062 58.80714797973633 74.09353637695312 54.40157318115234 C 76.0220947265625 49.84196472167969 76.99994659423828 44.99672317504883 76.99994659423828 39.99997711181641 C 76.99994659423828 35.00368118286133 76.0220947265625 30.15844345092773 74.09353637695312 25.59882736206055 C 72.23013305664062 21.19325637817383 69.5618896484375 17.23601531982422 66.16290283203125 13.83704376220703 C 62.76391983032227 10.43805694580078 58.80667877197266 7.769813537597656 54.40110778808594 5.906417846679688 C 49.84150695800781 3.977851867675781 44.99625396728516 3 39.99997329711914 3 M 39.99997329711914 0 C 62.09134674072266 0 79.99994659423828 17.90858840942383 79.99994659423828 39.99997711181641 L 79.99994659423828 40.00042724609375 C 79.99994659423828 62.09181594848633 62.09134674072266 80.00040435791016 39.99997329711914 80.00040435791016 C 17.90859985351562 80.00040435791016 0 62.09181594848633 0 40.00042724609375 L 0 39.99997711181641 C 0 17.90858840942383 17.90859985351562 0 39.99997329711914 0 Z" stroke="none" fill="#fff"/>
                </g>
              </g>
            </g>
          </g>
        </g>
      </g>
    </g>
    <g id="chicken_3061655" transform="translate(286.68 6111.093)">
      <g id="Group_1200221" data-name="Group 1200221" transform="translate(22.424 19.539)">
        <path id="Path_1241270" data-name="Path 1241270" d="M113.271,213.019a12.589,12.589,0,0,1,3.967-.739c2.969,0,2.969.925,5.938.925a9.8,9.8,0,0,0,1.6-.115,16.97,16.97,0,0,0,12.165-16.275V191.1a1.009,1.009,0,0,0-1.488-.891,24.045,24.045,0,0,1-11.538,2.949H113.234l-1.147.787a1.478,1.478,0,0,1-1.671,0l-.311-.213a1.478,1.478,0,0,0-1.672,0l-.31.213a1.477,1.477,0,0,1-1.672,0l-.31-.213a1.478,1.478,0,0,0-1.672,0l-.309.212a1.478,1.478,0,0,1-1.672,0l-1.146-.786v3.654A16.97,16.97,0,0,0,113.271,213.019Z" transform="translate(-101.342 -190.088)" fill="#e7a561"/>
      </g>
      <g id="Group_1200222" data-name="Group 1200222" transform="translate(22.424 7.527)">
        <path id="Path_1241271" data-name="Path 1241271" d="M113.234,88.3l-1.147.787a1.478,1.478,0,0,1-1.671,0l-.311-.213a1.478,1.478,0,0,0-1.672,0l-.31.213a1.478,1.478,0,0,1-1.672,0l-.31-.213a1.478,1.478,0,0,0-1.672,0l-.309.212a1.478,1.478,0,0,1-1.672,0l-1.146-.786V78.212a4.992,4.992,0,0,1,4.992-4.992,6.9,6.9,0,0,1,6.9,6.9V88.3Z" transform="translate(-101.342 -73.22)" fill="#e7a561"/>
      </g>
      <g id="Group_1200223" data-name="Group 1200223" transform="translate(29.823 19.539)">
        <path id="Path_1241272" data-name="Path 1241272" d="M200.043,190.211a24.065,24.065,0,0,1-2.623,1.236v3.312a16.97,16.97,0,0,1-12.165,16.275,9.8,9.8,0,0,1-1.6.115c-2.969,0-2.969-.925-5.938-.925a12.59,12.59,0,0,0-3.967.738q-.21-.065-.418-.136a16.894,16.894,0,0,0,4.53,2.192,12.589,12.589,0,0,1,3.967-.739c2.969,0,2.969.925,5.938.925a9.8,9.8,0,0,0,1.6-.115,16.97,16.97,0,0,0,12.165-16.275V191.1A1.009,1.009,0,0,0,200.043,190.211Z" transform="translate(-173.334 -190.087)" fill="#e49542"/>
      </g>
      <g id="Group_1200224" data-name="Group 1200224" transform="translate(22.424 7.579)">
        <path id="Path_1241273" data-name="Path 1241273" d="M107.186,73.728a6.878,6.878,0,0,1,1.936,4.793v6.793a2.641,2.641,0,0,1-1.147,2.178,1.478,1.478,0,0,1-1.671,0l-.311-.213a1.478,1.478,0,0,0-1.672,0l-.31.212a1.478,1.478,0,0,1-1.672,0l-.31-.213a1.475,1.475,0,0,0-.688-.252V88.76l1.146.786a1.478,1.478,0,0,0,1.672,0l.309-.212a1.478,1.478,0,0,1,1.672,0l.31.213a1.478,1.478,0,0,0,1.672,0l.31-.213a1.477,1.477,0,0,1,1.672,0l.311.213a1.478,1.478,0,0,0,1.671,0l1.147-.787V80.576a6.9,6.9,0,0,0-6.047-6.848Z" transform="translate(-101.341 -73.728)" fill="#e49542"/>
      </g>
      <g id="Group_1200225" data-name="Group 1200225" transform="translate(18.623 13.781)">
        <path id="Path_1241274" data-name="Path 1241274" d="M64.632,137.868h3.53v-3.8h-.624a3.177,3.177,0,0,0-3.177,3.177v.353A.271.271,0,0,0,64.632,137.868Z" transform="translate(-64.361 -134.067)" fill="#ffe07d"/>
      </g>
      <g id="Group_1200226" data-name="Group 1200226" transform="translate(31.961 26.011)">
        <path id="Path_1241275" data-name="Path 1241275" d="M202.032,266.128h-1.361a6.537,6.537,0,1,1,0-13.073h11.412a1.511,1.511,0,0,1,1.511,1.511A11.562,11.562,0,0,1,202.032,266.128Z" transform="translate(-194.135 -253.055)" fill="#efc89d"/>
      </g>
      <g id="Group_1200227" data-name="Group 1200227" transform="translate(19.026 17.582)">
        <path id="Path_1241276" data-name="Path 1241276" d="M69.984,176.842a1.7,1.7,0,0,0,1.7-1.7v-4.1l-2.9,2.9A1.7,1.7,0,0,0,69.984,176.842Z" transform="translate(-68.283 -171.047)" fill="#e28086"/>
      </g>
      <g id="Group_1200228" data-name="Group 1200228" transform="translate(19.733 0.772)">
        <path id="Path_1241277" data-name="Path 1241277" d="M78.7,16.47a4.987,4.987,0,0,1,4.147-2.213,6.884,6.884,0,0,1,2.472.456l.79-.212a4.742,4.742,0,0,0,3.353-5.807l-.209-.779a.557.557,0,0,0-.682-.394L83.044,9a3.038,3.038,0,0,0-1.5.928,2.166,2.166,0,0,1-2.337.639,3.053,3.053,0,1,0-.51,5.9Z" transform="translate(-75.164 -7.502)" fill="#e28086"/>
      </g>
      <g id="Group_1200229" data-name="Group 1200229" transform="translate(14.807 41.731)">
        <path id="Path_1241278" data-name="Path 1241278" d="M74.239,407.032a.791.791,0,0,0-.843-.983c-1.923.194-2.286.874-4.832.874-2.97,0-2.97-.925-5.939-.925s-2.969.925-5.938.925S53.717,406,50.748,406s-2.969.925-5.938.925S41.841,406,38.872,406s-2.969.925-5.938.925c-2.545,0-2.908-.68-4.831-.874a.791.791,0,0,0-.843.983l1,3.9a6.9,6.9,0,0,0,6.688,5.193H66.555a6.9,6.9,0,0,0,6.688-5.193Z" transform="translate(-27.235 -405.998)" fill="#b78b7a"/>
      </g>
      <g id="Group_1200230" data-name="Group 1200230" transform="translate(17.549 41.778)">
        <path id="Path_1241279" data-name="Path 1241279" d="M97.334,406.459c-1.612.163-2.128.667-3.753.826l-.511,2a6.9,6.9,0,0,1-6.688,5.193H54.771a6.92,6.92,0,0,1-.855-.053,6.9,6.9,0,0,0,4.967,2.109H90.494a6.9,6.9,0,0,0,6.688-5.193l1-3.9A.791.791,0,0,0,97.334,406.459Z" transform="translate(-53.916 -406.455)" fill="#aa7a63"/>
      </g>
      <path id="Path_1241280" data-name="Path 1241280" d="M193.942,247.1h.51a.771.771,0,0,0,0-1.542h-.51a7.307,7.307,0,0,0,0,14.615h1.36a12.347,12.347,0,0,0,12.333-12.333,2.284,2.284,0,0,0-2.282-2.282h-7.3a.771.771,0,0,0,0,1.542h1.074a4.015,4.015,0,0,1-3.916,4.851.771.771,0,1,0,0,1.542,5.551,5.551,0,0,0,5.479-6.393h1.573a7.11,7.11,0,0,1-7.052,7.953h-1.266a.771.771,0,1,0,0,1.542h1.266a8.651,8.651,0,0,0,8.6-9.495h1.543a.741.741,0,0,1,.74.74A10.8,10.8,0,0,1,195.3,258.627h-1.36a5.766,5.766,0,0,1,0-11.531Z" transform="translate(-155.444 -220.314)"/>
      <path id="Path_1241281" data-name="Path 1241281" d="M62.486,47.063a5.616,5.616,0,0,1-.961-.074c.03-.109.212-.826,1.032-4.033a1.562,1.562,0,0,0-1.667-1.941c-2.061.208-2.331.87-4.754.87-2.595,0-2.749-.764-5.189-.9a17.666,17.666,0,0,0,7.844-14.715V20.554a1.78,1.78,0,0,0-2.629-1.567,23.342,23.342,0,0,1-11.168,2.855H35.087V20.51a.771.771,0,1,0-1.542,0v1.7l-.812.557a.711.711,0,0,1-.8,0l-.311-.213a2.263,2.263,0,0,0-2.544,0l-.31.212a.711.711,0,0,1-.8,0l-.31-.213a2.262,2.262,0,0,0-2.544,0l-.309.212a.711.711,0,0,1-.8,0l-.811-.556V12.519A4.226,4.226,0,0,1,27.415,8.3a6.137,6.137,0,0,1,6.13,6.13v2.69a.771.771,0,1,0,1.542,0v-2.69a7.668,7.668,0,0,0-3.25-6.266,5.513,5.513,0,0,0,2.938-6.4L34.566.985A1.329,1.329,0,0,0,32.94.047L27.414,1.527a3.808,3.808,0,0,0-1.878,1.164,1.4,1.4,0,0,1-1.507.419,3.8,3.8,0,0,0-2.384-.034,3.826,3.826,0,0,0,.38,7.4,5.736,5.736,0,0,0-.374,2.042v.494a3.953,3.953,0,0,0-3.8,3.945v.353a1.043,1.043,0,0,0,1.042,1.042h1.669l-1.581,1.581a2.468,2.468,0,0,0,2.672,4.033v2.3a17.625,17.625,0,0,0,3.195,10.156.771.771,0,1,0,1.263-.884,16.091,16.091,0,0,1-2.916-9.273V24.074a2.263,2.263,0,0,0,2.483-.041l.309-.212a.711.711,0,0,1,.8,0l.31.213a2.262,2.262,0,0,0,2.544,0l.31-.212a.711.711,0,0,1,.8,0l.311.213a2.263,2.263,0,0,0,2.543,0l.95-.652H44.994A24.886,24.886,0,0,0,56.9,20.339a.22.22,0,0,1,.227.005.236.236,0,0,1,.12.209v5.712a16.281,16.281,0,0,1-11.562,15.52,9.107,9.107,0,0,1-1.429.1c-2.773,0-2.857-.925-5.938-.925a11.63,11.63,0,0,0-3.936.71,16.28,16.28,0,0,1-5.971-3.5.771.771,0,0,0-1.045,1.134A17.822,17.822,0,0,0,30.74,41.75a14.408,14.408,0,0,0-4.3-.789c-3.091,0-3.15.925-5.938.925-2.436,0-2.676-.66-4.753-.87a1.562,1.562,0,0,0-1.668,1.941l.7,2.743c-.2-.015-.405-.024-.632-.024a.771.771,0,1,0,0,1.542,5.43,5.43,0,0,1,1.058.092,7.669,7.669,0,0,0,7.3,5.317H54.127a7.67,7.67,0,0,0,6.833-4.179,6.777,6.777,0,0,0,1.527.157.771.771,0,0,0,0-1.542ZM21.653,21.68a.927.927,0,0,1-.926.926.926.926,0,0,1-.655-1.581l1.581-1.581Zm0-4.868H19.4a2.41,2.41,0,0,1,2.255-2.255Zm-1.1-9.638A2.3,2.3,0,0,1,22.1,4.548a2.268,2.268,0,0,1,1.423.019,2.937,2.937,0,0,0,3.167-.858,2.271,2.271,0,0,1,1.12-.693l5.319-1.425.153.572a3.969,3.969,0,0,1-2.808,4.863l-.557.149a7.641,7.641,0,0,0-2.5-.42,5.756,5.756,0,0,0-4.566,2.251,2.276,2.276,0,0,1-2.3-1.834Zm40.515,35.4c-1.368,5.352-.9,3.506-1,3.905a6.063,6.063,0,0,0-2.725-.573c-2.727,0-2.839,1.156-5.145,1.156s-2.418-1.156-5.145-1.156a.771.771,0,1,0,0,1.542c2.319,0,2.4,1.156,5.145,1.156s2.824-1.156,5.145-1.156a4.581,4.581,0,0,1,2.156.465,6.129,6.129,0,0,1-5.37,3.171H22.516a6.129,6.129,0,0,1-5.286-3.022,6.215,6.215,0,0,0,2.07.311c2.727,0,2.839-1.156,5.145-1.156s2.418,1.156,5.145,1.156a.771.771,0,1,0,0-1.542c-2.319,0-2.4-1.156-5.145-1.156S21.62,46.832,19.3,46.832a5.934,5.934,0,0,1-2.825-.754l-.9-3.5a.017.017,0,0,1,0-.019c.006-.007.008-.007.014-.006,1.788.181,2.241.878,4.908.878,3.086,0,3.154-.925,5.938-.925s2.857.925,5.938.925,3.15-.925,5.938-.925c2.773,0,2.857.925,5.938.925S47.412,42.5,50.2,42.5s2.857.925,5.939.925c2.677,0,3.11-.7,4.909-.878.005,0,.008,0,.014.006a.017.017,0,0,1,0,.019Z" transform="translate(0 0)"/>
    </g>
  </g>
</svg>
