<svg xmlns="http://www.w3.org/2000/svg" xmlns:xlink="http://www.w3.org/1999/xlink" width="98" height="98" viewBox="0 0 98 98">
  <defs>
    <filter id="Path_874925" x="0" y="0" width="98" height="98" filterUnits="userSpaceOnUse">
      <feOffset dy="3" input="SourceAlpha"/>
      <feGaussianBlur stdDeviation="3" result="blur"/>
      <feFlood flood-opacity="0.161"/>
      <feComposite operator="in" in2="blur"/>
      <feComposite in="SourceGraphic"/>
    </filter>
    <clipPath id="clip-path">
      <path id="path6243" d="M0-682.665H50.482v50.482H0Z" transform="translate(0 682.665)"/>
    </clipPath>
  </defs>
  <g id="Group_1200903" data-name="Group 1200903" transform="translate(-1066.051 -969.009)">
    <g id="Group_1200522" data-name="Group 1200522" transform="translate(790.051 -5122.398)">
      <g id="Group_1187153" data-name="Group 1187153">
        <g id="Group_1182177" data-name="Group 1182177">
          <g id="Group_1181903" data-name="Group 1181903">
            <g id="Group_1181438" data-name="Group 1181438">
              <g id="Group_1111314" data-name="Group 1111314" transform="translate(-734.73 3020.407)">
                <g transform="matrix(1, 0, 0, 1, 1010.73, 3071)" filter="url(#Path_874925)">
                  <g id="Path_874925-2" data-name="Path 874925" transform="translate(9 6)" fill="#ffc94a">
                    <path d="M 39.99997329711914 78.50040435791016 C 34.80184936523438 78.50040435791016 29.76000595092773 77.48268127441406 25.01450729370117 75.47550201416016 C 20.43013954162598 73.53648376464844 16.3126392364502 70.76027679443359 12.7763843536377 67.22402191162109 C 9.240128517150879 63.68776702880859 6.463928699493408 59.57027053833008 4.524906635284424 54.98590087890625 C 2.517728805541992 50.24040222167969 1.500006675720215 45.19855880737305 1.500006675720215 40.00043487548828 C 1.500006675720215 34.80185699462891 2.517728805541992 29.76001358032227 4.524906635284424 25.01451301574707 C 6.463928699493408 20.43013572692871 9.240128517150879 16.31263542175293 12.7763843536377 12.77637958526611 C 16.3126392364502 9.240124702453613 20.43013954162598 6.463935375213623 25.01450729370117 4.52490234375 C 29.76000595092773 2.517724514007568 34.80184936523438 1.500002145767212 39.99997329711914 1.500002145767212 C 45.19809722900391 1.500002145767212 50.23994064331055 2.517724514007568 54.98543930053711 4.52490234375 C 59.56981658935547 6.463935375213623 63.68731689453125 9.240124702453613 67.22357177734375 12.77637958526611 C 70.75982666015625 16.31263542175293 73.53601837158203 20.43013572692871 75.47505187988281 25.01451301574707 C 77.48223114013672 29.76001358032227 78.49995422363281 34.80185699462891 78.49995422363281 39.99998092651367 C 78.49995422363281 45.19855880737305 77.48223114013672 50.24040222167969 75.47505187988281 54.98590087890625 C 73.53601837158203 59.57027053833008 70.75982666015625 63.68776702880859 67.22357177734375 67.22402191162109 C 63.68731689453125 70.76027679443359 59.56981658935547 73.53648376464844 54.98543930053711 75.47550201416016 C 50.23994064331055 77.48268127441406 45.19809722900391 78.50040435791016 39.99997329711914 78.50040435791016 Z" stroke="none"/>
                    <path d="M 39.99997329711914 3 C 35.00369262695312 3 30.15843963623047 3.977851867675781 25.59883880615234 5.906417846679688 C 21.19326782226562 7.769813537597656 17.23602676391602 10.43805694580078 13.83704376220703 13.83704376220703 C 10.43805694580078 17.23601531982422 7.769813537597656 21.19325637817383 5.906410217285156 25.59882736206055 C 3.977851867675781 30.15844345092773 3 35.00368118286133 3 40.00042724609375 C 3 44.99672317504883 3.977851867675781 49.84196472167969 5.906410217285156 54.40157318115234 C 7.769813537597656 58.80714797973633 10.43805694580078 62.76438903808594 13.83704376220703 66.16336059570312 C 17.23602676391602 69.56234741210938 21.19326782226562 72.2305908203125 25.59883880615234 74.09398651123047 C 30.15843963623047 76.02255249023438 35.00369262695312 77.00040435791016 39.99997329711914 77.00040435791016 C 44.99625396728516 77.00040435791016 49.84150695800781 76.02255249023438 54.40110778808594 74.09398651123047 C 58.80667877197266 72.2305908203125 62.76391983032227 69.56234741210938 66.16290283203125 66.16336059570312 C 69.5618896484375 62.76438903808594 72.23013305664062 58.80714797973633 74.09353637695312 54.40157318115234 C 76.0220947265625 49.84196472167969 76.99994659423828 44.99672317504883 76.99994659423828 39.99997711181641 C 76.99994659423828 35.00368118286133 76.0220947265625 30.15844345092773 74.09353637695312 25.59882736206055 C 72.23013305664062 21.19325637817383 69.5618896484375 17.23601531982422 66.16290283203125 13.83704376220703 C 62.76391983032227 10.43805694580078 58.80667877197266 7.769813537597656 54.40110778808594 5.906417846679688 C 49.84150695800781 3.977851867675781 44.99625396728516 3 39.99997329711914 3 M 39.99997329711914 0 C 62.09134674072266 0 79.99994659423828 17.90858840942383 79.99994659423828 39.99997711181641 L 79.99994659423828 40.00042724609375 C 79.99994659423828 62.09181594848633 62.09134674072266 80.00040435791016 39.99997329711914 80.00040435791016 C 17.90859985351562 80.00040435791016 0 62.09181594848633 0 40.00042724609375 L 0 39.99997711181641 C 0 17.90858840942383 17.90859985351562 0 39.99997329711914 0 Z" stroke="none" fill="#fff"/>
                  </g>
                </g>
              </g>
            </g>
          </g>
        </g>
      </g>
    </g>
    <g id="g6237" transform="translate(1089.81 1672.434)">
      <g id="g6239" transform="translate(0 -682.665)">
        <g id="g6241" clip-path="url(#clip-path)">
          <g id="g6247" transform="translate(0.74 9.931)">
            <path id="path6249" d="M-278.88-244.021a11.135,11.135,0,0,1-11.135,11.135,11.135,11.135,0,0,1-11.135-11.135c0-6.15,4.176-19.486,11.135-19.486s11.135,13.336,11.135,19.486" transform="translate(301.15 263.507)" fill="#fed2a4"/>
          </g>
          <g id="g6251" transform="translate(0.74 9.931)">
            <path id="path6253" d="M-37.042-244.021c0-5.7,3.588-17.577,9.656-19.281a5.449,5.449,0,0,0-1.479-.205c-6.959,0-11.135,13.336-11.135,19.486a11.135,11.135,0,0,0,11.135,11.135,11.226,11.226,0,0,0,1.479-.1,11.137,11.137,0,0,1-9.656-11.037" transform="translate(40 263.507)" fill="#ffbd86"/>
          </g>
          <g id="g6255" transform="translate(17.652 13.639)">
            <path id="path6257" d="M-52.181-105.7a.74.74,0,0,1-.71-.535,28.007,28.007,0,0,0-3.332-7.554.739.739,0,0,1,.205-1.025.739.739,0,0,1,1.025.205,29.489,29.489,0,0,1,3.523,7.966.739.739,0,0,1-.507.915A.74.74,0,0,1-52.181-105.7Z" transform="translate(56.348 114.934)"/>
          </g>
          <g id="g6259" transform="translate(0 9.191)">
            <path id="path6261" d="M-208.965-4.54a11.888,11.888,0,0,1-11.874-11.874c0-5.87,4.161-20.225,11.874-20.225a7.243,7.243,0,0,1,4.96,2.167.739.739,0,0,1,.039,1.045.739.739,0,0,1-1.045.039,5.822,5.822,0,0,0-3.954-1.773c-3.686,0-6.286,4.392-7.507,7.01a31.256,31.256,0,0,0-2.888,11.736,10.407,10.407,0,0,0,10.4,10.4,10.394,10.394,0,0,0,6.761-2.5.739.739,0,0,1,1.043.08.739.739,0,0,1-.08,1.043A11.874,11.874,0,0,1-208.965-4.54Z" transform="translate(220.839 36.64)"/>
          </g>
          <g id="g6263" transform="translate(15.222 18.971)">
            <path id="path6265" d="M-196.969-40.131l-4.594-3.057-4.594,3.057-4.273-3.2A31.158,31.158,0,0,0-212.7-32.89a11.135,11.135,0,0,0,11.135,11.135A11.135,11.135,0,0,0-190.429-32.89a31.066,31.066,0,0,0-2.21-10.3Z" transform="translate(212.698 43.336)" fill="#ffbd86"/>
          </g>
          <g id="g6267" transform="translate(32.386 19.118)">
            <path id="path6269" d="M-23.907-34.868l1.587-1.12c-.185-.558-.385-1.115-.6-1.664l-2.9,2.044,1.129.751a.69.69,0,0,0,.78-.011" transform="translate(25.816 37.652)" fill="#f6a96c"/>
          </g>
          <g id="g6271" transform="translate(15.222 18.971)">
            <path id="path6273" d="M-37.042-130.812a29.729,29.729,0,0,1,1.633-8.7l-2.323-1.742A31.161,31.161,0,0,0-40-130.812a11.135,11.135,0,0,0,11.135,11.135,11.227,11.227,0,0,0,1.479-.1,11.137,11.137,0,0,1-9.656-11.037" transform="translate(40 141.258)" fill="#f6a96c"/>
          </g>
          <g id="g6275" transform="translate(23.33 19.119)">
            <path id="path6277" d="M-22.5-34.895l2.709-1.8-1.479-.984L-24.3-35.667l1,.75a.69.69,0,0,0,.8.022" transform="translate(24.296 37.681)" fill="#f6a96c"/>
          </g>
          <g id="g6279" transform="translate(14.483 18.231)">
            <path id="path6281" d="M-240.487-247.553a11.888,11.888,0,0,1-11.874-11.874,32.135,32.135,0,0,1,2.32-10.719.739.739,0,0,1,.487-.439.739.739,0,0,1,.644.12l3.854,2.892,4.159-2.767a.739.739,0,0,1,.819,0l4.172,2.776,3.917-2.765a.74.74,0,0,1,.639-.1.739.739,0,0,1,.476.439,35.272,35.272,0,0,1,1.158,3.506.739.739,0,0,1-.518.908.739.739,0,0,1-.908-.518c-.229-.838-.49-1.665-.778-2.47l-3.548,2.5a.74.74,0,0,1-.836.012l-4.184-2.784-4.185,2.784a.74.74,0,0,1-.853-.024l-3.486-2.615a29.834,29.834,0,0,0-1.871,9.264,10.407,10.407,0,0,0,10.4,10.4,10.287,10.287,0,0,0,6.336-2.155.739.739,0,0,1,1.037.134.739.739,0,0,1-.134,1.037A11.753,11.753,0,0,1-240.487-247.553Z" transform="translate(252.361 270.613)"/>
          </g>
          <g id="g6283" transform="translate(36.385 24.955)">
            <path id="path6285" d="M-13.855-54.652a.739.739,0,0,1-.739-.737,21.641,21.641,0,0,0-.356-3.558.739.739,0,0,1,.6-.856.739.739,0,0,1,.856.6,23.125,23.125,0,0,1,.378,3.809.739.739,0,0,1-.737.742Z" transform="translate(14.962 59.815)"/>
          </g>
          <g id="g6287" transform="translate(2.268 16.845)">
            <path id="path6289" d="M-6.935-24.206a.737.737,0,0,1-.432-.14l-2.326-1.676a.739.739,0,0,1-.168-1.032.739.739,0,0,1,1.032-.168l1.816,1.308L-4.4-28.531a.739.739,0,0,1,1.046,0L-1.818-27a.739.739,0,0,1,0,1.046.739.739,0,0,1-1.046,0l-1.009-1.008-2.54,2.54A.739.739,0,0,1-6.935-24.206Z" transform="translate(10.001 28.748)"/>
          </g>
          <g id="g6291" transform="translate(4.594 27.564)">
            <path id="path6293" d="M-142.98-20.508a.737.737,0,0,1-.523-.217.74.74,0,0,1,0-1.046l3.063-3.063a.739.739,0,0,1,.854-.139L-137-23.678l1.154-1.154a.739.739,0,0,1,.853-.139l2.232,1.113a.739.739,0,0,1,.332.992.739.739,0,0,1-.992.332l-1.755-.875-1.155,1.155a.74.74,0,0,1-.854.139l-2.586-1.293-2.686,2.686A.737.737,0,0,1-142.98-20.508Z" transform="translate(143.72 25.05)"/>
          </g>
          <g id="g6295" transform="translate(31.95 28.307)">
            <path id="path6297" d="M-111.042-115.061l4.594,3.057,4.331-3.057c-1.9-4.861-4.961-9.188-8.925-9.188-3.924,0-6.963,4.239-8.867,9.04l4.273,3.2Z" transform="translate(119.909 124.249)" fill="#ffbd86"/>
          </g>
          <g id="g6299" transform="translate(31.95 28.307)">
            <path id="path6301" d="M-39.589-106.94c1.657-3.975,4.1-7.469,7.185-8.334a5.447,5.447,0,0,0-1.479-.205c-3.924,0-6.963,4.239-8.867,9.04l4.273,3.2,1.567-1.043-2.456-1.842a.692.692,0,0,1-.223-.82" transform="translate(42.751 115.48)" fill="#f6a96c"/>
          </g>
          <g id="g6303" transform="translate(42.296 37.633)">
            <path id="path6305" d="M-13.733-1.446l-1.1.73,3.115,2.073L-10.279.343l-2.689-1.789a.691.691,0,0,0-.765,0" transform="translate(14.829 1.562)" fill="#f6a96c"/>
          </g>
          <g id="g6307" transform="translate(31.211 27.567)">
            <path id="path6309" d="M-208.333-63.4a.739.739,0,0,1-.41-.124l-4.184-2.784-4.185,2.784a.739.739,0,0,1-.853-.024l-4.272-3.2a.739.739,0,0,1-.244-.864c1.408-3.551,4.522-9.507,9.554-9.507a7.515,7.515,0,0,1,5.426,2.628.74.74,0,0,1-.02,1.046.739.739,0,0,1-1.046-.02,6.107,6.107,0,0,0-4.361-2.174c-4.044,0-6.8,5.269-7.966,8.052l3.4,2.548,4.159-2.767a.739.739,0,0,1,.819,0l4.172,2.776,3.44-2.428a24.638,24.638,0,0,0-1.8-3.567.74.74,0,0,1,.239-1.018.739.739,0,0,1,1.018.239,26.8,26.8,0,0,1,2.136,4.344.739.739,0,0,1-.262.873l-4.331,3.058A.739.739,0,0,1-208.333-63.4Z" transform="translate(222.534 77.12)"/>
          </g>
          <g id="g6311" transform="translate(22.97 21.436)">
            <path id="path6313" d="M-107.182-2.4a.737.737,0,0,1-.523-.217.739.739,0,0,1,0-1.046l3.063-3.063a.739.739,0,0,1,.523-.217h2.545l.939-2.579a.739.739,0,0,1,.948-.442.739.739,0,0,1,.442.948l-1.116,3.066a.739.739,0,0,1-.695.487h-2.756l-2.846,2.846A.737.737,0,0,1-107.182-2.4Z" transform="translate(107.921 10.003)"/>
          </g>
          <g id="g6315" transform="translate(40.078 32.158)">
            <path id="path6317" d="M-9.26-66.089h-.007A.739.739,0,0,1-10-66.836l.029-3.066a.739.739,0,0,1,.739-.732h2.464l1.315-1.315a.739.739,0,0,1,1.046,0,.739.739,0,0,1,0,1.046l-1.531,1.531a.739.739,0,0,1-.523.217H-8.5l-.022,2.333A.739.739,0,0,1-9.26-66.089Z" transform="translate(10 72.165)"/>
          </g>
        </g>
      </g>
    </g>
  </g>
</svg>
