<svg xmlns="http://www.w3.org/2000/svg" xmlns:xlink="http://www.w3.org/1999/xlink" width="98" height="98" viewBox="0 0 98 98">
  <defs>
    <filter id="Path_874925" x="0" y="0" width="98" height="98" filterUnits="userSpaceOnUse">
      <feOffset dy="3" input="SourceAlpha"/>
      <feGaussianBlur stdDeviation="3" result="blur"/>
      <feFlood flood-opacity="0.161"/>
      <feComposite operator="in" in2="blur"/>
      <feComposite in="SourceGraphic"/>
    </filter>
  </defs>
  <g id="Group_1201029" data-name="Group 1201029" transform="translate(-440 -969.009)">
    <g id="Group_1200520" data-name="Group 1200520" transform="translate(164 -5122.398)">
      <g id="Group_1187153" data-name="Group 1187153">
        <g id="Group_1182177" data-name="Group 1182177">
          <g id="Group_1181903" data-name="Group 1181903">
            <g id="Group_1181438" data-name="Group 1181438">
              <g id="Group_1111314" data-name="Group 1111314" transform="translate(-734.73 3020.407)">
                <g transform="matrix(1, 0, 0, 1, 1010.73, 3071)" filter="url(#Path_874925)">
                  <g id="Path_874925-2" data-name="Path 874925" transform="translate(9 6)" fill="#ffc94a">
                    <path d="M 39.99997329711914 78.50040435791016 C 34.80184936523438 78.50040435791016 29.76000595092773 77.48268127441406 25.01450729370117 75.47550201416016 C 20.43013954162598 73.53648376464844 16.3126392364502 70.76027679443359 12.7763843536377 67.22402191162109 C 9.240128517150879 63.68776702880859 6.463928699493408 59.57027053833008 4.524906635284424 54.98590087890625 C 2.517728805541992 50.24040222167969 1.500006675720215 45.19855880737305 1.500006675720215 40.00043487548828 C 1.500006675720215 34.80185699462891 2.517728805541992 29.76001358032227 4.524906635284424 25.01451301574707 C 6.463928699493408 20.43013572692871 9.240128517150879 16.31263542175293 12.7763843536377 12.77637958526611 C 16.3126392364502 9.240124702453613 20.43013954162598 6.463935375213623 25.01450729370117 4.52490234375 C 29.76000595092773 2.517724514007568 34.80184936523438 1.500002145767212 39.99997329711914 1.500002145767212 C 45.19809722900391 1.500002145767212 50.23994064331055 2.517724514007568 54.98543930053711 4.52490234375 C 59.56981658935547 6.463935375213623 63.68731689453125 9.240124702453613 67.22357177734375 12.77637958526611 C 70.75982666015625 16.31263542175293 73.53601837158203 20.43013572692871 75.47505187988281 25.01451301574707 C 77.48223114013672 29.76001358032227 78.49995422363281 34.80185699462891 78.49995422363281 39.99998092651367 C 78.49995422363281 45.19855880737305 77.48223114013672 50.24040222167969 75.47505187988281 54.98590087890625 C 73.53601837158203 59.57027053833008 70.75982666015625 63.68776702880859 67.22357177734375 67.22402191162109 C 63.68731689453125 70.76027679443359 59.56981658935547 73.53648376464844 54.98543930053711 75.47550201416016 C 50.23994064331055 77.48268127441406 45.19809722900391 78.50040435791016 39.99997329711914 78.50040435791016 Z" stroke="none"/>
                    <path d="M 39.99997329711914 3 C 35.00369262695312 3 30.15843963623047 3.977851867675781 25.59883880615234 5.906417846679688 C 21.19326782226562 7.769813537597656 17.23602676391602 10.43805694580078 13.83704376220703 13.83704376220703 C 10.43805694580078 17.23601531982422 7.769813537597656 21.19325637817383 5.906410217285156 25.59882736206055 C 3.977851867675781 30.15844345092773 3 35.00368118286133 3 40.00042724609375 C 3 44.99672317504883 3.977851867675781 49.84196472167969 5.906410217285156 54.40157318115234 C 7.769813537597656 58.80714797973633 10.43805694580078 62.76438903808594 13.83704376220703 66.16336059570312 C 17.23602676391602 69.56234741210938 21.19326782226562 72.2305908203125 25.59883880615234 74.09398651123047 C 30.15843963623047 76.02255249023438 35.00369262695312 77.00040435791016 39.99997329711914 77.00040435791016 C 44.99625396728516 77.00040435791016 49.84150695800781 76.02255249023438 54.40110778808594 74.09398651123047 C 58.80667877197266 72.2305908203125 62.76391983032227 69.56234741210938 66.16290283203125 66.16336059570312 C 69.5618896484375 62.76438903808594 72.23013305664062 58.80714797973633 74.09353637695312 54.40157318115234 C 76.0220947265625 49.84196472167969 76.99994659423828 44.99672317504883 76.99994659423828 39.99997711181641 C 76.99994659423828 35.00368118286133 76.0220947265625 30.15844345092773 74.09353637695312 25.59882736206055 C 72.23013305664062 21.19325637817383 69.5618896484375 17.23601531982422 66.16290283203125 13.83704376220703 C 62.76391983032227 10.43805694580078 58.80667877197266 7.769813537597656 54.40110778808594 5.906417846679688 C 49.84150695800781 3.977851867675781 44.99625396728516 3 39.99997329711914 3 M 39.99997329711914 0 C 62.09134674072266 0 79.99994659423828 17.90858840942383 79.99994659423828 39.99997711181641 L 79.99994659423828 40.00042724609375 C 79.99994659423828 62.09181594848633 62.09134674072266 80.00040435791016 39.99997329711914 80.00040435791016 C 17.90859985351562 80.00040435791016 0 62.09181594848633 0 40.00042724609375 L 0 39.99997711181641 C 0 17.90858840942383 17.90859985351562 0 39.99997329711914 0 Z" stroke="none" fill="#fff"/>
                  </g>
                </g>
              </g>
            </g>
          </g>
        </g>
      </g>
    </g>
    <g id="Layer_32" data-name="Layer 32" transform="translate(460.608 988.817)">
      <path id="Path_1242740" data-name="Path 1242740" d="M40.392,34.257l-7.331,2.2,5.132.733-2.039,1.7A24.3,24.3,0,0,1,20.6,44.52h0v1.466l-5.132-2.2L14,39.388l2.2.733,4.4-11.73,1.466,5.865,1.466-7.331h0a25.234,25.234,0,0,0,6.4-5.483l.929-1.115,1.466,5.865,1.466-8.064h0A127.8,127.8,0,0,0,44.389,2.688L44.79,2h0a15.815,15.815,0,0,1,3.666,10.125v.139L44.79,17.4l3.666-.733-.474,1.659A53.344,53.344,0,0,1,40.392,34.257Z" transform="translate(-3.014 -0.268)" fill="#ffe9b5"/>
      <path id="Path_1242741" data-name="Path 1242741" d="M48.978,12.125A15.816,15.816,0,0,0,45.312,2L45,3.759a61.2,61.2,0,0,1-7.345,20.1L36.2,26.37A40.272,40.272,0,0,1,18.611,42.544h0q-1.307.619-2.656,1.144l.033.1,5.132,2.2V44.52a24.3,24.3,0,0,0,15.556-5.632l2.039-1.7-5.132-.733,7.331-2.2A53.344,53.344,0,0,0,48.5,18.321l.474-1.659-3.666.733,3.666-5.132Z" transform="translate(-3.536 -0.268)" fill="#fff4da"/>
      <path id="Path_1242742" data-name="Path 1242742" d="M56.311,12.263,52.645,17.4l3.666-.733-.477,1.657a52.987,52.987,0,0,1-2.94,7.859,31.939,31.939,0,0,1-8.467-1.371l-1-8.959A127.432,127.432,0,0,0,52.242,2.689l.4-.689a15.817,15.817,0,0,1,3.666,10.124Z" transform="translate(-10.869 -0.268)" fill="#ffc94a"/>
      <path id="Path_1242743" data-name="Path 1242743" d="M56.678,12.124A15.816,15.816,0,0,0,53.013,2h0L52.7,3.759a61.2,61.2,0,0,1-7.346,20.1l-.551.949a31.944,31.944,0,0,0,8.456,1.368,52.988,52.988,0,0,0,2.94-7.859l.477-1.657-3.666.733,3.666-5.132Z" transform="translate(-11.236 -0.268)" fill="#ffe9b5"/>
      <path id="Path_1242744" data-name="Path 1242744" d="M41.776,2l-.4.688c-.213.367-.44.72-.66,1.083a60.279,60.279,0,0,1-7.231,19.721L32.026,26A39.368,39.368,0,0,1,14.761,41.881a39.649,39.649,0,0,1-5.3,2.058l-6.756,2.08.431,1.4,6.756-2.079a41.237,41.237,0,0,0,5.5-2.134A40.839,40.839,0,0,0,33.3,26.738l1.457-2.51A61.749,61.749,0,0,0,42.187,3.888l.193-1.1C42.184,2.525,41.989,2.257,41.776,2Z" transform="translate(0 -0.268)" fill="#4c4c4c"/>
      <path id="Path_1242745" data-name="Path 1242745" d="M45.3,15.676l-1.848.367,2.588-3.623a.729.729,0,0,0,.14-.424v-.139A16.581,16.581,0,0,0,42.339,1.262.721.721,0,0,0,41.715,1a.733.733,0,0,0-.573.361l-.4.688A127.461,127.461,0,0,1,30.207,17.4a.727.727,0,0,0-.147.327l-.858,4.72-.642-2.566a.733.733,0,0,0-1.275-.293l-.93,1.115a24.44,24.44,0,0,1-6.216,5.325.727.727,0,0,0-.341.485l-.827,4.134-.676-2.7a.733.733,0,0,0-1.4-.081L12.745,38.935l-1.529-.513a.733.733,0,0,0-.927.927l1.21,3.628c-.674.249-1.353.485-2.037.695L2.706,45.751l.431,1.4,6.756-2.079c.806-.248,1.6-.527,2.4-.826l5,2.145a.72.72,0,0,0,.289.059.733.733,0,0,0,.733-.733v-.744a25.079,25.079,0,0,0,15.291-5.792l2.04-1.7a.733.733,0,0,0-.367-1.29l-1.833-.262,4.141-1.242a.728.728,0,0,0,.39-.282,53.907,53.907,0,0,0,7.7-16.155l.474-1.659a.733.733,0,0,0-.856-.919ZM34.039,22.222l-.718-6.459C35.8,12.492,38.138,9.092,40.3,5.6a60.235,60.235,0,0,1-6.26,16.625ZM12.145,40.279l.806.269a.733.733,0,0,0,.919-.44l3.572-9.526.9,3.58a.754.754,0,0,0,.728.556.733.733,0,0,0,.7-.586l1.4-7.016a25.952,25.952,0,0,0,6.311-5.473l.005-.007L28.6,26.1a.72.72,0,0,0,.733.555.733.733,0,0,0,.7-.6l1.433-7.882c.192-.24.374-.491.564-.733L32.8,24.4l-.777,1.336A39.368,39.368,0,0,1,14.761,41.613c-.622.293-1.256.568-1.9.831ZM36.924,33.36l-7.086,2.126a.733.733,0,0,0,.106,1.428l3.5.5-.773.643a23.606,23.606,0,0,1-15.087,5.462.733.733,0,0,0-.733.733v.354l-2.645-1.133c.4-.172.792-.349,1.183-.534A40.839,40.839,0,0,0,33.3,26.47l.625-1.077A32.666,32.666,0,0,0,40.9,26.58a52.615,52.615,0,0,1-3.974,6.78Zm7.339-15.509a52.552,52.552,0,0,1-2.693,7.3,31.124,31.124,0,0,1-6.891-1.067l.073-.126A61.749,61.749,0,0,0,42.187,3.621l.012-.073a15.106,15.106,0,0,1,2.509,8.214L41.18,16.7a.733.733,0,0,0-.02.824.724.724,0,0,0,.759.32l2.487-.5Z" transform="translate(0 0)"/>
    </g>
  </g>
</svg>
