<svg xmlns="http://www.w3.org/2000/svg" xmlns:xlink="http://www.w3.org/1999/xlink" width="98" height="98" viewBox="0 0 98 98">
  <defs>
    <filter id="Path_874925" x="0" y="0" width="98" height="98" filterUnits="userSpaceOnUse">
      <feOffset dy="3" input="SourceAlpha"/>
      <feGaussianBlur stdDeviation="3" result="blur"/>
      <feFlood flood-opacity="0.161"/>
      <feComposite operator="in" in2="blur"/>
      <feComposite in="SourceGraphic"/>
    </filter>
  </defs>
  <g id="Group_1200902" data-name="Group 1200902" transform="translate(-591 -2629.126)">
    <g id="Group_1200234" data-name="Group 1200234" transform="translate(315 -3462.281)">
      <g id="Group_1187153" data-name="Group 1187153">
        <g id="Group_1182177" data-name="Group 1182177">
          <g id="Group_1181903" data-name="Group 1181903">
            <g id="Group_1181438" data-name="Group 1181438">
              <g id="Group_1111314" data-name="Group 1111314" transform="translate(-734.73 3020.407)">
                <g transform="matrix(1, 0, 0, 1, 1010.73, 3071)" filter="url(#Path_874925)">
                  <g id="Path_874925-2" data-name="Path 874925" transform="translate(9 6)" fill="#ffc94a">
                    <path d="M 39.99997329711914 78.50040435791016 C 34.80184936523438 78.50040435791016 29.76000595092773 77.48268127441406 25.01450729370117 75.47550201416016 C 20.43013954162598 73.53648376464844 16.3126392364502 70.76027679443359 12.7763843536377 67.22402191162109 C 9.240128517150879 63.68776702880859 6.463928699493408 59.57027053833008 4.524906635284424 54.98590087890625 C 2.517728805541992 50.24040222167969 1.500006675720215 45.19855880737305 1.500006675720215 40.00043487548828 C 1.500006675720215 34.80185699462891 2.517728805541992 29.76001358032227 4.524906635284424 25.01451301574707 C 6.463928699493408 20.43013572692871 9.240128517150879 16.31263542175293 12.7763843536377 12.77637958526611 C 16.3126392364502 9.240124702453613 20.43013954162598 6.463935375213623 25.01450729370117 4.52490234375 C 29.76000595092773 2.517724514007568 34.80184936523438 1.500002145767212 39.99997329711914 1.500002145767212 C 45.19809722900391 1.500002145767212 50.23994064331055 2.517724514007568 54.98543930053711 4.52490234375 C 59.56981658935547 6.463935375213623 63.68731689453125 9.240124702453613 67.22357177734375 12.77637958526611 C 70.75982666015625 16.31263542175293 73.53601837158203 20.43013572692871 75.47505187988281 25.01451301574707 C 77.48223114013672 29.76001358032227 78.49995422363281 34.80185699462891 78.49995422363281 39.99998092651367 C 78.49995422363281 45.19855880737305 77.48223114013672 50.24040222167969 75.47505187988281 54.98590087890625 C 73.53601837158203 59.57027053833008 70.75982666015625 63.68776702880859 67.22357177734375 67.22402191162109 C 63.68731689453125 70.76027679443359 59.56981658935547 73.53648376464844 54.98543930053711 75.47550201416016 C 50.23994064331055 77.48268127441406 45.19809722900391 78.50040435791016 39.99997329711914 78.50040435791016 Z" stroke="none"/>
                    <path d="M 39.99997329711914 3 C 35.00369262695312 3 30.15843963623047 3.977851867675781 25.59883880615234 5.906417846679688 C 21.19326782226562 7.769813537597656 17.23602676391602 10.43805694580078 13.83704376220703 13.83704376220703 C 10.43805694580078 17.23601531982422 7.769813537597656 21.19325637817383 5.906410217285156 25.59882736206055 C 3.977851867675781 30.15844345092773 3 35.00368118286133 3 40.00042724609375 C 3 44.99672317504883 3.977851867675781 49.84196472167969 5.906410217285156 54.40157318115234 C 7.769813537597656 58.80714797973633 10.43805694580078 62.76438903808594 13.83704376220703 66.16336059570312 C 17.23602676391602 69.56234741210938 21.19326782226562 72.2305908203125 25.59883880615234 74.09398651123047 C 30.15843963623047 76.02255249023438 35.00369262695312 77.00040435791016 39.99997329711914 77.00040435791016 C 44.99625396728516 77.00040435791016 49.84150695800781 76.02255249023438 54.40110778808594 74.09398651123047 C 58.80667877197266 72.2305908203125 62.76391983032227 69.56234741210938 66.16290283203125 66.16336059570312 C 69.5618896484375 62.76438903808594 72.23013305664062 58.80714797973633 74.09353637695312 54.40157318115234 C 76.0220947265625 49.84196472167969 76.99994659423828 44.99672317504883 76.99994659423828 39.99997711181641 C 76.99994659423828 35.00368118286133 76.0220947265625 30.15844345092773 74.09353637695312 25.59882736206055 C 72.23013305664062 21.19325637817383 69.5618896484375 17.23601531982422 66.16290283203125 13.83704376220703 C 62.76391983032227 10.43805694580078 58.80667877197266 7.769813537597656 54.40110778808594 5.906417846679688 C 49.84150695800781 3.977851867675781 44.99625396728516 3 39.99997329711914 3 M 39.99997329711914 0 C 62.09134674072266 0 79.99994659423828 17.90858840942383 79.99994659423828 39.99997711181641 L 79.99994659423828 40.00042724609375 C 79.99994659423828 62.09181594848633 62.09134674072266 80.00040435791016 39.99997329711914 80.00040435791016 C 17.90859985351562 80.00040435791016 0 62.09181594848633 0 40.00042724609375 L 0 39.99997711181641 C 0 17.90858840942383 17.90859985351562 0 39.99997329711914 0 Z" stroke="none" fill="#fff"/>
                  </g>
                </g>
              </g>
            </g>
          </g>
        </g>
      </g>
    </g>
    <g id="pollo" transform="translate(593.716 2650.01)">
      <g id="Group_1200899" data-name="Group 1200899" transform="translate(19.961 0.817)">
        <path id="Path_1242317" data-name="Path 1242317" d="M180.047,426l-2.092-8.107,3.485.807,1.164,7.244-1.164-.392Z" transform="translate(-161.909 -374.385)" fill="#fff9e2"/>
        <path id="Path_1242318" data-name="Path 1242318" d="M277.3,423.934l-2.7-6.543,2.64-1.767,2.791,8.313-1.49-.435Z" transform="translate(-248.304 -372.355)" fill="#fff9e2"/>
        <path id="Path_1242319" data-name="Path 1242319" d="M233.885,357.424l-.483,2.521a10.6,10.6,0,0,1-1.659,3.986h0a4.137,4.137,0,0,1-3.024,1.784h0a4.138,4.138,0,0,1-3.632-1.545l-2.393-3.013Z" transform="translate(-201.902 -320.329)" fill="#f9e8a2"/>
        <path id="Path_1242320" data-name="Path 1242320" d="M171.8,361.453l-2.611,3.021a10.6,10.6,0,0,1-3.43,2.623h0a4.137,4.137,0,0,1-3.511.033h0a4.138,4.138,0,0,1-2.372-3.154l-.775-4.9Z" transform="translate(-145.056 -321.809)" fill="#fcf0c0"/>
        <path id="Path_1242321" data-name="Path 1242321" d="M385.1,8.2h0a1.906,1.906,0,0,0-2.788.238.1.1,0,0,1-.147.015,1.926,1.926,0,0,0-2.5.1.208.208,0,0,1-.213.048l-.517-.172a1.294,1.294,0,0,0-1.422.4,1.266,1.266,0,0,0-.122,1.4l.147.289.815.731.344,1.542,4.665.4c.5-.373,1.665-1.326,1.665-1.326a5.1,5.1,0,0,0,.684-1.708A2.146,2.146,0,0,0,385.1,8.2Z" transform="translate(-340.044 -7.7)" fill="#fe8f83"/>
        <path id="Path_1242322" data-name="Path 1242322" d="M387.568,31.54a5.419,5.419,0,0,1-1.319,1.468l-5.01-.547-1.159-2.273c.184-.069.371-.132.561-.186l.064-.018a7.2,7.2,0,0,1,1.963-.274,7.117,7.117,0,0,1,3.985,1.215Z" transform="translate(-342.594 -27.375)" fill="#fe7c66"/>
        <path id="Path_1242323" data-name="Path 1242323" d="M71.2,16.363l-1.533-1.03a5.242,5.242,0,0,0-4.367-.687l-.057.016a5.126,5.126,0,0,0-3.195,2.663l-2.78,5.636A8.174,8.174,0,0,1,53.1,27.435l-.2.029a12,12,0,0,1-4.768-.268l-.89-.234A7.424,7.424,0,0,1,41.72,20.3l-.488-6.9a3.106,3.106,0,0,0-1.74-2.576l-.029-.014A3.108,3.108,0,0,0,34.993,13.6a6.312,6.312,0,0,0,.425,1.836c-.009.017-.453.46-.518.447-.228-.069-1.423-1-1.651-1.008a2.815,2.815,0,0,0-2.576,4.2l.79,1.389-.659.585-1.481-.486a2.881,2.881,0,0,0-2.171,2.491h0A2.88,2.88,0,0,0,28,25.419l1.592,1.567-.573.794h-1.34a2.609,2.609,0,0,0,.348,4.336l1.183.654-.482.542a1.976,1.976,0,0,0-.894.794c-.3.5-.478.747-.26,1.332a1.984,1.984,0,0,0,1.268,1.2l2.337.727a5.614,5.614,0,0,1,3.45,2.988,15.463,15.463,0,0,0,14.436,9.524h0a25.217,25.217,0,0,0,6.095-1.093A22.282,22.282,0,0,0,60.6,46.731l.126-.069a16.8,16.8,0,0,0,5.931-4.708c.366-.5.666-.9,1.125-1.463q.276-.48.522-.978l.089-.179a18.061,18.061,0,0,0,1.842-6.817q.064-.966.065-1.932a29.039,29.039,0,0,0-.448-5.079c-.309-1.734-.615-3.47-.615-3.47Z" transform="translate(-26.676 -10.199)" fill="#ffd18d"/>
        <path id="Path_1242324" data-name="Path 1242324" d="M157.835,147.586a9.955,9.955,0,0,1-2.386.974h0a43.807,43.807,0,0,0-13.411,4.232c-.045.022.033.174-.011.2l-.909.575a1.379,1.379,0,0,0-.444,2.1l1.792,2.246a11.724,11.724,0,0,0,10.452,4.377h0a12.109,12.109,0,0,0,4.418-1.392h0a11.027,11.027,0,0,0,3.47-2.658c.346-.417.633-.726,1.029-1.172a12.1,12.1,0,0,0,.862-1.654l.086-.2a14.357,14.357,0,0,0,1.15-4.844,5.9,5.9,0,0,0-.637-3.523C161.888,144.843,157.835,147.586,157.835,147.586Z" transform="translate(-128.305 -131.432)" fill="#fbbd80"/>
        <path id="Path_1242325" data-name="Path 1242325" d="M157.062,213.362a12.106,12.106,0,0,1-6.636,5.142,11.963,11.963,0,0,1-12.869-3.834l-2.222-2.725a1.38,1.38,0,0,1,.444-2.1l1.352-.687c.045-.022.089-.046.134-.067a1.357,1.357,0,0,0,.191.31l2.222,2.725a11.963,11.963,0,0,0,12.869,3.834,12.105,12.105,0,0,0,4.514-2.6Z" transform="translate(-123.532 -187.728)" fill="#f4aa73"/>
        <g id="Group_1200898" data-name="Group 1200898" transform="translate(0.49 22.573)">
          <path id="Path_1242326" data-name="Path 1242326" d="M71.917,228.229a17.735,17.735,0,0,1-6.863,6.726l-.126.069a24.49,24.49,0,0,1-11.723,3.009h-.021a16.193,16.193,0,0,1-14.839-9.712,5.353,5.353,0,0,0-3.317-2.97l-2.337-.727a1.981,1.981,0,0,1-.219-3.7l.864-.414a1.984,1.984,0,0,0,1.072.811l2.952.847a5.353,5.353,0,0,1,3.317,2.97,16.193,16.193,0,0,0,14.839,9.712h.021a24.49,24.49,0,0,0,11.723-3.009l.126-.069A17.73,17.73,0,0,0,71.917,228.229Z" transform="translate(-31.298 -220.51)" fill="#fbbd80"/>
        </g>
        <path id="Path_1242327" data-name="Path 1242327" d="M441.637,72.3l3.631-.215a1.065,1.065,0,0,0,.62-1.879l-3.507-2.934Z" transform="translate(-397.622 -60.955)" fill="#fee97d"/>
        <path id="Path_1242328" data-name="Path 1242328" d="M401.5,64.628a2.855,2.855,0,0,1-1.942,2.7l-1.449.49-.175.057a2.559,2.559,0,0,1-2.377-4.45l1.518-1.178a2.559,2.559,0,0,1,3-.1l.167.111a2.851,2.851,0,0,1,1.263,2.369Z" transform="translate(-355.548 -55.984)" fill="#fbbd80"/>
        <line id="Line_595" data-name="Line 595" x1="0.001" transform="translate(4.63 10.27)" fill="#fbbd80"/>
      </g>
      <g id="Group_1200901" data-name="Group 1200901" transform="translate(19.164 0)">
        <g id="Group_1200900" data-name="Group 1200900" transform="translate(15.793 44.337)">
          <path id="Línea_596" data-name="Línea 596" d="M-5.758-.007a.8.8,0,0,1-.784-.669l-.949-5.9a.8.8,0,0,1,.659-.912.8.8,0,0,1,.912.659l.949,5.9a.8.8,0,0,1-.659.912A.8.8,0,0,1-5.758-.007Z" transform="translate(11.456 8.842)"/>
          <path id="Línea_597" data-name="Línea 597" d="M-4.972.813a.8.8,0,0,1-.77-.6L-7.476-6.507A.8.8,0,0,1-6.9-7.476a.8.8,0,0,1,.969.572L-4.2-.181a.8.8,0,0,1-.572.969A.8.8,0,0,1-4.972.813Z" transform="translate(8.113 8.078)"/>
          <path id="Trazado_1242329" data-name="Trazado 1242329" d="M176.328,487.937a.792.792,0,0,1-.364-.089l-1.305-.674a4.515,4.515,0,0,0-4.137,0l-1.305.674a.8.8,0,1,1-.73-1.414l1.305-.674a6.109,6.109,0,0,1,5.6,0l1.305.674a.8.8,0,0,1-.366,1.5Z" transform="translate(-168.054 -477.966)"/>
          <path id="Línea_598" data-name="Línea 598" d="M-4.267,1.355A.8.8,0,0,1-5.021.813L-7.46-6.453a.8.8,0,0,1,.5-1.007.8.8,0,0,1,1.007.5L-3.513.306a.8.8,0,0,1-.5,1.007A.8.8,0,0,1-4.267,1.355Z" transform="translate(20.999 7.502)"/>
          <path id="Línea_599" data-name="Línea 599" d="M-4.179.218a.8.8,0,0,1-.736-.492L-7.442-6.4A.8.8,0,0,1-7.01-7.442a.8.8,0,0,1,1.039.432L-3.443-.881A.8.8,0,0,1-3.876.158.793.793,0,0,1-4.179.218Z" transform="translate(18.179 8.636)"/>
          <path id="Trazado_1242330" data-name="Trazado 1242330" d="M279.328,487.937a.792.792,0,0,1-.364-.089l-1.305-.674a4.516,4.516,0,0,0-4.137,0l-1.305.674a.8.8,0,1,1-.73-1.414l1.305-.674a6.109,6.109,0,0,1,5.6,0l1.305.674a.8.8,0,0,1-.366,1.5Z" transform="translate(-260.129 -477.966)"/>
        </g>
        <path id="Trazado_1242331" data-name="Trazado 1242331" d="M241.187,369.669a4.914,4.914,0,0,1-3.857-1.865l-.071-.09a.8.8,0,1,1,1.246-.99l.071.09a3.342,3.342,0,0,0,5.376-.193,9.744,9.744,0,0,0,1.535-3.687l.259-1.353a.8.8,0,0,1,1.563.3l-.259,1.353a11.325,11.325,0,0,1-1.784,4.286,4.919,4.919,0,0,1-3.606,2.127Q241.422,369.669,241.187,369.669Z" transform="translate(-213.971 -322.65)"/>
        <path id="Trazado_1242332" data-name="Trazado 1242332" d="M158.543,367.326a4.938,4.938,0,0,1-4.88-4.208l-.623-4.216a.8.8,0,0,1,1.574-.233l.623,4.216a3.342,3.342,0,0,0,4.752,2.52,9.746,9.746,0,0,0,3.172-2.426l2.523-2.918a.8.8,0,1,1,1.2,1.041l-2.523,2.918a11.327,11.327,0,0,1-3.687,2.82A4.928,4.928,0,0,1,158.543,367.326Z" transform="translate(-138.833 -320.017)"/>
        <path id="Trazado_1242333" data-name="Trazado 1242333" d="M100.087,13.639a.8.8,0,0,1-.758-.554c-.415-1.3-1.106-3.513-1.569-5a3.916,3.916,0,1,1,7.651-1.423l.245,3.477a.8.8,0,1,1-1.587.112l-.245-3.477a2.327,2.327,0,1,0-4.546.837c.463,1.483,1.152,3.687,1.566,4.989a.8.8,0,0,1-.758,1.037Z" transform="translate(-89.265 -2.702)"/>
        <path id="Trazado_1242334" data-name="Trazado 1242334" d="M190.515,55.844a.8.8,0,0,1-.793-.737,28.35,28.35,0,0,0-.358-2.855l-.615-3.47a.8.8,0,0,1,.529-.892l1.45-.489a2.058,2.058,0,0,0,.49-3.658l-1.7-1.142a4.45,4.45,0,0,0-3.705-.583,4.371,4.371,0,0,0-2.757,2.266l-2.779,5.636a8.973,8.973,0,0,1-6.772,4.91l-.2.029a12.731,12.731,0,0,1-5.084-.287l-.89-.234a8.266,8.266,0,0,1-6.085-7.053.8.8,0,1,1,1.582-.173,6.666,6.666,0,0,0,4.907,5.688l.89.234a11.148,11.148,0,0,0,4.452.251l.2-.029a7.383,7.383,0,0,0,5.573-4.039l2.779-5.636a5.931,5.931,0,0,1,3.691-3.076,6.07,6.07,0,0,1,5.085.776l1.7,1.141a3.649,3.649,0,0,1-.868,6.487l-.8.27.5,2.8a29.944,29.944,0,0,1,.379,3.016.8.8,0,0,1-.735.852Z" transform="translate(-146.17 -35.989)"/>
        <path id="Trazado_1242335" data-name="Trazado 1242335" d="M224.96,227.129q-.373,0-.742-.016a.8.8,0,0,1,.069-1.59q.345.015.694.015a23.753,23.753,0,0,0,11.342-2.911l.126-.069A16.865,16.865,0,0,0,243.5,215.2l.089-.18a17.24,17.24,0,0,0,1.762-6.517l.02-.327a.8.8,0,1,1,1.589.087l-.021.347a18.822,18.822,0,0,1-1.923,7.116l-.089.18a18.448,18.448,0,0,1-7.717,8.049l-.126.069a25.349,25.349,0,0,1-12.1,3.106Z" transform="translate(-201.787 -185.421)"/>
        <path id="Trazado_1242336" data-name="Trazado 1242336" d="M42.12,231.656a.8.8,0,0,1-.215-.03,16.922,16.922,0,0,1-10.991-9.561,4.556,4.556,0,0,0-2.824-2.529l-2.336-.726a2.776,2.776,0,0,1-.306-5.187l.893-.4a.8.8,0,1,1,.648,1.453l-.893.4a1.185,1.185,0,0,0,.131,2.215l2.336.726a6.146,6.146,0,0,1,3.81,3.412,15.337,15.337,0,0,0,9.962,8.666.8.8,0,0,1-.214,1.562Z" transform="translate(-23.31 -190.546)"/>
        <path id="Trazado_1242337" data-name="Trazado 1242337" d="M24.118,168.113a.792.792,0,0,1-.384-.1l-2.811-1.555a3.4,3.4,0,0,1,.577-6.211l.629-.209a.8.8,0,0,1,.5,1.51l-.629.209a1.814,1.814,0,0,0-.307,3.309l2.811,1.555a.8.8,0,0,1-.386,1.492Z" transform="translate(-19.164 -143.027)"/>
        <path id="Trazado_1242338" data-name="Trazado 1242338" d="M130.989,173.822a.794.794,0,0,1-.608-.282l-.145-.175-2.222-2.725a2.174,2.174,0,0,1,.7-3.312l1.352-.687a44.532,44.532,0,0,1,13.312-4.309.8.8,0,0,1,.246,1.572,42.943,42.943,0,0,0-12.837,4.156l-1.352.687a.583.583,0,0,0-.188.889l2.35,2.879a.8.8,0,0,1-.607,1.309Z" transform="translate(-116.029 -145.104)"/>
        <path id="Trazado_1242339" data-name="Trazado 1242339" d="M186.129,221.171a12.79,12.79,0,0,1-6.757-1.932.8.8,0,1,1,.843-1.35,11.2,11.2,0,0,0,11.283.32,11.358,11.358,0,0,0,5-5.5l.711-1.667a.8.8,0,0,1,1.463.624l-.711,1.667a12.9,12.9,0,0,1-10.416,7.758A12.614,12.614,0,0,1,186.129,221.171Z" transform="translate(-162.044 -188.224)"/>
        <path id="Trazado_1242340" data-name="Trazado 1242340" d="M377.09,7.169a.8.8,0,0,1-.513-1.4l.161-.136a4.435,4.435,0,0,0,1.485-2.512,1.346,1.346,0,0,0-.381-1.231,1.038,1.038,0,0,0-1.5.058l-.2.224a.8.8,0,0,1-1.082.106l-.173-.133a1.039,1.039,0,0,0-1.414.141.8.8,0,0,1-.851.232l-.681-.227a.47.47,0,0,0-.56.671l1.078,1.972a.8.8,0,0,1-1.4.763l-1.078-1.972A2.061,2.061,0,0,1,372.444.777l.239.08A2.639,2.639,0,0,1,375.43.612a2.63,2.63,0,0,1,3.523.135,2.931,2.931,0,0,1,.831,2.682,6.032,6.032,0,0,1-2.02,3.417l-.161.136A.792.792,0,0,1,377.09,7.169Z" transform="translate(-332.549 0)"/>
        <path id="Trazado_1242341" data-name="Trazado 1242341" d="M390.458,62.087a3.354,3.354,0,0,1-2.066-6l1.518-1.178a3.349,3.349,0,0,1,3.927-.135l.232.156a.8.8,0,0,1-.887,1.321l-.232-.156a1.761,1.761,0,0,0-2.065.071l-1.518,1.178a1.764,1.764,0,0,0,1.638,3.067l.175-.058a.8.8,0,0,1,.5,1.51l-.175.058A3.323,3.323,0,0,1,390.458,62.087Z" transform="translate(-348.07 -48.45)"/>
        <path id="Trazado_1242342" data-name="Trazado 1242342" d="M434.932,67.891a.8.8,0,0,1-.046-1.59l3.631-.215a.269.269,0,0,0,.157-.475l-3.285-2.757a.8.8,0,1,1,1.023-1.219l3.284,2.757a1.86,1.86,0,0,1-1.085,3.283l-3.631.215Z" transform="translate(-390.121 -54.931)"/>
        <path id="Trazado_1242343" data-name="Trazado 1242343" d="M57.068,54.506a.8.8,0,0,1-.692-.4L53.867,49.7a3.61,3.61,0,0,1,4.184-5.24l1.467.445a.8.8,0,1,1-.462,1.523l-1.467-.445a2.019,2.019,0,0,0-2.34,2.931l2.509,4.409a.8.8,0,0,1-.691,1.189Z" transform="translate(-49.764 -39.601)"/>
        <path id="Trazado_1242344" data-name="Trazado 1242344" d="M28.628,106.977a.793.793,0,0,1-.558-.229L24.6,103.337a3.676,3.676,0,0,1,2.531-6.3l1.328-.017a.8.8,0,1,1,.021,1.591l-1.328.017a2.085,2.085,0,0,0-1.436,3.571l3.466,3.412a.8.8,0,0,1-.558,1.362Z" transform="translate(-23.046 -86.733)"/>
      </g>
    </g>
  </g>
</svg>
