<svg xmlns="http://www.w3.org/2000/svg" xmlns:xlink="http://www.w3.org/1999/xlink" width="98" height="98" viewBox="0 0 98 98">
  <defs>
    <filter id="Path_874925" x="0" y="0" width="98" height="98" filterUnits="userSpaceOnUse">
      <feOffset dy="3" input="SourceAlpha"/>
      <feGaussianBlur stdDeviation="3" result="blur"/>
      <feFlood flood-opacity="0.161"/>
      <feComposite operator="in" in2="blur"/>
      <feComposite in="SourceGraphic"/>
    </filter>
  </defs>
  <g id="Group_1200984" data-name="Group 1200984" transform="translate(-751.051 -969.009)">
    <g id="Group_1200521" data-name="Group 1200521" transform="translate(475.051 -5122.398)">
      <g id="Group_1187153" data-name="Group 1187153">
        <g id="Group_1182177" data-name="Group 1182177">
          <g id="Group_1181903" data-name="Group 1181903">
            <g id="Group_1181438" data-name="Group 1181438">
              <g id="Group_1111314" data-name="Group 1111314" transform="translate(-734.73 3020.407)">
                <g transform="matrix(1, 0, 0, 1, 1010.73, 3071)" filter="url(#Path_874925)">
                  <g id="Path_874925-2" data-name="Path 874925" transform="translate(9 6)" fill="#ffc94a">
                    <path d="M 39.99997329711914 78.50040435791016 C 34.80184936523438 78.50040435791016 29.76000595092773 77.48268127441406 25.01450729370117 75.47550201416016 C 20.43013954162598 73.53648376464844 16.3126392364502 70.76027679443359 12.7763843536377 67.22402191162109 C 9.240128517150879 63.68776702880859 6.463928699493408 59.57027053833008 4.524906635284424 54.98590087890625 C 2.517728805541992 50.24040222167969 1.500006675720215 45.19855880737305 1.500006675720215 40.00043487548828 C 1.500006675720215 34.80185699462891 2.517728805541992 29.76001358032227 4.524906635284424 25.01451301574707 C 6.463928699493408 20.43013572692871 9.240128517150879 16.31263542175293 12.7763843536377 12.77637958526611 C 16.3126392364502 9.240124702453613 20.43013954162598 6.463935375213623 25.01450729370117 4.52490234375 C 29.76000595092773 2.517724514007568 34.80184936523438 1.500002145767212 39.99997329711914 1.500002145767212 C 45.19809722900391 1.500002145767212 50.23994064331055 2.517724514007568 54.98543930053711 4.52490234375 C 59.56981658935547 6.463935375213623 63.68731689453125 9.240124702453613 67.22357177734375 12.77637958526611 C 70.75982666015625 16.31263542175293 73.53601837158203 20.43013572692871 75.47505187988281 25.01451301574707 C 77.48223114013672 29.76001358032227 78.49995422363281 34.80185699462891 78.49995422363281 39.99998092651367 C 78.49995422363281 45.19855880737305 77.48223114013672 50.24040222167969 75.47505187988281 54.98590087890625 C 73.53601837158203 59.57027053833008 70.75982666015625 63.68776702880859 67.22357177734375 67.22402191162109 C 63.68731689453125 70.76027679443359 59.56981658935547 73.53648376464844 54.98543930053711 75.47550201416016 C 50.23994064331055 77.48268127441406 45.19809722900391 78.50040435791016 39.99997329711914 78.50040435791016 Z" stroke="none"/>
                    <path d="M 39.99997329711914 3 C 35.00369262695312 3 30.15843963623047 3.977851867675781 25.59883880615234 5.906417846679688 C 21.19326782226562 7.769813537597656 17.23602676391602 10.43805694580078 13.83704376220703 13.83704376220703 C 10.43805694580078 17.23601531982422 7.769813537597656 21.19325637817383 5.906410217285156 25.59882736206055 C 3.977851867675781 30.15844345092773 3 35.00368118286133 3 40.00042724609375 C 3 44.99672317504883 3.977851867675781 49.84196472167969 5.906410217285156 54.40157318115234 C 7.769813537597656 58.80714797973633 10.43805694580078 62.76438903808594 13.83704376220703 66.16336059570312 C 17.23602676391602 69.56234741210938 21.19326782226562 72.2305908203125 25.59883880615234 74.09398651123047 C 30.15843963623047 76.02255249023438 35.00369262695312 77.00040435791016 39.99997329711914 77.00040435791016 C 44.99625396728516 77.00040435791016 49.84150695800781 76.02255249023438 54.40110778808594 74.09398651123047 C 58.80667877197266 72.2305908203125 62.76391983032227 69.56234741210938 66.16290283203125 66.16336059570312 C 69.5618896484375 62.76438903808594 72.23013305664062 58.80714797973633 74.09353637695312 54.40157318115234 C 76.0220947265625 49.84196472167969 76.99994659423828 44.99672317504883 76.99994659423828 39.99997711181641 C 76.99994659423828 35.00368118286133 76.0220947265625 30.15844345092773 74.09353637695312 25.59882736206055 C 72.23013305664062 21.19325637817383 69.5618896484375 17.23601531982422 66.16290283203125 13.83704376220703 C 62.76391983032227 10.43805694580078 58.80667877197266 7.769813537597656 54.40110778808594 5.906417846679688 C 49.84150695800781 3.977851867675781 44.99625396728516 3 39.99997329711914 3 M 39.99997329711914 0 C 62.09134674072266 0 79.99994659423828 17.90858840942383 79.99994659423828 39.99997711181641 L 79.99994659423828 40.00042724609375 C 79.99994659423828 62.09181594848633 62.09134674072266 80.00040435791016 39.99997329711914 80.00040435791016 C 17.90859985351562 80.00040435791016 0 62.09181594848633 0 40.00042724609375 L 0 39.99997711181641 C 0 17.90858840942383 17.90859985351562 0 39.99997329711914 0 Z" stroke="none" fill="#fff"/>
                  </g>
                </g>
              </g>
            </g>
          </g>
        </g>
      </g>
    </g>
    <g id="ceroa" transform="translate(776.587 983.082)">
      <path id="Path_1242746" data-name="Path 1242746" d="M105.291,101.478c3.4-3.4,6.319-.486,9.722-3.889a3.437,3.437,0,0,0,0-4.861l-8.749,1.944L81.681,119.256l-4.861,8.749a5.5,5.5,0,0,0,7.777,0c3.4-3.4.486-6.319,3.889-9.722Z" transform="translate(-69.779 -75.765)" fill="#ffd185"/>
      <path id="Path_1242747" data-name="Path 1242747" d="M19.687,57.108c.982-.982,1.037-1.7,1.147-3.127a9.3,9.3,0,0,1,2.742-6.594L40.38,30.582a9.3,9.3,0,0,1,6.594-2.742c1.428-.11,2.145-.165,3.127-1.147,1.342-1.342,2.213-2.648,1.944-2.916a3.437,3.437,0,0,0-3.786-.728,5.5,5.5,0,0,0-9.338-4.619c-3.4,3.4-.486,6.319-3.889,9.722L18.228,44.956c-3.4,3.4-6.319.486-9.722,3.889a3.437,3.437,0,0,0,3.786,5.589,5.49,5.49,0,0,0,1.561,4.619C14.928,60.126,17.539,59.256,19.687,57.108Z" transform="translate(-6.813 -6.813)" fill="#ffe8c2"/>
      <path id="Línea_596" data-name="Línea 596" transform="translate(12.874 50.296)"/>
      <path id="Trazado_1242748" data-name="Trazado 1242748" d="M10.93,54.535a6.183,6.183,0,0,1-6.184-5.993,4.126,4.126,0,0,1-3.537-7A7.325,7.325,0,0,1,6.5,39.4a5.946,5.946,0,0,0,4.427-1.745L25.791,22.8a.687.687,0,0,1,.972.972L11.9,38.63a7.325,7.325,0,0,1-5.294,2.144A5.946,5.946,0,0,0,2.18,42.518a2.75,2.75,0,0,0,3.029,4.471.687.687,0,0,1,.952.723,4.811,4.811,0,0,0,8.171,4.042,5.946,5.946,0,0,0,1.745-4.427,7.325,7.325,0,0,1,2.144-5.294l16.8-16.805a7.325,7.325,0,0,1,5.294-2.144,5.946,5.946,0,0,0,4.427-1.745,2.75,2.75,0,0,0-3.029-4.471.687.687,0,0,1-.952-.723A4.811,4.811,0,0,0,32.6,12.1a5.946,5.946,0,0,0-1.745,4.427,7.325,7.325,0,0,1-2.144,5.294.687.687,0,1,1-.972-.972,5.946,5.946,0,0,0,1.745-4.427,7.325,7.325,0,0,1,2.144-5.294,6.187,6.187,0,0,1,10.559,4.184,4.126,4.126,0,0,1,3.537,7,7.325,7.325,0,0,1-5.294,2.144A5.946,5.946,0,0,0,36,26.2L19.193,43a5.946,5.946,0,0,0-1.745,4.427A7.325,7.325,0,0,1,15.3,52.726,6.169,6.169,0,0,1,10.93,54.535Z" transform="translate(0)"/>
      <path id="Línea_597" data-name="Línea 597" transform="translate(13.36 40.088)"/>
      <path id="Línea_598" data-name="Línea 598" transform="translate(8.985 50.296)"/>
      <path id="Línea_599" data-name="Línea 599" transform="translate(34.054 13.562)"/>
    </g>
  </g>
</svg>
