<svg xmlns="http://www.w3.org/2000/svg" xmlns:xlink="http://www.w3.org/1999/xlink" width="98" height="98" viewBox="0 0 98 98">
  <defs>
    <filter id="Path_874925" x="0" y="0" width="98" height="98" filterUnits="userSpaceOnUse">
      <feOffset dy="3" input="SourceAlpha"/>
      <feGaussianBlur stdDeviation="3" result="blur"/>
      <feFlood flood-opacity="0.161"/>
      <feComposite operator="in" in2="blur"/>
      <feComposite in="SourceGraphic"/>
    </filter>
  </defs>
  <g id="Group_1200904" data-name="Group 1200904" transform="translate(-590.949 -3770.923)">
    <g id="Group_1200525" data-name="Group 1200525" transform="translate(314.949 -2320.484)">
      <g id="Group_1187153" data-name="Group 1187153">
        <g id="Group_1182177" data-name="Group 1182177">
          <g id="Group_1181903" data-name="Group 1181903">
            <g id="Group_1181438" data-name="Group 1181438">
              <g id="Group_1111314" data-name="Group 1111314" transform="translate(-734.73 3020.407)">
                <g transform="matrix(1, 0, 0, 1, 1010.73, 3071)" filter="url(#Path_874925)">
                  <g id="Path_874925-2" data-name="Path 874925" transform="translate(9 6)" fill="#ffc94a">
                    <path d="M 39.99997329711914 78.50040435791016 C 34.80184936523438 78.50040435791016 29.76000595092773 77.48268127441406 25.01450729370117 75.47550201416016 C 20.43013954162598 73.53648376464844 16.3126392364502 70.76027679443359 12.7763843536377 67.22402191162109 C 9.240128517150879 63.68776702880859 6.463928699493408 59.57027053833008 4.524906635284424 54.98590087890625 C 2.517728805541992 50.24040222167969 1.500006675720215 45.19855880737305 1.500006675720215 40.00043487548828 C 1.500006675720215 34.80185699462891 2.517728805541992 29.76001358032227 4.524906635284424 25.01451301574707 C 6.463928699493408 20.43013572692871 9.240128517150879 16.31263542175293 12.7763843536377 12.77637958526611 C 16.3126392364502 9.240124702453613 20.43013954162598 6.463935375213623 25.01450729370117 4.52490234375 C 29.76000595092773 2.517724514007568 34.80184936523438 1.500002145767212 39.99997329711914 1.500002145767212 C 45.19809722900391 1.500002145767212 50.23994064331055 2.517724514007568 54.98543930053711 4.52490234375 C 59.56981658935547 6.463935375213623 63.68731689453125 9.240124702453613 67.22357177734375 12.77637958526611 C 70.75982666015625 16.31263542175293 73.53601837158203 20.43013572692871 75.47505187988281 25.01451301574707 C 77.48223114013672 29.76001358032227 78.49995422363281 34.80185699462891 78.49995422363281 39.99998092651367 C 78.49995422363281 45.19855880737305 77.48223114013672 50.24040222167969 75.47505187988281 54.98590087890625 C 73.53601837158203 59.57027053833008 70.75982666015625 63.68776702880859 67.22357177734375 67.22402191162109 C 63.68731689453125 70.76027679443359 59.56981658935547 73.53648376464844 54.98543930053711 75.47550201416016 C 50.23994064331055 77.48268127441406 45.19809722900391 78.50040435791016 39.99997329711914 78.50040435791016 Z" stroke="none"/>
                    <path d="M 39.99997329711914 3 C 35.00369262695312 3 30.15843963623047 3.977851867675781 25.59883880615234 5.906417846679688 C 21.19326782226562 7.769813537597656 17.23602676391602 10.43805694580078 13.83704376220703 13.83704376220703 C 10.43805694580078 17.23601531982422 7.769813537597656 21.19325637817383 5.906410217285156 25.59882736206055 C 3.977851867675781 30.15844345092773 3 35.00368118286133 3 40.00042724609375 C 3 44.99672317504883 3.977851867675781 49.84196472167969 5.906410217285156 54.40157318115234 C 7.769813537597656 58.80714797973633 10.43805694580078 62.76438903808594 13.83704376220703 66.16336059570312 C 17.23602676391602 69.56234741210938 21.19326782226562 72.2305908203125 25.59883880615234 74.09398651123047 C 30.15843963623047 76.02255249023438 35.00369262695312 77.00040435791016 39.99997329711914 77.00040435791016 C 44.99625396728516 77.00040435791016 49.84150695800781 76.02255249023438 54.40110778808594 74.09398651123047 C 58.80667877197266 72.2305908203125 62.76391983032227 69.56234741210938 66.16290283203125 66.16336059570312 C 69.5618896484375 62.76438903808594 72.23013305664062 58.80714797973633 74.09353637695312 54.40157318115234 C 76.0220947265625 49.84196472167969 76.99994659423828 44.99672317504883 76.99994659423828 39.99997711181641 C 76.99994659423828 35.00368118286133 76.0220947265625 30.15844345092773 74.09353637695312 25.59882736206055 C 72.23013305664062 21.19325637817383 69.5618896484375 17.23601531982422 66.16290283203125 13.83704376220703 C 62.76391983032227 10.43805694580078 58.80667877197266 7.769813537597656 54.40110778808594 5.906417846679688 C 49.84150695800781 3.977851867675781 44.99625396728516 3 39.99997329711914 3 M 39.99997329711914 0 C 62.09134674072266 0 79.99994659423828 17.90858840942383 79.99994659423828 39.99997711181641 L 79.99994659423828 40.00042724609375 C 79.99994659423828 62.09181594848633 62.09134674072266 80.00040435791016 39.99997329711914 80.00040435791016 C 17.90859985351562 80.00040435791016 0 62.09181594848633 0 40.00042724609375 L 0 39.99997711181641 C 0 17.90858840942383 17.90859985351562 0 39.99997329711914 0 Z" stroke="none" fill="#fff"/>
                  </g>
                </g>
              </g>
            </g>
          </g>
        </g>
      </g>
    </g>
    <g id="sustancia-peligrosa" transform="translate(617.189 3792.139)">
      <path id="Path_1242329" data-name="Path 1242329" d="M6,17,8.919,49.143a1.524,1.524,0,0,0,1.524,1.387h21.6a1.524,1.524,0,0,0,1.524-1.387L36.482,17Z" transform="translate(-0.952 -3.569)" fill="#5f9659"/>
      <path id="Path_1242330" data-name="Path 1242330" d="M6,17,7.158,29.741A22.861,22.861,0,0,0,29.928,50.53h2.111a1.524,1.524,0,0,0,1.524-1.387L36.482,17Z" transform="translate(-0.952 -3.569)" fill="#6fb569"/>
      <path id="Path_1242331" data-name="Path 1242331" d="M0,0H35.054V3.048A3.048,3.048,0,0,1,32.006,6.1H3.048A3.048,3.048,0,0,1,0,3.048Z" transform="translate(37.816 13.431) rotate(180)" fill="#5f9659"/>
      <ellipse id="Ellipse_12351" data-name="Ellipse 12351" cx="1.128" cy="2.507" rx="1.128" ry="2.507" transform="translate(30.471 15.019) rotate(-12.007)" fill="#f7f7f7"/>
      <ellipse id="Ellipse_12352" data-name="Ellipse 12352" cx="0.5" cy="1" rx="0.5" ry="1" transform="translate(31.861 19.862)" fill="#f7f7f7"/>
      <circle id="Ellipse_12353" data-name="Ellipse 12353" cx="10.5" cy="10.5" r="10.5" transform="translate(25.861 25.862)" fill="#d1d1d1"/>
      <path id="Path_1242332" data-name="Path 1242332" d="M44,37h4.572L46.286,47.669Z" transform="translate(-9.994 -8.328)" fill="#ef5237"/>
      <circle id="Ellipse_12354" data-name="Ellipse 12354" cx="1.5" cy="1.5" r="1.5" transform="translate(34.861 40.862)" fill="#ef5237"/>
      <path id="Path_1242333" data-name="Path 1242333" d="M2.762,14.193H4.355L7.2,45.65a2.286,2.286,0,0,0,2.286,2.073h21.6a2.24,2.24,0,0,0,1.524-.61,11.431,11.431,0,0,0,14.829-8.382l-1.524-.32a9.907,9.907,0,1,1,0-4.252l1.524-.32a11.514,11.514,0,0,0-11.149-8.977,6.7,6.7,0,0,0-1.036.053l.968-10.722h1.593a.762.762,0,0,0,.762-.762V10.382a3.81,3.81,0,0,0-3.81-3.81H27.91V4.286A2.286,2.286,0,0,0,25.623,2H14.955a2.286,2.286,0,0,0-2.286,2.286V6.572H5.81A3.81,3.81,0,0,0,2,10.382v3.048a.762.762,0,0,0,.762.762ZM33.7,25.166A11.522,11.522,0,0,0,30.2,26.637v-9.4H28.672V27.8a11.431,11.431,0,0,0,1.943,18.4H9.491a.762.762,0,0,1-.762-.693L5.886,14.193H34.7ZM14.193,4.286a.762.762,0,0,1,.762-.762H25.623a.762.762,0,0,1,.762.762V6.572H14.193Zm-10.669,6.1A2.286,2.286,0,0,1,5.81,8.1H34.768a2.286,2.286,0,0,1,2.286,2.286v2.286H3.524Z" transform="translate(0)"/>
      <path id="Path_1242334" data-name="Path 1242334" d="M29,22h1.524V47.91H29Z" transform="translate(-6.425 -4.759)"/>
      <path id="Path_1242335" data-name="Path 1242335" d="M21,22h1.524V47.91H21Z" transform="translate(-4.521 -4.759)"/>
      <path id="Path_1242336" data-name="Path 1242336" d="M13,22h1.524V44.861H13Z" transform="translate(-2.618 -4.759)"/>
      <path id="Path_1242337" data-name="Path 1242337" d="M13,54h1.524v1.524H13Z" transform="translate(-2.618 -12.374)"/>
      <path id="Path_1242338" data-name="Path 1242338" d="M60,46.047a7.9,7.9,0,0,1,0,1.387l1.524.137V45.91Z" transform="translate(-13.801 -10.449)"/>
      <path id="Path_1242339" data-name="Path 1242339" d="M46.8,47.591l2.286-10.669A.762.762,0,0,0,48.329,36H43.757a.762.762,0,0,0-.762.922l2.286,10.669a.762.762,0,0,0,1.524,0ZM44.7,37.524h2.682L46.043,43.8Z" transform="translate(-9.751 -8.09)"/>
      <path id="Path_1242340" data-name="Path 1242340" d="M44,54.286A2.286,2.286,0,1,0,46.286,52,2.286,2.286,0,0,0,44,54.286Zm2.286-.762a.762.762,0,1,1-.762.762A.762.762,0,0,1,46.286,53.524Z" transform="translate(-9.994 -11.898)"/>
    </g>
  </g>
</svg>
