<svg xmlns="http://www.w3.org/2000/svg" xmlns:xlink="http://www.w3.org/1999/xlink" width="98" height="98" viewBox="0 0 98 98">
  <defs>
    <filter id="Path_874925" x="0" y="0" width="98" height="98" filterUnits="userSpaceOnUse">
      <feOffset dy="3" input="SourceAlpha"/>
      <feGaussianBlur stdDeviation="3" result="blur"/>
      <feFlood flood-opacity="0.161"/>
      <feComposite operator="in" in2="blur"/>
      <feComposite in="SourceGraphic"/>
    </filter>
  </defs>
  <g id="Group_1200909" data-name="Group 1200909" transform="translate(-433.051 -4935)">
    <g id="Group_1200777" data-name="Group 1200777" transform="translate(157.051 -1156.407)">
      <g id="Group_1187153" data-name="Group 1187153">
        <g id="Group_1182177" data-name="Group 1182177">
          <g id="Group_1181903" data-name="Group 1181903">
            <g id="Group_1181438" data-name="Group 1181438">
              <g id="Group_1111314" data-name="Group 1111314" transform="translate(-734.73 3020.407)">
                <g transform="matrix(1, 0, 0, 1, 1010.73, 3071)" filter="url(#Path_874925)">
                  <g id="Path_874925-2" data-name="Path 874925" transform="translate(9 6)" fill="#ffc94a">
                    <path d="M 39.99997329711914 78.50040435791016 C 34.80184936523438 78.50040435791016 29.76000595092773 77.48268127441406 25.01450729370117 75.47550201416016 C 20.43013954162598 73.53648376464844 16.3126392364502 70.76027679443359 12.7763843536377 67.22402191162109 C 9.240128517150879 63.68776702880859 6.463928699493408 59.57027053833008 4.524906635284424 54.98590087890625 C 2.517728805541992 50.24040222167969 1.500006675720215 45.19855880737305 1.500006675720215 40.00043487548828 C 1.500006675720215 34.80185699462891 2.517728805541992 29.76001358032227 4.524906635284424 25.01451301574707 C 6.463928699493408 20.43013572692871 9.240128517150879 16.31263542175293 12.7763843536377 12.77637958526611 C 16.3126392364502 9.240124702453613 20.43013954162598 6.463935375213623 25.01450729370117 4.52490234375 C 29.76000595092773 2.517724514007568 34.80184936523438 1.500002145767212 39.99997329711914 1.500002145767212 C 45.19809722900391 1.500002145767212 50.23994064331055 2.517724514007568 54.98543930053711 4.52490234375 C 59.56981658935547 6.463935375213623 63.68731689453125 9.240124702453613 67.22357177734375 12.77637958526611 C 70.75982666015625 16.31263542175293 73.53601837158203 20.43013572692871 75.47505187988281 25.01451301574707 C 77.48223114013672 29.76001358032227 78.49995422363281 34.80185699462891 78.49995422363281 39.99998092651367 C 78.49995422363281 45.19855880737305 77.48223114013672 50.24040222167969 75.47505187988281 54.98590087890625 C 73.53601837158203 59.57027053833008 70.75982666015625 63.68776702880859 67.22357177734375 67.22402191162109 C 63.68731689453125 70.76027679443359 59.56981658935547 73.53648376464844 54.98543930053711 75.47550201416016 C 50.23994064331055 77.48268127441406 45.19809722900391 78.50040435791016 39.99997329711914 78.50040435791016 Z" stroke="none"/>
                    <path d="M 39.99997329711914 3 C 35.00369262695312 3 30.15843963623047 3.977851867675781 25.59883880615234 5.906417846679688 C 21.19326782226562 7.769813537597656 17.23602676391602 10.43805694580078 13.83704376220703 13.83704376220703 C 10.43805694580078 17.23601531982422 7.769813537597656 21.19325637817383 5.906410217285156 25.59882736206055 C 3.977851867675781 30.15844345092773 3 35.00368118286133 3 40.00042724609375 C 3 44.99672317504883 3.977851867675781 49.84196472167969 5.906410217285156 54.40157318115234 C 7.769813537597656 58.80714797973633 10.43805694580078 62.76438903808594 13.83704376220703 66.16336059570312 C 17.23602676391602 69.56234741210938 21.19326782226562 72.2305908203125 25.59883880615234 74.09398651123047 C 30.15843963623047 76.02255249023438 35.00369262695312 77.00040435791016 39.99997329711914 77.00040435791016 C 44.99625396728516 77.00040435791016 49.84150695800781 76.02255249023438 54.40110778808594 74.09398651123047 C 58.80667877197266 72.2305908203125 62.76391983032227 69.56234741210938 66.16290283203125 66.16336059570312 C 69.5618896484375 62.76438903808594 72.23013305664062 58.80714797973633 74.09353637695312 54.40157318115234 C 76.0220947265625 49.84196472167969 76.99994659423828 44.99672317504883 76.99994659423828 39.99997711181641 C 76.99994659423828 35.00368118286133 76.0220947265625 30.15844345092773 74.09353637695312 25.59882736206055 C 72.23013305664062 21.19325637817383 69.5618896484375 17.23601531982422 66.16290283203125 13.83704376220703 C 62.76391983032227 10.43805694580078 58.80667877197266 7.769813537597656 54.40110778808594 5.906417846679688 C 49.84150695800781 3.977851867675781 44.99625396728516 3 39.99997329711914 3 M 39.99997329711914 0 C 62.09134674072266 0 79.99994659423828 17.90858840942383 79.99994659423828 39.99997711181641 L 79.99994659423828 40.00042724609375 C 79.99994659423828 62.09181594848633 62.09134674072266 80.00040435791016 39.99997329711914 80.00040435791016 C 17.90859985351562 80.00040435791016 0 62.09181594848633 0 40.00042724609375 L 0 39.99997711181641 C 0 17.90858840942383 17.90859985351562 0 39.99997329711914 0 Z" stroke="none" fill="#fff"/>
                  </g>
                </g>
              </g>
            </g>
          </g>
        </g>
      </g>
    </g>
    <g id="reco" transform="translate(435.324 4957.001)">
      <g id="Group_1200908" data-name="Group 1200908" transform="translate(26.467 0.861)">
        <g id="Group_1200906" data-name="Group 1200906" transform="translate(0)">
          <path id="Path_1242341" data-name="Path 1242341" d="M37.917,151.351a4.117,4.117,0,0,1-4.195-4.008V136.7c0-3.138,3.447-4.008,5.982-4.008H47.2a8.514,8.514,0,0,1,5.645,1.856l8.425,7.278a2.436,2.436,0,0,1-3.185,3.687l-7.753-6.693a.607.607,0,0,0-1,.459c0,8.126,0,18.774,0,26.755a.928.928,0,0,1-.926.926H38.843a.928.928,0,0,1-.926-.926Z" transform="translate(-33.722 -121.267)" fill="#baeb6c" fill-rule="evenodd"/>
          <path id="Path_1242342" data-name="Path 1242342" d="M140.608,132.7h3.575a8.514,8.514,0,0,1,5.645,1.856l8.425,7.278a2.436,2.436,0,0,1-3.185,3.687l-7.753-6.693a.607.607,0,0,0-1,.459c0,8.126,0,18.774,0,26.755a.928.928,0,0,1-.926.926h-4.779Z" transform="translate(-130.708 -121.268)" fill="#96d629" fill-rule="evenodd"/>
          <path id="Path_1242343" data-name="Path 1242343" d="M79.011,334.125h11.41v14.686a.928.928,0,0,1-.926.926H79.937a.928.928,0,0,1-.926-.926Z" transform="translate(-74.816 -304.041)" fill="#d9d9d9" fill-rule="evenodd"/>
          <path id="Path_1242344" data-name="Path 1242344" d="M140.607,334.125h5.705v14.686a.928.928,0,0,1-.926.926h-4.779V334.125Z" transform="translate(-130.707 -304.041)" fill="#c9c9c9" fill-rule="evenodd"/>
          <path id="Path_1242345" data-name="Path 1242345" d="M96.966,9.311c2.46,0,4.455,1.4,4.455,4.636S99.426,19.8,96.966,19.8s-4.455-2.621-4.455-5.855S94.506,9.311,96.966,9.311Z" transform="translate(-87.066 -9.311)" fill="#f6dccd" fill-rule="evenodd"/>
          <path id="Path_1242346" data-name="Path 1242346" d="M140.608,9.311c2.46,0,4.455,1.4,4.455,4.636s-1.995,5.855-4.455,5.855h0V9.311Z" transform="translate(-130.708 -9.311)" fill="#f1cbbc" fill-rule="evenodd"/>
        </g>
        <g id="Group_1200907" data-name="Group 1200907" transform="translate(25.292 10.691)">
          <path id="Path_1242347" data-name="Path 1242347" d="M321.887,321.431l-.909,14.913a1.046,1.046,0,0,1-1.045.983h-11.18a1.046,1.046,0,0,1-1.045-.983l-.909-14.913a.926.926,0,0,1,.924-.982h13.239a.926.926,0,0,1,.925.982Z" transform="translate(-306.797 -302.322)" fill="#e8e8e8" fill-rule="evenodd"/>
          <path id="Path_1242348" data-name="Path 1242348" d="M395.816,321.431l-.909,14.913a1.046,1.046,0,0,1-1.045.983h-5.59V320.448h6.62a.926.926,0,0,1,.924.982Z" transform="translate(-380.726 -302.322)" fill="#d9d9d9" fill-rule="evenodd"/>
          <path id="Path_1242349" data-name="Path 1242349" d="M364.54,256.076l1.408-.907a.464.464,0,0,1,.64.138l.907,1.408a.464.464,0,0,1-.138.64l-1.408.907a.464.464,0,0,1-.64-.138l-.907-1.408A.464.464,0,0,1,364.54,256.076Z" transform="translate(-359 -243.022)" fill="#c9c9c9" fill-rule="evenodd"/>
          <path id="Path_1242350" data-name="Path 1242350" d="M398.157,164.815l2.452,3.019a1.14,1.14,0,0,1-.166,1.6l-.883.717-3.886-4.786.883-.717A1.14,1.14,0,0,1,398.157,164.815Z" transform="translate(-387.442 -160.723)" fill="#e8e8e8" fill-rule="evenodd"/>
          <path id="Path_1242351" data-name="Path 1242351" d="M418.42,185.226l1.226,1.51a1.14,1.14,0,0,1-.166,1.6l-.883.717-1.943-2.393Z" transform="translate(-406.479 -179.624)" fill="#d9d9d9" fill-rule="evenodd"/>
          <path id="Path_1242352" data-name="Path 1242352" d="M338.438,125.161,348.864,138a1.14,1.14,0,0,1-.166,1.6l-.905.735L335.932,125.73l.905-.735A1.14,1.14,0,0,1,338.438,125.161Z" transform="translate(-333.234 -124.741)" fill="#f0f0f0" fill-rule="evenodd"/>
          <path id="Path_1242353" data-name="Path 1242353" d="M401.753,198.585l5.213,6.42a1.14,1.14,0,0,1-.166,1.6l-.905.735-5.931-7.3Z" transform="translate(-391.336 -191.746)" fill="#e8e8e8" fill-rule="evenodd"/>
        </g>
      </g>
      <path id="Path_1242354" data-name="Path 1242354" d="M57.935,25.2l.6.94.944-.606-.607-.94Zm-.24,2.365L56.288,25.38a.74.74,0,0,1-.1-.558.765.765,0,0,1,.323-.466L58.7,22.947a.74.74,0,0,1,1.023.222l1.407,2.186a.738.738,0,0,1-.218,1.024l-2.185,1.408a.75.75,0,0,1-.4.118A.743.743,0,0,1,57.694,27.565ZM66.814,25.4a.4.4,0,0,1,.087.291.412.412,0,0,1-.144.267l-.332.268L55.5,12.771l.332-.268a.4.4,0,0,1,.559.058Zm-5.541-9.171,2.954,3.635.066-.053a.4.4,0,0,0,.057-.558L61.9,16.233a.392.392,0,0,0-.267-.144.4.4,0,0,0-.293.086Zm6.414,10.879-.9.735a.737.737,0,0,1-1.04-.108L53.88,13.13a.76.76,0,0,1-.162-.544.748.748,0,0,1,.271-.5l.9-.735a1.882,1.882,0,0,1,2.644.274l2.8,3.452.065-.053a1.881,1.881,0,0,1,2.644.274L65.5,18.318a1.879,1.879,0,0,1-.271,2.643l-.066.053,2.8,3.452a1.875,1.875,0,0,1-.275,2.642Zm-1.569,3.433H52.486l.922,15.11a.309.309,0,0,0,.306.287H64.9a.3.3,0,0,0,.3-.287Zm1.328-1.248a.74.74,0,0,1,.2.553l-.97,15.9A1.788,1.788,0,0,1,64.9,47.419H53.714a1.788,1.788,0,0,1-1.783-1.679l-.97-15.9a.741.741,0,0,1,.2-.553.732.732,0,0,1,.537-.233H66.91a.739.739,0,0,1,.538.233ZM36.367,10.49c2.049,0,3.714-2.294,3.714-5.114,0-3.389-2.329-3.895-3.714-3.895s-3.714.506-3.714,3.895C32.653,8.2,34.318,10.49,36.367,10.49Zm13.974,15.3A3.178,3.178,0,1,0,54.5,20.984l-8.424-7.277a9.206,9.206,0,0,0-6.13-2.037H37.922c2.106-.841,3.64-3.344,3.64-6.294C41.562,2.059,39.57,0,36.367,0s-5.2,2.06-5.2,5.377c0,2.95,1.534,5.453,3.64,6.294H32.447a9.773,9.773,0,0,0-4.282.91,4.153,4.153,0,0,0-2.438,3.839V27.526a4.817,4.817,0,0,0,4.195,4.7V46.678a.741.741,0,1,0,1.481,0V18.922a.741.741,0,1,0-1.481,0V30.716a3.317,3.317,0,0,1-2.714-3.19V16.418c0-3.109,4.365-3.267,5.239-3.267h7.494a7.89,7.89,0,0,1,5.16,1.676l8.424,7.278a1.695,1.695,0,0,1-2.215,2.565l-7.752-6.693A1.348,1.348,0,0,0,41.33,19V46.678a.741.741,0,1,0,1.481,0V19.291ZM37.263,34.854V46.678a.741.741,0,1,1-1.481,0V34.854a.741.741,0,1,1,1.481,0Z" fill-rule="evenodd"/>
    </g>
  </g>
</svg>
