<svg xmlns="http://www.w3.org/2000/svg" xmlns:xlink="http://www.w3.org/1999/xlink" width="98" height="98" viewBox="0 0 98 98">
  <defs>
    <filter id="Path_874925" x="0" y="0" width="98" height="98" filterUnits="userSpaceOnUse">
      <feOffset dy="3" input="SourceAlpha"/>
      <feGaussianBlur stdDeviation="3" result="blur"/>
      <feFlood flood-opacity="0.161"/>
      <feComposite operator="in" in2="blur"/>
      <feComposite in="SourceGraphic"/>
    </filter>
    <clipPath id="clip-path">
      <path id="path1395" d="M0-682.665H43.987v43.987H0Z" transform="translate(0 682.665)"/>
    </clipPath>
  </defs>
  <g id="Group_1200905" data-name="Group 1200905" transform="translate(-905.949 -3770.923)">
    <g id="Group_1200526" data-name="Group 1200526" transform="translate(629.949 -2320.484)">
      <g id="Group_1187153" data-name="Group 1187153">
        <g id="Group_1182177" data-name="Group 1182177">
          <g id="Group_1181903" data-name="Group 1181903">
            <g id="Group_1181438" data-name="Group 1181438">
              <g id="Group_1111314" data-name="Group 1111314" transform="translate(-734.73 3020.407)">
                <g transform="matrix(1, 0, 0, 1, 1010.73, 3071)" filter="url(#Path_874925)">
                  <g id="Path_874925-2" data-name="Path 874925" transform="translate(9 6)" fill="#ffc94a">
                    <path d="M 39.99997329711914 78.50040435791016 C 34.80184936523438 78.50040435791016 29.76000595092773 77.48268127441406 25.01450729370117 75.47550201416016 C 20.43013954162598 73.53648376464844 16.3126392364502 70.76027679443359 12.7763843536377 67.22402191162109 C 9.240128517150879 63.68776702880859 6.463928699493408 59.57027053833008 4.524906635284424 54.98590087890625 C 2.517728805541992 50.24040222167969 1.500006675720215 45.19855880737305 1.500006675720215 40.00043487548828 C 1.500006675720215 34.80185699462891 2.517728805541992 29.76001358032227 4.524906635284424 25.01451301574707 C 6.463928699493408 20.43013572692871 9.240128517150879 16.31263542175293 12.7763843536377 12.77637958526611 C 16.3126392364502 9.240124702453613 20.43013954162598 6.463935375213623 25.01450729370117 4.52490234375 C 29.76000595092773 2.517724514007568 34.80184936523438 1.500002145767212 39.99997329711914 1.500002145767212 C 45.19809722900391 1.500002145767212 50.23994064331055 2.517724514007568 54.98543930053711 4.52490234375 C 59.56981658935547 6.463935375213623 63.68731689453125 9.240124702453613 67.22357177734375 12.77637958526611 C 70.75982666015625 16.31263542175293 73.53601837158203 20.43013572692871 75.47505187988281 25.01451301574707 C 77.48223114013672 29.76001358032227 78.49995422363281 34.80185699462891 78.49995422363281 39.99998092651367 C 78.49995422363281 45.19855880737305 77.48223114013672 50.24040222167969 75.47505187988281 54.98590087890625 C 73.53601837158203 59.57027053833008 70.75982666015625 63.68776702880859 67.22357177734375 67.22402191162109 C 63.68731689453125 70.76027679443359 59.56981658935547 73.53648376464844 54.98543930053711 75.47550201416016 C 50.23994064331055 77.48268127441406 45.19809722900391 78.50040435791016 39.99997329711914 78.50040435791016 Z" stroke="none"/>
                    <path d="M 39.99997329711914 3 C 35.00369262695312 3 30.15843963623047 3.977851867675781 25.59883880615234 5.906417846679688 C 21.19326782226562 7.769813537597656 17.23602676391602 10.43805694580078 13.83704376220703 13.83704376220703 C 10.43805694580078 17.23601531982422 7.769813537597656 21.19325637817383 5.906410217285156 25.59882736206055 C 3.977851867675781 30.15844345092773 3 35.00368118286133 3 40.00042724609375 C 3 44.99672317504883 3.977851867675781 49.84196472167969 5.906410217285156 54.40157318115234 C 7.769813537597656 58.80714797973633 10.43805694580078 62.76438903808594 13.83704376220703 66.16336059570312 C 17.23602676391602 69.56234741210938 21.19326782226562 72.2305908203125 25.59883880615234 74.09398651123047 C 30.15843963623047 76.02255249023438 35.00369262695312 77.00040435791016 39.99997329711914 77.00040435791016 C 44.99625396728516 77.00040435791016 49.84150695800781 76.02255249023438 54.40110778808594 74.09398651123047 C 58.80667877197266 72.2305908203125 62.76391983032227 69.56234741210938 66.16290283203125 66.16336059570312 C 69.5618896484375 62.76438903808594 72.23013305664062 58.80714797973633 74.09353637695312 54.40157318115234 C 76.0220947265625 49.84196472167969 76.99994659423828 44.99672317504883 76.99994659423828 39.99997711181641 C 76.99994659423828 35.00368118286133 76.0220947265625 30.15844345092773 74.09353637695312 25.59882736206055 C 72.23013305664062 21.19325637817383 69.5618896484375 17.23601531982422 66.16290283203125 13.83704376220703 C 62.76391983032227 10.43805694580078 58.80667877197266 7.769813537597656 54.40110778808594 5.906417846679688 C 49.84150695800781 3.977851867675781 44.99625396728516 3 39.99997329711914 3 M 39.99997329711914 0 C 62.09134674072266 0 79.99994659423828 17.90858840942383 79.99994659423828 39.99997711181641 L 79.99994659423828 40.00042724609375 C 79.99994659423828 62.09181594848633 62.09134674072266 80.00040435791016 39.99997329711914 80.00040435791016 C 17.90859985351562 80.00040435791016 0 62.09181594848633 0 40.00042724609375 L 0 39.99997711181641 C 0 17.90858840942383 17.90859985351562 0 39.99997329711914 0 Z" stroke="none" fill="#fff"/>
                  </g>
                </g>
              </g>
            </g>
          </g>
        </g>
      </g>
    </g>
    <g id="g1389" transform="translate(932.956 4477.595)">
      <g id="g1391" transform="translate(0 -682.665)">
        <g id="g1393" clip-path="url(#clip-path)">
          <g id="g1399" transform="translate(3.556 14.147)">
            <path id="path1401" d="M-425.8-423.079H-450.36a1.868,1.868,0,0,1-1.857-1.671l-2.905-27.467h34.088l-2.905,27.467a1.868,1.868,0,0,1-1.857,1.671" transform="translate(455.123 452.218)" fill="#e8e8e8"/>
          </g>
          <g id="g1403" transform="translate(28.328 14.147)">
            <path id="path1405" d="M-69.153,0l-2.905,27.467a1.868,1.868,0,0,1-1.858,1.672h4.553A1.868,1.868,0,0,0-67.5,27.467L-64.6,0Z" transform="translate(73.916)" fill="#b0c0d2"/>
          </g>
          <g id="g1407" transform="translate(3.418 0.644)">
            <path id="path1409" d="M-498.967-163.412h-34.365V-169.4a5.268,5.268,0,0,1,5.268-5.268h23.828a5.268,5.268,0,0,1,5.268,5.268Z" transform="translate(533.332 174.666)" fill="#e8e8e8"/>
          </g>
          <g id="g1411" transform="translate(28.133 0.644)">
            <path id="path1413" d="M-63.618,0H-68a5.268,5.268,0,0,1,5.268,5.268v5.986h4.382V5.268A5.268,5.268,0,0,0-63.618,0" transform="translate(68)" fill="#b0c0d2"/>
          </g>
          <g id="g1415" transform="translate(0.644 11.813)">
            <path id="path1417" d="M-547.09-53.639h-35.832a1.847,1.847,0,0,1-1.847-1.847,1.847,1.847,0,0,1,1.847-1.847h35.832a1.847,1.847,0,0,1,1.847,1.847,1.847,1.847,0,0,1-1.847,1.847" transform="translate(584.769 57.333)" fill="#e8e8e8"/>
          </g>
          <g id="g1419" transform="translate(34.543 11.813)">
            <path id="path1421" d="M-54.886,0h-3.78a1.847,1.847,0,0,1,1.847,1.847,1.847,1.847,0,0,1-1.847,1.847h3.78a1.847,1.847,0,0,0,1.847-1.847A1.847,1.847,0,0,0-54.886,0" transform="translate(58.667)" fill="#ebb400"/>
          </g>
          <g id="g1423" transform="translate(10.887 7.002)">
            <path id="path1425" d="M-282.072-69.855H-301.5v-3.059a1.752,1.752,0,0,1,1.752-1.752h15.923a1.752,1.752,0,0,1,1.752,1.752Z" transform="translate(301.499 74.666)" fill="#e8e8e8"/>
          </g>
          <g id="g1427" transform="translate(33.466 17.127)">
            <path id="path1429" d="M-143.412-111.474v-1.539a2.907,2.907,0,0,0-.367-1.415,4.9,4.9,0,0,0-2.171-2.087v-2.635h-4.8v2.635a4.9,4.9,0,0,0-2.171,2.087,2.907,2.907,0,0,0-.367,1.415v1.539a2.881,2.881,0,0,0,.566,1.722,5.907,5.907,0,0,1,0,7.047,2.881,2.881,0,0,0-.566,1.722v5.139a2.908,2.908,0,0,0,2.908,2.908h4.061a2.908,2.908,0,0,0,2.908-2.908v-5.139a2.88,2.88,0,0,0-.566-1.722,5.907,5.907,0,0,1,0-7.047,2.88,2.88,0,0,0,.566-1.722" transform="translate(153.289 119.152)" fill="#f0f0f0"/>
          </g>
          <g id="g1431" transform="translate(36.662 17.126)">
            <path id="path1433" d="M-96.956-111.454v-1.539a2.905,2.905,0,0,0-.368-1.415,4.9,4.9,0,0,0-2.172-2.086l0-2.635-3.78,0,0,2.635a4.9,4.9,0,0,1,2.172,2.086,2.905,2.905,0,0,1,.368,1.415v1.539a2.881,2.881,0,0,1-.565,1.723,5.907,5.907,0,0,0,0,7.047,2.881,2.881,0,0,1,.567,1.722l0,5.139a2.908,2.908,0,0,1-2.906,2.91l3.78,0a2.908,2.908,0,0,0,2.906-2.91l0-5.139a2.881,2.881,0,0,0-.567-1.722,5.907,5.907,0,0,1,0-7.047,2.881,2.881,0,0,0,.565-1.723" transform="translate(103.633 119.13)" fill="#e8e8e8"/>
          </g>
          <g id="g1435" transform="translate(34.804 14.265)">
            <path id="path1437" d="M-92.657-42.89H-98.22a.819.819,0,0,1-.819-.819v-1.317a.819.819,0,0,1,.819-.819h5.563a.819.819,0,0,1,.819.819v1.317a.819.819,0,0,1-.819.819" transform="translate(99.038 45.844)" fill="#67b5e9"/>
          </g>
          <g id="g1439" transform="translate(33.557 25.758)">
            <path id="path1441" d="M-133.865-113.484a5.907,5.907,0,0,1,0-7.047,2.837,2.837,0,0,0,.4-.769h-9.555a2.839,2.839,0,0,0,.4.769,5.907,5.907,0,0,1,0,7.047,2.849,2.849,0,0,0-.474,1h9.694a2.849,2.849,0,0,0-.474-1" transform="translate(143.085 121.3)" fill="#67b5e9"/>
          </g>
          <g id="g1443" transform="translate(37.831 25.758)">
            <path id="path1445" d="M-71.816-113.484a5.907,5.907,0,0,1,0-7.047,2.837,2.837,0,0,0,.4-.769h-3.78a2.837,2.837,0,0,1-.4.769,5.907,5.907,0,0,0,0,7.047,2.849,2.849,0,0,1,.474,1h3.78a2.849,2.849,0,0,0-.474-1" transform="translate(76.762 121.3)" fill="#4ea0df"/>
          </g>
          <g id="g1447" transform="translate(3.06 14.906)">
            <path id="path1449" d="M-456.014-400.057h-24.563a2.507,2.507,0,0,1-2.5-2.248l-2.757-26.064a.644.644,0,0,1,.573-.709.644.644,0,0,1,.709.573l2.757,26.064a1.221,1.221,0,0,0,1.217,1.095h24.563a1.216,1.216,0,0,0,.972-.48.644.644,0,0,1,.9-.119.644.644,0,0,1,.119.9A2.5,2.5,0,0,1-456.014-400.057Z" transform="translate(485.836 429.081)"/>
          </g>
          <g id="g1451" transform="translate(2.774)">
            <path id="path1453" d="M-9.356-169.628a.644.644,0,0,1-.644-.644v-5.814A5.919,5.919,0,0,1-4.087-182h18.72a.644.644,0,0,1,.644.644.644.644,0,0,1-.644.644H-4.087a4.629,4.629,0,0,0-4.624,4.624v5.814A.644.644,0,0,1-9.356-169.628Z" transform="translate(10 182)"/>
          </g>
          <g id="g1455" transform="translate(30.37 0)">
            <path id="path1457" d="M-2.587,2.371a.644.644,0,0,1-.644-.644V-4.087A4.629,4.629,0,0,0-7.855-8.711h-1.5A.644.644,0,0,1-10-9.356.644.644,0,0,1-9.356-10h1.5A5.919,5.919,0,0,1-1.943-4.087V1.727A.644.644,0,0,1-2.587,2.371Z" transform="translate(10 10)"/>
          </g>
          <g id="g1459" transform="translate(10.181 14.863)">
            <path id="path1461" d="M-357.385-8.711h-23.969A.644.644,0,0,1-382-9.356a.644.644,0,0,1,.644-.644h23.969a.644.644,0,0,1,.644.644A.644.644,0,0,1-357.385-8.711Z" transform="translate(381.999 10)"/>
          </g>
          <g id="g1463" transform="translate(0 11.169)">
            <path id="path1465" d="M-106.031-62.35h-4.811a2.494,2.494,0,0,1-2.491-2.491,2.494,2.494,0,0,1,2.491-2.491H-75.01a2.494,2.494,0,0,1,2.491,2.491,2.5,2.5,0,0,1-.1.695.644.644,0,0,1-.8.439.644.644,0,0,1-.439-.8,1.206,1.206,0,0,0,.047-.336,1.2,1.2,0,0,0-1.2-1.2h-35.832a1.2,1.2,0,0,0-1.2,1.2,1.2,1.2,0,0,0,1.2,1.2h4.811a.644.644,0,0,1,.644.644A.644.644,0,0,1-106.031-62.35Z" transform="translate(113.333 67.333)"/>
          </g>
          <g id="g1467" transform="translate(10.243 6.357)">
            <path id="path1469" d="M-291.428-78.567h-19.427a.644.644,0,0,1-.644-.644V-82.27a2.4,2.4,0,0,1,2.4-2.4h15.923a2.4,2.4,0,0,1,2.4,2.4v3.059A.644.644,0,0,1-291.428-78.567Zm-18.783-1.289h18.138V-82.27a1.109,1.109,0,0,0-1.108-1.107H-309.1a1.109,1.109,0,0,0-1.107,1.107Z" transform="translate(311.499 84.666)"/>
          </g>
          <g id="g1471" transform="translate(11.77 26.933)">
            <path id="path1473" d="M-54.4-.176H-56.97a2.956,2.956,0,0,1-2.586-1.493,2.956,2.956,0,0,1,0-2.986l2.9-5.024a.644.644,0,0,1,.88-.236.644.644,0,0,1,.236.88l-2.9,5.024a1.68,1.68,0,0,0,0,1.7,1.68,1.68,0,0,0,1.47.849H-54.4a.644.644,0,0,1,.644.644A.644.644,0,0,1-54.4-.176Z" transform="translate(59.961 10.002)"/>
          </g>
          <g id="g1475" transform="translate(16.348 20.673)">
            <path id="path1477" d="M-142.5-114.581a.644.644,0,0,1-.559-.322l-3.534-6.12a1.68,1.68,0,0,0-1.47-.849,1.68,1.68,0,0,0-1.47.849l-1.58,2.737a.644.644,0,0,1-.88.236.644.644,0,0,1-.236-.88l1.58-2.737a2.956,2.956,0,0,1,2.586-1.493,2.956,2.956,0,0,1,2.586,1.493l3.534,6.12a.644.644,0,0,1-.236.88A.642.642,0,0,1-142.5-114.581Z" transform="translate(152.319 123.161)"/>
          </g>
          <g id="g1479" transform="translate(19.269 30.198)">
            <path id="path1481" d="M-2.829-85.267H-9.356A.644.644,0,0,1-10-85.911a.644.644,0,0,1,.644-.644h6.526a1.68,1.68,0,0,0,1.47-.849,1.68,1.68,0,0,0,0-1.7l-1.016-1.759a.644.644,0,0,1,.236-.88.644.644,0,0,1,.88.236l1.016,1.759a2.956,2.956,0,0,1,0,2.986A2.956,2.956,0,0,1-2.829-85.267Z" transform="translate(10 91.828)"/>
          </g>
          <g id="g1483" transform="translate(19.16 33.933)">
            <path id="path1485" d="M-29.487-5.7a.642.642,0,0,1-.456-.189l-1.506-1.506a.644.644,0,0,1-.017-.893l1.394-1.506a.644.644,0,0,1,.911-.035.644.644,0,0,1,.035.911L-30.1-7.867-29.032-6.8a.644.644,0,0,1,0,.911A.642.642,0,0,1-29.487-5.7Z" transform="translate(31.637 10)"/>
          </g>
          <g id="g1487" transform="translate(13.09 26.826)">
            <path id="path1489" d="M-46.45-37.739a.645.645,0,0,1-.627-.5l-.323-1.4-1.482.284a.644.644,0,0,1-.754-.512.644.644,0,0,1,.512-.754l2.091-.4a.644.644,0,0,1,.749.487l.463,2a.644.644,0,0,1-.482.773A.646.646,0,0,1-46.45-37.739Z" transform="translate(49.648 41.027)"/>
          </g>
          <g id="g1491" transform="translate(23.614 26.049)">
            <path id="path1493" d="M-7.359-31.312a.646.646,0,0,1-.147-.017l-2-.465a.644.644,0,0,1-.481-.774.644.644,0,0,1,.774-.481l1.395.325.4-1.456a.644.644,0,0,1,.792-.451.644.644,0,0,1,.451.792l-.562,2.054A.645.645,0,0,1-7.359-31.312Z" transform="translate(10.002 34.654)"/>
          </g>
          <g id="g1495" transform="translate(32.821 16.654)">
            <path id="path1497" d="M-42.955,17.333h-2.888A3.556,3.556,0,0,1-49.4,13.78V8.641A3.548,3.548,0,0,1-48.7,6.534a5.284,5.284,0,0,0,0-6.277A3.548,3.548,0,0,1-49.4-1.85V-3.389a3.561,3.561,0,0,1,.449-1.729,5.64,5.64,0,0,1,2.09-2.165V-9.356A.644.644,0,0,1-46.213-10a.644.644,0,0,1,.644.644v2.464a.644.644,0,0,1-.373.584,4.262,4.262,0,0,0-1.88,1.817,2.269,2.269,0,0,0-.286,1.1V-1.85a2.251,2.251,0,0,0,.438,1.337,6.581,6.581,0,0,1,0,7.817,2.25,2.25,0,0,0-.438,1.337V13.78a2.266,2.266,0,0,0,2.264,2.264h2.888a.644.644,0,0,1,.644.644A.644.644,0,0,1-42.955,17.333Z" transform="translate(49.396 10)"/>
          </g>
          <g id="g1499" transform="translate(40.16 16.654)">
            <path id="path1501" d="M-34.364-373.969a.642.642,0,0,1-.448-.181.644.644,0,0,1-.016-.911,2.252,2.252,0,0,0,.635-1.572v-5.139a2.25,2.25,0,0,0-.438-1.337,6.581,6.581,0,0,1,0-7.817,2.249,2.249,0,0,0,.438-1.337V-393.8a2.268,2.268,0,0,0-.286-1.1,4.26,4.26,0,0,0-1.88-1.817.644.644,0,0,1-.373-.584v-2.464a.644.644,0,0,1,.644-.644.644.644,0,0,1,.644.644v2.072a5.639,5.639,0,0,1,2.09,2.165A3.56,3.56,0,0,1-32.9-393.8v1.539a3.546,3.546,0,0,1-.694,2.107,5.284,5.284,0,0,0,0,6.277,3.547,3.547,0,0,1,.694,2.107v5.139a3.534,3.534,0,0,1-1,2.468A.642.642,0,0,1-34.364-373.969Z" transform="translate(36.731 400.414)"/>
          </g>
          <path id="path1503" d="M537.992-467.03h-7.2a.644.644,0,0,1-.644-.644v-2.954a.644.644,0,0,1,.644-.644h7.2a.644.644,0,0,1,.644.644v2.954A.644.644,0,0,1,537.992-467.03Zm-6.556-1.289h5.911v-1.665h-5.911Z" transform="translate(-495.988 484.893)"/>
          <g id="g1505" transform="translate(32.96 25.113)">
            <path id="path1507" d="M.152-8.711H-9.356A.644.644,0,0,1-10-9.356.644.644,0,0,1-9.356-10H.152A.644.644,0,0,1,.8-9.356.644.644,0,0,1,.152-8.711Z" transform="translate(10 10)"/>
          </g>
          <g id="g1509" transform="translate(33.006 33.929)">
            <path id="path1511" d="M.152-8.711H-9.356A.644.644,0,0,1-10-9.356.644.644,0,0,1-9.356-10H.152A.644.644,0,0,1,.8-9.356.644.644,0,0,1,.152-8.711Z" transform="translate(10 10)"/>
          </g>
          <g id="g1513" transform="translate(39.098 36.883)">
            <path id="path1515" d="M-5.8-8.711H-9.356A.644.644,0,0,1-10-9.356.644.644,0,0,1-9.356-10H-5.8a.644.644,0,0,1,.644.644A.644.644,0,0,1-5.8-8.711Z" transform="translate(10 10)"/>
          </g>
          <g id="g1517" transform="translate(32.821 39.744)">
            <path id="path1519" d="M-5.846-8.711h-3.51A.644.644,0,0,1-10-9.356.644.644,0,0,1-9.356-10h3.51a.644.644,0,0,1,.644.644A.644.644,0,0,1-5.846-8.711Z" transform="translate(10 10)"/>
          </g>
        </g>
      </g>
    </g>
  </g>
</svg>
