<svg xmlns="http://www.w3.org/2000/svg" xmlns:xlink="http://www.w3.org/1999/xlink" width="98" height="98" viewBox="0 0 98 98">
  <defs>
    <filter id="Path_874925" x="0" y="0" width="98" height="98" filterUnits="userSpaceOnUse">
      <feOffset dy="3" input="SourceAlpha"/>
      <feGaussianBlur stdDeviation="3" result="blur"/>
      <feFlood flood-opacity="0.161"/>
      <feComposite operator="in" in2="blur"/>
      <feComposite in="SourceGraphic"/>
    </filter>
  </defs>
  <g id="Group_1200916" data-name="Group 1200916" transform="translate(-1063.449 -4934.563)">
    <g id="Group_1200776" data-name="Group 1200776" transform="translate(787.449 -1156.845)">
      <g id="Group_1187153" data-name="Group 1187153">
        <g id="Group_1182177" data-name="Group 1182177">
          <g id="Group_1181903" data-name="Group 1181903">
            <g id="Group_1181438" data-name="Group 1181438">
              <g id="Group_1111314" data-name="Group 1111314" transform="translate(-734.73 3020.407)">
                <g transform="matrix(1, 0, 0, 1, 1010.73, 3071)" filter="url(#Path_874925)">
                  <g id="Path_874925-2" data-name="Path 874925" transform="translate(9 6)" fill="#ffc94a">
                    <path d="M 39.99997329711914 78.50040435791016 C 34.80184936523438 78.50040435791016 29.76000595092773 77.48268127441406 25.01450729370117 75.47550201416016 C 20.43013954162598 73.53648376464844 16.3126392364502 70.76027679443359 12.7763843536377 67.22402191162109 C 9.240128517150879 63.68776702880859 6.463928699493408 59.57027053833008 4.524906635284424 54.98590087890625 C 2.517728805541992 50.24040222167969 1.500006675720215 45.19855880737305 1.500006675720215 40.00043487548828 C 1.500006675720215 34.80185699462891 2.517728805541992 29.76001358032227 4.524906635284424 25.01451301574707 C 6.463928699493408 20.43013572692871 9.240128517150879 16.31263542175293 12.7763843536377 12.77637958526611 C 16.3126392364502 9.240124702453613 20.43013954162598 6.463935375213623 25.01450729370117 4.52490234375 C 29.76000595092773 2.517724514007568 34.80184936523438 1.500002145767212 39.99997329711914 1.500002145767212 C 45.19809722900391 1.500002145767212 50.23994064331055 2.517724514007568 54.98543930053711 4.52490234375 C 59.56981658935547 6.463935375213623 63.68731689453125 9.240124702453613 67.22357177734375 12.77637958526611 C 70.75982666015625 16.31263542175293 73.53601837158203 20.43013572692871 75.47505187988281 25.01451301574707 C 77.48223114013672 29.76001358032227 78.49995422363281 34.80185699462891 78.49995422363281 39.99998092651367 C 78.49995422363281 45.19855880737305 77.48223114013672 50.24040222167969 75.47505187988281 54.98590087890625 C 73.53601837158203 59.57027053833008 70.75982666015625 63.68776702880859 67.22357177734375 67.22402191162109 C 63.68731689453125 70.76027679443359 59.56981658935547 73.53648376464844 54.98543930053711 75.47550201416016 C 50.23994064331055 77.48268127441406 45.19809722900391 78.50040435791016 39.99997329711914 78.50040435791016 Z" stroke="none"/>
                    <path d="M 39.99997329711914 3 C 35.00369262695312 3 30.15843963623047 3.977851867675781 25.59883880615234 5.906417846679688 C 21.19326782226562 7.769813537597656 17.23602676391602 10.43805694580078 13.83704376220703 13.83704376220703 C 10.43805694580078 17.23601531982422 7.769813537597656 21.19325637817383 5.906410217285156 25.59882736206055 C 3.977851867675781 30.15844345092773 3 35.00368118286133 3 40.00042724609375 C 3 44.99672317504883 3.977851867675781 49.84196472167969 5.906410217285156 54.40157318115234 C 7.769813537597656 58.80714797973633 10.43805694580078 62.76438903808594 13.83704376220703 66.16336059570312 C 17.23602676391602 69.56234741210938 21.19326782226562 72.2305908203125 25.59883880615234 74.09398651123047 C 30.15843963623047 76.02255249023438 35.00369262695312 77.00040435791016 39.99997329711914 77.00040435791016 C 44.99625396728516 77.00040435791016 49.84150695800781 76.02255249023438 54.40110778808594 74.09398651123047 C 58.80667877197266 72.2305908203125 62.76391983032227 69.56234741210938 66.16290283203125 66.16336059570312 C 69.5618896484375 62.76438903808594 72.23013305664062 58.80714797973633 74.09353637695312 54.40157318115234 C 76.0220947265625 49.84196472167969 76.99994659423828 44.99672317504883 76.99994659423828 39.99997711181641 C 76.99994659423828 35.00368118286133 76.0220947265625 30.15844345092773 74.09353637695312 25.59882736206055 C 72.23013305664062 21.19325637817383 69.5618896484375 17.23601531982422 66.16290283203125 13.83704376220703 C 62.76391983032227 10.43805694580078 58.80667877197266 7.769813537597656 54.40110778808594 5.906417846679688 C 49.84150695800781 3.977851867675781 44.99625396728516 3 39.99997329711914 3 M 39.99997329711914 0 C 62.09134674072266 0 79.99994659423828 17.90858840942383 79.99994659423828 39.99997711181641 L 79.99994659423828 40.00042724609375 C 79.99994659423828 62.09181594848633 62.09134674072266 80.00040435791016 39.99997329711914 80.00040435791016 C 17.90859985351562 80.00040435791016 0 62.09181594848633 0 40.00042724609375 L 0 39.99997711181641 C 0 17.90858840942383 17.90859985351562 0 39.99997329711914 0 Z" stroke="none" fill="#fff"/>
                  </g>
                </g>
              </g>
            </g>
          </g>
        </g>
      </g>
    </g>
    <g id="reciclaje" transform="translate(1083.539 4919.718)">
      <g id="Group_1200914" data-name="Group 1200914" transform="translate(1.129 37.129)">
        <path id="Path_1242375" data-name="Path 1242375" d="M54.585,239.655a2.251,2.251,0,0,0-1.868.98,18.017,18.017,0,0,1-32.361-5.5h4.559a1.129,1.129,0,0,0,.8-1.928l-6.891-6.891a1.129,1.129,0,0,0-1.6,0l-6.891,6.891a1.129,1.129,0,0,0,.8,1.928h4.585a22.534,22.534,0,0,0,40.747,8.019A2.253,2.253,0,0,0,54.585,239.655Z" transform="translate(-10 -205.662)" fill="#a0e5a5"/>
        <path id="Path_1242376" data-name="Path 1242376" d="M132.871,63.955h-4.585a22.534,22.534,0,0,0-40.747-8.019,2.259,2.259,0,0,0,3.747,2.523,18.017,18.017,0,0,1,32.361,5.5h-4.558a1.129,1.129,0,0,0-.8,1.928l6.891,6.891a1.129,1.129,0,0,0,1.6,0l6.891-6.891a1.129,1.129,0,0,0-.8-1.928Z" transform="translate(-78.441 -46)" fill="#a0e5a5"/>
        <path id="Path_1242377" data-name="Path 1242377" d="M208.681,159A7.34,7.34,0,1,1,194,159c0-7.2,8.583-14,8.583-14S208.681,154.949,208.681,159Z" transform="translate(-173.221 -133.82)" fill="#a0e5a5"/>
      </g>
      <g id="Group_1200915" data-name="Group 1200915" transform="translate(-0.001 36)">
        <path id="Path_1242378" data-name="Path 1242378" d="M45.723,229.656h-.009a3.377,3.377,0,0,0-2.8,1.477,16.885,16.885,0,0,1-14,7.443H28.9A16.923,16.923,0,0,1,13.015,227.4h3.043a2.25,2.25,0,0,0,1.632-.709,2.3,2.3,0,0,0,.614-1.557,2.256,2.256,0,0,0-.664-1.589l-6.891-6.891a2.269,2.269,0,0,0-1.592-.662h-.01a2.266,2.266,0,0,0-1.592.662L.664,223.542A2.253,2.253,0,0,0,0,225.131a2.3,2.3,0,0,0,.614,1.557,2.248,2.248,0,0,0,1.632.709h3.7a23.478,23.478,0,0,0,3.1,7.154,23.621,23.621,0,0,0,19.863,10.8,24.048,24.048,0,0,0,3.048-.194,1.131,1.131,0,0,0,.976-1.265,1.2,1.2,0,0,0-1.191-.98,22.761,22.761,0,0,1-2.832.181h0A21.48,21.48,0,0,1,8.328,227.571a9.243,9.243,0,0,1-.353-2.536,1.155,1.155,0,0,0-1.054-1.166A1.129,1.129,0,0,0,5.716,225v.142H2.26l6.891-6.891h0l6.891,6.891h-3.43v-.1a1.155,1.155,0,0,0-1.054-1.166,1.129,1.129,0,0,0-1.2,1.127,10.8,10.8,0,0,0,.735,3.7,19.015,19.015,0,0,0,1.852,3.557,19.148,19.148,0,0,0,31.839.144,1.129,1.129,0,0,1,.933-.483,1.1,1.1,0,0,1,.812.343,1.16,1.16,0,0,1,.323.789,1.076,1.076,0,0,1-.192.609,21.4,21.4,0,0,1-6.014,5.937,1.129,1.129,0,0,0,1.24,1.888,23.807,23.807,0,0,0,6.645-6.561,3.313,3.313,0,0,0,.579-1.872,3.409,3.409,0,0,0-.949-2.35,3.365,3.365,0,0,0-2.436-1.041Z" transform="translate(0.001 -195.663)"/>
        <path id="Path_1242379" data-name="Path 1242379" d="M126.12,55.349a2.252,2.252,0,0,0-2.087-1.394h-3.684a23.664,23.664,0,0,0-42.584-7.522,3.388,3.388,0,0,0,5.619,3.787,16.889,16.889,0,0,1,29.895,3.735H110.25a2.259,2.259,0,0,0-1.6,3.856l6.891,6.891a2.261,2.261,0,0,0,3.194,0l6.891-6.891a2.252,2.252,0,0,0,.49-2.461ZM117.142,63.1l-6.89-6.891h3.429v.1a1.155,1.155,0,0,0,1.054,1.166,1.129,1.129,0,0,0,1.2-1.127,11.282,11.282,0,0,0-.791-3.841,19.148,19.148,0,0,0-33.635-3.56,1.136,1.136,0,0,1-1.932-.12,1.083,1.083,0,0,1,.057-1.138,21.406,21.406,0,0,1,38.329,6.088,9.241,9.241,0,0,1,.352,2.533,1.155,1.155,0,0,0,1.054,1.166,1.129,1.129,0,0,0,1.2-1.127v-.143h3.456Z" transform="translate(-68.472 -36)"/>
        <path id="Path_1242380" data-name="Path 1242380" d="M200.94,150.184c0-4.25-5.623-13.547-6.265-14.594a1.129,1.129,0,0,0-1.664-.295c-.368.292-9.01,7.231-9.01,14.888a8.483,8.483,0,0,0,6.577,8.254,17.164,17.164,0,0,0,1.579,4.144,1.129,1.129,0,1,0,1.984-1.079,14.41,14.41,0,0,1-1.167-2.864A8.48,8.48,0,0,0,200.94,150.184Zm-8.46,6.211a21.388,21.388,0,0,1-.231-2.5l3.393-2.976a1.129,1.129,0,1,0-1.488-1.7l-1.828,1.6a29.955,29.955,0,0,1,1.214-6.378,1.129,1.129,0,0,0-2.138-.728,30.775,30.775,0,0,0-1.274,12.215,6.22,6.22,0,0,1-3.869-5.751c0-5.167,5.006-10.291,7.174-12.267,1.918,3.291,5.248,9.567,5.248,12.267A6.218,6.218,0,0,1,192.48,156.395Z" transform="translate(-163.221 -123.865)"/>
        <circle id="Ellipse_12359" data-name="Ellipse 12359" cx="1.129" cy="1.129" r="1.129" transform="translate(35.609 46)"/>
      </g>
    </g>
  </g>
</svg>
