<svg xmlns="http://www.w3.org/2000/svg" xmlns:xlink="http://www.w3.org/1999/xlink" width="98" height="98" viewBox="0 0 98 98">
  <defs>
    <filter id="Path_874925" x="0" y="0" width="98" height="98" filterUnits="userSpaceOnUse">
      <feOffset dy="3" input="SourceAlpha"/>
      <feGaussianBlur stdDeviation="3" result="blur"/>
      <feFlood flood-opacity="0.161"/>
      <feComposite operator="in" in2="blur"/>
      <feComposite in="SourceGraphic"/>
    </filter>
  </defs>
  <g id="Group_1200913" data-name="Group 1200913" transform="translate(-748.449 -4934.563)">
    <g id="Group_1200775" data-name="Group 1200775" transform="translate(472.449 -1156.845)">
      <g id="Group_1187153" data-name="Group 1187153">
        <g id="Group_1182177" data-name="Group 1182177">
          <g id="Group_1181903" data-name="Group 1181903">
            <g id="Group_1181438" data-name="Group 1181438">
              <g id="Group_1111314" data-name="Group 1111314" transform="translate(-734.73 3020.407)">
                <g transform="matrix(1, 0, 0, 1, 1010.73, 3071)" filter="url(#Path_874925)">
                  <g id="Path_874925-2" data-name="Path 874925" transform="translate(9 6)" fill="#ffc94a">
                    <path d="M 39.99997329711914 78.50040435791016 C 34.80184936523438 78.50040435791016 29.76000595092773 77.48268127441406 25.01450729370117 75.47550201416016 C 20.43013954162598 73.53648376464844 16.3126392364502 70.76027679443359 12.7763843536377 67.22402191162109 C 9.240128517150879 63.68776702880859 6.463928699493408 59.57027053833008 4.524906635284424 54.98590087890625 C 2.517728805541992 50.24040222167969 1.500006675720215 45.19855880737305 1.500006675720215 40.00043487548828 C 1.500006675720215 34.80185699462891 2.517728805541992 29.76001358032227 4.524906635284424 25.01451301574707 C 6.463928699493408 20.43013572692871 9.240128517150879 16.31263542175293 12.7763843536377 12.77637958526611 C 16.3126392364502 9.240124702453613 20.43013954162598 6.463935375213623 25.01450729370117 4.52490234375 C 29.76000595092773 2.517724514007568 34.80184936523438 1.500002145767212 39.99997329711914 1.500002145767212 C 45.19809722900391 1.500002145767212 50.23994064331055 2.517724514007568 54.98543930053711 4.52490234375 C 59.56981658935547 6.463935375213623 63.68731689453125 9.240124702453613 67.22357177734375 12.77637958526611 C 70.75982666015625 16.31263542175293 73.53601837158203 20.43013572692871 75.47505187988281 25.01451301574707 C 77.48223114013672 29.76001358032227 78.49995422363281 34.80185699462891 78.49995422363281 39.99998092651367 C 78.49995422363281 45.19855880737305 77.48223114013672 50.24040222167969 75.47505187988281 54.98590087890625 C 73.53601837158203 59.57027053833008 70.75982666015625 63.68776702880859 67.22357177734375 67.22402191162109 C 63.68731689453125 70.76027679443359 59.56981658935547 73.53648376464844 54.98543930053711 75.47550201416016 C 50.23994064331055 77.48268127441406 45.19809722900391 78.50040435791016 39.99997329711914 78.50040435791016 Z" stroke="none"/>
                    <path d="M 39.99997329711914 3 C 35.00369262695312 3 30.15843963623047 3.977851867675781 25.59883880615234 5.906417846679688 C 21.19326782226562 7.769813537597656 17.23602676391602 10.43805694580078 13.83704376220703 13.83704376220703 C 10.43805694580078 17.23601531982422 7.769813537597656 21.19325637817383 5.906410217285156 25.59882736206055 C 3.977851867675781 30.15844345092773 3 35.00368118286133 3 40.00042724609375 C 3 44.99672317504883 3.977851867675781 49.84196472167969 5.906410217285156 54.40157318115234 C 7.769813537597656 58.80714797973633 10.43805694580078 62.76438903808594 13.83704376220703 66.16336059570312 C 17.23602676391602 69.56234741210938 21.19326782226562 72.2305908203125 25.59883880615234 74.09398651123047 C 30.15843963623047 76.02255249023438 35.00369262695312 77.00040435791016 39.99997329711914 77.00040435791016 C 44.99625396728516 77.00040435791016 49.84150695800781 76.02255249023438 54.40110778808594 74.09398651123047 C 58.80667877197266 72.2305908203125 62.76391983032227 69.56234741210938 66.16290283203125 66.16336059570312 C 69.5618896484375 62.76438903808594 72.23013305664062 58.80714797973633 74.09353637695312 54.40157318115234 C 76.0220947265625 49.84196472167969 76.99994659423828 44.99672317504883 76.99994659423828 39.99997711181641 C 76.99994659423828 35.00368118286133 76.0220947265625 30.15844345092773 74.09353637695312 25.59882736206055 C 72.23013305664062 21.19325637817383 69.5618896484375 17.23601531982422 66.16290283203125 13.83704376220703 C 62.76391983032227 10.43805694580078 58.80667877197266 7.769813537597656 54.40110778808594 5.906417846679688 C 49.84150695800781 3.977851867675781 44.99625396728516 3 39.99997329711914 3 M 39.99997329711914 0 C 62.09134674072266 0 79.99994659423828 17.90858840942383 79.99994659423828 39.99997711181641 L 79.99994659423828 40.00042724609375 C 79.99994659423828 62.09181594848633 62.09134674072266 80.00040435791016 39.99997329711914 80.00040435791016 C 17.90859985351562 80.00040435791016 0 62.09181594848633 0 40.00042724609375 L 0 39.99997711181641 C 0 17.90858840942383 17.90859985351562 0 39.99997329711914 0 Z" stroke="none" fill="#fff"/>
                  </g>
                </g>
              </g>
            </g>
          </g>
        </g>
      </g>
    </g>
    <g id="camion-de-basura" transform="translate(768.025 4872.912)">
      <path id="Path_1242355" data-name="Path 1242355" d="M7.5,119.367v-3.431a8.622,8.622,0,0,1,1.295-4.545l5.638-9.091A9.957,9.957,0,0,1,22.9,97.591h10a4.582,4.582,0,0,1,2.472.724l5.233,3.352v20H9.8A2.3,2.3,0,0,1,7.5,119.367Z" transform="translate(-6.68 -6.68)" fill="#60c28e"/>
      <path id="Path_1242356" data-name="Path 1242356" d="M40.595,121.669v-3.657c-13.248-2.971-19.49-12.11-17.269-20.42H22.9a9.957,9.957,0,0,0-8.462,4.709l-5.638,9.091A8.622,8.622,0,0,0,7.5,115.937v3.431a2.3,2.3,0,0,0,2.3,2.3Z" transform="translate(-6.68 -6.68)" fill="#59b382"/>
      <path id="Path_1242357" data-name="Path 1242357" d="M134.724,139.342h-5.989a3.847,3.847,0,0,0-3.847,3.847v4.225h20.267v-20l-1.432-.917-5.583,10.768A3.848,3.848,0,0,1,134.724,139.342Z" transform="translate(-111.241 -32.427)" fill="#495059"/>
      <g id="Group_1200910" data-name="Group 1200910" transform="translate(12.084 93.628)">
        <path id="Path_1242358" data-name="Path 1242358" d="M114.467,160.771h-2.131a1.752,1.752,0,0,1-1.517-2.628l1.764-3.056a.82.82,0,1,1,1.419.82l-1.764,3.056a.113.113,0,0,0,.1.169h2.131a.82.82,0,0,1,0,1.639Z" transform="translate(-110.581 -151.156)" fill="#fff"/>
        <path id="Path_1242359" data-name="Path 1242359" d="M155.775,169.093h-3.528a.82.82,0,0,1,0-1.639h3.528a.113.113,0,0,0,.1-.169L154.7,165.25a.82.82,0,0,1,1.419-.82l1.175,2.035a1.752,1.752,0,0,1-1.517,2.628Z" transform="translate(-146.964 -159.478)" fill="#fff"/>
        <path id="Path_1242360" data-name="Path 1242360" d="M138.661,127.613a.819.819,0,0,1-.711-.41l-1.764-3.056a.113.113,0,0,0-.2,0l-1.175,2.035a.82.82,0,1,1-1.419-.82l1.175-2.035a1.752,1.752,0,0,1,3.034,0l1.764,3.056a.82.82,0,0,1-.709,1.229Z" transform="translate(-130.806 -122.452)" fill="#fff"/>
        <path id="Path_1242361" data-name="Path 1242361" d="M153.662,188.357a.816.816,0,0,1-.49-.163l-1.286-.961a1.143,1.143,0,0,1,0-1.831l1.286-.961a.82.82,0,0,1,.981,1.313l-.754.563.754.563a.82.82,0,0,1-.491,1.476Z" transform="translate(-146.964 -177.522)" fill="#fff"/>
        <path id="Path_1242362" data-name="Path 1242362" d="M161.235,141.394a1.141,1.141,0,0,1-.45-.092l-1.475-.634a.82.82,0,0,1,.647-1.506l.864.371.111-.934a.82.82,0,1,1,1.628.193l-.189,1.594a1.141,1.141,0,0,1-1.135,1.008Z" transform="translate(-153.542 -136.19)" fill="#fff"/>
        <path id="Path_1242363" data-name="Path 1242363" d="M114.679,157.808a.82.82,0,0,1-.813-.723l-.111-.934-.864.371a.82.82,0,0,1-.647-1.506l1.475-.633a1.143,1.143,0,0,1,1.586.916l.189,1.594a.82.82,0,0,1-.717.91A.865.865,0,0,1,114.679,157.808Z" transform="translate(-111.62 -150.811)" fill="#fff"/>
        <path id="Path_1242364" data-name="Path 1242364" d="M155.775,170.633h-3.528a.82.82,0,0,1,0-1.639h3.528a.113.113,0,0,0,.1-.169l-1.066-1.846a.82.82,0,0,1,1.419-.82l1.066,1.846a1.752,1.752,0,0,1-1.517,2.628Z" transform="translate(-146.964 -161.018)" fill="#fff"/>
      </g>
      <g id="Group_1200911" data-name="Group 1200911" transform="translate(6 106.622)">
        <path id="Path_1242365" data-name="Path 1242365" d="M87.092,247.975a.82.82,0,0,1-.82-.82v-4.978a.82.82,0,0,1,1.639,0v4.978A.82.82,0,0,1,87.092,247.975Z" transform="translate(-82.845 -241.358)" fill="#80d3ae"/>
        <path id="Path_1242366" data-name="Path 1242366" d="M55.727,247.975a.82.82,0,0,1-.82-.82v-4.978a.82.82,0,0,1,1.639,0v4.978A.82.82,0,0,1,55.727,247.975Z" transform="translate(-54.907 -241.358)" fill="#80d3ae"/>
      </g>
      <path id="Path_1242367" data-name="Path 1242367" d="M323.289,97.592h-9.662a3.273,3.273,0,0,0-3.273,3.273v16.55H331.57v-7.733a11.354,11.354,0,0,0-1.384-5.432l-2.063-3.787A5.5,5.5,0,0,0,323.289,97.592Z" transform="translate(-276.441 -6.68)" fill="#60c28e"/>
      <g id="Group_1200912" data-name="Group 1200912" transform="translate(36.698 94)">
        <path id="Path_1242368" data-name="Path 1242368" d="M362.282,131.54a.82.82,0,0,1-.82-.82v-4.046a.82.82,0,0,1,1.639,0v4.046A.82.82,0,0,1,362.282,131.54Z" transform="translate(-358.661 -125.855)" fill="#80d3ae"/>
        <path id="Path_1242369" data-name="Path 1242369" d="M336.646,131.54a.82.82,0,0,1-.82-.82v-4.046a.82.82,0,0,1,1.639,0v4.046A.82.82,0,0,1,336.646,131.54Z" transform="translate(-335.826 -125.855)" fill="#80d3ae"/>
      </g>
      <path id="Path_1242370" data-name="Path 1242370" d="M464.429,227.529h2.8v5.624h-4.573V229.3A1.774,1.774,0,0,1,464.429,227.529Z" transform="translate(-412.098 -122.418)" fill="#fada6d"/>
      <path id="Path_1242371" data-name="Path 1242371" d="M92.391,254.921H46.608a2.25,2.25,0,0,1-2.25-2.25v-3.5a2.25,2.25,0,0,1,2.25-2.25H71.445a4.5,4.5,0,0,0,3.318-1.46l.974-1.063a4.348,4.348,0,0,1,4.3-1.272l14.6,3.8v5.753A2.25,2.25,0,0,1,92.391,254.921Z" transform="translate(-39.511 -136.184)" fill="#c7c9cc"/>
      <path id="Path_1242372" data-name="Path 1242372" d="M72.989,276.484a4.5,4.5,0,0,1-1.544.275H46.608a2.25,2.25,0,0,0-2.25,2.25v3.5a2.25,2.25,0,0,0,2.25,2.25H79.682A18.078,18.078,0,0,1,72.989,276.484Z" transform="translate(-39.511 -166.024)" fill="#b2b5b8"/>
      <circle id="Ellipse_12355" data-name="Ellipse 12355" cx="6.556" cy="6.556" r="6.556" transform="translate(35.068 112.419)" fill="#495059"/>
      <circle id="Ellipse_12356" data-name="Ellipse 12356" cx="2.973" cy="2.973" r="2.973" transform="translate(38.651 116.002)" fill="#c7c9cc"/>
      <circle id="Ellipse_12357" data-name="Ellipse 12357" cx="6.556" cy="6.556" r="6.556" transform="translate(9.504 112.419)" fill="#495059"/>
      <circle id="Ellipse_12358" data-name="Ellipse 12358" cx="2.973" cy="2.973" r="2.973" transform="translate(13.087 116.002)" fill="#c7c9cc"/>
      <path id="Path_1242373" data-name="Path 1242373" d="M396.622,138.092l10.54,1.5a11.349,11.349,0,0,0-1.215-3.488l-1.5-2.751h-7.628a1.411,1.411,0,0,0-1.411,1.411v1.93A1.411,1.411,0,0,0,396.622,138.092Z" transform="translate(-352.201 -38.535)" fill="#e0f7ff"/>
      <path id="Path_1242374" data-name="Path 1242374" d="M37.831,118.976a3.794,3.794,0,1,0,3.794-3.794A3.8,3.8,0,0,0,37.831,118.976Zm5.948,0a2.154,2.154,0,1,1-2.154-2.154A2.157,2.157,0,0,1,43.779,118.976Zm11.993-18.029c0-.017-.005-.033-.009-.05a12.2,12.2,0,0,0-1.3-3.718l-1.5-2.747,0-.005L52.4,93.391a6.321,6.321,0,0,0-5.554-3.3H37.187a4.1,4.1,0,0,0-4.038,3.432l-.217-.139h0l-3.808-2.439a5.391,5.391,0,0,0-2.914-.853h-10A10.834,10.834,0,0,0,9.639,92.33a.82.82,0,1,0,1,1.3,9.187,9.187,0,0,1,5.575-1.9h10a3.755,3.755,0,0,1,2.029.594l3.171,2.031-5.239,10.1a3.017,3.017,0,0,1-2.688,1.634H17.494a4.681,4.681,0,0,0-4.587,3.82H7.1a3.073,3.073,0,0,0-3.069,3.069v1.184H3.12a1.482,1.482,0,0,1-1.481-1.481v-3.431a7.8,7.8,0,0,1,1.172-4.113l5.474-8.827a.82.82,0,0,0-1.393-.864l-5.474,8.827A9.439,9.439,0,0,0,0,109.256v3.431a3.123,3.123,0,0,0,3.12,3.12h.908v.68A3.073,3.073,0,0,0,7.1,119.557H8.71a7.374,7.374,0,0,0,14.7,0H34.274a7.375,7.375,0,0,0,11.557,5.479.82.82,0,1,0-.936-1.346,5.724,5.724,0,1,1,2.093-2.673.82.82,0,0,0,1.532.583,7.328,7.328,0,0,0,.457-2.043h3.9a3.073,3.073,0,0,0,3.069-3.069V103A12.132,12.132,0,0,0,55.772,100.946Zm-4.011-5.307,1.266,2.323a10.529,10.529,0,0,1,.869,2.116l-9.359-1.333a.594.594,0,0,1-.508-.585V96.23a.592.592,0,0,1,.591-.591Zm-34.266,12.1h5.989a4.651,4.651,0,0,0,4.143-2.519l5.17-9.971.3.191v14.29a3.673,3.673,0,0,1-1.161.189H14.59A3.037,3.037,0,0,1,17.495,107.735Zm-1.434,16.977a5.737,5.737,0,1,1,5.737-5.737A5.743,5.743,0,0,1,16.061,124.712Zm38.25-8.225a1.432,1.432,0,0,1-1.43,1.43H48.923a7.375,7.375,0,0,0-14.6,0H23.359a7.375,7.375,0,0,0-14.6,0H7.1a1.432,1.432,0,0,1-1.43-1.43v-3.5a1.432,1.432,0,0,1,1.43-1.43H31.934a5.321,5.321,0,0,0,2.29-.521.831.831,0,0,0,.083-.039,5.315,5.315,0,0,0,1.549-1.166l.974-1.063a3.521,3.521,0,0,1,3.49-1.032l13.99,3.636Zm0-6.813-2.934-.762v-2.028a.955.955,0,0,1,.954-.954H54.31Zm0-5.384H52.331a2.6,2.6,0,0,0-2.593,2.593v1.6l-9.005-2.34a5.156,5.156,0,0,0-5.111,1.511l-.888.969V94.184a2.456,2.456,0,0,1,2.453-2.453h9.662A4.681,4.681,0,0,1,50.86,94H44.62a2.233,2.233,0,0,0-2.23,2.23v1.93a2.241,2.241,0,0,0,1.916,2.208l9.933,1.414A10.483,10.483,0,0,1,54.31,103v1.289Zm-10.766-1.857h-2a.82.82,0,1,0,0,1.639h2a.82.82,0,1,0,0-1.639ZM16.061,115.182a3.794,3.794,0,1,0,3.794,3.794A3.8,3.8,0,0,0,16.061,115.182Zm0,5.948a2.154,2.154,0,1,1,2.154-2.154A2.157,2.157,0,0,1,16.061,121.13Z" transform="translate(0)"/>
    </g>
  </g>
</svg>
