<svg xmlns="http://www.w3.org/2000/svg" xmlns:xlink="http://www.w3.org/1999/xlink" width="98" height="98" viewBox="0 0 98 98">
  <defs>
    <filter id="Path_874925" x="0" y="0" width="98" height="98" filterUnits="userSpaceOnUse">
      <feOffset dy="3" input="SourceAlpha"/>
      <feGaussianBlur stdDeviation="3" result="blur"/>
      <feFlood flood-opacity="0.161"/>
      <feComposite operator="in" in2="blur"/>
      <feComposite in="SourceGraphic"/>
    </filter>
    <clipPath id="clip-path">
      <path id="path7977" d="M0-682.665H54.676v54.676H0Z" transform="translate(0 682.665)"/>
    </clipPath>
  </defs>
  <g id="Group_1200987" data-name="Group 1200987" transform="translate(-801 -2086.009)">
    <g id="Group_1200985" data-name="Group 1200985" transform="translate(50 -7394)">
      <g id="Group_1200825" data-name="Group 1200825" transform="translate(475 3388.602)">
        <g id="Group_1187153" data-name="Group 1187153">
          <g id="Group_1182177" data-name="Group 1182177">
            <g id="Group_1181903" data-name="Group 1181903">
              <g id="Group_1181438" data-name="Group 1181438">
                <g id="Group_1111314" data-name="Group 1111314" transform="translate(-734.73 3020.407)">
                  <g transform="matrix(1, 0, 0, 1, 1010.73, 3071)" filter="url(#Path_874925)">
                    <g id="Path_874925-2" data-name="Path 874925" transform="translate(9 6)" fill="#ffc94a">
                      <path d="M 39.99997329711914 78.50040435791016 C 34.80184936523438 78.50040435791016 29.76000595092773 77.48268127441406 25.01450729370117 75.47550201416016 C 20.43013954162598 73.53648376464844 16.3126392364502 70.76027679443359 12.7763843536377 67.22402191162109 C 9.240128517150879 63.68776702880859 6.463928699493408 59.57027053833008 4.524906635284424 54.98590087890625 C 2.517728805541992 50.24040222167969 1.500006675720215 45.19855880737305 1.500006675720215 40.00043487548828 C 1.500006675720215 34.80185699462891 2.517728805541992 29.76001358032227 4.524906635284424 25.01451301574707 C 6.463928699493408 20.43013572692871 9.240128517150879 16.31263542175293 12.7763843536377 12.77637958526611 C 16.3126392364502 9.240124702453613 20.43013954162598 6.463935375213623 25.01450729370117 4.52490234375 C 29.76000595092773 2.517724514007568 34.80184936523438 1.500002145767212 39.99997329711914 1.500002145767212 C 45.19809722900391 1.500002145767212 50.23994064331055 2.517724514007568 54.98543930053711 4.52490234375 C 59.56981658935547 6.463935375213623 63.68731689453125 9.240124702453613 67.22357177734375 12.77637958526611 C 70.75982666015625 16.31263542175293 73.53601837158203 20.43013572692871 75.47505187988281 25.01451301574707 C 77.48223114013672 29.76001358032227 78.49995422363281 34.80185699462891 78.49995422363281 39.99998092651367 C 78.49995422363281 45.19855880737305 77.48223114013672 50.24040222167969 75.47505187988281 54.98590087890625 C 73.53601837158203 59.57027053833008 70.75982666015625 63.68776702880859 67.22357177734375 67.22402191162109 C 63.68731689453125 70.76027679443359 59.56981658935547 73.53648376464844 54.98543930053711 75.47550201416016 C 50.23994064331055 77.48268127441406 45.19809722900391 78.50040435791016 39.99997329711914 78.50040435791016 Z" stroke="none"/>
                      <path d="M 39.99997329711914 3 C 35.00369262695312 3 30.15843963623047 3.977851867675781 25.59883880615234 5.906417846679688 C 21.19326782226562 7.769813537597656 17.23602676391602 10.43805694580078 13.83704376220703 13.83704376220703 C 10.43805694580078 17.23601531982422 7.769813537597656 21.19325637817383 5.906410217285156 25.59882736206055 C 3.977851867675781 30.15844345092773 3 35.00368118286133 3 40.00042724609375 C 3 44.99672317504883 3.977851867675781 49.84196472167969 5.906410217285156 54.40157318115234 C 7.769813537597656 58.80714797973633 10.43805694580078 62.76438903808594 13.83704376220703 66.16336059570312 C 17.23602676391602 69.56234741210938 21.19326782226562 72.2305908203125 25.59883880615234 74.09398651123047 C 30.15843963623047 76.02255249023438 35.00369262695312 77.00040435791016 39.99997329711914 77.00040435791016 C 44.99625396728516 77.00040435791016 49.84150695800781 76.02255249023438 54.40110778808594 74.09398651123047 C 58.80667877197266 72.2305908203125 62.76391983032227 69.56234741210938 66.16290283203125 66.16336059570312 C 69.5618896484375 62.76438903808594 72.23013305664062 58.80714797973633 74.09353637695312 54.40157318115234 C 76.0220947265625 49.84196472167969 76.99994659423828 44.99672317504883 76.99994659423828 39.99997711181641 C 76.99994659423828 35.00368118286133 76.0220947265625 30.15844345092773 74.09353637695312 25.59882736206055 C 72.23013305664062 21.19325637817383 69.5618896484375 17.23601531982422 66.16290283203125 13.83704376220703 C 62.76391983032227 10.43805694580078 58.80667877197266 7.769813537597656 54.40110778808594 5.906417846679688 C 49.84150695800781 3.977851867675781 44.99625396728516 3 39.99997329711914 3 M 39.99997329711914 0 C 62.09134674072266 0 79.99994659423828 17.90858840942383 79.99994659423828 39.99997711181641 L 79.99994659423828 40.00042724609375 C 79.99994659423828 62.09181594848633 62.09134674072266 80.00040435791016 39.99997329711914 80.00040435791016 C 17.90859985351562 80.00040435791016 0 62.09181594848633 0 40.00042724609375 L 0 39.99997711181641 C 0 17.90858840942383 17.90859985351562 0 39.99997329711914 0 Z" stroke="none" fill="#fff"/>
                    </g>
                  </g>
                </g>
              </g>
            </g>
          </g>
        </g>
      </g>
    </g>
    <g id="g7971" transform="translate(822.662 2784.336)">
      <g id="g7973" transform="translate(0 -682.665)">
        <g id="g7975" clip-path="url(#clip-path)">
          <g id="g7981" transform="translate(7.745 17.416)">
            <path id="path7983" d="M0-69.384a3.452,3.452,0,0,1,3.452-3.452,2.589,2.589,0,0,1,2.589-2.589A2.577,2.577,0,0,1,7.6-74.9a1.716,1.716,0,0,1,1.026-.341,1.726,1.726,0,0,1,1.68,1.336h.046a2.587,2.587,0,0,1,2.254,1.316,3.467,3.467,0,0,1,.47-.033,3.452,3.452,0,0,1,3.427,3.045l.025.195Z" transform="translate(0 75.425)" fill="#b36d3c"/>
          </g>
          <g id="g7985" transform="translate(15.491 19.058)">
            <path id="path7987" d="M-38.986,0a20.388,20.388,0,0,1-3.348,4.354l-.046.045h8.786l-.025-.195A3.452,3.452,0,0,0-37.046,1.16a3.485,3.485,0,0,0-.47.033A2.6,2.6,0,0,0-38.986,0" transform="translate(42.38)" fill="#995e34"/>
          </g>
          <g id="g7989" transform="translate(0.801 26.909)">
            <path id="path7991" d="M-584.806-173.461h-48.758a2.157,2.157,0,0,1-2.136-2.463l1.541-10.787a2.158,2.158,0,0,1,2.136-1.852h45.676a2.157,2.157,0,0,1,2.136,1.852l1.541,10.787a2.157,2.157,0,0,1-2.136,2.463" transform="translate(635.722 188.564)" fill="#a47f78"/>
          </g>
          <g id="g7993" transform="translate(46.724 26.909)">
            <path id="path7995" d="M-81.879-145.176l-1.541-10.787a2.157,2.157,0,0,0-2.136-1.852h-3.452a2.157,2.157,0,0,1,2.136,1.852l1.541,10.787a2.157,2.157,0,0,1-2.136,2.463h3.452a2.157,2.157,0,0,0,2.136-2.463" transform="translate(89.008 157.816)" fill="#de5791"/>
          </g>
          <g id="g7997" transform="translate(29.064 23.457)">
            <path id="path7999" d="M-220.543-39.648h-19.2v-2.373a1.079,1.079,0,0,1,1.079-1.079h17.044a1.079,1.079,0,0,1,1.079,1.079Z" transform="translate(239.745 43.1)" fill="#c5d3dd"/>
          </g>
          <g id="g8001" transform="translate(44.166 23.457)">
            <path id="path8003" d="M-34.693,0h-3.021a1.079,1.079,0,0,1,1.079,1.079V3.452h3.021V1.079A1.079,1.079,0,0,0-34.693,0" transform="translate(37.713)" fill="#b6c4cf"/>
          </g>
          <g id="g8005" transform="translate(6.41 23.457)">
            <path id="path8007" d="M0-39.648H19.2v-2.373A1.079,1.079,0,0,0,18.123-43.1H1.079A1.079,1.079,0,0,0,0-42.021Z" transform="translate(0 43.1)" fill="#c5d3dd"/>
          </g>
          <g id="g8009" transform="translate(21.513 23.457)">
            <path id="path8011" d="M-34.691,0h-3.02a1.079,1.079,0,0,1,1.079,1.079V3.452h3.021V1.079A1.079,1.079,0,0,0-34.691,0" transform="translate(37.712)" fill="#b6c4cf"/>
          </g>
          <g id="g8013" transform="translate(19.679 32.627)">
            <path id="path8015" d="M-166.027-42.127h-13.592a.863.863,0,0,1-.863-.863v-1.942a.863.863,0,0,1,.863-.863h13.592a.863.863,0,0,1,.863.863v1.942a.863.863,0,0,1-.863.863" transform="translate(180.482 45.795)" fill="#ffe07d"/>
          </g>
          <g id="g8017" transform="translate(35.798 12.664)">
            <path id="path8019" d="M-32.928-84.318a2.867,2.867,0,0,0,2.867-2.867c0-1.356-1.184-3.044-2.03-4.078a1.08,1.08,0,0,0-1.673,0c-.846,1.034-2.03,2.722-2.03,4.078a2.867,2.867,0,0,0,2.867,2.867" transform="translate(35.795 91.659)" fill="#91dafa"/>
          </g>
          <g id="g8021" transform="translate(35.86 14.64)">
            <path id="path8023" d="M-54.841,0a3.536,3.536,0,0,1-3.529,3.32,3.529,3.529,0,0,1-1.245-.226,2.868,2.868,0,0,0,2.8,2.271A2.867,2.867,0,0,0-53.945,2.5a5.188,5.188,0,0,0-.9-2.5" transform="translate(59.616)" fill="#75cff9"/>
          </g>
          <g id="g8025" transform="translate(6.944 16.615)">
            <path id="path8027" d="M7.332-77.782a.8.8,0,0,1-.793-.7l-.025-.195a2.651,2.651,0,0,0-2.633-2.346A2.668,2.668,0,0,0,3.519-81a.8.8,0,0,1-.805-.4A1.793,1.793,0,0,0,1.157-82.3a.853.853,0,0,1-.826-.619.92.92,0,0,0-.9-.715.916.916,0,0,0-.549.183.8.8,0,0,1-.961,0,1.771,1.771,0,0,0-1.079-.362,1.79,1.79,0,0,0-1.788,1.788.8.8,0,0,1-.8.8A2.654,2.654,0,0,0-8.4-78.583a.8.8,0,0,1-.8.8.8.8,0,0,1-.8-.8,4.26,4.26,0,0,1,3.533-4.192,3.4,3.4,0,0,1,3.309-2.65,3.36,3.36,0,0,1,1.585.393,2.5,2.5,0,0,1,1-.208,2.513,2.513,0,0,1,2.254,1.383,3.4,3.4,0,0,1,2.127,1.235h.069A4.251,4.251,0,0,1,8.1-78.871l.024.186a.8.8,0,0,1-.692.9A.808.808,0,0,1,7.332-77.782Z" transform="translate(10 85.425)"/>
          </g>
          <g id="g8029" transform="translate(18.878 31.825)">
            <path id="path8031" d="M-84.74-4.73H-98.332A1.666,1.666,0,0,1-100-6.394V-8.335A1.666,1.666,0,0,1-98.332-10h2.607a.8.8,0,0,1,.8.8.8.8,0,0,1-.8.8h-2.607a.063.063,0,0,0-.062.063v1.941a.062.062,0,0,0,.062.062H-84.74a.062.062,0,0,0,.062-.062V-8.335A.063.063,0,0,0-84.74-8.4h-7.247a.8.8,0,0,1-.8-.8.8.8,0,0,1,.8-.8h7.247a1.666,1.666,0,0,1,1.664,1.665v1.941A1.666,1.666,0,0,1-84.74-4.73Z" transform="translate(99.996 10)"/>
          </g>
          <g id="g8033" transform="translate(0.001 26.109)">
            <path id="path8035" d="M-548.648-181.856h-3.632a.8.8,0,0,1-.8-.8.8.8,0,0,1,.8-.8h3.632a1.356,1.356,0,0,0,1.025-.468,1.356,1.356,0,0,0,.318-1.081l-1.541-10.788a1.363,1.363,0,0,0-1.343-1.164h-45.676a1.363,1.363,0,0,0-1.343,1.164l-1.541,10.788a1.355,1.355,0,0,0,.318,1.081,1.356,1.356,0,0,0,1.025.468h41.388a.8.8,0,0,1,.8.8.8.8,0,0,1-.8.8h-41.388a2.957,2.957,0,0,1-2.235-1.02,2.957,2.957,0,0,1-.693-2.357l1.541-10.787a2.972,2.972,0,0,1,2.929-2.539h45.676a2.972,2.972,0,0,1,2.929,2.539l1.541,10.788a2.957,2.957,0,0,1-.693,2.357A2.957,2.957,0,0,1-548.648-181.856Z" transform="translate(600.364 198.56)"/>
          </g>
          <g id="g8037" transform="translate(37.107 22.656)">
            <path id="path8039" d="M1.158-4.946a.8.8,0,0,1-.8-.8V-8.12A.278.278,0,0,0,.08-8.4H-9.2a.8.8,0,0,1-.8-.8.8.8,0,0,1,.8-.8H.08A1.882,1.882,0,0,1,1.959-8.12v2.374A.8.8,0,0,1,1.158-4.946Z" transform="translate(10 10)"/>
          </g>
          <g id="g8041" transform="translate(28.263 22.656)">
            <path id="path8043" d="M-9.2-48.052a.8.8,0,0,1-.8-.8v-2.374A1.882,1.882,0,0,1-8.12-53.107h4.028a.8.8,0,0,1,.8.8.8.8,0,0,1-.8.8H-8.12a.278.278,0,0,0-.278.278v2.374A.8.8,0,0,1-9.2-48.052Z" transform="translate(10 53.107)"/>
          </g>
          <g id="g8045" transform="translate(5.609 22.656)">
            <path id="path8047" d="M10-48.046a.8.8,0,0,1-.8-.8V-51.22a.278.278,0,0,0-.278-.278H-8.12a.278.278,0,0,0-.278.278v2.373a.8.8,0,0,1-.8.8.8.8,0,0,1-.8-.8V-51.22A1.882,1.882,0,0,1-8.12-53.1H8.924a1.882,1.882,0,0,1,1.88,1.88v2.373A.8.8,0,0,1,10-48.046Z" transform="translate(10 53.1)"/>
          </g>
          <g id="g8049" transform="translate(34.997 11.863)">
            <path id="path8051" d="M-42.127-92.716a3.672,3.672,0,0,1-3.668-3.668c0-1.557,1.2-3.353,2.212-4.585a1.875,1.875,0,0,1,1.456-.69,1.875,1.875,0,0,1,1.456.69c1.009,1.232,2.212,3.028,2.212,4.585A3.672,3.672,0,0,1-42.127-92.716Zm0-7.341a.276.276,0,0,0-.217.1,6.9,6.9,0,0,0-1.849,3.57,2.068,2.068,0,0,0,2.066,2.066,2.068,2.068,0,0,0,2.066-2.066,6.9,6.9,0,0,0-1.849-3.57A.276.276,0,0,0-42.127-100.058Z" transform="translate(45.795 101.659)"/>
          </g>
        </g>
      </g>
    </g>
  </g>
</svg>
