<svg xmlns="http://www.w3.org/2000/svg" xmlns:xlink="http://www.w3.org/1999/xlink" width="98" height="98" viewBox="0 0 98 98">
  <defs>
    <filter id="Path_874925" x="0" y="-0.001" width="98" height="98" filterUnits="userSpaceOnUse">
      <feOffset dy="3" input="SourceAlpha"/>
      <feGaussianBlur stdDeviation="3" result="blur"/>
      <feFlood flood-opacity="0.161"/>
      <feComposite operator="in" in2="blur"/>
      <feComposite in="SourceGraphic"/>
    </filter>
  </defs>
  <g id="Group_1201021" data-name="Group 1201021" transform="translate(-490 9219.999)">
    <g id="Group_1201019" data-name="Group 1201019" transform="translate(326)">
      <g id="Group_1201016" data-name="Group 1201016" transform="translate(326 -0.001)">
        <g id="Group_1201014" data-name="Group 1201014" transform="translate(0 342)">
          <g id="Group_1200988" data-name="Group 1200988" transform="translate(-913 -19042.008)">
            <g id="Group_1200825" data-name="Group 1200825" transform="translate(475 3388.602)">
              <g id="Group_1187153" data-name="Group 1187153">
                <g id="Group_1182177" data-name="Group 1182177">
                  <g id="Group_1181903" data-name="Group 1181903">
                    <g id="Group_1181438" data-name="Group 1181438">
                      <g id="Group_1111314" data-name="Group 1111314" transform="translate(-734.73 3020.407)">
                        <g transform="matrix(1, 0, 0, 1, 1010.73, 3071)" filter="url(#Path_874925)">
                          <g id="Path_874925-2" data-name="Path 874925" transform="translate(9 6)" fill="#ffc94a">
                            <path d="M 39.99997329711914 78.50040435791016 C 34.80184936523438 78.50040435791016 29.76000595092773 77.48268127441406 25.01450729370117 75.47550201416016 C 20.43013954162598 73.53648376464844 16.3126392364502 70.76027679443359 12.7763843536377 67.22402191162109 C 9.240128517150879 63.68776702880859 6.463928699493408 59.57027053833008 4.524906635284424 54.98590087890625 C 2.517728805541992 50.24040222167969 1.500006675720215 45.19855880737305 1.500006675720215 40.00043487548828 C 1.500006675720215 34.80185699462891 2.517728805541992 29.76001358032227 4.524906635284424 25.01451301574707 C 6.463928699493408 20.43013572692871 9.240128517150879 16.31263542175293 12.7763843536377 12.77637958526611 C 16.3126392364502 9.240124702453613 20.43013954162598 6.463935375213623 25.01450729370117 4.52490234375 C 29.76000595092773 2.517724514007568 34.80184936523438 1.500002145767212 39.99997329711914 1.500002145767212 C 45.19809722900391 1.500002145767212 50.23994064331055 2.517724514007568 54.98543930053711 4.52490234375 C 59.56981658935547 6.463935375213623 63.68731689453125 9.240124702453613 67.22357177734375 12.77637958526611 C 70.75982666015625 16.31263542175293 73.53601837158203 20.43013572692871 75.47505187988281 25.01451301574707 C 77.48223114013672 29.76001358032227 78.49995422363281 34.80185699462891 78.49995422363281 39.99998092651367 C 78.49995422363281 45.19855880737305 77.48223114013672 50.24040222167969 75.47505187988281 54.98590087890625 C 73.53601837158203 59.57027053833008 70.75982666015625 63.68776702880859 67.22357177734375 67.22402191162109 C 63.68731689453125 70.76027679443359 59.56981658935547 73.53648376464844 54.98543930053711 75.47550201416016 C 50.23994064331055 77.48268127441406 45.19809722900391 78.50040435791016 39.99997329711914 78.50040435791016 Z" stroke="none"/>
                            <path d="M 39.99997329711914 3 C 35.00369262695312 3 30.15843963623047 3.977851867675781 25.59883880615234 5.906417846679688 C 21.19326782226562 7.769813537597656 17.23602676391602 10.43805694580078 13.83704376220703 13.83704376220703 C 10.43805694580078 17.23601531982422 7.769813537597656 21.19325637817383 5.906410217285156 25.59882736206055 C 3.977851867675781 30.15844345092773 3 35.00368118286133 3 40.00042724609375 C 3 44.99672317504883 3.977851867675781 49.84196472167969 5.906410217285156 54.40157318115234 C 7.769813537597656 58.80714797973633 10.43805694580078 62.76438903808594 13.83704376220703 66.16336059570312 C 17.23602676391602 69.56234741210938 21.19326782226562 72.2305908203125 25.59883880615234 74.09398651123047 C 30.15843963623047 76.02255249023438 35.00369262695312 77.00040435791016 39.99997329711914 77.00040435791016 C 44.99625396728516 77.00040435791016 49.84150695800781 76.02255249023438 54.40110778808594 74.09398651123047 C 58.80667877197266 72.2305908203125 62.76391983032227 69.56234741210938 66.16290283203125 66.16336059570312 C 69.5618896484375 62.76438903808594 72.23013305664062 58.80714797973633 74.09353637695312 54.40157318115234 C 76.0220947265625 49.84196472167969 76.99994659423828 44.99672317504883 76.99994659423828 39.99997711181641 C 76.99994659423828 35.00368118286133 76.0220947265625 30.15844345092773 74.09353637695312 25.59882736206055 C 72.23013305664062 21.19325637817383 69.5618896484375 17.23601531982422 66.16290283203125 13.83704376220703 C 62.76391983032227 10.43805694580078 58.80667877197266 7.769813537597656 54.40110778808594 5.906417846679688 C 49.84150695800781 3.977851867675781 44.99625396728516 3 39.99997329711914 3 M 39.99997329711914 0 C 62.09134674072266 0 79.99994659423828 17.90858840942383 79.99994659423828 39.99997711181641 L 79.99994659423828 40.00042724609375 C 79.99994659423828 62.09181594848633 62.09134674072266 80.00040435791016 39.99997329711914 80.00040435791016 C 17.90859985351562 80.00040435791016 0 62.09181594848633 0 40.00042724609375 L 0 39.99997711181641 C 0 17.90858840942383 17.90859985351562 0 39.99997329711914 0 Z" stroke="none" fill="#fff"/>
                          </g>
                        </g>
                      </g>
                    </g>
                  </g>
                </g>
              </g>
            </g>
          </g>
        </g>
      </g>
    </g>
    <g id="Date_3" data-name="Date 3" transform="translate(516.5 -9196.5)">
      <rect id="Rectangle_411085" data-name="Rectangle 411085" width="38.769" height="37.278" rx="1" transform="translate(3.246 4.737)" fill="#f2f2f2"/>
      <rect id="Rectangle_411086" data-name="Rectangle 411086" width="26.84" height="17.894" rx="1" transform="translate(9.21 21.139)" fill="#71d3c0"/>
      <path id="Path_1242789" data-name="Path 1242789" d="M4.491,4H40.278a1.491,1.491,0,0,1,1.491,1.491v8.947H3V5.491A1.491,1.491,0,0,1,4.491,4Z" transform="translate(0.246 0.737)" fill="#15b2cc"/>
      <path id="Path_1242790" data-name="Path 1242790" d="M3,11H41.769v1.491H3Z" transform="translate(0.246 4.175)" fill="#999"/>
      <g id="Group_1201020" data-name="Group 1201020" transform="translate(9.21 21.139)">
        <path id="Path_1242791" data-name="Path 1242791" d="M8.491,15V32.894A1.491,1.491,0,0,1,7,31.4V16.491A1.491,1.491,0,0,1,8.491,15Z" transform="translate(-7 -15)" fill="#49897d"/>
        <path id="Path_1242792" data-name="Path 1242792" d="M8.491,15H32.349a1.491,1.491,0,0,1,1.491,1.491H7A1.491,1.491,0,0,1,8.491,15Z" transform="translate(-7 -15)" fill="#49897d"/>
        <path id="Path_1242793" data-name="Path 1242793" d="M24,15a1.491,1.491,0,0,1,1.491,1.491V31.4A1.491,1.491,0,0,1,24,32.894Z" transform="translate(1.349 -15)" fill="#49897d"/>
        <path id="Path_1242794" data-name="Path 1242794" d="M7,26H33.84a1.491,1.491,0,0,1-1.491,1.491H8.491A1.491,1.491,0,0,1,7,26Z" transform="translate(-7 -9.598)" fill="#49897d"/>
      </g>
      <path id="Path_1242795" data-name="Path 1242795" d="M14.228,16.5A3.728,3.728,0,0,0,10.5,20.228v5.965a3.728,3.728,0,1,0,7.456,0V20.228A3.728,3.728,0,0,0,14.228,16.5Zm2.237,9.692a2.237,2.237,0,1,1-4.473,0V20.228a2.237,2.237,0,0,1,4.473,0Z" transform="translate(3.929 6.876)"/>
      <path id="Path_1242796" data-name="Path 1242796" d="M23.956,20.228A3.728,3.728,0,0,0,20.228,16.5H17.246a.746.746,0,1,0,0,1.491h2.982a2.237,2.237,0,1,1,0,4.473H17.246a.746.746,0,1,0,0,1.491h2.982a2.237,2.237,0,1,1,0,4.473H17.246a.746.746,0,1,0,0,1.491h2.982a3.728,3.728,0,0,0,2.237-6.71A3.713,3.713,0,0,0,23.956,20.228Z" transform="translate(6.876 6.876)"/>
      <path id="Path_1242797" data-name="Path 1242797" d="M32.595,14.5H8.737A2.237,2.237,0,0,0,6.5,16.737V31.648a2.237,2.237,0,0,0,2.237,2.237H32.595a2.237,2.237,0,0,0,2.237-2.237V16.737A2.237,2.237,0,0,0,32.595,14.5Zm.746,17.148a.746.746,0,0,1-.746.746H8.737a.746.746,0,0,1-.746-.746V16.737a.746.746,0,0,1,.746-.746H32.595a.746.746,0,0,1,.746.746Z" transform="translate(1.965 5.894)"/>
      <path id="Path_1242798" data-name="Path 1242798" d="M13.751,10.572A2.311,2.311,0,1,0,11.47,8.261a2.311,2.311,0,0,0,2.281,2.311Zm0-3.057a.82.82,0,1,1-.82.82.82.82,0,0,1,.82-.82Z" transform="translate(4.405 1.694)"/>
      <path id="Path_1242799" data-name="Path 1242799" d="M19.756,10.573a2.3,2.3,0,1,0-1.629-.678,2.311,2.311,0,0,0,1.629.678Zm0-3.057a.82.82,0,1,1-.82.82.82.82,0,0,1,.82-.82Z" transform="translate(7.347 1.694)"/>
      <path id="Path_1242800" data-name="Path 1242800" d="M40.524,4.737H36.8V3.246a.746.746,0,1,0-1.491,0V4.737H9.956V3.246a.746.746,0,1,0-1.491,0V4.737H4.737A2.237,2.237,0,0,0,2.5,6.973v33.55A2.237,2.237,0,0,0,4.737,42.76H40.524a2.237,2.237,0,0,0,2.237-2.237V6.973A2.237,2.237,0,0,0,40.524,4.737ZM4.737,6.228H8.465V7.719h0a2.311,2.311,0,1,0,1.491,0h0V6.228H35.3V7.719h0a2.311,2.311,0,1,0,1.491,0h0V6.228h3.728a.746.746,0,0,1,.746.746v6.71H3.991V6.973A.746.746,0,0,1,4.737,6.228ZM9.21,9.21a.82.82,0,1,1-.82.82.82.82,0,0,1,.82-.82Zm26.84,0a.82.82,0,1,1-.82.82.82.82,0,0,1,.82-.82Zm4.473,32.059H4.737a.746.746,0,0,1-.746-.746V15.175H41.269V40.524A.746.746,0,0,1,40.524,41.269Z"/>
    </g>
  </g>
</svg>
