<svg xmlns="http://www.w3.org/2000/svg" xmlns:xlink="http://www.w3.org/1999/xlink" width="98" height="98" viewBox="0 0 98 98">
  <defs>
    <filter id="Path_874925" x="0" y="-0.001" width="98" height="98" filterUnits="userSpaceOnUse">
      <feOffset dy="3" input="SourceAlpha"/>
      <feGaussianBlur stdDeviation="3" result="blur"/>
      <feFlood flood-opacity="0.161"/>
      <feComposite operator="in" in2="blur"/>
      <feComposite in="SourceGraphic"/>
    </filter>
  </defs>
  <g id="Group_1201018" data-name="Group 1201018" transform="translate(-164 9219.999)">
    <g id="Group_1201016" data-name="Group 1201016" transform="translate(326 -0.001)">
      <g id="Group_1201014" data-name="Group 1201014" transform="translate(0 342)">
        <g id="Group_1200988" data-name="Group 1200988" transform="translate(-913 -19042.008)">
          <g id="Group_1200825" data-name="Group 1200825" transform="translate(475 3388.602)">
            <g id="Group_1187153" data-name="Group 1187153">
              <g id="Group_1182177" data-name="Group 1182177">
                <g id="Group_1181903" data-name="Group 1181903">
                  <g id="Group_1181438" data-name="Group 1181438">
                    <g id="Group_1111314" data-name="Group 1111314" transform="translate(-734.73 3020.407)">
                      <g transform="matrix(1, 0, 0, 1, 1010.73, 3071)" filter="url(#Path_874925)">
                        <g id="Path_874925-2" data-name="Path 874925" transform="translate(9 6)" fill="#ffc94a">
                          <path d="M 39.99997329711914 78.50040435791016 C 34.80184936523438 78.50040435791016 29.76000595092773 77.48268127441406 25.01450729370117 75.47550201416016 C 20.43013954162598 73.53648376464844 16.3126392364502 70.76027679443359 12.7763843536377 67.22402191162109 C 9.240128517150879 63.68776702880859 6.463928699493408 59.57027053833008 4.524906635284424 54.98590087890625 C 2.517728805541992 50.24040222167969 1.500006675720215 45.19855880737305 1.500006675720215 40.00043487548828 C 1.500006675720215 34.80185699462891 2.517728805541992 29.76001358032227 4.524906635284424 25.01451301574707 C 6.463928699493408 20.43013572692871 9.240128517150879 16.31263542175293 12.7763843536377 12.77637958526611 C 16.3126392364502 9.240124702453613 20.43013954162598 6.463935375213623 25.01450729370117 4.52490234375 C 29.76000595092773 2.517724514007568 34.80184936523438 1.500002145767212 39.99997329711914 1.500002145767212 C 45.19809722900391 1.500002145767212 50.23994064331055 2.517724514007568 54.98543930053711 4.52490234375 C 59.56981658935547 6.463935375213623 63.68731689453125 9.240124702453613 67.22357177734375 12.77637958526611 C 70.75982666015625 16.31263542175293 73.53601837158203 20.43013572692871 75.47505187988281 25.01451301574707 C 77.48223114013672 29.76001358032227 78.49995422363281 34.80185699462891 78.49995422363281 39.99998092651367 C 78.49995422363281 45.19855880737305 77.48223114013672 50.24040222167969 75.47505187988281 54.98590087890625 C 73.53601837158203 59.57027053833008 70.75982666015625 63.68776702880859 67.22357177734375 67.22402191162109 C 63.68731689453125 70.76027679443359 59.56981658935547 73.53648376464844 54.98543930053711 75.47550201416016 C 50.23994064331055 77.48268127441406 45.19809722900391 78.50040435791016 39.99997329711914 78.50040435791016 Z" stroke="none"/>
                          <path d="M 39.99997329711914 3 C 35.00369262695312 3 30.15843963623047 3.977851867675781 25.59883880615234 5.906417846679688 C 21.19326782226562 7.769813537597656 17.23602676391602 10.43805694580078 13.83704376220703 13.83704376220703 C 10.43805694580078 17.23601531982422 7.769813537597656 21.19325637817383 5.906410217285156 25.59882736206055 C 3.977851867675781 30.15844345092773 3 35.00368118286133 3 40.00042724609375 C 3 44.99672317504883 3.977851867675781 49.84196472167969 5.906410217285156 54.40157318115234 C 7.769813537597656 58.80714797973633 10.43805694580078 62.76438903808594 13.83704376220703 66.16336059570312 C 17.23602676391602 69.56234741210938 21.19326782226562 72.2305908203125 25.59883880615234 74.09398651123047 C 30.15843963623047 76.02255249023438 35.00369262695312 77.00040435791016 39.99997329711914 77.00040435791016 C 44.99625396728516 77.00040435791016 49.84150695800781 76.02255249023438 54.40110778808594 74.09398651123047 C 58.80667877197266 72.2305908203125 62.76391983032227 69.56234741210938 66.16290283203125 66.16336059570312 C 69.5618896484375 62.76438903808594 72.23013305664062 58.80714797973633 74.09353637695312 54.40157318115234 C 76.0220947265625 49.84196472167969 76.99994659423828 44.99672317504883 76.99994659423828 39.99997711181641 C 76.99994659423828 35.00368118286133 76.0220947265625 30.15844345092773 74.09353637695312 25.59882736206055 C 72.23013305664062 21.19325637817383 69.5618896484375 17.23601531982422 66.16290283203125 13.83704376220703 C 62.76391983032227 10.43805694580078 58.80667877197266 7.769813537597656 54.40110778808594 5.906417846679688 C 49.84150695800781 3.977851867675781 44.99625396728516 3 39.99997329711914 3 M 39.99997329711914 0 C 62.09134674072266 0 79.99994659423828 17.90858840942383 79.99994659423828 39.99997711181641 L 79.99994659423828 40.00042724609375 C 79.99994659423828 62.09181594848633 62.09134674072266 80.00040435791016 39.99997329711914 80.00040435791016 C 17.90859985351562 80.00040435791016 0 62.09181594848633 0 40.00042724609375 L 0 39.99997711181641 C 0 17.90858840942383 17.90859985351562 0 39.99997329711914 0 Z" stroke="none" fill="#fff"/>
                        </g>
                      </g>
                    </g>
                  </g>
                </g>
              </g>
            </g>
          </g>
        </g>
      </g>
    </g>
    <g id="Page-1" transform="translate(189.006 -9197.999)">
      <g id="_029---Spade" data-name="029---Spade" transform="translate(-0.006 -0.001)">
        <path id="Shape" d="M55.858,9.088,49.472,2.7a2.4,2.4,0,0,0-3.388,0L43.931,4.863a.965.965,0,0,0-.287.582l-.606,5.469a.989.989,0,0,0,.279.805l3.524,3.524a.989.989,0,0,0,.805.279l5.469-.606a.965.965,0,0,0,.582-.287l2.161-2.153a2.4,2.4,0,0,0,0-3.388ZM52.47,11.344l-.279.287a.822.822,0,0,1-.478.231l-2.982.327a.782.782,0,0,1-.654-.223l-1.483-1.483a.774.774,0,0,1-.223-.646l.327-2.99a.822.822,0,0,1,.231-.478l.287-.287a.787.787,0,0,1,1.124.008l4.13,4.13a.78.78,0,0,1,0,1.124Z" transform="translate(-9.516 -1.202)" fill="#ff9801"/>
        <path id="Shape-2" data-name="Shape" d="M56.761,9.089,50.375,2.7a2.392,2.392,0,0,0-2.89-.371,2.36,2.36,0,0,1,.5.371l6.386,6.386a2.4,2.4,0,0,1,0,3.388L52.209,14.63a.965.965,0,0,1-.582.287l-3.769.418a.993.993,0,0,0,.691.188l5.469-.606a.965.965,0,0,0,.582-.287l2.161-2.153a2.4,2.4,0,0,0,0-3.388Z" transform="translate(-10.419 -1.203)" fill="#f57c00"/>
        <path id="Rectangle-path" d="M0,0H21.637V3.946H0Z" transform="translate(18.865 26.183) rotate(-45)" fill="sienna"/>
        <path id="Shape-3" data-name="Shape" d="M25.845,36.63l-3.492,3.492L20,42.474a1.595,1.595,0,0,1-2.256,0l-.534-.534a1.595,1.595,0,0,1,0-2.256l2.352-2.352,3.492-3.492Z" transform="translate(-4.187 -7.657)" fill="#cfd8dc"/>
        <path id="Shape-4" data-name="Shape" d="M22.856,47.58,19.436,51A11.855,11.855,0,0,1,9.55,54.38l-5.095-.654A1.964,1.964,0,0,1,2.75,52.02L2.1,46.926a11.855,11.855,0,0,1,3.38-9.886L8.9,33.62a2.959,2.959,0,0,1,4.186,0l3.492,3.492-2.352,2.352a1.595,1.595,0,0,0,0,2.256l.534.534a1.595,1.595,0,0,0,2.256,0L19.364,39.9l3.492,3.492a2.959,2.959,0,0,1,0,4.186Z" transform="translate(-1.198 -7.437)" fill="#7f8e94"/>
        <path id="Shape-5" data-name="Shape" d="M24.87,45.212,21.378,41.72l-1.2,1.2,2.3,2.3a2.959,2.959,0,0,1,0,4.186l-3.42,3.42a11.849,11.849,0,0,1-7.127,3.406,11.846,11.846,0,0,0,9.519-3.406l3.42-3.42a2.959,2.959,0,0,0,0-4.186Z" transform="translate(-3.211 -9.255)" fill="#545c60"/>
        <path id="Shape-6" data-name="Shape" d="M12.672,33.621l3.492,3.492-2.352,2.352a1.595,1.595,0,0,0,0,2.256l.534.534a1.595,1.595,0,0,0,2.256,0l.068-.068-.466-.466a1.595,1.595,0,0,1,0-2.256l2.352-2.352-3.492-3.492a2.954,2.954,0,0,0-3.289-.607A2.935,2.935,0,0,1,12.672,33.621Z" transform="translate(-3.179 -7.438)" fill="#545c60"/>
        <path id="Shape-7" data-name="Shape" d="M48.156,13.3a1.589,1.589,0,0,0,1.126.466,1.464,1.464,0,0,0,.177-.01l2.986-.332a1.6,1.6,0,0,0,.957-.458l.285-.285a1.6,1.6,0,0,0,0-2.255L49.551,6.3a1.6,1.6,0,0,0-2.255,0l-.285.285a1.6,1.6,0,0,0-.459.953l-.331,2.986a1.588,1.588,0,0,0,.458,1.3ZM47.806,10.7l.332-2.986.286-.285,4.131,4.132-.285.285-2.988.332L47.806,10.7Z" transform="translate(-10.161 -1.979)"/>
        <path id="Shape-8" data-name="Shape" d="M1.1,40.59l.656,5.092a2.755,2.755,0,0,0,2.392,2.392l5.1.657a12.92,12.92,0,0,0,1.618.1A12.566,12.566,0,0,0,19.8,45.127l3.421-3.421a3.763,3.763,0,0,0,0-5.315l-2.926-2.926L37.976,15.782a1.767,1.767,0,0,0,1.036.341,1.692,1.692,0,0,0,.2-.011l5.467-.608a1.792,1.792,0,0,0,1.064-.511L47.9,12.835a3.2,3.2,0,0,0,0-4.513l-6.39-6.388a3.189,3.189,0,0,0-4.513,0L34.84,4.093a1.787,1.787,0,0,0-.51,1.064l-.608,5.468a1.768,1.768,0,0,0,.334,1.234L16.368,29.546l-2.927-2.927a3.764,3.764,0,0,0-5.316,0l-3.42,3.42A12.588,12.588,0,0,0,1.1,40.59Zm15.832-9.353,2.926-2.926,1.665,1.665-5.278,5.278a.815.815,0,0,1-1.127,0l-.537-.537a.8.8,0,0,1,0-1.128Zm5.72-2.392-1.665-1.665L35.161,13.01l.832.832.832.832ZM35.919,5.331a.191.191,0,0,1,.053-.112L38.13,3.061a1.595,1.595,0,0,1,2.258,0l6.384,6.389a1.6,1.6,0,0,1,0,2.258l-2.157,2.157a.2.2,0,0,1-.115.055l-5.467.608a.188.188,0,0,1-.155-.055l-3.518-3.518a.188.188,0,0,1-.055-.159ZM9.254,27.746a2.167,2.167,0,0,1,3.061,0l2.927,2.927-1.788,1.787a2.4,2.4,0,0,0,0,3.383l.538.537a2.392,2.392,0,0,0,3.382,0l1.787-1.787,2.927,2.928a2.166,2.166,0,0,1,0,3.061L18.666,44A11,11,0,0,1,9.45,47.153l-5.1-.657a1.163,1.163,0,0,1-1.011-1.014l-.655-5.094a11,11,0,0,1,3.152-9.222Z" transform="translate(-0.994 -0.999)"/>
        <g id="Group_1201017" data-name="Group 1201017" transform="translate(3.951 28.887)">
          <path id="Shape-9" data-name="Shape" d="M6.813,48.136a.8.8,0,0,1-.79-.7A8.66,8.66,0,0,1,8.5,40.178l2.723-2.723a.8.8,0,0,1,1.127,1.127L9.629,41.305A7.079,7.079,0,0,0,7.6,47.238a.8.8,0,0,1-.69.891A.877.877,0,0,1,6.813,48.136Z" transform="translate(-5.949 -37.231)" fill="#f5f5f5"/>
          <path id="Shape-10" data-name="Shape" d="M12.907,54.364a8.83,8.83,0,0,1-1.116-.071.8.8,0,1,1,.2-1.582,7.081,7.081,0,0,0,5.932-2.026l2.723-2.722a.8.8,0,0,1,1.127,1.127l-2.723,2.722a8.646,8.646,0,0,1-6.144,2.551Z" transform="translate(-6.991 -39.362)" fill="#f5f5f5"/>
        </g>
      </g>
    </g>
  </g>
</svg>
