<svg xmlns="http://www.w3.org/2000/svg" xmlns:xlink="http://www.w3.org/1999/xlink" width="98" height="98" viewBox="0 0 98 98">
  <defs>
    <filter id="Path_874925" x="0" y="0" width="98" height="98" filterUnits="userSpaceOnUse">
      <feOffset dy="3" input="SourceAlpha"/>
      <feGaussianBlur stdDeviation="3" result="blur"/>
      <feFlood flood-opacity="0.161"/>
      <feComposite operator="in" in2="blur"/>
      <feComposite in="SourceGraphic"/>
    </filter>
  </defs>
  <g id="Group_1201030" data-name="Group 1201030" transform="translate(-1121.051 -2086.001)">
    <g id="Group_1200986" data-name="Group 1200986" transform="translate(370.051 -7394.008)">
      <g id="Group_1200825" data-name="Group 1200825" transform="translate(475 3388.602)">
        <g id="Group_1187153" data-name="Group 1187153">
          <g id="Group_1182177" data-name="Group 1182177">
            <g id="Group_1181903" data-name="Group 1181903">
              <g id="Group_1181438" data-name="Group 1181438">
                <g id="Group_1111314" data-name="Group 1111314" transform="translate(-734.73 3020.407)">
                  <g transform="matrix(1, 0, 0, 1, 1010.73, 3071)" filter="url(#Path_874925)">
                    <g id="Path_874925-2" data-name="Path 874925" transform="translate(9 6)" fill="#ffc94a">
                      <path d="M 39.99997329711914 78.50040435791016 C 34.80184936523438 78.50040435791016 29.76000595092773 77.48268127441406 25.01450729370117 75.47550201416016 C 20.43013954162598 73.53648376464844 16.3126392364502 70.76027679443359 12.7763843536377 67.22402191162109 C 9.240128517150879 63.68776702880859 6.463928699493408 59.57027053833008 4.524906635284424 54.98590087890625 C 2.517728805541992 50.24040222167969 1.500006675720215 45.19855880737305 1.500006675720215 40.00043487548828 C 1.500006675720215 34.80185699462891 2.517728805541992 29.76001358032227 4.524906635284424 25.01451301574707 C 6.463928699493408 20.43013572692871 9.240128517150879 16.31263542175293 12.7763843536377 12.77637958526611 C 16.3126392364502 9.240124702453613 20.43013954162598 6.463935375213623 25.01450729370117 4.52490234375 C 29.76000595092773 2.517724514007568 34.80184936523438 1.500002145767212 39.99997329711914 1.500002145767212 C 45.19809722900391 1.500002145767212 50.23994064331055 2.517724514007568 54.98543930053711 4.52490234375 C 59.56981658935547 6.463935375213623 63.68731689453125 9.240124702453613 67.22357177734375 12.77637958526611 C 70.75982666015625 16.31263542175293 73.53601837158203 20.43013572692871 75.47505187988281 25.01451301574707 C 77.48223114013672 29.76001358032227 78.49995422363281 34.80185699462891 78.49995422363281 39.99998092651367 C 78.49995422363281 45.19855880737305 77.48223114013672 50.24040222167969 75.47505187988281 54.98590087890625 C 73.53601837158203 59.57027053833008 70.75982666015625 63.68776702880859 67.22357177734375 67.22402191162109 C 63.68731689453125 70.76027679443359 59.56981658935547 73.53648376464844 54.98543930053711 75.47550201416016 C 50.23994064331055 77.48268127441406 45.19809722900391 78.50040435791016 39.99997329711914 78.50040435791016 Z" stroke="none"/>
                      <path d="M 39.99997329711914 3 C 35.00369262695312 3 30.15843963623047 3.977851867675781 25.59883880615234 5.906417846679688 C 21.19326782226562 7.769813537597656 17.23602676391602 10.43805694580078 13.83704376220703 13.83704376220703 C 10.43805694580078 17.23601531982422 7.769813537597656 21.19325637817383 5.906410217285156 25.59882736206055 C 3.977851867675781 30.15844345092773 3 35.00368118286133 3 40.00042724609375 C 3 44.99672317504883 3.977851867675781 49.84196472167969 5.906410217285156 54.40157318115234 C 7.769813537597656 58.80714797973633 10.43805694580078 62.76438903808594 13.83704376220703 66.16336059570312 C 17.23602676391602 69.56234741210938 21.19326782226562 72.2305908203125 25.59883880615234 74.09398651123047 C 30.15843963623047 76.02255249023438 35.00369262695312 77.00040435791016 39.99997329711914 77.00040435791016 C 44.99625396728516 77.00040435791016 49.84150695800781 76.02255249023438 54.40110778808594 74.09398651123047 C 58.80667877197266 72.2305908203125 62.76391983032227 69.56234741210938 66.16290283203125 66.16336059570312 C 69.5618896484375 62.76438903808594 72.23013305664062 58.80714797973633 74.09353637695312 54.40157318115234 C 76.0220947265625 49.84196472167969 76.99994659423828 44.99672317504883 76.99994659423828 39.99997711181641 C 76.99994659423828 35.00368118286133 76.0220947265625 30.15844345092773 74.09353637695312 25.59882736206055 C 72.23013305664062 21.19325637817383 69.5618896484375 17.23601531982422 66.16290283203125 13.83704376220703 C 62.76391983032227 10.43805694580078 58.80667877197266 7.769813537597656 54.40110778808594 5.906417846679688 C 49.84150695800781 3.977851867675781 44.99625396728516 3 39.99997329711914 3 M 39.99997329711914 0 C 62.09134674072266 0 79.99994659423828 17.90858840942383 79.99994659423828 39.99997711181641 L 79.99994659423828 40.00042724609375 C 79.99994659423828 62.09181594848633 62.09134674072266 80.00040435791016 39.99997329711914 80.00040435791016 C 17.90859985351562 80.00040435791016 0 62.09181594848633 0 40.00042724609375 L 0 39.99997711181641 C 0 17.90858840942383 17.90859985351562 0 39.99997329711914 0 Z" stroke="none" fill="#fff"/>
                    </g>
                  </g>
                </g>
              </g>
            </g>
          </g>
        </g>
      </g>
    </g>
    <g id="Page-1" transform="translate(1146.052 2115)">
      <g id="_030---Paper-Stack" data-name="030---Paper-Stack" transform="translate(-0.001 0)">
        <g id="Icons_copy" transform="translate(0.794 0.792)">
          <path id="Path" d="M45.121,17.415H.792A.792.792,0,0,1,.127,16.2L10.2.364A.78.78,0,0,1,10.869,0H35.044a.78.78,0,0,1,.665.364L45.786,16.2a.792.792,0,0,1-.665,1.219Z" transform="translate(-0.002 0)" fill="#ffeb3a" fill-rule="evenodd"/>
          <path id="Path-2" data-name="Path" d="M54.387,16.2,44.31.364A.78.78,0,0,0,43.645,0H41.27a.78.78,0,0,1,.665.364L52.012,16.2a.792.792,0,0,1-.665,1.219h2.375a.792.792,0,0,0,.665-1.219Z" transform="translate(-8.602 0)" fill="#fdd834" fill-rule="evenodd"/>
          <path id="Path-3" data-name="Path" d="M45.121,25.958H.792a.792.792,0,0,1-.665-1.219L1.869,22H44.045l1.742,2.739a.792.792,0,0,1-.665,1.219Z" transform="translate(-0.002 -4.585)" fill="#fec108" fill-rule="evenodd"/>
          <path id="Path-4" data-name="Path" d="M45.121,30.958H.792a.792.792,0,0,1-.665-1.219L1.869,27H44.045l1.742,2.739a.792.792,0,0,1-.665,1.219Z" transform="translate(-0.002 -5.627)" fill="#ffdf00" fill-rule="evenodd"/>
          <path id="Path-5" data-name="Path" d="M56.756,29.739,55.015,27H52.64l1.742,2.739a.792.792,0,0,1-.665,1.219h2.375a.792.792,0,0,0,.665-1.219Z" transform="translate(-10.972 -5.627)" fill="#fec108" fill-rule="evenodd"/>
          <path id="Path-6" data-name="Path" d="M45.121,35.958H.792a.792.792,0,0,1-.665-1.219L1.869,32H44.045l1.742,2.739a.792.792,0,0,1-.665,1.219Z" transform="translate(-0.002 -6.669)" fill="#fec108" fill-rule="evenodd"/>
          <path id="Path-7" data-name="Path" d="M45.121,40.958H.792a.792.792,0,0,1-.665-1.219L1.869,37H44.045l1.742,2.739a.792.792,0,0,1-.665,1.219Z" transform="translate(-0.002 -7.711)" fill="#ffdf00" fill-rule="evenodd"/>
          <path id="Path-8" data-name="Path" d="M56.756,39.739,55.015,37H52.64l1.742,2.739a.792.792,0,0,1-.665,1.219h2.375a.792.792,0,0,0,.665-1.219Z" transform="translate(-10.972 -7.711)" fill="#fec108" fill-rule="evenodd"/>
        </g>
        <g id="Icons">
          <path id="Path-9" data-name="Path" d="M15.535,7.613A.792.792,0,0,1,14.868,6.4l1.292-2.03A.792.792,0,0,1,16.828,4h3.66a.792.792,0,1,1,0,1.583H17.262L16.2,7.246A.792.792,0,0,1,15.535,7.613Z" transform="translate(-3.863 -0.834)" fill="#fff" fill-rule="evenodd"/>
          <path id="Shape" d="M1.2,34.008a1.583,1.583,0,0,0,1.387.822H46.912A1.583,1.583,0,0,0,48.248,32.4l-1-1.571a1.571,1.571,0,0,0,1-2.387l-1-1.571a1.571,1.571,0,0,0,1-2.387l-1-1.571a1.571,1.571,0,0,0,1-2.387l-1-1.571a1.573,1.573,0,0,0,1-2.387L38.173.733A1.578,1.578,0,0,0,36.836,0H12.659a1.577,1.577,0,0,0-1.335.733L1.248,16.565a1.572,1.572,0,0,0,1,2.387l-1,1.571a1.571,1.571,0,0,0,1,2.387l-1,1.571a1.571,1.571,0,0,0,1,2.387l-1,1.571a1.571,1.571,0,0,0,1,2.387l-1,1.571A1.583,1.583,0,0,0,1.2,34.008Zm1.387-.762,1.51-2.375H45.4l1.511,2.375ZM45.4,19l1.511,2.375H2.583L4.092,19Zm0,3.958,1.511,2.375H2.583l1.51-2.375Zm0,3.958,1.511,2.375H2.583l1.51-2.375Zm-42.818-9.5L12.659,1.583H36.836L46.912,17.415Z" transform="translate(-0.999 0)"/>
        </g>
      </g>
    </g>
  </g>
</svg>
