<svg xmlns="http://www.w3.org/2000/svg" xmlns:xlink="http://www.w3.org/1999/xlink" width="98" height="98" viewBox="0 0 98 98">
  <defs>
    <filter id="Path_874925" x="0" y="0" width="98" height="98" filterUnits="userSpaceOnUse">
      <feOffset dy="3" input="SourceAlpha"/>
      <feGaussianBlur stdDeviation="3" result="blur"/>
      <feFlood flood-opacity="0.161"/>
      <feComposite operator="in" in2="blur"/>
      <feComposite in="SourceGraphic"/>
    </filter>
  </defs>
  <g id="Group_1201006" data-name="Group 1201006" transform="translate(162 9561.999)">
    <g id="Group_1200988" data-name="Group 1200988" transform="translate(-913 -19042.008)">
      <g id="Group_1200825" data-name="Group 1200825" transform="translate(475 3388.602)">
        <g id="Group_1187153" data-name="Group 1187153">
          <g id="Group_1182177" data-name="Group 1182177">
            <g id="Group_1181903" data-name="Group 1181903">
              <g id="Group_1181438" data-name="Group 1181438">
                <g id="Group_1111314" data-name="Group 1111314" transform="translate(-734.73 3020.407)">
                  <g transform="matrix(1, 0, 0, 1, 1010.73, 3071)" filter="url(#Path_874925)">
                    <g id="Path_874925-2" data-name="Path 874925" transform="translate(9 6)" fill="#ffc94a">
                      <path d="M 39.99997329711914 78.50040435791016 C 34.80184936523438 78.50040435791016 29.76000595092773 77.48268127441406 25.01450729370117 75.47550201416016 C 20.43013954162598 73.53648376464844 16.3126392364502 70.76027679443359 12.7763843536377 67.22402191162109 C 9.240128517150879 63.68776702880859 6.463928699493408 59.57027053833008 4.524906635284424 54.98590087890625 C 2.517728805541992 50.24040222167969 1.500006675720215 45.19855880737305 1.500006675720215 40.00043487548828 C 1.500006675720215 34.80185699462891 2.517728805541992 29.76001358032227 4.524906635284424 25.01451301574707 C 6.463928699493408 20.43013572692871 9.240128517150879 16.31263542175293 12.7763843536377 12.77637958526611 C 16.3126392364502 9.240124702453613 20.43013954162598 6.463935375213623 25.01450729370117 4.52490234375 C 29.76000595092773 2.517724514007568 34.80184936523438 1.500002145767212 39.99997329711914 1.500002145767212 C 45.19809722900391 1.500002145767212 50.23994064331055 2.517724514007568 54.98543930053711 4.52490234375 C 59.56981658935547 6.463935375213623 63.68731689453125 9.240124702453613 67.22357177734375 12.77637958526611 C 70.75982666015625 16.31263542175293 73.53601837158203 20.43013572692871 75.47505187988281 25.01451301574707 C 77.48223114013672 29.76001358032227 78.49995422363281 34.80185699462891 78.49995422363281 39.99998092651367 C 78.49995422363281 45.19855880737305 77.48223114013672 50.24040222167969 75.47505187988281 54.98590087890625 C 73.53601837158203 59.57027053833008 70.75982666015625 63.68776702880859 67.22357177734375 67.22402191162109 C 63.68731689453125 70.76027679443359 59.56981658935547 73.53648376464844 54.98543930053711 75.47550201416016 C 50.23994064331055 77.48268127441406 45.19809722900391 78.50040435791016 39.99997329711914 78.50040435791016 Z" stroke="none"/>
                      <path d="M 39.99997329711914 3 C 35.00369262695312 3 30.15843963623047 3.977851867675781 25.59883880615234 5.906417846679688 C 21.19326782226562 7.769813537597656 17.23602676391602 10.43805694580078 13.83704376220703 13.83704376220703 C 10.43805694580078 17.23601531982422 7.769813537597656 21.19325637817383 5.906410217285156 25.59882736206055 C 3.977851867675781 30.15844345092773 3 35.00368118286133 3 40.00042724609375 C 3 44.99672317504883 3.977851867675781 49.84196472167969 5.906410217285156 54.40157318115234 C 7.769813537597656 58.80714797973633 10.43805694580078 62.76438903808594 13.83704376220703 66.16336059570312 C 17.23602676391602 69.56234741210938 21.19326782226562 72.2305908203125 25.59883880615234 74.09398651123047 C 30.15843963623047 76.02255249023438 35.00369262695312 77.00040435791016 39.99997329711914 77.00040435791016 C 44.99625396728516 77.00040435791016 49.84150695800781 76.02255249023438 54.40110778808594 74.09398651123047 C 58.80667877197266 72.2305908203125 62.76391983032227 69.56234741210938 66.16290283203125 66.16336059570312 C 69.5618896484375 62.76438903808594 72.23013305664062 58.80714797973633 74.09353637695312 54.40157318115234 C 76.0220947265625 49.84196472167969 76.99994659423828 44.99672317504883 76.99994659423828 39.99997711181641 C 76.99994659423828 35.00368118286133 76.0220947265625 30.15844345092773 74.09353637695312 25.59882736206055 C 72.23013305664062 21.19325637817383 69.5618896484375 17.23601531982422 66.16290283203125 13.83704376220703 C 62.76391983032227 10.43805694580078 58.80667877197266 7.769813537597656 54.40110778808594 5.906417846679688 C 49.84150695800781 3.977851867675781 44.99625396728516 3 39.99997329711914 3 M 39.99997329711914 0 C 62.09134674072266 0 79.99994659423828 17.90858840942383 79.99994659423828 39.99997711181641 L 79.99994659423828 40.00042724609375 C 79.99994659423828 62.09181594848633 62.09134674072266 80.00040435791016 39.99997329711914 80.00040435791016 C 17.90859985351562 80.00040435791016 0 62.09181594848633 0 40.00042724609375 L 0 39.99997711181641 C 0 17.90858840942383 17.90859985351562 0 39.99997329711914 0 Z" stroke="none" fill="#fff"/>
                    </g>
                  </g>
                </g>
              </g>
            </g>
          </g>
        </g>
      </g>
    </g>
    <g id="humedo" transform="translate(-139.232 -9552.678)">
      <g id="Group_1200996" data-name="Group 1200996" transform="translate(0.776 9.92)">
        <g id="Group_1200995" data-name="Group 1200995">
          <path id="Path_1242748" data-name="Path 1242748" d="M215.868,347.921h-7.213a1.44,1.44,0,0,0-1.44,1.44v3.081h10.093v-3.081A1.44,1.44,0,0,0,215.868,347.921Z" transform="translate(-186.555 -313.652)" fill="#fe646f"/>
          <path id="Path_1242749" data-name="Path 1242749" d="M211.967,347.924a1.44,1.44,0,0,0-1.44,1.44v3.082h-3.312v-3.082a1.44,1.44,0,0,1,1.44-1.44Z" transform="translate(-186.555 -313.655)" fill="#fd4755"/>
          <path id="Path_1242750" data-name="Path 1242750" d="M171.293,376.95H159.379a2.663,2.663,0,0,0-2.578,1.993l-1.927,7.412H175.8l-1.927-7.412A2.663,2.663,0,0,0,171.293,376.95Z" transform="translate(-139.63 -339.678)" fill="#01d0fb"/>
          <path id="Path_1242751" data-name="Path 1242751" d="M164.43,376.946a2.664,2.664,0,0,0-2.578,1.993l-1.926,7.412H154.88l1.926-7.412a2.663,2.663,0,0,1,2.578-1.993Z" transform="translate(-139.634 -339.675)" fill="#01c0fa"/>
          <path id="Path_1242752" data-name="Path 1242752" d="M55.024,427.924a3.89,3.89,0,1,0-3.117-6.217,3.89,3.89,0,0,0-6.233,0,3.89,3.89,0,0,0-6.234,0,3.89,3.89,0,0,0-6.233,0,3.89,3.89,0,0,0-6.233,0,3.89,3.89,0,0,0-6.233,0,3.89,3.89,0,0,0-6.233,0,3.89,3.89,0,1,0-3.117,6.217Z" transform="translate(-7.5 -378.405)" fill="#d1a08f"/>
          <path id="Path_1242753" data-name="Path 1242753" d="M16.51,427.924H11.39a3.89,3.89,0,1,1,2.56-6.818,3.89,3.89,0,0,0,2.56,6.818Z" transform="translate(-7.5 -378.405)" fill="#c68d7a"/>
          <g id="Group_1200989" data-name="Group 1200989" transform="translate(14.882)">
            <path id="Path_1242754" data-name="Path 1242754" d="M162.612,16.771a.811.811,0,0,0-.844,0,21.629,21.629,0,0,0-10.4,18.494q0,.5.023,1c.626,13.8,20.978,13.8,21.6,0q.022-.5.023-1A21.629,21.629,0,0,0,162.612,16.771Z" transform="translate(-151.366 -16.653)" fill="#c8effe"/>
            <path id="Path_1242755" data-name="Path 1242755" d="M163.372,46.986c-5.611.541-11.647-2.809-11.976-10.049q-.022-.495-.022-1a21.631,21.631,0,0,1,10.469-18.535c-2.573,4.706-4.186,12.2-4.186,18.535q0,.5.013,1C157.837,43.172,160.51,46.521,163.372,46.986Z" transform="translate(-151.373 -17.328)" fill="#99e6fc"/>
          </g>
          <g id="Group_1200994" data-name="Group 1200994" transform="translate(1.997 26.398)">
            <g id="Group_1200991" data-name="Group 1200991" transform="translate(34.497)">
              <g id="Group_1200990" data-name="Group 1200990">
                <path id="Path_1242756" data-name="Path 1242756" d="M367.134,274.251a1.414,1.414,0,0,1,1-2.413,10.855,10.855,0,0,1,10.843,10.843,1.413,1.413,0,0,1-2.827,0,8.025,8.025,0,0,0-8.016-8.016A1.409,1.409,0,0,1,367.134,274.251Z" transform="translate(-366.054 -271.838)" fill="#ffe177"/>
                <path id="Path_1242757" data-name="Path 1242757" d="M365.411,330.956a1.409,1.409,0,0,1-.414-1,3.3,3.3,0,0,0-3.3-3.3,1.413,1.413,0,1,1,0-2.827,6.131,6.131,0,0,1,6.131,6.131,1.414,1.414,0,0,1-2.413,1Z" transform="translate(-360.279 -318.447)" fill="#ffe177"/>
              </g>
            </g>
            <g id="Group_1200993" data-name="Group 1200993">
              <g id="Group_1200992" data-name="Group 1200992">
                <path id="Path_1242758" data-name="Path 1242758" d="M38.643,274.251a1.414,1.414,0,0,0-1-2.413A10.855,10.855,0,0,0,26.8,282.681a1.413,1.413,0,1,0,2.827,0,8.025,8.025,0,0,1,8.016-8.016A1.409,1.409,0,0,0,38.643,274.251Z" transform="translate(-26.801 -271.838)" fill="#ffe177"/>
                <path id="Path_1242759" data-name="Path 1242759" d="M81.2,330.956a1.409,1.409,0,0,0,.414-1,3.3,3.3,0,0,1,3.3-3.3,1.413,1.413,0,1,0,0-2.827,6.131,6.131,0,0,0-6.131,6.131,1.414,1.414,0,0,0,2.413,1Z" transform="translate(-73.409 -318.447)" fill="#ffe177"/>
              </g>
            </g>
          </g>
        </g>
      </g>
      <g id="Group_1201004" data-name="Group 1201004" transform="translate(0 9.144)">
        <path id="Trazado_1242760" data-name="Trazado 1242760" d="M210.588,344.98a.776.776,0,0,1-.776-.776v-1.562a.665.665,0,0,0-.664-.664h-7.212a.665.665,0,0,0-.664.664V344.2a.776.776,0,1,1-1.552,0v-1.562a2.218,2.218,0,0,1,2.216-2.216h7.212a2.218,2.218,0,0,1,2.216,2.216V344.2A.776.776,0,0,1,210.588,344.98Z" transform="translate(-179.06 -306.156)"/>
        <path id="Trazado_1242761" data-name="Trazado 1242761" d="M294.989,375.474a.776.776,0,0,1-.75-.581l-.644-2.48A1.888,1.888,0,0,0,291.767,371h-1.741a.776.776,0,0,1,0-1.552h1.741a3.44,3.44,0,0,1,3.329,2.574l.645,2.48a.776.776,0,0,1-.751.971Z" transform="translate(-259.328 -332.177)"/>
        <path id="Trazado_1242762" data-name="Trazado 1242762" d="M160.545,375.474a.776.776,0,0,1-.751-.971l.644-2.48a3.44,3.44,0,0,1,3.329-2.574h6.551a.776.776,0,0,1,0,1.552h-6.551a1.888,1.888,0,0,0-1.827,1.413l-.644,2.479A.776.776,0,0,1,160.545,375.474Z" transform="translate(-143.241 -332.177)"/>
        <path id="Trazado_1242763" data-name="Trazado 1242763" d="M48.3,421.98H11.6a.776.776,0,1,1,0-1.552H48.3a3.114,3.114,0,1,0-2.5-4.977.776.776,0,0,1-1.243,0,3.115,3.115,0,0,0-4.991,0,.776.776,0,0,1-1.243,0,3.114,3.114,0,0,0-4.99,0,.776.776,0,0,1-1.243,0,3.115,3.115,0,0,0-4.991,0,.776.776,0,0,1-1.243,0,3.115,3.115,0,0,0-4.991,0,.776.776,0,0,1-.621.311.766.766,0,0,1-.622-.312,3.114,3.114,0,0,0-4.99,0,.764.764,0,0,1-.622.312.776.776,0,0,1-.621-.311,3.115,3.115,0,0,0-4.991,0,.776.776,0,0,1-1.243,0,3.114,3.114,0,1,0-2.5,4.977h3.31a.776.776,0,1,1,0,1.552H4.665a4.665,4.665,0,1,1,0-9.331,4.622,4.622,0,0,1,3.117,1.191,4.674,4.674,0,0,1,6.236,0,4.661,4.661,0,0,1,6.228,0,4.674,4.674,0,0,1,6.236,0,4.674,4.674,0,0,1,6.236,0,4.661,4.661,0,0,1,6.228,0,4.674,4.674,0,0,1,6.236,0,4.622,4.622,0,0,1,3.117-1.191,4.665,4.665,0,1,1,0,9.331Z" transform="translate(0 -370.908)"/>
        <g id="Group_1200997" data-name="Group 1200997" transform="translate(14.883)">
          <path id="Trazado_1242764" data-name="Trazado 1242764" d="M155.47,40.656c-5.334,0-11.231-3.471-11.577-11.091q-.023-.514-.023-1.031a22.262,22.262,0,0,1,1.763-8.725.776.776,0,1,1,1.429.6,20.718,20.718,0,0,0-1.64,8.12q0,.484.021.962a10.036,10.036,0,0,0,20.054,0q.021-.476.021-.961A20.739,20.739,0,0,0,155.488,10.7a20.821,20.821,0,0,0-6.845,6.693.776.776,0,0,1-1.312-.829,22.623,22.623,0,0,1,7.312-7.189,1.581,1.581,0,0,1,1.652,0,22.279,22.279,0,0,1,10.774,19.157q0,.518-.022,1.03C166.7,37.185,160.8,40.656,155.47,40.656Z" transform="translate(-143.87 -9.144)"/>
        </g>
        <g id="Group_1200998" data-name="Group 1200998" transform="translate(19.854 12.137)">
          <path id="Línea_596" data-name="Línea 596" d="M-6.726,3.482a.773.773,0,0,1-.343-.08.776.776,0,0,1-.352-1.039l4.66-9.431a.776.776,0,0,1,1.039-.352A.776.776,0,0,1-1.37-6.382L-6.03,3.049A.776.776,0,0,1-6.726,3.482Z" transform="translate(11.099 7.941)"/>
          <path id="Elipse_12360" data-name="Elipse 12360" d="M-4.665-7.5A2.825,2.825,0,0,1-1.83-4.692,2.825,2.825,0,0,1-4.665-1.884,2.825,2.825,0,0,1-7.5-4.692,2.825,2.825,0,0,1-4.665-7.5Zm0,4.065A1.272,1.272,0,0,0-3.382-4.692,1.272,1.272,0,0,0-4.665-5.948,1.272,1.272,0,0,0-5.948-4.692,1.272,1.272,0,0,0-4.665-3.435Z" transform="translate(7.5 7.5)"/>
          <path id="Elipse_12361" data-name="Elipse 12361" d="M-4.665-7.5A2.825,2.825,0,0,1-1.83-4.692,2.825,2.825,0,0,1-4.665-1.884,2.825,2.825,0,0,1-7.5-4.692,2.825,2.825,0,0,1-4.665-7.5Zm0,4.065A1.272,1.272,0,0,0-3.382-4.692,1.272,1.272,0,0,0-4.665-5.948,1.272,1.272,0,0,0-5.948-4.692,1.272,1.272,0,0,0-4.665-3.435Z" transform="translate(15.087 13.948)"/>
        </g>
        <g id="Group_1201003" data-name="Group 1201003" transform="translate(1.997 26.399)">
          <g id="Group_1201000" data-name="Group 1201000" transform="translate(34.497)">
            <g id="Group_1200999" data-name="Group 1200999">
              <path id="Trazado_1242765" data-name="Trazado 1242765" d="M361.409,264.338a11.632,11.632,0,0,1,11.619,11.619,2.189,2.189,0,1,1-4.379,0,7.248,7.248,0,0,0-7.24-7.24,2.189,2.189,0,1,1,0-4.379Zm9.429,12.256a.638.638,0,0,0,.638-.638,10.078,10.078,0,0,0-10.067-10.067.638.638,0,0,0,0,1.275,8.8,8.8,0,0,1,8.792,8.792.637.637,0,0,0,.638.638Z" transform="translate(-358.554 -264.338)"/>
              <path id="Trazado_1242766" data-name="Trazado 1242766" d="M359.686,325.421h0a2.189,2.189,0,0,1-2.189-2.189,2.528,2.528,0,0,0-2.528-2.528,2.189,2.189,0,0,1,0-4.379,6.907,6.907,0,0,1,6.907,6.907A2.192,2.192,0,0,1,359.686,325.421Zm-4.718-7.545a.638.638,0,1,0,0,1.275,4.08,4.08,0,0,1,4.08,4.08.638.638,0,0,0,1.275,0,5.355,5.355,0,0,0-5.355-5.355Z" transform="translate(-352.779 -310.947)"/>
            </g>
          </g>
          <g id="Group_1201002" data-name="Group 1201002">
            <g id="Group_1201001" data-name="Group 1201001">
              <path id="Trazado_1242767" data-name="Trazado 1242767" d="M30.92,264.338a2.189,2.189,0,0,1,0,4.379,7.249,7.249,0,0,0-7.24,7.24,2.189,2.189,0,1,1-4.379,0A11.632,11.632,0,0,1,30.92,264.338ZM21.49,276.594a.637.637,0,0,0,.638-.637,8.8,8.8,0,0,1,8.792-8.792.638.638,0,1,0,0-1.275,10.078,10.078,0,0,0-10.067,10.067A.638.638,0,0,0,21.49,276.594Z" transform="translate(-19.301 -264.338)"/>
              <path id="Trazado_1242768" data-name="Trazado 1242768" d="M73.477,325.421h0a2.192,2.192,0,0,1-2.189-2.189,6.907,6.907,0,0,1,6.907-6.907,2.189,2.189,0,1,1,0,4.379,2.528,2.528,0,0,0-2.528,2.528,2.189,2.189,0,0,1-2.189,2.189Zm4.717-7.545a5.355,5.355,0,0,0-5.355,5.355.638.638,0,0,0,1.275,0,4.08,4.08,0,0,1,4.08-4.08.638.638,0,1,0,0-1.275Z" transform="translate(-65.909 -310.947)"/>
            </g>
          </g>
        </g>
      </g>
    </g>
  </g>
</svg>
