<svg xmlns="http://www.w3.org/2000/svg" xmlns:xlink="http://www.w3.org/1999/xlink" width="98" height="98" viewBox="0 0 98 98">
  <defs>
    <filter id="Path_874925" x="0" y="0" width="98" height="98" filterUnits="userSpaceOnUse">
      <feOffset dy="3" input="SourceAlpha"/>
      <feGaussianBlur stdDeviation="3" result="blur"/>
      <feFlood flood-opacity="0.161"/>
      <feComposite operator="in" in2="blur"/>
      <feComposite in="SourceGraphic"/>
    </filter>
    <clipPath id="clip-path">
      <path id="path2331" d="M0-682.665H45.4v45.4H0Z" transform="translate(0 682.665)"/>
    </clipPath>
  </defs>
  <g id="Group_1201007" data-name="Group 1201007" transform="translate(-164 9561.999)">
    <g id="Group_1201005" data-name="Group 1201005" transform="translate(-587 -19042.008)">
      <g id="Group_1200825" data-name="Group 1200825" transform="translate(475 3388.602)">
        <g id="Group_1187153" data-name="Group 1187153">
          <g id="Group_1182177" data-name="Group 1182177">
            <g id="Group_1181903" data-name="Group 1181903">
              <g id="Group_1181438" data-name="Group 1181438">
                <g id="Group_1111314" data-name="Group 1111314" transform="translate(-734.73 3020.407)">
                  <g transform="matrix(1, 0, 0, 1, 1010.73, 3071)" filter="url(#Path_874925)">
                    <g id="Path_874925-2" data-name="Path 874925" transform="translate(9 6)" fill="#ffc94a">
                      <path d="M 39.99997329711914 78.50040435791016 C 34.80184936523438 78.50040435791016 29.76000595092773 77.48268127441406 25.01450729370117 75.47550201416016 C 20.43013954162598 73.53648376464844 16.3126392364502 70.76027679443359 12.7763843536377 67.22402191162109 C 9.240128517150879 63.68776702880859 6.463928699493408 59.57027053833008 4.524906635284424 54.98590087890625 C 2.517728805541992 50.24040222167969 1.500006675720215 45.19855880737305 1.500006675720215 40.00043487548828 C 1.500006675720215 34.80185699462891 2.517728805541992 29.76001358032227 4.524906635284424 25.01451301574707 C 6.463928699493408 20.43013572692871 9.240128517150879 16.31263542175293 12.7763843536377 12.77637958526611 C 16.3126392364502 9.240124702453613 20.43013954162598 6.463935375213623 25.01450729370117 4.52490234375 C 29.76000595092773 2.517724514007568 34.80184936523438 1.500002145767212 39.99997329711914 1.500002145767212 C 45.19809722900391 1.500002145767212 50.23994064331055 2.517724514007568 54.98543930053711 4.52490234375 C 59.56981658935547 6.463935375213623 63.68731689453125 9.240124702453613 67.22357177734375 12.77637958526611 C 70.75982666015625 16.31263542175293 73.53601837158203 20.43013572692871 75.47505187988281 25.01451301574707 C 77.48223114013672 29.76001358032227 78.49995422363281 34.80185699462891 78.49995422363281 39.99998092651367 C 78.49995422363281 45.19855880737305 77.48223114013672 50.24040222167969 75.47505187988281 54.98590087890625 C 73.53601837158203 59.57027053833008 70.75982666015625 63.68776702880859 67.22357177734375 67.22402191162109 C 63.68731689453125 70.76027679443359 59.56981658935547 73.53648376464844 54.98543930053711 75.47550201416016 C 50.23994064331055 77.48268127441406 45.19809722900391 78.50040435791016 39.99997329711914 78.50040435791016 Z" stroke="none"/>
                      <path d="M 39.99997329711914 3 C 35.00369262695312 3 30.15843963623047 3.977851867675781 25.59883880615234 5.906417846679688 C 21.19326782226562 7.769813537597656 17.23602676391602 10.43805694580078 13.83704376220703 13.83704376220703 C 10.43805694580078 17.23601531982422 7.769813537597656 21.19325637817383 5.906410217285156 25.59882736206055 C 3.977851867675781 30.15844345092773 3 35.00368118286133 3 40.00042724609375 C 3 44.99672317504883 3.977851867675781 49.84196472167969 5.906410217285156 54.40157318115234 C 7.769813537597656 58.80714797973633 10.43805694580078 62.76438903808594 13.83704376220703 66.16336059570312 C 17.23602676391602 69.56234741210938 21.19326782226562 72.2305908203125 25.59883880615234 74.09398651123047 C 30.15843963623047 76.02255249023438 35.00369262695312 77.00040435791016 39.99997329711914 77.00040435791016 C 44.99625396728516 77.00040435791016 49.84150695800781 76.02255249023438 54.40110778808594 74.09398651123047 C 58.80667877197266 72.2305908203125 62.76391983032227 69.56234741210938 66.16290283203125 66.16336059570312 C 69.5618896484375 62.76438903808594 72.23013305664062 58.80714797973633 74.09353637695312 54.40157318115234 C 76.0220947265625 49.84196472167969 76.99994659423828 44.99672317504883 76.99994659423828 39.99997711181641 C 76.99994659423828 35.00368118286133 76.0220947265625 30.15844345092773 74.09353637695312 25.59882736206055 C 72.23013305664062 21.19325637817383 69.5618896484375 17.23601531982422 66.16290283203125 13.83704376220703 C 62.76391983032227 10.43805694580078 58.80667877197266 7.769813537597656 54.40110778808594 5.906417846679688 C 49.84150695800781 3.977851867675781 44.99625396728516 3 39.99997329711914 3 M 39.99997329711914 0 C 62.09134674072266 0 79.99994659423828 17.90858840942383 79.99994659423828 39.99997711181641 L 79.99994659423828 40.00042724609375 C 79.99994659423828 62.09181594848633 62.09134674072266 80.00040435791016 39.99997329711914 80.00040435791016 C 17.90859985351562 80.00040435791016 0 62.09181594848633 0 40.00042724609375 L 0 39.99997711181641 C 0 17.90858840942383 17.90859985351562 0 39.99997329711914 0 Z" stroke="none" fill="#fff"/>
                    </g>
                  </g>
                </g>
              </g>
            </g>
          </g>
        </g>
      </g>
    </g>
    <g id="g2313" transform="translate(190.402 -8856.035)">
      <g id="g2315" transform="translate(4.786 -682)">
        <path id="path2317" d="M-359.23,0l-2.559,2.687L-364.348,0l-2.559,2.687L-369.467,0l-2.559,2.687L-374.586,0l-2.559,2.687L-379.7,0l-2.559,2.687L-384.823,0V44.072h25.593Z" transform="translate(384.823)" fill="#12263f"/>
      </g>
      <g id="g2319" transform="translate(30.379 -682)">
        <path id="path2321" d="M-143.692,0l-2.559,2.687L-148.81,0l-2.559,2.687L-153.929,0V44.072h10.237Z" transform="translate(153.929)" fill="#727997"/>
      </g>
      <g id="g2323" transform="translate(38.914 -682)">
        <path id="path2325" d="M0-25.084V17.2H1.7V-26.871Z" transform="translate(0 26.871)" fill="#aa7a63"/>
      </g>
      <g id="g2327" transform="translate(0 -682.665)">
        <g id="g2329" clip-path="url(#clip-path)">
          <g id="g2335" transform="translate(4.121 0)">
            <path id="path2337" d="M-440.407-577.467l3.349,2.93h-6.7Zm5.118-33.7a.665.665,0,0,0,.665-.665v-6.115a.665.665,0,0,0-.418-.617.665.665,0,0,0-.729.159l-2.078,2.181-2.078-2.181a.665.665,0,0,0-.482-.206.665.665,0,0,0-.482.206l-2.078,2.181-2.078-2.181a.233.233,0,0,0-.026-.023.66.66,0,0,0-.209-.136.665.665,0,0,0-.729.159l-2.078,2.181-2.078-2.181a.665.665,0,0,0-.482-.206.666.666,0,0,0-.482.206l-2.078,2.181-2.078-2.181a.665.665,0,0,0-.482-.206.665.665,0,0,0-.482.206l-2.078,2.181L-460.4-618.4a.665.665,0,0,0-.482-.206.665.665,0,0,0-.482.206l-2.078,2.181-2.078-2.181a.666.666,0,0,0-.482-.206.665.665,0,0,0-.482.206l-2.078,2.181-2.078-2.181a.665.665,0,0,0-.729-.159.665.665,0,0,0-.418.617v6.115a.665.665,0,0,0,.665.665.665.665,0,0,0,.665-.665v-4.453l1.413,1.483a.665.665,0,0,0,.482.206.665.665,0,0,0,.482-.206L-466-616.98l2.078,2.181a.665.665,0,0,0,.482.206.665.665,0,0,0,.482-.206l2.078-2.181,2.078,2.181a.665.665,0,0,0,.482.206.665.665,0,0,0,.482-.206l2.078-2.181,2.078,2.181a.665.665,0,0,0,.482.206.665.665,0,0,0,.482-.206l2.078-2.181,2.078,2.181a.665.665,0,0,0,.482.206h0a.665.665,0,0,0,.482-.206l1.413-1.483v23.431a.665.665,0,0,0,.665.665.665.665,0,0,0,.665-.665v-23.431l1.413,1.483a.665.665,0,0,0,.482.206.665.665,0,0,0,.482-.206l1.412-1.483v37.628l-3.788,3.315v-14.4a.665.665,0,0,0-.665-.665.665.665,0,0,0-.665.665v15.2h-24.263v-34.179a.665.665,0,0,0-.665-.665.665.665,0,0,0-.665.665v34.844a.665.665,0,0,0,.665.665h35.83a.665.665,0,0,0,.665-.665v-34.844a.665.665,0,0,0-.665-.665.665.665,0,0,0-.665.665v33.378l-3.788-3.315v-37.629l1.413,1.483a.665.665,0,0,0,.482.206.665.665,0,0,0,.482-.206l1.413-1.483v4.453a.665.665,0,0,0,.665.665" transform="translate(471.784 618.609)"/>
          </g>
        </g>
      </g>
    </g>
  </g>
</svg>
