<svg xmlns="http://www.w3.org/2000/svg" xmlns:xlink="http://www.w3.org/1999/xlink" width="98" height="98" viewBox="0 0 98 98">
  <defs>
    <filter id="Path_874925" x="0" y="0" width="98" height="98" filterUnits="userSpaceOnUse">
      <feOffset dy="3" input="SourceAlpha"/>
      <feGaussianBlur stdDeviation="3" result="blur"/>
      <feFlood flood-opacity="0.161"/>
      <feComposite operator="in" in2="blur"/>
      <feComposite in="SourceGraphic"/>
    </filter>
  </defs>
  <g id="Group_1200926" data-name="Group 1200926" transform="translate(-1171 -9876.008)">
    <g id="Group_1200829" data-name="Group 1200829" transform="translate(895 3784.602)">
      <g id="Group_1187153" data-name="Group 1187153">
        <g id="Group_1182177" data-name="Group 1182177">
          <g id="Group_1181903" data-name="Group 1181903">
            <g id="Group_1181438" data-name="Group 1181438">
              <g id="Group_1111314" data-name="Group 1111314" transform="translate(-734.73 3020.407)">
                <g transform="matrix(1, 0, 0, 1, 1010.73, 3071)" filter="url(#Path_874925)">
                  <g id="Path_874925-2" data-name="Path 874925" transform="translate(9 6)" fill="#ffc94a">
                    <path d="M 39.99997329711914 78.50040435791016 C 34.80184936523438 78.50040435791016 29.76000595092773 77.48268127441406 25.01450729370117 75.47550201416016 C 20.43013954162598 73.53648376464844 16.3126392364502 70.76027679443359 12.7763843536377 67.22402191162109 C 9.240128517150879 63.68776702880859 6.463928699493408 59.57027053833008 4.524906635284424 54.98590087890625 C 2.517728805541992 50.24040222167969 1.500006675720215 45.19855880737305 1.500006675720215 40.00043487548828 C 1.500006675720215 34.80185699462891 2.517728805541992 29.76001358032227 4.524906635284424 25.01451301574707 C 6.463928699493408 20.43013572692871 9.240128517150879 16.31263542175293 12.7763843536377 12.77637958526611 C 16.3126392364502 9.240124702453613 20.43013954162598 6.463935375213623 25.01450729370117 4.52490234375 C 29.76000595092773 2.517724514007568 34.80184936523438 1.500002145767212 39.99997329711914 1.500002145767212 C 45.19809722900391 1.500002145767212 50.23994064331055 2.517724514007568 54.98543930053711 4.52490234375 C 59.56981658935547 6.463935375213623 63.68731689453125 9.240124702453613 67.22357177734375 12.77637958526611 C 70.75982666015625 16.31263542175293 73.53601837158203 20.43013572692871 75.47505187988281 25.01451301574707 C 77.48223114013672 29.76001358032227 78.49995422363281 34.80185699462891 78.49995422363281 39.99998092651367 C 78.49995422363281 45.19855880737305 77.48223114013672 50.24040222167969 75.47505187988281 54.98590087890625 C 73.53601837158203 59.57027053833008 70.75982666015625 63.68776702880859 67.22357177734375 67.22402191162109 C 63.68731689453125 70.76027679443359 59.56981658935547 73.53648376464844 54.98543930053711 75.47550201416016 C 50.23994064331055 77.48268127441406 45.19809722900391 78.50040435791016 39.99997329711914 78.50040435791016 Z" stroke="none"/>
                    <path d="M 39.99997329711914 3 C 35.00369262695312 3 30.15843963623047 3.977851867675781 25.59883880615234 5.906417846679688 C 21.19326782226562 7.769813537597656 17.23602676391602 10.43805694580078 13.83704376220703 13.83704376220703 C 10.43805694580078 17.23601531982422 7.769813537597656 21.19325637817383 5.906410217285156 25.59882736206055 C 3.977851867675781 30.15844345092773 3 35.00368118286133 3 40.00042724609375 C 3 44.99672317504883 3.977851867675781 49.84196472167969 5.906410217285156 54.40157318115234 C 7.769813537597656 58.80714797973633 10.43805694580078 62.76438903808594 13.83704376220703 66.16336059570312 C 17.23602676391602 69.56234741210938 21.19326782226562 72.2305908203125 25.59883880615234 74.09398651123047 C 30.15843963623047 76.02255249023438 35.00369262695312 77.00040435791016 39.99997329711914 77.00040435791016 C 44.99625396728516 77.00040435791016 49.84150695800781 76.02255249023438 54.40110778808594 74.09398651123047 C 58.80667877197266 72.2305908203125 62.76391983032227 69.56234741210938 66.16290283203125 66.16336059570312 C 69.5618896484375 62.76438903808594 72.23013305664062 58.80714797973633 74.09353637695312 54.40157318115234 C 76.0220947265625 49.84196472167969 76.99994659423828 44.99672317504883 76.99994659423828 39.99997711181641 C 76.99994659423828 35.00368118286133 76.0220947265625 30.15844345092773 74.09353637695312 25.59882736206055 C 72.23013305664062 21.19325637817383 69.5618896484375 17.23601531982422 66.16290283203125 13.83704376220703 C 62.76391983032227 10.43805694580078 58.80667877197266 7.769813537597656 54.40110778808594 5.906417846679688 C 49.84150695800781 3.977851867675781 44.99625396728516 3 39.99997329711914 3 M 39.99997329711914 0 C 62.09134674072266 0 79.99994659423828 17.90858840942383 79.99994659423828 39.99997711181641 L 79.99994659423828 40.00042724609375 C 79.99994659423828 62.09181594848633 62.09134674072266 80.00040435791016 39.99997329711914 80.00040435791016 C 17.90859985351562 80.00040435791016 0 62.09181594848633 0 40.00042724609375 L 0 39.99997711181641 C 0 17.90858840942383 17.90859985351562 0 39.99997329711914 0 Z" stroke="none" fill="#fff"/>
                  </g>
                </g>
              </g>
            </g>
          </g>
        </g>
      </g>
    </g>
    <g id="papel" transform="translate(1199.56 9901.801)">
      <path id="Path_1242438" data-name="Path 1242438" d="M32.752,50.432H11.536A3.536,3.536,0,0,1,8,46.9V8H29.216V38.056h3.536Zm0,0" transform="translate(-7.116 -7.116)" fill="#b6cbb3"/>
      <path id="Path_1242439" data-name="Path 1242439" d="M25.636,44.2H4.42A4.425,4.425,0,0,1,0,39.78V.884A.884.884,0,0,1,.884,0H22.1a.884.884,0,0,1,.884.884V30.056h2.652a.884.884,0,0,1,.884.884V43.316A.884.884,0,0,1,25.636,44.2ZM1.768,1.768V39.78A2.652,2.652,0,0,0,4.42,42.432H24.752V31.824H22.1a.884.884,0,0,1-.884-.884V1.768Zm0,0" fill="#0a400c"/>
      <path id="Path_1242440" data-name="Path 1242440" d="M200,152h7.072v22.984a3.536,3.536,0,0,1-7.072,0Zm0,0" transform="translate(-177.9 -135.204)" fill="#ccf5ec"/>
      <path id="Path_1242441" data-name="Path 1242441" d="M196.42,172.288a4.425,4.425,0,0,1-4.42-4.42V144.884a.884.884,0,0,1,.884-.884h7.072a.884.884,0,0,1,.884.884v22.984A4.425,4.425,0,0,1,196.42,172.288Zm-2.652-26.52v22.1a2.652,2.652,0,0,0,5.3,0v-22.1Zm0,0" transform="translate(-170.784 -128.088)" fill="#0a400c"/>
      <path id="Path_1242442" data-name="Path 1242442" d="M40,168H54.144v3.536H40Zm0,0" transform="translate(-35.58 -149.436)" fill="#30a064"/>
      <path id="Path_1242443" data-name="Path 1242443" d="M47.028,165.3H32.884A.884.884,0,0,1,32,164.42v-3.536a.884.884,0,0,1,.884-.884H47.028a.884.884,0,0,1,.884.884v3.536A.884.884,0,0,1,47.028,165.3Zm-13.26-1.768H46.144v-1.768H33.768Zm0,0" transform="translate(-28.464 -142.32)" fill="#0a400c"/>
      <path id="Path_1242444" data-name="Path 1242444" d="M120,232h5.3v7.072H120Zm0,0" transform="translate(-106.74 -206.364)" fill="#30a064"/>
      <g id="Group_1200925" data-name="Group 1200925" transform="translate(3.536 19.448)">
        <path id="Path_1242445" data-name="Path 1242445" d="M118.188,232.84h-5.3a.884.884,0,0,1-.884-.884v-7.072a.884.884,0,0,1,.884-.884h5.3a.884.884,0,0,1,.884.884v7.072A.884.884,0,0,1,118.188,232.84Zm-4.42-1.768H117.3v-5.3h-3.536Zm0,0" transform="translate(-103.16 -218.696)" fill="#0a400c"/>
        <path id="Path_1242446" data-name="Path 1242446" d="M38.188,225.768h-5.3a.884.884,0,1,1,0-1.768h5.3a.884.884,0,1,1,0,1.768Zm0,0" transform="translate(-32 -218.696)" fill="#0a400c"/>
        <path id="Path_1242447" data-name="Path 1242447" d="M38.188,257.768h-5.3a.884.884,0,1,1,0-1.768h5.3a.884.884,0,1,1,0,1.768Zm0,0" transform="translate(-32 -247.16)" fill="#0a400c"/>
        <path id="Path_1242448" data-name="Path 1242448" d="M38.188,289.768h-5.3a.884.884,0,1,1,0-1.768h5.3a.884.884,0,1,1,0,1.768Zm0,0" transform="translate(-32 -275.624)" fill="#0a400c"/>
        <path id="Path_1242449" data-name="Path 1242449" d="M196.42,305.768h-3.536a.884.884,0,0,1,0-1.768h3.536a.884.884,0,1,1,0,1.768Zm0,0" transform="translate(-174.32 -289.856)" fill="#0a400c"/>
        <path id="Path_1242450" data-name="Path 1242450" d="M196.42,273.768h-3.536a.884.884,0,1,1,0-1.768h3.536a.884.884,0,1,1,0,1.768Zm0,0" transform="translate(-174.32 -261.392)" fill="#0a400c"/>
        <path id="Path_1242451" data-name="Path 1242451" d="M196.42,241.768h-3.536a.884.884,0,0,1,0-1.768h3.536a.884.884,0,1,1,0,1.768Zm0,0" transform="translate(-174.32 -232.928)" fill="#0a400c"/>
        <path id="Path_1242452" data-name="Path 1242452" d="M196.42,209.768h-3.536a.884.884,0,0,1,0-1.768h3.536a.884.884,0,1,1,0,1.768Zm0,0" transform="translate(-174.32 -204.464)" fill="#0a400c"/>
        <path id="Path_1242453" data-name="Path 1242453" d="M196.42,177.768h-3.536a.884.884,0,0,1,0-1.768h3.536a.884.884,0,1,1,0,1.768Zm0,0" transform="translate(-174.32 -176)" fill="#0a400c"/>
        <path id="Path_1242454" data-name="Path 1242454" d="M47.028,321.768H32.884a.884.884,0,1,1,0-1.768H47.028a.884.884,0,1,1,0,1.768Zm0,0" transform="translate(-32 -304.088)" fill="#0a400c"/>
        <path id="Path_1242455" data-name="Path 1242455" d="M47.028,353.768H32.884a.884.884,0,0,1,0-1.768H47.028a.884.884,0,0,1,0,1.768Zm0,0" transform="translate(-32 -332.552)" fill="#0a400c"/>
      </g>
      <path id="Path_1242456" data-name="Path 1242456" d="M40,40h5.3v3.536H40Zm0,0" transform="translate(-35.58 -35.58)" fill="#30a064"/>
      <path id="Path_1242457" data-name="Path 1242457" d="M38.188,37.3h-5.3A.884.884,0,0,1,32,36.42V32.884A.884.884,0,0,1,32.884,32h5.3a.884.884,0,0,1,.884.884V36.42A.884.884,0,0,1,38.188,37.3Zm-4.42-1.768H37.3V33.768H33.768Zm0,0" transform="translate(-28.464 -28.464)" fill="#0a400c"/>
      <path id="Path_1242458" data-name="Path 1242458" d="M47.028,97.768H32.884a.884.884,0,1,1,0-1.768H47.028a.884.884,0,1,1,0,1.768Zm0,0" transform="translate(-28.464 -85.392)" fill="#0a400c"/>
      <path id="Path_1242459" data-name="Path 1242459" d="M118.188,65.768h-5.3a.884.884,0,0,1,0-1.768h5.3a.884.884,0,0,1,0,1.768Zm0,0" transform="translate(-99.624 -56.928)" fill="#0a400c"/>
      <path id="Path_1242460" data-name="Path 1242460" d="M118.188,33.768h-5.3a.884.884,0,0,1,0-1.768h5.3a.884.884,0,0,1,0,1.768Zm0,0" transform="translate(-99.624 -28.464)" fill="#0a400c"/>
      <path id="Path_1242461" data-name="Path 1242461" d="M47.028,129.768H32.884a.884.884,0,0,1,0-1.768H47.028a.884.884,0,0,1,0,1.768Zm0,0" transform="translate(-28.464 -113.856)" fill="#0a400c"/>
      <path id="Path_1242462" data-name="Path 1242462" d="M196.42,337.768h-3.536a.884.884,0,1,1,0-1.768h3.536a.884.884,0,1,1,0,1.768Zm0,0" transform="translate(-170.784 -298.872)" fill="#0a400c"/>
      <path id="Path_1242463" data-name="Path 1242463" d="M249.68,240.84a8.84,8.84,0,1,1-8.84-8.84A8.84,8.84,0,0,1,249.68,240.84Zm0,0" transform="translate(-206.364 -206.364)" fill="#c0ff4e"/>
      <path id="Path_1242464" data-name="Path 1242464" d="M233.724,243.448a9.724,9.724,0,1,1,9.724-9.724A9.724,9.724,0,0,1,233.724,243.448Zm0-17.68a7.956,7.956,0,1,0,7.956,7.956A7.956,7.956,0,0,0,233.724,225.768Zm0,0" transform="translate(-199.248 -199.248)" fill="#0a400c"/>
      <path id="Path_1242465" data-name="Path 1242465" d="M278.41,263.07a.884.884,0,0,1-.884-.884,4.42,4.42,0,0,0-7.715-2.946.884.884,0,0,1-1.317-1.179,6.188,6.188,0,0,1,10.8,4.126A.884.884,0,0,1,278.41,263.07Zm0,0" transform="translate(-238.63 -227.71)" fill="#0a400c"/>
      <path id="Path_1242466" data-name="Path 1242466" d="M341.3,308.785h-5.306l2.653,2.652Zm0,0" transform="translate(-298.865 -274.664)" fill="#0a400c"/>
      <path id="Path_1242467" data-name="Path 1242467" d="M262.188,311.072A6.2,6.2,0,0,1,256,304.884a.884.884,0,1,1,1.768,0,4.42,4.42,0,0,0,7.715,2.946.884.884,0,1,1,1.317,1.179A6.2,6.2,0,0,1,262.188,311.072Zm0,0" transform="translate(-227.712 -270.408)" fill="#0a400c"/>
      <path id="Path_1242468" data-name="Path 1242468" d="M239.992,293.867H245.3l-2.653-2.652Zm0,0" transform="translate(-213.473 -259.036)" fill="#0a400c"/>
      <path id="Path_1242469" data-name="Path 1242469" d="M320.884,53.3a.884.884,0,0,1,0-1.768c.578,0,.884-.918.884-2.652a.884.884,0,0,1,1.768,0C323.536,51.817,322.644,53.3,320.884,53.3Zm0,0" transform="translate(-284.64 -42.696)" fill="#0a400c"/>
      <path id="Path_1242470" data-name="Path 1242470" d="M344,13.3S344,8,349.3,8C349.3,8,349.3,13.3,344,13.3Zm0,0" transform="translate(-305.988 -7.116)" fill="#c0ff4e"/>
      <path id="Path_1242471" data-name="Path 1242471" d="M336.884,7.072A.884.884,0,0,1,336,6.188,5.966,5.966,0,0,1,342.188,0a.884.884,0,0,1,.884.884A5.966,5.966,0,0,1,336.884,7.072ZM341.19,1.85a4.019,4.019,0,0,0-3.308,3.372A4.019,4.019,0,0,0,341.19,1.85Zm0,0" transform="translate(-298.872)" fill="#0a400c"/>
      <path id="Path_1242472" data-name="Path 1242472" d="M301.3,13.3S296,13.3,296,8C296,8,301.3,8,301.3,13.3Zm0,0" transform="translate(-263.292 -7.116)" fill="#c0ff4e"/>
      <path id="Path_1242473" data-name="Path 1242473" d="M294.188,7.072A5.966,5.966,0,0,1,288,.884.884.884,0,0,1,288.884,0a5.966,5.966,0,0,1,6.188,6.188A.884.884,0,0,1,294.188,7.072Zm-4.338-5.19a4.019,4.019,0,0,0,3.372,3.308A4.019,4.019,0,0,0,289.85,1.882Zm0,0" transform="translate(-256.176 0)" fill="#0a400c"/>
      <path id="Path_1242474" data-name="Path 1242474" d="M236.42,33.768h-3.536a.884.884,0,1,1,0-1.768h3.536a.884.884,0,1,1,0,1.768Zm0,0" transform="translate(-206.364 -28.464)" fill="#0a400c"/>
      <path id="Path_1242475" data-name="Path 1242475" d="M236.42,57.768h-3.536a.884.884,0,1,1,0-1.768h3.536a.884.884,0,1,1,0,1.768Zm0,0" transform="translate(-206.364 -49.812)" fill="#0a400c"/>
    </g>
  </g>
</svg>
