<svg xmlns="http://www.w3.org/2000/svg" xmlns:xlink="http://www.w3.org/1999/xlink" width="98" height="98" viewBox="0 0 98 98">
  <defs>
    <filter id="Path_874925" x="0" y="0" width="98" height="98" filterUnits="userSpaceOnUse">
      <feOffset dy="3" input="SourceAlpha"/>
      <feGaussianBlur stdDeviation="3" result="blur"/>
      <feFlood flood-opacity="0.161"/>
      <feComposite operator="in" in2="blur"/>
      <feComposite in="SourceGraphic"/>
    </filter>
  </defs>
  <g id="Group_1200919" data-name="Group 1200919" transform="translate(-1171.051 -9480)">
    <g id="Group_1200826" data-name="Group 1200826" transform="translate(895.051 3388.593)">
      <g id="Group_1187153" data-name="Group 1187153">
        <g id="Group_1182177" data-name="Group 1182177">
          <g id="Group_1181903" data-name="Group 1181903">
            <g id="Group_1181438" data-name="Group 1181438">
              <g id="Group_1111314" data-name="Group 1111314" transform="translate(-734.73 3020.407)">
                <g transform="matrix(1, 0, 0, 1, 1010.73, 3071)" filter="url(#Path_874925)">
                  <g id="Path_874925-2" data-name="Path 874925" transform="translate(9 6)" fill="#ffc94a">
                    <path d="M 39.99997329711914 78.50040435791016 C 34.80184936523438 78.50040435791016 29.76000595092773 77.48268127441406 25.01450729370117 75.47550201416016 C 20.43013954162598 73.53648376464844 16.3126392364502 70.76027679443359 12.7763843536377 67.22402191162109 C 9.240128517150879 63.68776702880859 6.463928699493408 59.57027053833008 4.524906635284424 54.98590087890625 C 2.517728805541992 50.24040222167969 1.500006675720215 45.19855880737305 1.500006675720215 40.00043487548828 C 1.500006675720215 34.80185699462891 2.517728805541992 29.76001358032227 4.524906635284424 25.01451301574707 C 6.463928699493408 20.43013572692871 9.240128517150879 16.31263542175293 12.7763843536377 12.77637958526611 C 16.3126392364502 9.240124702453613 20.43013954162598 6.463935375213623 25.01450729370117 4.52490234375 C 29.76000595092773 2.517724514007568 34.80184936523438 1.500002145767212 39.99997329711914 1.500002145767212 C 45.19809722900391 1.500002145767212 50.23994064331055 2.517724514007568 54.98543930053711 4.52490234375 C 59.56981658935547 6.463935375213623 63.68731689453125 9.240124702453613 67.22357177734375 12.77637958526611 C 70.75982666015625 16.31263542175293 73.53601837158203 20.43013572692871 75.47505187988281 25.01451301574707 C 77.48223114013672 29.76001358032227 78.49995422363281 34.80185699462891 78.49995422363281 39.99998092651367 C 78.49995422363281 45.19855880737305 77.48223114013672 50.24040222167969 75.47505187988281 54.98590087890625 C 73.53601837158203 59.57027053833008 70.75982666015625 63.68776702880859 67.22357177734375 67.22402191162109 C 63.68731689453125 70.76027679443359 59.56981658935547 73.53648376464844 54.98543930053711 75.47550201416016 C 50.23994064331055 77.48268127441406 45.19809722900391 78.50040435791016 39.99997329711914 78.50040435791016 Z" stroke="none"/>
                    <path d="M 39.99997329711914 3 C 35.00369262695312 3 30.15843963623047 3.977851867675781 25.59883880615234 5.906417846679688 C 21.19326782226562 7.769813537597656 17.23602676391602 10.43805694580078 13.83704376220703 13.83704376220703 C 10.43805694580078 17.23601531982422 7.769813537597656 21.19325637817383 5.906410217285156 25.59882736206055 C 3.977851867675781 30.15844345092773 3 35.00368118286133 3 40.00042724609375 C 3 44.99672317504883 3.977851867675781 49.84196472167969 5.906410217285156 54.40157318115234 C 7.769813537597656 58.80714797973633 10.43805694580078 62.76438903808594 13.83704376220703 66.16336059570312 C 17.23602676391602 69.56234741210938 21.19326782226562 72.2305908203125 25.59883880615234 74.09398651123047 C 30.15843963623047 76.02255249023438 35.00369262695312 77.00040435791016 39.99997329711914 77.00040435791016 C 44.99625396728516 77.00040435791016 49.84150695800781 76.02255249023438 54.40110778808594 74.09398651123047 C 58.80667877197266 72.2305908203125 62.76391983032227 69.56234741210938 66.16290283203125 66.16336059570312 C 69.5618896484375 62.76438903808594 72.23013305664062 58.80714797973633 74.09353637695312 54.40157318115234 C 76.0220947265625 49.84196472167969 76.99994659423828 44.99672317504883 76.99994659423828 39.99997711181641 C 76.99994659423828 35.00368118286133 76.0220947265625 30.15844345092773 74.09353637695312 25.59882736206055 C 72.23013305664062 21.19325637817383 69.5618896484375 17.23601531982422 66.16290283203125 13.83704376220703 C 62.76391983032227 10.43805694580078 58.80667877197266 7.769813537597656 54.40110778808594 5.906417846679688 C 49.84150695800781 3.977851867675781 44.99625396728516 3 39.99997329711914 3 M 39.99997329711914 0 C 62.09134674072266 0 79.99994659423828 17.90858840942383 79.99994659423828 39.99997711181641 L 79.99994659423828 40.00042724609375 C 79.99994659423828 62.09181594848633 62.09134674072266 80.00040435791016 39.99997329711914 80.00040435791016 C 17.90859985351562 80.00040435791016 0 62.09181594848633 0 40.00042724609375 L 0 39.99997711181641 C 0 17.90858840942383 17.90859985351562 0 39.99997329711914 0 Z" stroke="none" fill="#fff"/>
                  </g>
                </g>
              </g>
            </g>
          </g>
        </g>
      </g>
    </g>
    <g id="Recycle_Bag" data-name="Recycle Bag" transform="translate(1193.051 9500.002)">
      <path id="Path_1242403" data-name="Path 1242403" d="M46.885,3v8.1l-1.62,10.531,1.62,4.861L45.265,35.4l1.62,8.911v5.671l-5.671-1.62-7.291,1.62-6.481-1.62-6.481,1.62-7.291-1.62L8,49.986V42.7l1.62-4.861L8,26.493l1.62-9.721L8,11.1V3l5.671,1.62L20.152,3l7.291,1.62L34.734,3l6.481,1.62Z" transform="translate(-0.19 -0.19)" fill="#c0ab91"/>
      <path id="Path_1242404" data-name="Path 1242404" d="M46.885,3V7.861H8V3l5.671,1.62L20.152,3l7.291,1.62L34.734,3l6.481,1.62Z" transform="translate(-0.19 -0.19)" fill="#a78966"/>
      <path id="Path_1242405" data-name="Path 1242405" d="M46.885,56.62v3.24l-5.671-1.62-7.291,1.62-6.481-1.62-6.481,1.62-7.291-1.62L8,59.861V56.62L13.671,55l7.291,1.62L27.443,55l6.481,1.62L41.214,55Z" transform="translate(-0.19 -10.065)" fill="#a78966"/>
      <path id="Path_1242406" data-name="Path 1242406" d="M54.861,11.1,53.24,21.632l1.62,4.861L53.24,35.4l1.62,8.911v5.671l-3.24-.924V44.315L50,35.4l1.62-8.911L50,21.632,51.62,11.1V3.924L54.861,3Z" transform="translate(-8.165 -0.19)" fill="#b39a7c"/>
      <path id="Path_1242407" data-name="Path 1242407" d="M54.243,56.62v3.24L51,58.937V56.62L46.75,55.405,48.573,55Z" transform="translate(-7.548 -10.065)" fill="#957856"/>
      <path id="Path_1242408" data-name="Path 1242408" d="M55.24,3V7.861H52V3.924Z" transform="translate(-8.545 -0.19)" fill="#957856"/>
      <path id="Path_1242409" data-name="Path 1242409" d="M40.085,35.03l2.762,4.545-4.61,7.583H33.62v1.215L32,44.727l1.62-3.645V42.3h5.193l-2.73-4.5,2.09-1.45Z" transform="translate(-4.747 -6.272)" fill="#009698"/>
      <path id="Path_1242410" data-name="Path 1242410" d="M37.593,29.941l-1.936,3.354-3.791.8.859-.616-2.179-3.589-2.317,3.816-1.912-1.32L24.34,31.018,26.778,27h7.534l2.244,3.694Z" transform="translate(-3.293 -4.748)" fill="#009698"/>
      <path id="Path_1242411" data-name="Path 1242411" d="M38.481,13v1.62A6.481,6.481,0,0,1,32,21.1v-1.62A6.481,6.481,0,0,1,38.481,13Z" transform="translate(-4.747 -2.089)" fill="#ccfc5c"/>
      <path id="Path_1242412" data-name="Path 1242412" d="M38.481,13v1.62A6.481,6.481,0,0,1,32,21.1v-1.62a1.692,1.692,0,0,1,.008-.2A6.481,6.481,0,0,0,36.852,13.2a6.741,6.741,0,0,1,1.628-.2Z" transform="translate(-4.747 -2.089)" fill="#a4e276"/>
      <path id="Path_1242413" data-name="Path 1242413" d="M30.481,19.481V21.1A6.481,6.481,0,0,1,24,14.62V13A6.481,6.481,0,0,1,30.481,19.481Z" transform="translate(-3.228 -2.089)" fill="#ccfc5c"/>
      <path id="Path_1242414" data-name="Path 1242414" d="M27.837,44.638v2.43H23.22l-4.61-7.583,2.6-4.269-.932-.656,3.913.761,2.058,3.419L25.2,38l-2.552,4.2h5.193Z" transform="translate(-2.205 -6.183)" fill="#009698"/>
      <path id="Path_1242415" data-name="Path 1242415" d="M47.505,10.911V2.81a.821.821,0,0,0-.324-.648.786.786,0,0,0-.7-.13L41.008,3.588l-6.27-1.564a.827.827,0,0,0-.373-.008L27.253,3.6,20.14,2.016a.827.827,0,0,0-.373.008L13.5,3.588,8.029,2.032a.786.786,0,0,0-.7.13A.821.821,0,0,0,7,2.81v8.1a.648.648,0,0,0,.032.219L8.6,16.63l-1.6,9.543a1.215,1.215,0,0,0,0,.243L8.6,37.572,7.04,42.246A.96.96,0,0,0,7,42.505V49.8a.821.821,0,0,0,.324.648.786.786,0,0,0,.7.13l5.476-1.564,7.088,1.58a.825.825,0,0,0,.373-.008l6.286-1.572,6.286,1.572a.827.827,0,0,0,.373.008L41,49.01l5.476,1.564a.682.682,0,0,0,.219.032.81.81,0,0,0,.81-.81V44.125a.892.892,0,0,0-.016-.146L45.9,35.214l1.588-8.765a.855.855,0,0,0-.024-.405l-1.555-4.674L47.5,11.032A.614.614,0,0,0,47.505,10.911Zm-1.62,37.808L41.243,47.4a.816.816,0,0,0-.4-.016l-7.1,1.58L27.447,47.39a.79.79,0,0,0-.389,0l-6.295,1.572-7.1-1.58a.821.821,0,0,0-.4.016L8.62,48.719V47.163l4.885-1.393,7.088,1.58a.825.825,0,0,0,.373-.008l6.286-1.572,6.286,1.572a.8.8,0,0,0,.194.024,1.325,1.325,0,0,0,.178-.016L41,45.77l4.885,1.393Zm0-37.873L44.273,21.321a.872.872,0,0,0,.032.381l1.555,4.658-1.58,8.709a.592.592,0,0,0,0,.292l1.6,8.838v1.28l-4.642-1.32a.816.816,0,0,0-.4-.016l-7.1,1.58L27.447,44.15a.79.79,0,0,0-.389,0l-6.295,1.572-7.1-1.58a.821.821,0,0,0-.4.016L8.62,45.478V42.635L10.2,37.9a.836.836,0,0,0,.032-.373l-1.6-11.22,1.6-9.6a.847.847,0,0,0-.024-.348L8.62,10.8V8.481H45.885Zm0-3.986H8.62V3.887l4.642,1.32a.793.793,0,0,0,.413.008L19.97,3.644l7.1,1.58a.881.881,0,0,0,.356,0l7.1-1.58L40.83,5.216a.793.793,0,0,0,.413-.008l4.642-1.32Z" transform="translate(0 0)"/>
      <path id="Path_1242416" data-name="Path 1242416" d="M40.583,34.42a.81.81,0,0,0-1.154-.243l-4,2.771a.81.81,0,0,0-.231,1.087L37.183,41.3H34.241v-.405a.81.81,0,0,0-1.551-.329l-1.62,3.645a.816.816,0,0,0,0,.658l1.62,3.645a.81.81,0,0,0,.74.481.862.862,0,0,0,.168-.017.81.81,0,0,0,.642-.793v-.405h3.808a.81.81,0,0,0,.693-.389l4.609-7.579a.81.81,0,0,0,0-.842Zm-2.99,11.738H33.417l-.715-1.62.719-1.62h5.2a.81.81,0,0,0,.693-1.231l-2.338-3.843L39.646,36l2.063,3.394Z" transform="translate(-4.558 -6.083)"/>
      <path id="Path_1242417" data-name="Path 1242417" d="M36.93,29.094l-.329.243-1.79-2.948A.81.81,0,0,0,34.119,26H26.592a.81.81,0,0,0-.692.389L23.457,30.4a.81.81,0,0,0,.232,1.086l3.884,2.691a.81.81,0,0,0,1.154-.243l1.628-2.673,1.1,1.808-.253.184a.81.81,0,0,0,.476,1.465.768.768,0,0,0,.169-.019l3.788-.81a.81.81,0,0,0,.531-.386l1.939-3.353a.81.81,0,0,0-1.177-1.061Zm-1.984,3.291-1.782.38-2.12-3.483a.81.81,0,0,0-1.384,0l-1.874,3.078-2.551-1.766,1.812-2.973h6.615l2.011,3.306a.7.7,0,0,0,.065.09Z" transform="translate(-3.103 -4.558)"/>
      <path id="Path_1242418" data-name="Path 1242418" d="M27.648,41.206H23.9l1.358-2.233.341.243a.81.81,0,0,0,1.163-1.089L24.7,34.709a.8.8,0,0,0-.539-.377l-3.915-.764a.81.81,0,0,0-.619,1.458l.312.218-2.206,3.628a.81.81,0,0,0,0,.842l4.609,7.579a.81.81,0,0,0,.689.393h4.618a.81.81,0,0,0,.81-.81V42.016A.81.81,0,0,0,27.648,41.206Zm-.81,4.861H23.486L19.37,39.3l2.309-3.8,1.815.354.878,1.458a.828.828,0,0,0-.053.081l-2.556,4.2a.81.81,0,0,0,.693,1.231h4.383Z" transform="translate(-2.016 -5.992)"/>
      <path id="Path_1242419" data-name="Path 1242419" d="M30.291,21.721a7.3,7.3,0,0,0,7.291-7.291V12.81a.81.81,0,0,0-.81-.81,7.291,7.291,0,0,0-6.481,3.97A7.291,7.291,0,0,0,23.81,12a.81.81,0,0,0-.81.81v1.62a7.3,7.3,0,0,0,7.291,7.291Zm5.671-8.044v.753A5.68,5.68,0,0,1,31.1,20.044v-.753a5.68,5.68,0,0,1,4.861-5.613Zm-11.342,0a5.68,5.68,0,0,1,4.861,5.613v.753A5.68,5.68,0,0,1,24.62,14.43Z" transform="translate(-3.038 -1.899)"/>
    </g>
  </g>
</svg>
