<svg xmlns="http://www.w3.org/2000/svg" xmlns:xlink="http://www.w3.org/1999/xlink" width="98" height="98" viewBox="0 0 98 98">
  <defs>
    <filter id="Path_874925" x="0" y="0" width="98" height="98" filterUnits="userSpaceOnUse">
      <feOffset dy="3" input="SourceAlpha"/>
      <feGaussianBlur stdDeviation="3" result="blur"/>
      <feFlood flood-opacity="0.161"/>
      <feComposite operator="in" in2="blur"/>
      <feComposite in="SourceGraphic"/>
    </filter>
  </defs>
  <g id="Group_1200921" data-name="Group 1200921" transform="translate(-331.051 -9876)">
    <g id="Group_1200827" data-name="Group 1200827" transform="translate(55.051 3784.593)">
      <g id="Group_1187153" data-name="Group 1187153">
        <g id="Group_1182177" data-name="Group 1182177">
          <g id="Group_1181903" data-name="Group 1181903">
            <g id="Group_1181438" data-name="Group 1181438">
              <g id="Group_1111314" data-name="Group 1111314" transform="translate(-734.73 3020.407)">
                <g transform="matrix(1, 0, 0, 1, 1010.73, 3071)" filter="url(#Path_874925)">
                  <g id="Path_874925-2" data-name="Path 874925" transform="translate(9 6)" fill="#ffc94a">
                    <path d="M 39.99997329711914 78.50040435791016 C 34.80184936523438 78.50040435791016 29.76000595092773 77.48268127441406 25.01450729370117 75.47550201416016 C 20.43013954162598 73.53648376464844 16.3126392364502 70.76027679443359 12.7763843536377 67.22402191162109 C 9.240128517150879 63.68776702880859 6.463928699493408 59.57027053833008 4.524906635284424 54.98590087890625 C 2.517728805541992 50.24040222167969 1.500006675720215 45.19855880737305 1.500006675720215 40.00043487548828 C 1.500006675720215 34.80185699462891 2.517728805541992 29.76001358032227 4.524906635284424 25.01451301574707 C 6.463928699493408 20.43013572692871 9.240128517150879 16.31263542175293 12.7763843536377 12.77637958526611 C 16.3126392364502 9.240124702453613 20.43013954162598 6.463935375213623 25.01450729370117 4.52490234375 C 29.76000595092773 2.517724514007568 34.80184936523438 1.500002145767212 39.99997329711914 1.500002145767212 C 45.19809722900391 1.500002145767212 50.23994064331055 2.517724514007568 54.98543930053711 4.52490234375 C 59.56981658935547 6.463935375213623 63.68731689453125 9.240124702453613 67.22357177734375 12.77637958526611 C 70.75982666015625 16.31263542175293 73.53601837158203 20.43013572692871 75.47505187988281 25.01451301574707 C 77.48223114013672 29.76001358032227 78.49995422363281 34.80185699462891 78.49995422363281 39.99998092651367 C 78.49995422363281 45.19855880737305 77.48223114013672 50.24040222167969 75.47505187988281 54.98590087890625 C 73.53601837158203 59.57027053833008 70.75982666015625 63.68776702880859 67.22357177734375 67.22402191162109 C 63.68731689453125 70.76027679443359 59.56981658935547 73.53648376464844 54.98543930053711 75.47550201416016 C 50.23994064331055 77.48268127441406 45.19809722900391 78.50040435791016 39.99997329711914 78.50040435791016 Z" stroke="none"/>
                    <path d="M 39.99997329711914 3 C 35.00369262695312 3 30.15843963623047 3.977851867675781 25.59883880615234 5.906417846679688 C 21.19326782226562 7.769813537597656 17.23602676391602 10.43805694580078 13.83704376220703 13.83704376220703 C 10.43805694580078 17.23601531982422 7.769813537597656 21.19325637817383 5.906410217285156 25.59882736206055 C 3.977851867675781 30.15844345092773 3 35.00368118286133 3 40.00042724609375 C 3 44.99672317504883 3.977851867675781 49.84196472167969 5.906410217285156 54.40157318115234 C 7.769813537597656 58.80714797973633 10.43805694580078 62.76438903808594 13.83704376220703 66.16336059570312 C 17.23602676391602 69.56234741210938 21.19326782226562 72.2305908203125 25.59883880615234 74.09398651123047 C 30.15843963623047 76.02255249023438 35.00369262695312 77.00040435791016 39.99997329711914 77.00040435791016 C 44.99625396728516 77.00040435791016 49.84150695800781 76.02255249023438 54.40110778808594 74.09398651123047 C 58.80667877197266 72.2305908203125 62.76391983032227 69.56234741210938 66.16290283203125 66.16336059570312 C 69.5618896484375 62.76438903808594 72.23013305664062 58.80714797973633 74.09353637695312 54.40157318115234 C 76.0220947265625 49.84196472167969 76.99994659423828 44.99672317504883 76.99994659423828 39.99997711181641 C 76.99994659423828 35.00368118286133 76.0220947265625 30.15844345092773 74.09353637695312 25.59882736206055 C 72.23013305664062 21.19325637817383 69.5618896484375 17.23601531982422 66.16290283203125 13.83704376220703 C 62.76391983032227 10.43805694580078 58.80667877197266 7.769813537597656 54.40110778808594 5.906417846679688 C 49.84150695800781 3.977851867675781 44.99625396728516 3 39.99997329711914 3 M 39.99997329711914 0 C 62.09134674072266 0 79.99994659423828 17.90858840942383 79.99994659423828 39.99997711181641 L 79.99994659423828 40.00042724609375 C 79.99994659423828 62.09181594848633 62.09134674072266 80.00040435791016 39.99997329711914 80.00040435791016 C 17.90859985351562 80.00040435791016 0 62.09181594848633 0 40.00042724609375 L 0 39.99997711181641 C 0 17.90858840942383 17.90859985351562 0 39.99997329711914 0 Z" stroke="none" fill="#fff"/>
                  </g>
                </g>
              </g>
            </g>
          </g>
        </g>
      </g>
    </g>
    <g id="Layer_x0020_1" transform="translate(349.57 9890.61)">
      <path id="Path_1242420" data-name="Path 1242420" d="M32.395,31.854a1.038,1.038,0,0,1-.767-.338l-1.366-1.5-1.385,1.5a1.036,1.036,0,0,1-1.8-.7V25.9H22.632v7.257a.08.08,0,0,0,.075.077h12.8a.08.08,0,0,0,.075-.077V25.9h-2.15v4.922a1.036,1.036,0,0,1-1.036,1.036Zm8.024,8.6H37.757v2.257h2.3a1.036,1.036,0,1,1,0,2.073H2.029a1.036,1.036,0,0,1,0-2.073h2.3V40.45H1.665A1.036,1.036,0,0,1,.629,39.414V34.266a1.036,1.036,0,0,1,1.036-1.036H4.739V30.278a1.036,1.036,0,0,1,1.036-1.036H6.69V27.9a1.036,1.036,0,1,1,2.073,0v1.339h3.385V19.369q-.409.074-.825.111h-.017l-.1.008h-.023L11.1,19.5l-.052,0H11.04l-.053,0q-.25.014-.5.015h-.056q-.2,0-.4-.009h0l-.053,0-.053,0-.053,0-.038,0H9.816l-.1-.007h0L9.6,19.482H9.6q-.42-.037-.833-.112v5.1a1.036,1.036,0,1,1-2.073,0V18.74a9.514,9.514,0,0,1-2.857-1.923,1.059,1.059,0,0,1-.081-.073,1.07,1.07,0,0,1-.073-.081,9.46,9.46,0,0,1,0-13.238,1.064,1.064,0,0,1,.076-.085,1.047,1.047,0,0,1,.084-.076,9.461,9.461,0,0,1,13.242,0,1.052,1.052,0,0,1,.079.071,1.068,1.068,0,0,1,.072.079,9.46,9.46,0,0,1,0,13.245,1.055,1.055,0,0,1-.073.081,1.031,1.031,0,0,1-.08.073A9.512,9.512,0,0,1,14.22,18.74v10.5h.914a1.036,1.036,0,0,1,1.036,1.036v2.952h4.391c0-.025,0-.051,0-.077V25.9h-.625A1.036,1.036,0,0,1,18.9,24.859v-6.3a1.036,1.036,0,0,1,1.036-1.036h11.68a1.036,1.036,0,1,1,0,2.073H20.971v4.224h16.27V19.6H35.048a1.036,1.036,0,1,1,0-2.073h3.229a1.036,1.036,0,0,1,1.036,1.036v6.3A1.036,1.036,0,0,1,38.277,25.9h-.625v7.257c0,.026,0,.051,0,.077h2.767a1.036,1.036,0,0,1,1.036,1.036v5.149a1.036,1.036,0,0,1-1.036,1.036Zm-13.264,0H14.928l-.779,2.257H27.933l-.778-2.257ZM2.7,38.377H39.382V35.3H2.7Zm32.983,4.329V40.45H29.347l.778,2.257h5.559Zm-23.726,0,.779-2.257H6.4v2.257ZM6.812,33.229H14.1V31.314H6.812v1.915ZM9.031,17.31q.193.037.388.064V15.994a1.036,1.036,0,0,1,2.073,0v1.38q.237-.033.471-.081h.006l.053-.011a7.377,7.377,0,0,0,2.885-1.323l-.975-.975A1.036,1.036,0,1,1,15.4,13.518l.975.975a7.368,7.368,0,0,0,1.417-3.414H16.407a1.036,1.036,0,0,1,0-2.073h1.381a7.372,7.372,0,0,0-1.417-3.414l-.975.975A1.036,1.036,0,1,1,13.931,5.1l.975-.975a7.369,7.369,0,0,0-3.414-1.417V4.09a1.036,1.036,0,0,1-2.073,0V2.709A7.371,7.371,0,0,0,6,4.126l.974.974A1.036,1.036,0,0,1,5.513,6.566l-.974-.974A7.37,7.37,0,0,0,3.122,9.005H4.5a1.036,1.036,0,0,1,0,2.073H3.122a7.37,7.37,0,0,0,1.417,3.414l.975-.974a1.036,1.036,0,1,1,1.465,1.466L6,15.958a7.373,7.373,0,0,0,3,1.348l.01,0,.015,0Zm1.5-6.232H7.085a1.036,1.036,0,1,1,0-2.073H9.492V6.6a1.036,1.036,0,1,1,2.073,0v3.444a1.036,1.036,0,0,1-1.036,1.036ZM29.151,25.9v2.268l.353-.383a1.037,1.037,0,0,1,.762-.334h0a1.036,1.036,0,0,1,.763.338l.326.357V25.9Z" transform="translate(9.852 8.826)" fill="#000002" fill-rule="evenodd"/>
      <path id="Path_1242421" data-name="Path 1242421" d="M.9,7.426v1.36A1.036,1.036,0,0,1,1.939,9.822v1.339H5.324V1.289a9.591,9.591,0,0,1-3.385,0v5.1A1.036,1.036,0,0,1,.9,7.426Z" transform="translate(16.675 26.907)" fill="#7986bf" fill-rule="evenodd"/>
      <path id="Path_1242422" data-name="Path 1242422" d="M1.414,2.294V6.518h16.27V2.294H15.491a1.036,1.036,0,0,1-1.036-1.036h-1.36a1.036,1.036,0,0,1-1.036,1.036H1.414Z" transform="translate(29.409 26.131)" fill="#f18d58" fill-rule="evenodd"/>
      <path id="Path_1242423" data-name="Path 1242423" d="M5.924,1.541H1.478V8.8l.077.077H14.349l.077-.077V1.541h-2.15V6.463a1.037,1.037,0,0,1-1.8.7l-1.366-1.5-1.385,1.5a1.038,1.038,0,0,1-1.8-.7V1.541Z" transform="translate(31.006 33.181)" fill="#f8cf6d" fill-rule="evenodd"/>
      <path id="Path_1242424" data-name="Path 1242424" d="M37.389,1.9H.709V4.98H37.389Z" transform="translate(11.844 42.224)" fill="#7986bf" fill-rule="evenodd"/>
      <path id="Path_1242425" data-name="Path 1242425" d="M7.189,2.1H.851V4.359H6.41Z" transform="translate(15.399 47.174)" fill="#323e66" fill-rule="evenodd"/>
      <path id="Path_1242426" data-name="Path 1242426" d="M.867,3.666H8.154V1.75H.867Z" transform="translate(15.796 38.39)" fill="#323e66" fill-rule="evenodd"/>
      <path id="Path_1242427" data-name="Path 1242427" d="M8.058,12.895a1.036,1.036,0,0,1,1.036,1.036v1.38A7.346,7.346,0,0,0,12.508,13.9l-.975-.975A1.036,1.036,0,0,1,13,11.455l.975.975a7.368,7.368,0,0,0,1.417-3.414H14.01a1.036,1.036,0,0,1,0-2.073h1.381a7.372,7.372,0,0,0-1.417-3.414L13,4.5a1.036,1.036,0,1,1-1.466-1.466l.975-.975A7.369,7.369,0,0,0,9.095.646V2.027a1.036,1.036,0,0,1-2.073,0V.646A7.371,7.371,0,0,0,3.607,2.064l.974.974A1.036,1.036,0,0,1,3.116,4.5l-.974-.974A7.37,7.37,0,0,0,.725,6.943H2.106a1.036,1.036,0,0,1,0,2.073H.725a7.37,7.37,0,0,0,1.417,3.414l.975-.974A1.036,1.036,0,0,1,4.582,12.92l-.975.974a7.377,7.377,0,0,0,3.027,1.352q.193.037.388.064v-1.38a1.036,1.036,0,0,1,1.036-1.036Zm.073-3.879H4.688a1.036,1.036,0,1,1,0-2.073H7.1V4.535a1.036,1.036,0,1,1,2.073,0V7.979A1.036,1.036,0,0,1,8.132,9.015Z" transform="translate(12.249 10.889)" fill="#fefefe" fill-rule="evenodd"/>
      <path id="Path_1242428" data-name="Path 1242428" d="M1.73,1.541V3.809c.336-.364.574-.718,1.118-.717s.768.344,1.089.7V1.541H1.73Z" transform="translate(37.273 33.181)" fill="#fefefe" fill-rule="evenodd"/>
      <path id="Path_1242429" data-name="Path 1242429" d="M8.074,2.1H1.737l.778,2.256H8.074Z" transform="translate(37.461 47.174)" fill="#323e66" fill-rule="evenodd"/>
    </g>
  </g>
</svg>
