<svg xmlns="http://www.w3.org/2000/svg" xmlns:xlink="http://www.w3.org/1999/xlink" width="98" height="98" viewBox="0 0 98 98">
  <defs>
    <filter id="Path_874925" x="0" y="0" width="98" height="98" filterUnits="userSpaceOnUse">
      <feOffset dy="3" input="SourceAlpha"/>
      <feGaussianBlur stdDeviation="3" result="blur"/>
      <feFlood flood-opacity="0.161"/>
      <feComposite operator="in" in2="blur"/>
      <feComposite in="SourceGraphic"/>
    </filter>
  </defs>
  <g id="Group_1200918" data-name="Group 1200918" transform="translate(-751 -9480.009)">
    <g id="Group_1200825" data-name="Group 1200825" transform="translate(475 3388.602)">
      <g id="Group_1187153" data-name="Group 1187153">
        <g id="Group_1182177" data-name="Group 1182177">
          <g id="Group_1181903" data-name="Group 1181903">
            <g id="Group_1181438" data-name="Group 1181438">
              <g id="Group_1111314" data-name="Group 1111314" transform="translate(-734.73 3020.407)">
                <g transform="matrix(1, 0, 0, 1, 1010.73, 3071)" filter="url(#Path_874925)">
                  <g id="Path_874925-2" data-name="Path 874925" transform="translate(9 6)" fill="#ffc94a">
                    <path d="M 39.99997329711914 78.50040435791016 C 34.80184936523438 78.50040435791016 29.76000595092773 77.48268127441406 25.01450729370117 75.47550201416016 C 20.43013954162598 73.53648376464844 16.3126392364502 70.76027679443359 12.7763843536377 67.22402191162109 C 9.240128517150879 63.68776702880859 6.463928699493408 59.57027053833008 4.524906635284424 54.98590087890625 C 2.517728805541992 50.24040222167969 1.500006675720215 45.19855880737305 1.500006675720215 40.00043487548828 C 1.500006675720215 34.80185699462891 2.517728805541992 29.76001358032227 4.524906635284424 25.01451301574707 C 6.463928699493408 20.43013572692871 9.240128517150879 16.31263542175293 12.7763843536377 12.77637958526611 C 16.3126392364502 9.240124702453613 20.43013954162598 6.463935375213623 25.01450729370117 4.52490234375 C 29.76000595092773 2.517724514007568 34.80184936523438 1.500002145767212 39.99997329711914 1.500002145767212 C 45.19809722900391 1.500002145767212 50.23994064331055 2.517724514007568 54.98543930053711 4.52490234375 C 59.56981658935547 6.463935375213623 63.68731689453125 9.240124702453613 67.22357177734375 12.77637958526611 C 70.75982666015625 16.31263542175293 73.53601837158203 20.43013572692871 75.47505187988281 25.01451301574707 C 77.48223114013672 29.76001358032227 78.49995422363281 34.80185699462891 78.49995422363281 39.99998092651367 C 78.49995422363281 45.19855880737305 77.48223114013672 50.24040222167969 75.47505187988281 54.98590087890625 C 73.53601837158203 59.57027053833008 70.75982666015625 63.68776702880859 67.22357177734375 67.22402191162109 C 63.68731689453125 70.76027679443359 59.56981658935547 73.53648376464844 54.98543930053711 75.47550201416016 C 50.23994064331055 77.48268127441406 45.19809722900391 78.50040435791016 39.99997329711914 78.50040435791016 Z" stroke="none"/>
                    <path d="M 39.99997329711914 3 C 35.00369262695312 3 30.15843963623047 3.977851867675781 25.59883880615234 5.906417846679688 C 21.19326782226562 7.769813537597656 17.23602676391602 10.43805694580078 13.83704376220703 13.83704376220703 C 10.43805694580078 17.23601531982422 7.769813537597656 21.19325637817383 5.906410217285156 25.59882736206055 C 3.977851867675781 30.15844345092773 3 35.00368118286133 3 40.00042724609375 C 3 44.99672317504883 3.977851867675781 49.84196472167969 5.906410217285156 54.40157318115234 C 7.769813537597656 58.80714797973633 10.43805694580078 62.76438903808594 13.83704376220703 66.16336059570312 C 17.23602676391602 69.56234741210938 21.19326782226562 72.2305908203125 25.59883880615234 74.09398651123047 C 30.15843963623047 76.02255249023438 35.00369262695312 77.00040435791016 39.99997329711914 77.00040435791016 C 44.99625396728516 77.00040435791016 49.84150695800781 76.02255249023438 54.40110778808594 74.09398651123047 C 58.80667877197266 72.2305908203125 62.76391983032227 69.56234741210938 66.16290283203125 66.16336059570312 C 69.5618896484375 62.76438903808594 72.23013305664062 58.80714797973633 74.09353637695312 54.40157318115234 C 76.0220947265625 49.84196472167969 76.99994659423828 44.99672317504883 76.99994659423828 39.99997711181641 C 76.99994659423828 35.00368118286133 76.0220947265625 30.15844345092773 74.09353637695312 25.59882736206055 C 72.23013305664062 21.19325637817383 69.5618896484375 17.23601531982422 66.16290283203125 13.83704376220703 C 62.76391983032227 10.43805694580078 58.80667877197266 7.769813537597656 54.40110778808594 5.906417846679688 C 49.84150695800781 3.977851867675781 44.99625396728516 3 39.99997329711914 3 M 39.99997329711914 0 C 62.09134674072266 0 79.99994659423828 17.90858840942383 79.99994659423828 39.99997711181641 L 79.99994659423828 40.00042724609375 C 79.99994659423828 62.09181594848633 62.09134674072266 80.00040435791016 39.99997329711914 80.00040435791016 C 17.90859985351562 80.00040435791016 0 62.09181594848633 0 40.00042724609375 L 0 39.99997711181641 C 0 17.90858840942383 17.90859985351562 0 39.99997329711914 0 Z" stroke="none" fill="#fff"/>
                  </g>
                </g>
              </g>
            </g>
          </g>
        </g>
      </g>
    </g>
    <g id="planeta-tierra" transform="translate(774.474 9500.949)">
      <path id="Path_1242381" data-name="Path 1242381" d="M49.309,28.84a21.348,21.348,0,1,0-41.719,6.4h0c.231.736.464,1.347.73,1.975a21.387,21.387,0,0,0,4.761,6.93c.118.109.607.61,1.635,1.437a21.326,21.326,0,0,0,26.491,0,21.678,21.678,0,0,0,1.635-1.437,21.285,21.285,0,0,0,6.467-15.3Zm0,0" transform="translate(-5.954 -6.745)" fill="#8fc8e2"/>
      <path id="Path_1242382" data-name="Path 1242382" d="M20.375,47.939a21.359,21.359,0,0,1-3.709-2.361,21.7,21.7,0,0,1-1.635-1.437,21.391,21.391,0,0,1-4.761-6.93c-.266-.629-.5-1.239-.73-1.975a21.362,21.362,0,0,1,19.4-27.724c-.323-.014-.648-.023-.975-.023A21.362,21.362,0,0,0,7.59,35.235a21.022,21.022,0,0,0,.73,1.975,21.381,21.381,0,0,0,4.761,6.93,21.6,21.6,0,0,0,1.635,1.437,21.29,21.29,0,0,0,13.246,4.606c.324,0,.65-.009.976-.024A21.257,21.257,0,0,1,20.375,47.939Zm0,0" transform="translate(-5.954 -6.742)" fill="#6fbdd8"/>
      <path id="Path_1242383" data-name="Path 1242383" d="M6.613,62.193a21.315,21.315,0,0,0,8.552,17.089c.463-2.744.427-6.241-2.1-8.051-4.534-3.251-1.06-8.036,2.441-11.079s-1.93-4.613-3.3-8.141,3.533-1.281,6.282-4.178c1.6-1.686-.5-2.722-2.531-3.294A21.324,21.324,0,0,0,6.613,62.193Zm0,0" transform="translate(-5.954 -40.098)" fill="#49ae3a"/>
      <path id="Path_1242384" data-name="Path 1242384" d="M15.166,79.281c.08-.475.145-.972.185-1.479-.17-.159-.274-.262-.32-.3a21.382,21.382,0,0,1-4.761-6.93c-.266-.628-.5-1.239-.73-1.975a21.372,21.372,0,0,1,7.734-23.6,11.532,11.532,0,0,0-1.317-.449,21.349,21.349,0,0,0-.79,34.742Zm0,0" transform="translate(-5.954 -40.098)" fill="#1d9942"/>
      <path id="Path_1242385" data-name="Path 1242385" d="M180.182,74.654A21.313,21.313,0,0,0,173.4,62.336a17.347,17.347,0,0,0-6.48,2.3c-3.312,2.323-6.839-.656-8.822,2.072s1.016,3.4,0,5.179.917,3.289-2.647,3.168-4.471,3.565-.725,6.465,3.23,10.634,4.938,9.546,6.541-8.8,5.574-10.924-3.262-1.745-1.692-4.171,4.208-.735,5.518,2.105,2.628,6.455,5.322-.247C175.974,73.875,178.432,73.937,180.182,74.654Zm0,0" transform="translate(-137.124 -56.12)" fill="#49ae3a"/>
      <path id="Path_1242386" data-name="Path 1242386" d="M206.108,39.088a2,2,0,0,0,2.42.278c1-.648,1.818.094,2.411-.351s-.222-2.967-3.857-2.374C204.258,37.1,205.439,38.491,206.108,39.088Zm0,0" transform="translate(-184.815 -32.908)" fill="#49ae3a"/>
      <path id="Path_1242387" data-name="Path 1242387" d="M278.325,64.63a14.782,14.782,0,0,1,4.89-1.966q-.178-.168-.359-.331a17.35,17.35,0,0,0-6.48,2.3,5.2,5.2,0,0,1-2.484.918A6.39,6.39,0,0,0,278.325,64.63Zm0,0" transform="translate(-246.581 -56.117)" fill="#1d9942"/>
      <path id="Path_1242388" data-name="Path 1242388" d="M156.675,109.749c-3.746-2.9-2.839-6.586.725-6.465s1.631-1.39,2.647-3.168-1.983-2.451,0-5.179a2.809,2.809,0,0,1,1.969-1.188c-1.546-.114-2.926-.178-3.919,1.188-1.983,2.728,1.016,3.4,0,5.179s.917,3.289-2.647,3.168-4.471,3.565-.725,6.465,3.23,10.634,4.938,9.546a4.854,4.854,0,0,0,.9-.842C159.864,116.461,159.381,111.844,156.675,109.749Zm0,0" transform="translate(-137.126 -84.353)" fill="#1d9942"/>
      <path id="Path_1242389" data-name="Path 1242389" d="M298.352,190.651c-1.078-2.338-3.056-3.9-4.6-3.022a6.171,6.171,0,0,1,2.648,3.022c.985,2.136,1.976,4.712,3.553,3A14.522,14.522,0,0,1,298.352,190.651Zm0,0" transform="translate(-264.464 -168.699)" fill="#1d9942"/>
      <path id="Path_1242390" data-name="Path 1242390" d="M209.052,36.693c-1.512-.307-5.463.192-2.938,2.448a2.008,2.008,0,0,0,2.378.3C207.867,39.1,205.737,37.223,209.052,36.693Zm0,0" transform="translate(-184.822 -32.961)" fill="#1d9942"/>
      <path id="Path_1242391" data-name="Path 1242391" d="M311.694,395.166h-3.666l1.162-2.048a1.358,1.358,0,0,0,1.919-1.426l-.286-1.909a1.359,1.359,0,0,0-1.853-1.17l-1.9.747a1.354,1.354,0,0,0-.229,2.405l-1.377,2.427a2.468,2.468,0,0,0,2.147,3.686h4.083a1.356,1.356,0,1,0,0-2.711Zm0,0" transform="translate(-274.714 -349.779)" fill="#a0d92a"/>
      <path id="Path_1242392" data-name="Path 1242392" d="M416.272,408.383l-1.92-3.415a1.355,1.355,0,1,0-2.363,1.329l1.718,3.057h-2.44a1.355,1.355,0,0,0-2.2-.977l-1.6,1.271a1.389,1.389,0,0,0-.511,1.061,1.364,1.364,0,0,0,.509,1.059h0l1.6,1.273a1.355,1.355,0,0,0,2.2-.976h2.855A2.468,2.468,0,0,0,416.272,408.383Zm0,0" transform="translate(-366.379 -363.966)" fill="#a0d92a"/>
      <path id="Path_1242393" data-name="Path 1242393" d="M367.36,305.5a1.35,1.35,0,0,0-.782.116l-1.537-2.709a2.47,2.47,0,0,0-4.3.007l-2.271,4.062a1.356,1.356,0,1,0,2.367,1.323l1.9-3.4a.177.177,0,0,1,.308,0l1.178,2.077a1.348,1.348,0,0,0-.571.753,1.381,1.381,0,0,0,.838,1.665l1.863.733a1.358,1.358,0,0,0,1.854-1.17l.287-1.909A1.356,1.356,0,0,0,367.36,305.5Zm0,0" transform="translate(-322.575 -271.58)" fill="#a0d92a"/>
      <g id="Group_1200917" data-name="Group 1200917" transform="translate(30.425 30.079)">
        <path id="Path_1242394" data-name="Path 1242394" d="M307.536,394.195l1.226-2.162a.351.351,0,0,0-.059-.428,1.343,1.343,0,0,1-.364-.59,1.383,1.383,0,0,1,.839-1.667l1.2-.472a1.36,1.36,0,0,0-1.411-.261l-1.864.732a1.382,1.382,0,0,0-.84,1.667,1.348,1.348,0,0,0,.573.753l-1.376,2.427a2.468,2.468,0,0,0,2.147,3.686h2.074A2.468,2.468,0,0,1,307.536,394.195Zm0,0" transform="translate(-305.137 -379.862)" fill="#74c432"/>
        <path id="Path_1242395" data-name="Path 1242395" d="M459.2,408.562l-1.272-2.263a1.353,1.353,0,0,1,.145-1.536,1.355,1.355,0,0,0-2.219,1.536l1.718,3.057h1.162A.533.533,0,0,0,459.2,408.562Zm0,0" transform="translate(-440.669 -394.048)" fill="#74c432"/>
        <path id="Path_1242396" data-name="Path 1242396" d="M409.544,446.133h0a1.364,1.364,0,0,1-.509-1.059,1.388,1.388,0,0,1,.511-1.061l1.385-1.1a1.355,1.355,0,0,0-1.862-.168l-1.6,1.271a1.391,1.391,0,0,0-.511,1.061,1.363,1.363,0,0,0,.51,1.059h0l1.6,1.272a1.354,1.354,0,0,0,1.863-.167Zm0,0" transform="translate(-396.802 -428.41)" fill="#74c432"/>
        <path id="Path_1242397" data-name="Path 1242397" d="M360.547,306.983l2.27-4.062a2.446,2.446,0,0,1,1.114-1.03,2.47,2.47,0,0,0-3.188,1.03l-2.271,4.062a1.355,1.355,0,0,0,2.22,1.533A1.354,1.354,0,0,1,360.547,306.983Zm0,0" transform="translate(-353 -301.666)" fill="#74c432"/>
        <path id="Path_1242398" data-name="Path 1242398" d="M409.467,334.493a1.381,1.381,0,0,1-.838-1.665,1.342,1.342,0,0,1,.295-.521.526.526,0,0,0,.066-.61l-.822-1.471a1.332,1.332,0,0,0-1.947-.426l-.271.2,1.178,2.076a1.35,1.35,0,0,0-.572.753,1.381,1.381,0,0,0,.838,1.665l1.863.734a1.358,1.358,0,0,0,1.412-.261Zm0,0" transform="translate(-395.897 -326.765)" fill="#74c432"/>
      </g>
      <path id="Path_1242399" data-name="Path 1242399" d="M409.174,397.866a2.1,2.1,0,0,0-3.667,2.061l1.092,1.942h-.581a2.106,2.106,0,0,0-3.242-.814l-1.6,1.271a2.1,2.1,0,0,0-.009,3.283l.009.007,1.6,1.273a2.1,2.1,0,0,0,3.243-.813h2.275a3.215,3.215,0,0,0,2.8-4.8Zm-.881,6.714h-2.855a.747.747,0,0,0-.746.7.607.607,0,0,1-.985.437l-1.6-1.272a.612.612,0,0,1,.016-.964l1.581-1.258a.608.608,0,0,1,.984.437.748.748,0,0,0,.747.7h2.44a.748.748,0,0,0,.652-1.114l-1.718-3.057a.608.608,0,0,1,1.059-.6l1.92,3.415,0,0A1.72,1.72,0,0,1,408.292,404.58Zm0,0" transform="translate(-360.463 -357.229)"/>
      <path id="Path_1242400" data-name="Path 1242400" d="M250.206,264l1.9.748a2.105,2.105,0,0,0,2.871-1.782l.283-1.882a2.1,2.1,0,0,0-2.293-2.405l-1.253-2.21a3.218,3.218,0,0,0-.563-.724,22.019,22.019,0,0,0,1.23-4.387.748.748,0,0,0-1.474-.252,20.487,20.487,0,0,1-1.062,3.872,3.22,3.22,0,0,0-3.732,1.5l-2.27,4.062a2.109,2.109,0,0,0,.365,2.531q-.264.232-.534.455a2.149,2.149,0,0,0-1.093.12l-1.9.747a2.107,2.107,0,0,0-1.333,1.866,20.415,20.415,0,0,1-7.058,1.873.748.748,0,0,0,.06,1.493l.061,0a21.91,21.91,0,0,0,7.322-1.9l-1.035,1.824a3.215,3.215,0,0,0,2.8,4.8h4.083a2.1,2.1,0,0,0,0-4.206h-2.382l.245-.432a2.1,2.1,0,0,0,2.291-2.4l-.282-1.883a2.107,2.107,0,0,0-.419-1.093q.377-.325.74-.669a2.089,2.089,0,0,0,1.743-1.073l1.408-2.52.388.684A2.1,2.1,0,0,0,250.206,264Zm-6.814,4.174a.747.747,0,0,0-.97.307l-1.161,2.048a.748.748,0,0,0,.65,1.117h3.665a.608.608,0,0,1,0,1.215h-4.083a1.72,1.72,0,0,1-1.5-2.569l1.377-2.427a.748.748,0,0,0-.25-1,.607.607,0,0,1,.1-1.077h0l1.9-.747a.61.61,0,0,1,.833.525c0,.047.285,1.922.292,1.969A.608.608,0,0,1,243.391,268.173Zm4.872-9.988-2.057,3.679a.608.608,0,0,1-1.061-.593l2.268-4.058a1.722,1.722,0,0,1,3-.007l1.537,2.709a.748.748,0,0,0,.972.306.608.608,0,0,1,.86.64c-.007.048-.29,1.921-.294,1.969a.609.609,0,0,1-.833.525l-1.9-.747a.606.606,0,0,1-.1-1.077.748.748,0,0,0,.25-1l-1.333-2.35A.748.748,0,0,0,248.264,258.186Zm0,0" transform="translate(-208.508 -225.508)"/>
      <path id="Path_1242401" data-name="Path 1242401" d="M199.743,32.9a2.748,2.748,0,0,0,3.324.349c.7-.452,1.548.3,2.454-.381a1.538,1.538,0,0,0,.3-1.87c-.5-1.181-2.008-2.284-4.724-1.84-.5.082-2.038.333-2.367,1.462C198.582,31.116,198.641,31.915,199.743,32.9Zm1.592-2.266c1.865-.3,2.922.333,3.139,1.036a3.007,3.007,0,0,0-2.219.323,1.266,1.266,0,0,1-1.516-.208,1.73,1.73,0,0,1-.573-.745C200.208,30.993,200.442,30.779,201.335,30.633Zm0,0" transform="translate(-178.86 -26.16)"/>
      <path id="Path_1242402" data-name="Path 1242402" d="M0,22.1A22.1,22.1,0,0,0,20.29,44.117l.061,0a.748.748,0,0,0,.06-1.493,20.368,20.368,0,0,1-10.3-3.808c.551-3.872-.3-6.733-2.474-8.293a3.826,3.826,0,0,1-1.846-2.959c-.09-1.938,1.492-4.471,4.341-6.948a3.447,3.447,0,0,0,1.413-2.451c.041-1.353-1.034-2.407-2.173-3.524a9.285,9.285,0,0,1-2.338-3c-.264-.678-.178-.887-.158-.922.131-.228.963-.361,1.632-.469a7.64,7.64,0,0,0,4.653-2,2.163,2.163,0,0,0,.707-2.119,3.231,3.231,0,0,0-2.059-1.879A20.561,20.561,0,0,1,34.681,5.8c-6.6,1.544-4.382,3.243-9.522,2.862-1.612-.12-3.44-.255-4.7,1.484a3.263,3.263,0,0,0-.254,4.043c.356.65.418.839.21,1.2a3.832,3.832,0,0,0-.444,2.088,2.156,2.156,0,0,1-.031.542c-.009.008-.219.2-1.5.161a3.534,3.534,0,0,0-3.719,2.149c-.506,1.4-.112,3.624,2.511,5.654,1.865,1.444,2.6,4.38,3.133,6.523.448,1.794.718,2.876,1.537,3.2a1.22,1.22,0,0,0,1.128-.14c1.864-1.188,7.057-9.218,5.854-11.864a5.034,5.034,0,0,0-1.592-1.893c-.268-.215-.52-.419-.56-.56-.017-.062-.039-.315.407-1,1.269-1.961,3.29.017,4.211,2.012.869,1.884,1.7,4.028,3.272,3.994,1.205-.027,2.229-1.305,3.422-4.275a4.871,4.871,0,0,1,2.313-2.878,3.006,3.006,0,0,1,2.119-.021,20.548,20.548,0,0,1,.219,3.143.748.748,0,0,0,.743.752h0a.75.75,0,0,0,.749-.8A22.095,22.095,0,1,0,0,22.1ZM39.773,17.73a6.254,6.254,0,0,0-3.118,3.7c-1.32,3.283-2.038,3.337-2.068,3.338h0c-.014,0-.227-.011-.635-.629a21.145,21.145,0,0,1-1.246-2.5c-1.653-3.584-4.976-5.054-6.825-2.2a2.711,2.711,0,0,0-.592,2.22,2.682,2.682,0,0,0,1.062,1.321,3.606,3.606,0,0,1,1.168,1.347c.677,1.489-3.253,8.27-5.111,9.845a15.154,15.154,0,0,1-.595-2.025c-.588-2.356-1.393-5.582-3.669-7.343-1.99-1.541-2.332-3.1-2.019-3.964a2.041,2.041,0,0,1,2.115-1.165c.742,0,2.039.1,2.74-.583a2.063,2.063,0,0,0,.482-1.627,2.43,2.43,0,0,1,.247-1.332,2.473,2.473,0,0,0-.2-2.665,1.816,1.816,0,0,1,.152-2.445c.738-1.016,1.717-1,3.383-.872,5.966.442,3.6-1.69,11.072-3.13a20.608,20.608,0,0,1,6.052,10.452A4.226,4.226,0,0,0,39.773,17.73ZM12.428,6.528c.06.218-.193.527-.35.693a6.245,6.245,0,0,1-3.8,1.553c-1.184.19-2.207.354-2.693,1.2a2.583,2.583,0,0,0,.062,2.208,10.543,10.543,0,0,0,2.684,3.527c.9.881,1.746,1.714,1.725,2.412a2.141,2.141,0,0,1-.9,1.367C7.274,21.123,4.145,24.353,4.3,27.637a5.29,5.29,0,0,0,2.468,4.1c1.85,1.326,2.152,3.788,1.965,5.989a20.547,20.547,0,0,1,1.5-32.467C11.715,5.724,12.345,6.225,12.428,6.528Zm0,0"/>
    </g>
  </g>
</svg>
