<svg xmlns="http://www.w3.org/2000/svg" xmlns:xlink="http://www.w3.org/1999/xlink" width="98" height="98" viewBox="0 0 98 98">
  <defs>
    <filter id="Path_874925" x="0" y="0.002" width="98" height="98" filterUnits="userSpaceOnUse">
      <feOffset dy="3" input="SourceAlpha"/>
      <feGaussianBlur stdDeviation="3" result="blur"/>
      <feFlood flood-opacity="0.161"/>
      <feComposite operator="in" in2="blur"/>
      <feComposite in="SourceGraphic"/>
    </filter>
  </defs>
  <g id="Group_1200936" data-name="Group 1200936" transform="translate(-1171.051 -18688.999)">
    <g id="Group_1200877" data-name="Group 1200877" transform="translate(895.051 12597.593)">
      <g id="Group_1187153" data-name="Group 1187153">
        <g id="Group_1182177" data-name="Group 1182177">
          <g id="Group_1181903" data-name="Group 1181903">
            <g id="Group_1181438" data-name="Group 1181438">
              <g id="Group_1111314" data-name="Group 1111314" transform="translate(-734.73 3020.407)">
                <g transform="matrix(1, 0, 0, 1, 1010.73, 3071)" filter="url(#Path_874925)">
                  <g id="Path_874925-2" data-name="Path 874925" transform="translate(9 6)" fill="#ffc94a">
                    <path d="M 39.99997329711914 78.50040435791016 C 34.80184936523438 78.50040435791016 29.76000595092773 77.48268127441406 25.01450729370117 75.47550201416016 C 20.43013954162598 73.53648376464844 16.3126392364502 70.76027679443359 12.7763843536377 67.22402191162109 C 9.240128517150879 63.68776702880859 6.463928699493408 59.57027053833008 4.524906635284424 54.98590087890625 C 2.517728805541992 50.24040222167969 1.500006675720215 45.19855880737305 1.500006675720215 40.00043487548828 C 1.500006675720215 34.80185699462891 2.517728805541992 29.76001358032227 4.524906635284424 25.01451301574707 C 6.463928699493408 20.43013572692871 9.240128517150879 16.31263542175293 12.7763843536377 12.77637958526611 C 16.3126392364502 9.240124702453613 20.43013954162598 6.463935375213623 25.01450729370117 4.52490234375 C 29.76000595092773 2.517724514007568 34.80184936523438 1.500002145767212 39.99997329711914 1.500002145767212 C 45.19809722900391 1.500002145767212 50.23994064331055 2.517724514007568 54.98543930053711 4.52490234375 C 59.56981658935547 6.463935375213623 63.68731689453125 9.240124702453613 67.22357177734375 12.77637958526611 C 70.75982666015625 16.31263542175293 73.53601837158203 20.43013572692871 75.47505187988281 25.01451301574707 C 77.48223114013672 29.76001358032227 78.49995422363281 34.80185699462891 78.49995422363281 39.99998092651367 C 78.49995422363281 45.19855880737305 77.48223114013672 50.24040222167969 75.47505187988281 54.98590087890625 C 73.53601837158203 59.57027053833008 70.75982666015625 63.68776702880859 67.22357177734375 67.22402191162109 C 63.68731689453125 70.76027679443359 59.56981658935547 73.53648376464844 54.98543930053711 75.47550201416016 C 50.23994064331055 77.48268127441406 45.19809722900391 78.50040435791016 39.99997329711914 78.50040435791016 Z" stroke="none"/>
                    <path d="M 39.99997329711914 3 C 35.00369262695312 3 30.15843963623047 3.977851867675781 25.59883880615234 5.906417846679688 C 21.19326782226562 7.769813537597656 17.23602676391602 10.43805694580078 13.83704376220703 13.83704376220703 C 10.43805694580078 17.23601531982422 7.769813537597656 21.19325637817383 5.906410217285156 25.59882736206055 C 3.977851867675781 30.15844345092773 3 35.00368118286133 3 40.00042724609375 C 3 44.99672317504883 3.977851867675781 49.84196472167969 5.906410217285156 54.40157318115234 C 7.769813537597656 58.80714797973633 10.43805694580078 62.76438903808594 13.83704376220703 66.16336059570312 C 17.23602676391602 69.56234741210938 21.19326782226562 72.2305908203125 25.59883880615234 74.09398651123047 C 30.15843963623047 76.02255249023438 35.00369262695312 77.00040435791016 39.99997329711914 77.00040435791016 C 44.99625396728516 77.00040435791016 49.84150695800781 76.02255249023438 54.40110778808594 74.09398651123047 C 58.80667877197266 72.2305908203125 62.76391983032227 69.56234741210938 66.16290283203125 66.16336059570312 C 69.5618896484375 62.76438903808594 72.23013305664062 58.80714797973633 74.09353637695312 54.40157318115234 C 76.0220947265625 49.84196472167969 76.99994659423828 44.99672317504883 76.99994659423828 39.99997711181641 C 76.99994659423828 35.00368118286133 76.0220947265625 30.15844345092773 74.09353637695312 25.59882736206055 C 72.23013305664062 21.19325637817383 69.5618896484375 17.23601531982422 66.16290283203125 13.83704376220703 C 62.76391983032227 10.43805694580078 58.80667877197266 7.769813537597656 54.40110778808594 5.906417846679688 C 49.84150695800781 3.977851867675781 44.99625396728516 3 39.99997329711914 3 M 39.99997329711914 0 C 62.09134674072266 0 79.99994659423828 17.90858840942383 79.99994659423828 39.99997711181641 L 79.99994659423828 40.00042724609375 C 79.99994659423828 62.09181594848633 62.09134674072266 80.00040435791016 39.99997329711914 80.00040435791016 C 17.90859985351562 80.00040435791016 0 62.09181594848633 0 40.00042724609375 L 0 39.99997711181641 C 0 17.90858840942383 17.90859985351562 0 39.99997329711914 0 Z" stroke="none" fill="#fff"/>
                  </g>
                </g>
              </g>
            </g>
          </g>
        </g>
      </g>
    </g>
    <g id="granero" transform="translate(1194.051 18716)">
      <path id="Path_1242521" data-name="Path 1242521" d="M69.9,46.511,47.19,29.664a.8.8,0,0,0-.953,0L23.531,46.511V63.285H69.9Zm0,0" transform="translate(-21.185 -26.564)" fill="#ff8086"/>
      <path id="Path_1242522" data-name="Path 1242522" d="M191.871,247.984h12.79v11.991h-12.79Zm0,0" transform="translate(-172.737 -223.254)" fill="#785353"/>
      <path id="Path_1242523" data-name="Path 1242523" d="M191.871,247.984h12.79v2.292h-12.79Zm0,0" transform="translate(-172.737 -223.254)" fill="#6e4848"/>
      <path id="Path_1242524" data-name="Path 1242524" d="M26.9,49,44.332,36.063a4,4,0,0,1,4.763,0l20.078,14.9.4.294.328-.165V46.511L47.19,29.664a.8.8,0,0,0-.953,0L23.531,46.511V63.285h2.4V50.923A2.409,2.409,0,0,1,26.9,49Zm0,0" transform="translate(-21.185 -26.564)" fill="#e5646e"/>
      <path id="Path_1242525" data-name="Path 1242525" d="M32.281,7.5,7.5,25.886v4L32.281,11.5,57.063,29.883v-4Zm0,0" transform="translate(-6.752 -6.752)" fill="#f6d190"/>
      <path id="Path_1242526" data-name="Path 1242526" d="M87.66,215.922h33.575v3.2H87.66Zm0,0" transform="translate(-78.918 -194.389)" fill="#e5646e"/>
      <g id="Group_1200935" data-name="Group 1200935" transform="translate(10.341 11.14)">
        <path id="Path_1242527" data-name="Path 1242527" d="M223.934,111.711h6.4v6.4h-6.4Zm0,0" transform="translate(-211.943 -111.711)" fill="#ffe09f"/>
        <path id="Path_1242528" data-name="Path 1242528" d="M103.7,247.984h8.793v11.991H103.7Zm0,0" transform="translate(-103.695 -234.395)" fill="#ffe09f"/>
        <path id="Path_1242529" data-name="Path 1242529" d="M320.129,247.984h8.793v11.991h-8.793Zm0,0" transform="translate(-298.545 -234.395)" fill="#ffe09f"/>
      </g>
      <path id="Path_1242530" data-name="Path 1242530" d="M103.7,247.984h8.793v2.292H103.7Zm0,0" transform="translate(-93.354 -223.254)" fill="#f6d190"/>
      <path id="Path_1242531" data-name="Path 1242531" d="M320.129,247.984h8.793v2.292h-8.793Zm0,0" transform="translate(-288.204 -223.254)" fill="#f6d190"/>
      <path id="Path_1242532" data-name="Path 1242532" d="M49.865,23.732a.748.748,0,0,0,1.194-.6v-4a.748.748,0,0,0-.3-.6L25.975.147a.748.748,0,0,0-.891,0L.3,18.534a.748.748,0,0,0-.3.6v4a.748.748,0,0,0,1.194.6l.405-.3V35.973H.748a.748.748,0,1,0,0,1.5H50.311a.748.748,0,1,0,0-1.5H49.46V23.431ZM18.386,27.015v7.422l-2.721-3.711Zm-3.649,2.446-2.921-3.983h5.842Zm2.921,6.512H11.817l2.921-3.983Zm2.224-10.5H31.177v10.5H19.882Zm12.79,1.537,2.721,3.711-2.721,3.711Zm3.649,4.976,2.921,3.983H33.4Zm.928-1.265,2.721-3.711v7.422Zm1.071-6.743a.748.748,0,0,0,0,1.5h.922l-2.921,3.983L33.4,25.478h1.721a.748.748,0,0,0,0-1.5H9.49v-1.7H41.569v1.7ZM13.81,30.726l-2.721,3.711V27.015Zm34.154-8.394V35.973h-6.5v-10.5h.851a.748.748,0,0,0,.748-.748v-3.2a.748.748,0,0,0-.748-.748H8.742a.748.748,0,0,0-.748.748v3.2a.748.748,0,0,0,.748.748h.851v10.5h-6.5V22.332s0-.006,0-.01l1.332-.988a.748.748,0,0,0-.891-1.2L1.5,21.645V19.511L25.529,1.679,49.563,19.51v2.134L25.975,4.144a.748.748,0,0,0-.891,0L6.7,17.786a.748.748,0,1,0,.891,1.2L25.529,5.676,47.965,22.322S47.964,22.328,47.964,22.332Zm0,0"/>
      <path id="Path_1242533" data-name="Path 1242533" d="M216.438,104.959v6.4a.748.748,0,0,0,.748.748h6.4a.748.748,0,0,0,.748-.748v-6.4a.748.748,0,0,0-.748-.748h-6.4A.748.748,0,0,0,216.438,104.959Zm3.945,4.255,1.392,1.392h-2.784Zm-2.449.334v-2.784l1.392,1.392Zm3.507-1.392,1.392-1.392v2.784Zm-1.058-1.058-1.392-1.392h2.784Zm0,0" transform="translate(-194.853 -93.819)"/>
    </g>
  </g>
</svg>
