<svg xmlns="http://www.w3.org/2000/svg" xmlns:xlink="http://www.w3.org/1999/xlink" width="98" height="98" viewBox="0 0 98 98">
  <defs>
    <filter id="Path_874925" x="0" y="0.002" width="98" height="98" filterUnits="userSpaceOnUse">
      <feOffset dy="3" input="SourceAlpha"/>
      <feGaussianBlur stdDeviation="3" result="blur"/>
      <feFlood flood-opacity="0.161"/>
      <feComposite operator="in" in2="blur"/>
      <feComposite in="SourceGraphic"/>
    </filter>
  </defs>
  <g id="Group_1200934" data-name="Group 1200934" transform="translate(-751.051 -18688.999)">
    <g id="Group_1200876" data-name="Group 1200876" transform="translate(475.051 12597.593)">
      <g id="Group_1187153" data-name="Group 1187153">
        <g id="Group_1182177" data-name="Group 1182177">
          <g id="Group_1181903" data-name="Group 1181903">
            <g id="Group_1181438" data-name="Group 1181438">
              <g id="Group_1111314" data-name="Group 1111314" transform="translate(-734.73 3020.407)">
                <g transform="matrix(1, 0, 0, 1, 1010.73, 3071)" filter="url(#Path_874925)">
                  <g id="Path_874925-2" data-name="Path 874925" transform="translate(9 6)" fill="#ffc94a">
                    <path d="M 39.99997329711914 78.50040435791016 C 34.80184936523438 78.50040435791016 29.76000595092773 77.48268127441406 25.01450729370117 75.47550201416016 C 20.43013954162598 73.53648376464844 16.3126392364502 70.76027679443359 12.7763843536377 67.22402191162109 C 9.240128517150879 63.68776702880859 6.463928699493408 59.57027053833008 4.524906635284424 54.98590087890625 C 2.517728805541992 50.24040222167969 1.500006675720215 45.19855880737305 1.500006675720215 40.00043487548828 C 1.500006675720215 34.80185699462891 2.517728805541992 29.76001358032227 4.524906635284424 25.01451301574707 C 6.463928699493408 20.43013572692871 9.240128517150879 16.31263542175293 12.7763843536377 12.77637958526611 C 16.3126392364502 9.240124702453613 20.43013954162598 6.463935375213623 25.01450729370117 4.52490234375 C 29.76000595092773 2.517724514007568 34.80184936523438 1.500002145767212 39.99997329711914 1.500002145767212 C 45.19809722900391 1.500002145767212 50.23994064331055 2.517724514007568 54.98543930053711 4.52490234375 C 59.56981658935547 6.463935375213623 63.68731689453125 9.240124702453613 67.22357177734375 12.77637958526611 C 70.75982666015625 16.31263542175293 73.53601837158203 20.43013572692871 75.47505187988281 25.01451301574707 C 77.48223114013672 29.76001358032227 78.49995422363281 34.80185699462891 78.49995422363281 39.99998092651367 C 78.49995422363281 45.19855880737305 77.48223114013672 50.24040222167969 75.47505187988281 54.98590087890625 C 73.53601837158203 59.57027053833008 70.75982666015625 63.68776702880859 67.22357177734375 67.22402191162109 C 63.68731689453125 70.76027679443359 59.56981658935547 73.53648376464844 54.98543930053711 75.47550201416016 C 50.23994064331055 77.48268127441406 45.19809722900391 78.50040435791016 39.99997329711914 78.50040435791016 Z" stroke="none"/>
                    <path d="M 39.99997329711914 3 C 35.00369262695312 3 30.15843963623047 3.977851867675781 25.59883880615234 5.906417846679688 C 21.19326782226562 7.769813537597656 17.23602676391602 10.43805694580078 13.83704376220703 13.83704376220703 C 10.43805694580078 17.23601531982422 7.769813537597656 21.19325637817383 5.906410217285156 25.59882736206055 C 3.977851867675781 30.15844345092773 3 35.00368118286133 3 40.00042724609375 C 3 44.99672317504883 3.977851867675781 49.84196472167969 5.906410217285156 54.40157318115234 C 7.769813537597656 58.80714797973633 10.43805694580078 62.76438903808594 13.83704376220703 66.16336059570312 C 17.23602676391602 69.56234741210938 21.19326782226562 72.2305908203125 25.59883880615234 74.09398651123047 C 30.15843963623047 76.02255249023438 35.00369262695312 77.00040435791016 39.99997329711914 77.00040435791016 C 44.99625396728516 77.00040435791016 49.84150695800781 76.02255249023438 54.40110778808594 74.09398651123047 C 58.80667877197266 72.2305908203125 62.76391983032227 69.56234741210938 66.16290283203125 66.16336059570312 C 69.5618896484375 62.76438903808594 72.23013305664062 58.80714797973633 74.09353637695312 54.40157318115234 C 76.0220947265625 49.84196472167969 76.99994659423828 44.99672317504883 76.99994659423828 39.99997711181641 C 76.99994659423828 35.00368118286133 76.0220947265625 30.15844345092773 74.09353637695312 25.59882736206055 C 72.23013305664062 21.19325637817383 69.5618896484375 17.23601531982422 66.16290283203125 13.83704376220703 C 62.76391983032227 10.43805694580078 58.80667877197266 7.769813537597656 54.40110778808594 5.906417846679688 C 49.84150695800781 3.977851867675781 44.99625396728516 3 39.99997329711914 3 M 39.99997329711914 0 C 62.09134674072266 0 79.99994659423828 17.90858840942383 79.99994659423828 39.99997711181641 L 79.99994659423828 40.00042724609375 C 79.99994659423828 62.09181594848633 62.09134674072266 80.00040435791016 39.99997329711914 80.00040435791016 C 17.90859985351562 80.00040435791016 0 62.09181594848633 0 40.00042724609375 L 0 39.99997711181641 C 0 17.90858840942383 17.90859985351562 0 39.99997329711914 0 Z" stroke="none" fill="#fff"/>
                  </g>
                </g>
              </g>
            </g>
          </g>
        </g>
      </g>
    </g>
    <g id="herramientas-de-limpieza" transform="translate(775.051 18710)">
      <path id="Path_1242486" data-name="Path 1242486" d="M459.876,193.938A1.938,1.938,0,1,1,457.938,192,1.938,1.938,0,0,1,459.876,193.938Zm0,0" transform="translate(-411.818 -173.397)" fill="#b3d8f4"/>
      <path id="Path_1242487" data-name="Path 1242487" d="M457.511,193.937a1.938,1.938,0,0,1,1.163-1.774,1.938,1.938,0,1,0,0,3.549A1.938,1.938,0,0,1,457.511,193.937Zm0,0" transform="translate(-411.779 -173.396)" fill="#57a4ff"/>
      <path id="Path_1242488" data-name="Path 1242488" d="M396.651,122.325A2.325,2.325,0,1,1,394.325,120,2.325,2.325,0,0,1,396.651,122.325Zm0,0" transform="translate(-354.019 -108.373)" fill="#b3d8f4"/>
      <path id="Path_1242489" data-name="Path 1242489" d="M393.55,122.325a2.318,2.318,0,0,1,1.55-2.183,2.3,2.3,0,0,0-.775-.143,2.325,2.325,0,0,0,0,4.651,2.3,2.3,0,0,0,.775-.143A2.318,2.318,0,0,1,393.55,122.325Zm0,0" transform="translate(-354.019 -108.373)" fill="#57a4ff"/>
      <path id="Path_1242490" data-name="Path 1242490" d="M265.405,302.2,264,296h21.7l-4.568,20.153h-8.609" transform="translate(-238.421 -267.32)" fill="#fff5cc"/>
      <path id="Path_1242491" data-name="Path 1242491" d="M267.876,296H264l1.405,6.2,7.121,13.952H276.4l-4.231-8.289A50.81,50.81,0,0,1,267.876,296Zm0,0" transform="translate(-238.421 -267.32)" fill="#ffb655"/>
      <path id="Path_1242492" data-name="Path 1242492" d="M344,296h4.651v3.1H344Zm0,0" transform="translate(-310.67 -267.32)" fill="#898890"/>
      <path id="Path_1242493" data-name="Path 1242493" d="M272.8,265.55a1.562,1.562,0,0,1-1.55,1.55h-21.7a1.55,1.55,0,1,1,0-3.1h21.7A1.555,1.555,0,0,1,272.8,265.55Zm0,0" transform="translate(-223.971 -238.421)" fill="#ffb655"/>
      <path id="Path_1242494" data-name="Path 1242494" d="M8,384H43.656v3.876H8Zm0,0" transform="translate(-7.225 -346.794)" fill="#57a4ff"/>
      <path id="Path_1242495" data-name="Path 1242495" d="M253.426,264v3.1H249.55a1.55,1.55,0,1,1,0-3.1Zm0,0" transform="translate(-223.971 -238.421)" fill="#b2782a"/>
      <path id="Path_1242496" data-name="Path 1242496" d="M107.627,320h-4.651a7.984,7.984,0,0,1-6.845,3.876H96V326.2h18.6v-2.325h-.131A7.984,7.984,0,0,1,107.627,320Zm0,0" transform="translate(-86.698 -288.995)" fill="#c6c5ca"/>
      <path id="Path_1242497" data-name="Path 1242497" d="M114.6,323.876V326.2H96v-2.325h.132A8.006,8.006,0,0,0,102.976,320h4.651a7.984,7.984,0,0,0,6.844,3.876Zm0,0" transform="translate(-86.698 -288.995)" fill="#898890"/>
      <path id="Path_1242498" data-name="Path 1242498" d="M8,384h5.426v3.876H8Zm0,0" transform="translate(-7.225 -346.794)" fill="#006df0"/>
      <path id="Path_1242499" data-name="Path 1242499" d="M104.526,320a6.2,6.2,0,0,1-6.2,6.2H96v-2.325h.132A8.006,8.006,0,0,0,102.976,320Zm0,0" transform="translate(-86.698 -288.995)" fill="#3e3d42"/>
      <path id="Path_1242500" data-name="Path 1242500" d="M172.65,10.325V37.454a.775.775,0,0,1-.775.775h-3.1a.775.775,0,0,1-.775-.775V10.325a2.3,2.3,0,0,1,1.55-2.186,2.151,2.151,0,0,1,.775-.14A2.326,2.326,0,0,1,172.65,10.325Zm0,0" transform="translate(-151.722 -7.225)" fill="#b3d8f4"/>
      <path id="Path_1242501" data-name="Path 1242501" d="M48.219,431.751H17.214l-.361-.452a5.481,5.481,0,0,1,0-6.847l.361-.452H48.219A5.481,5.481,0,0,1,48.219,431.751Zm0,0" transform="translate(-14.135 -382.918)" fill="#c6c5ca"/>
      <path id="Path_1242502" data-name="Path 1242502" d="M169.55,9.441v30.09h-.775a.775.775,0,0,1-.775-.775V11.627A2.3,2.3,0,0,1,169.55,9.441Zm0,0" transform="translate(-151.722 -8.527)" fill="#57a4ff"/>
      <path id="Path_1242503" data-name="Path 1242503" d="M20.728,424.452l.361-.452H17.214l-.361.452a5.481,5.481,0,0,0,0,6.847l.361.452h3.876l-.361-.452A5.481,5.481,0,0,1,20.728,424.452Zm0,0" transform="translate(-14.135 -382.918)" fill="#898890"/>
      <path id="Path_1242504" data-name="Path 1242504" d="M72,155.1a3.1,3.1,0,0,1,3.1,3.1,3.1,3.1,0,0,1,3.1-3.1,3.1,3.1,0,0,1-3.1-3.1A3.1,3.1,0,0,1,72,155.1Zm0,0" transform="translate(-65.024 -137.273)" fill="#ffb655"/>
      <path id="Path_1242505" data-name="Path 1242505" d="M312,19.1a3.1,3.1,0,0,1,3.1,3.1,3.1,3.1,0,0,1,3.1-3.1,3.1,3.1,0,0,1-3.1-3.1A3.1,3.1,0,0,1,312,19.1Zm0,0" transform="translate(-281.77 -14.45)" fill="#ffb655"/>
      <path id="Path_1242506" data-name="Path 1242506" d="M49.608,27.129A2.325,2.325,0,0,0,47.283,24.8h-21.7a2.319,2.319,0,0,0-.643,4.549l1.024,4.52a7.247,7.247,0,0,1-4.327-3.2,1.527,1.527,0,0,0,.07-.439V3.1a3.1,3.1,0,1,0-6.2,0V30.23a1.527,1.527,0,0,0,.07.435,7.241,7.241,0,0,1-6.14,3.441H9.3a.775.775,0,0,0-.775.775v1.55H.775A.775.775,0,0,0,0,37.206v3.876a.775.775,0,0,0,.775.775h.8a6.21,6.21,0,0,0,.543,7.009l.361.452a.775.775,0,0,0,.6.291H42.714a.775.775,0,0,0,.757-.6L45.4,40.5a4.383,4.383,0,0,0,2.315-6.853l-.585-.775.8-3.514A2.325,2.325,0,0,0,49.608,27.129ZM17.053,3.1a1.55,1.55,0,1,1,3.1,0V30.23h-3.1ZM10.077,35.632A8.818,8.818,0,0,0,16.7,31.78h3.8a8.818,8.818,0,0,0,6.628,3.852v.8H10.077ZM1.55,40.307V37.981H35.656v2.325Zm32.2,7.751H3.452L3.323,47.9a4.68,4.68,0,0,1,0-5.879l.129-.161h30.3A4.715,4.715,0,0,1,33.749,48.058Zm8.347,0H35.618a6.268,6.268,0,0,0,.017-6.2h.8a.775.775,0,0,0,.775-.775V37.206a.775.775,0,0,0-.775-.775H28.68v-1.55a.775.775,0,0,0-.775-.775h-.131c-.058,0-.114-.01-.172-.012L26.55,29.455h6.006V31.78a.775.775,0,0,0,.775.775H35.3l5.553,6.561a4.378,4.378,0,0,0,2.928,1.531Zm-7.99-17.053v-1.55h3.1v1.55Zm10.017,8.109a2.832,2.832,0,0,1-2.093-1l-4.7-5.56h.654a.775.775,0,0,0,.775-.775V29.455h7.556Zm2.234-.985a2.855,2.855,0,0,1-.527.465l.84-3.706A2.815,2.815,0,0,1,46.357,38.128ZM47.283,27.9h-21.7a.775.775,0,0,1,0-1.55h21.7a.775.775,0,0,1,0,1.55Zm0,0"/>
      <path id="Path_1242507" data-name="Path 1242507" d="M450.713,189.426a2.713,2.713,0,1,1,2.713-2.713A2.713,2.713,0,0,1,450.713,189.426Zm0-3.876a1.163,1.163,0,1,0,1.163,1.163A1.163,1.163,0,0,0,450.713,185.55Zm0,0" transform="translate(-404.593 -166.172)"/>
      <path id="Path_1242508" data-name="Path 1242508" d="M387.1,118.2a3.1,3.1,0,1,1,3.1-3.1A3.1,3.1,0,0,1,387.1,118.2Zm0-4.651a1.55,1.55,0,1,0,1.55,1.55A1.55,1.55,0,0,0,387.1,113.55Zm0,0" transform="translate(-346.794 -101.148)"/>
      <path id="Path_1242509" data-name="Path 1242509" d="M56,264h1.55v1.55H56Zm0,0" transform="translate(-50.574 -238.421)"/>
      <path id="Path_1242510" data-name="Path 1242510" d="M80,288h1.55v1.55H80Zm0,0" transform="translate(-72.249 -260.095)"/>
      <path id="Path_1242511" data-name="Path 1242511" d="M56,312h1.55v1.55H56Zm0,0" transform="translate(-50.574 -281.77)"/>
      <path id="Path_1242512" data-name="Path 1242512" d="M32,288h1.55v1.55H32Zm0,0" transform="translate(-28.899 -260.095)"/>
      <path id="Path_1242513" data-name="Path 1242513" d="M280,176h1.55v1.55H280Zm0,0" transform="translate(-252.871 -158.947)"/>
      <path id="Path_1242514" data-name="Path 1242514" d="M304,200h1.55v1.55H304Zm0,0" transform="translate(-274.545 -180.622)"/>
      <path id="Path_1242515" data-name="Path 1242515" d="M280,224h1.55v1.55H280Zm0,0" transform="translate(-252.871 -202.296)"/>
      <path id="Path_1242516" data-name="Path 1242516" d="M256,200h1.55v1.55H256Zm0,0" transform="translate(-231.196 -180.622)"/>
      <path id="Path_1242517" data-name="Path 1242517" d="M67.876,151.751a.775.775,0,0,1-.775-.775,2.325,2.325,0,0,0-2.325-2.325.775.775,0,1,1,0-1.55,2.325,2.325,0,0,0,2.325-2.325.775.775,0,0,1,1.55,0,2.325,2.325,0,0,0,2.325,2.325.775.775,0,1,1,0,1.55,2.325,2.325,0,0,0-2.325,2.325A.775.775,0,0,1,67.876,151.751Zm-.775-3.876a3.9,3.9,0,0,1,.775.775,3.9,3.9,0,0,1,.775-.775,3.9,3.9,0,0,1-.775-.775A3.9,3.9,0,0,1,67.1,147.876Zm0,0" transform="translate(-57.799 -130.048)"/>
      <path id="Path_1242518" data-name="Path 1242518" d="M307.876,15.751a.775.775,0,0,1-.775-.775,2.325,2.325,0,0,0-2.325-2.325.775.775,0,1,1,0-1.55A2.325,2.325,0,0,0,307.1,8.775a.775.775,0,0,1,1.55,0,2.325,2.325,0,0,0,2.325,2.325.775.775,0,0,1,0,1.55,2.325,2.325,0,0,0-2.325,2.325A.775.775,0,0,1,307.876,15.751Zm-.775-3.876a3.9,3.9,0,0,1,.775.775,3.9,3.9,0,0,1,.775-.775,3.9,3.9,0,0,1-.775-.775A3.9,3.9,0,0,1,307.1,11.876Zm0,0" transform="translate(-274.545 -7.225)"/>
      <path id="Path_1242519" data-name="Path 1242519" d="M224,472h11.627v1.55H224Zm0,0" transform="translate(-202.296 -426.268)"/>
      <path id="Path_1242520" data-name="Path 1242520" d="M176,472h3.1v1.55H176Zm0,0" transform="translate(-158.947 -426.268)"/>
    </g>
  </g>
</svg>
